<svg xmlns="http://www.w3.org/2000/svg" xmlns:xlink="http://www.w3.org/1999/xlink" width="96" height="96" viewBox="0 0 96 96"><defs><linearGradient id="b" x1="868.253" x2="937.656" y1="521.354" y2="588.736" gradientTransform="matrix(3.0757 0 0 3.0757 -2653.937 -629.677)" gradientUnits="userSpaceOnUse" xlink:href="#a"/><linearGradient id="a"><stop offset="0" stop-color="#24f3d2"/><stop offset=".394" stop-color="#0674f0"/><stop offset=".507" stop-color="#6961b5"/><stop offset=".813" stop-color="#f34660"/><stop offset="1" stop-color="#ee078d"/></linearGradient></defs><g transform="translate(0 -956.362)"><rect width="96" height="96" y="956.362" fill="url(#b)" rx="20.288" ry="20.288"/><path fill="#fff" fill-rule="evenodd" style="line-height:normal;text-indent:0;text-align:start;text-decoration-line:none;text-decoration-style:solid;text-decoration-color:#000;text-transform:none;block-progression:tb;isolation:auto;mix-blend-mode:normal" d="m 47.999997,972.3619 c -1.098647,0 -2,0.90135 -2,2 0,0.92531 0.641889,1.70295 1.5,1.92773 l 0,0.57227 1,0 0,-0.57227 c 0.335337,-0.0878 0.637434,-0.25628 0.880859,-0.49023 l 0.421875,0.25977 0.525391,-0.85157 -0.425782,-0.26172 C 49.96025,974.7596 50,974.56639 50,974.3619 c 0,-1.09865 -0.901353,-2 -2,-2 z m 0,1 c 0.558207,0 1,0.44179 1,1 0,0.55821 -0.441793,1 -1,1 -0.558208,0 -1,-0.44179 -1,-1 0,-0.55821 0.441792,-1 1,-1 z m -1.978516,1.63086 -0.851562,0.52344 0.52539,0.85156 0.851563,-0.52344 -0.525391,-0.85156 z m 5.158203,0.73828 -0.52539,0.85352 0.851562,0.52343 0.525391,-0.85156 -0.851563,-0.52539 z m -6.861328,0.31055 -0.851562,0.52344 0.52539,0.85156 0.851563,-0.52344 -0.525391,-0.85156 z m 8.564453,0.73828 -0.52539,0.85156 0.851562,0.52539 0.525391,-0.85351 -0.851563,-0.52344 z m -10.267578,0.30859 -0.851562,0.52539 0.523437,0.85157 0.851563,-0.52539 -0.523438,-0.85157 z m 5.384766,0.27344 c -2.479357,0 -4.499997,2.02064 -4.5,4.5 a 0.50005,0.50005 0 0 0 0,0.002 c 6.24e-4,0.16808 0.0451,0.33141 0.06445,0.49805 l -2.564453,0 c -0.822351,0 -1.5,0.67765 -1.5,1.5 l 0,0.49419 -6.5,0 c -0.117174,0 -0.229956,0.016 -0.341797,0.035 l 0.261719,-0.1622 -0.523438,-0.85146 -0.853515,0.52539 0.453125,0.73447 c -0.596407,0.3487 -1.003907,0.9879 -1.003907,1.7246 l 0,8.2754 -0.425781,-0.2305 -0.474609,0.8808 0.607422,0.3262 0.292968,-0.5449 0,18.31446 -0.179687,-0.3339 -0.88086,0.4746 0.47461,0.8807 0.585937,-0.3163 0,9.2188 -0.667968,-0.4102 -0.525391,0.8516 0.851562,0.5234 0.341797,-0.5547 0,4.6446 c 0,1.1034 0.904482,2.0078 2.007813,2.0078 l 7.558594,0 0.763671,0.4707 0.289063,-0.4707 5.888672,0 0,0.1601 1,0 0,-0.1601 5.908203,0 0.283203,0.459 0.746094,-0.459 7.5625,0 c 1.103332,0 2.007814,-0.9044 2.007812,-2.0078 l 0,-4.4981 0.275391,0.4473 0.851562,-0.5254 -0.52539,-0.8516 -0.601563,0.3711 0,-9.2168 0.677735,0.3653 0.474609,-0.8809 -0.880859,-0.4746 -0.271485,0.5039 0,-18.05476 0.09375,0.1738 0.798828,-0.4297 -0.472656,-0.8808 -0.419922,0.2266 0,-8.2754 c 0,-0.448 -0.153284,-0.8605 -0.404297,-1.1954 l 0.529297,0.3262 0.523438,-0.8515 -0.851563,-0.5235 -0.466797,0.7598 c -0.248443,-0.2239 -0.551032,-0.3866 -0.886718,-0.4649 l 0.501953,-0.81837 -0.851563,-0.52539 -0.523437,0.85156 0.761719,0.4708 c -0.111245,-0.019 -0.223335,-0.035 -0.339844,-0.035 l -6.5,0 0,-0.49419 c 0,-0.82235 -0.67765,-1.5 -1.5,-1.5 l -2.566406,0 c 0.01953,-0.16602 0.06547,-0.3286 0.06641,-0.49609 a 0.50005,0.50005 0 0 0 0,-0.004 c -3e-6,-2.47936 -2.020643,-4.5 -4.5,-4.5 z m 6.585937,0.4668 -0.52539,0.85156 0.851562,0.52344 0.525391,-0.85157 -0.851563,-0.52343 z m -13.673828,0.30859 -0.851562,0.52344 0.523437,0.85156 0.851563,-0.52344 -0.523438,-0.85156 z m 7.087891,0.22461 c 1.938917,0 3.499997,1.56108 3.5,3.5 -0.0018,0.29475 -0.03989,0.58808 -0.115235,0.87305 a 0.50005,0.50005 0 0 0 0.482422,0.62695 l 3.132813,0 c 0.285668,0 0.5,0.21433 0.5,0.5 l 0,4.00004 c 0,0.2857 -0.214337,0.5 -0.5,0.5 l -14,0 c -0.285663,0 -0.5,-0.2143 -0.5,-0.5 l 0,-4.00004 c 0,-0.28567 0.214331,-0.5 0.5,-0.5 l 3.130859,0 a 0.50005,0.50005 0 0 0 0.484375,-0.62695 c -0.07493,-0.28567 -0.114136,-0.57967 -0.115234,-0.875 0.0011,-1.938 1.561749,-3.49805 3.5,-3.49805 z m 8.289062,0.51367 -0.523437,0.85352 0.851562,0.52344 0.523438,-0.85157 -0.851563,-0.52539 z m -17.080078,0.31055 -0.851562,0.52344 0.523437,0.85156 0.851563,-0.52344 -0.523438,-0.85156 z m 8.791016,0.17578 c -1.374789,0 -2.499998,1.12521 -2.5,2.5 -6e-6,1.37479 1.125206,2.50004 2.5,2.50004 1.374792,0 2.500005,-1.12525 2.5,-2.50004 -3e-6,-1.37479 -1.125211,-2.5 -2.5,-2.5 z m 9.992187,0.5625 -0.523437,0.85156 0.851562,0.52539 0.523438,-0.85156 -0.851563,-0.52539 z m -20.486329,0.30859 -0.851562,0.52539 0.523437,0.85157 0.851563,-0.52539 -0.523438,-0.85157 z m 10.494142,0.12891 c 0.834347,0 1.499999,0.66565 1.5,1.5 3e-6,0.83435 -0.66565,1.5 -1.5,1.5 -0.834351,0 -1.500003,-0.66565 -1.5,-1.5 10e-7,-0.83435 0.665652,-1.5 1.5,-1.5 z m 11.695312,0.61133 -0.523437,0.85156 0.851562,0.52344 0.523438,-0.85156 -0.851563,-0.52344 z m -23.892578,0.30859 -0.851562,0.52344 0.523437,0.85156 0.851563,-0.52344 -0.523438,-0.85156 z m 25.595703,0.74024 -0.523437,0.85156 0.851562,0.52344 0.523438,-0.85157 -0.851563,-0.52343 z m -27.298829,0.30859 -0.851562,0.52344 0.523437,0.85156 0.851563,-0.52344 -0.523438,-0.85156 z m -3.408203,2.09379 -0.851562,0.5234 0.52539,0.8535 0.851563,-0.5254 -0.525391,-0.8515 z m 35.816407,0.7402 -0.523437,0.8516 0.851563,0.5234 0.525389,-0.8516 -0.853515,-0.5234 z m -33.507812,0.1914 6.5,0 0,0.998 -5.007813,0 a 0.50005,0.50005 0 0 0 -0.5,0.5 l 0,40.01766 a 0.50005,0.50005 0 0 0 0.5,0.5 l 22.191406,0 a 0.50005,0.50005 0 0 0 0.361329,-0.1523 l 4.824218,-5.002 a 0.50005,0.50005 0 0 0 0.138672,-0.3476 l 0,-35.01576 a 0.50005,0.50005 0 0 0 -0.5,-0.5 l -5.007812,0 0,-0.998 6.5,0 c 0.566633,0 1.007813,0.4393 1.007812,1.0059 l 0,42.00006 c 0,0.5667 -0.441178,1.0078 -1.007812,1.0078 l -30,0 c -0.566634,0 -1.007813,-0.4411 -1.007813,-1.0078 l 0,-42.00006 c 0,-0.5666 0.441179,-1.0059 1.007813,-1.0059 z m -4.011719,0.1172 -0.851563,0.5234 0.525391,0.8516 0.851563,-0.5234 -0.525391,-0.8516 z m 39.224609,0.7383 -0.52539,0.8515 0.851562,0.5254 0.52539,-0.8515 -0.851562,-0.5254 z m -40.927734,0.3086 -0.851563,0.5254 0.525391,0.8515 0.851563,-0.5234 -0.525391,-0.8535 z m 42.630859,0.7402 -0.52539,0.8516 0.851563,0.5234 0.525389,-0.8516 -0.851562,-0.5234 z m -34.923828,0.094 4.507813,0 0,0.5079 c 0,0.8224 0.677642,1.5 1.5,1.5 l 14,0 c 0.822356,0 1.5,-0.6776 1.5,-1.5 l 0,-0.5079 4.507812,0 0,34.00796 -4.507812,0 a 0.50005,0.50005 0 0 0 -0.5,0.5 l 0,4.5097 -21.007813,0 0,-39.01766 z m -9.410156,0.2149 -0.851563,0.5234 0.523438,0.8535 0.851562,-0.5253 -0.523437,-0.8516 z m 46.037109,0.7402 -0.52539,0.8516 0.851562,0.5234 0.52539,-0.8515 -0.851562,-0.5235 z m -49.61914,0.0525 c -1.098648,0 -2,0.9014 -2,2 0,0.9253 0.64189,1.7029 1.5,1.9277 l 0,0.5703 1,0 0,-0.5703 c 0.373038,-0.098 0.703179,-0.2972 0.958984,-0.5723 l 0.46875,0.252 0.474609,-0.8809 -0.466797,-0.2519 c 0.03807,-0.1534 0.06445,-0.3101 0.06445,-0.4746 0,-0.2039 -0.0401,-0.3983 -0.09766,-0.584 l 0.500001,-0.3067 -0.523438,-0.8515 -0.496094,0.3047 c -0.36023,-0.3468 -0.847293,-0.5625 -1.382812,-0.5625 z m 52,0 c -1.098647,0 -2,0.9014 -2,2 0,0.1645 0.02638,0.3212 0.06445,0.4746 l -0.474609,0.2558 0.474609,0.8809 0.476562,-0.2559 c 0.255804,0.2751 0.585946,0.4746 0.958985,0.5723 l 0,0.541 1,0 0,-0.541 c 0.858109,-0.2248 1.5,-1.0024 1.5,-1.9277 0,-1.0986 -0.901353,-2 -2,-2 z m -52,1 c 0.558207,0 1,0.4418 1,1 0,0.5582 -0.441793,1 -1,1 -0.558208,0 -1,-0.4418 -1,-1 0,-0.5582 0.441792,-1 1,-1 z m 52,0 c 0.558207,0 1,0.4418 1,1 0,0.5582 -0.441793,1 -1,1 -0.558208,0 -1,-0.4418 -1,-1 0,-0.5582 0.441792,-1 1,-1 z m -48.716797,2.2011 -0.47461,0.8809 0.88086,0.4726 0.474609,-0.8789 -0.880859,-0.4746 z m 45.42578,0 -0.878906,0.4746 0.472656,0.879 0.880861,-0.4727 -0.474611,-0.8809 z m -43.666015,0.9434 -0.472656,0.8809 0.88086,0.4746 0.472656,-0.8809 -0.88086,-0.4746 z m 41.906251,0 -0.880861,0.4746 0.474611,0.8809 0.878906,-0.4746 -0.472656,-0.8809 z m -25.449219,0.3457 a 0.50005,0.50005 0 0 0 -0.347657,0.8594 l 1.146485,1.1465 -1.146485,1.1464 a 0.50005,0.50005 0 1 0 0.707032,0.7071 l 1.146484,-1.1465 1.146484,1.1465 a 0.50005,0.50005 0 1 0 0.707032,-0.7071 l -1.146485,-1.1464 1.146485,-1.1465 a 0.50005,0.50005 0 0 0 -0.363282,-0.8594 0.50005,0.50005 0 0 0 -0.34375,0.1523 l -1.146484,1.1465 -1.146484,-1.1465 a 0.50005,0.50005 0 0 0 -0.359375,-0.1523 z m 6,0 a 0.50005,0.50005 0 0 0 -0.347657,0.8594 l 1.146485,1.1465 -1.146485,1.1464 a 0.50005,0.50005 0 1 0 0.707032,0.7071 l 1.146484,-1.1465 1.146484,1.1465 a 0.50005,0.50005 0 1 0 0.707032,-0.7071 l -1.146485,-1.1464 1.146485,-1.1465 a 0.50005,0.50005 0 0 0 -0.363282,-0.8594 0.50005,0.50005 0 0 0 -0.34375,0.1523 l -1.146484,1.1465 -1.146484,-1.1465 a 0.50005,0.50005 0 0 0 -0.359375,-0.1523 z m 6,0 a 0.50005,0.50005 0 0 0 -0.347657,0.8594 l 1.146485,1.1465 -1.146485,1.1464 a 0.50005,0.50005 0 1 0 0.707032,0.7071 l 1.146484,-1.1465 1.146484,1.1465 a 0.50005,0.50005 0 1 0 0.707032,-0.7071 l -1.146485,-1.1464 1.146485,-1.1465 a 0.50005,0.50005 0 0 0 -0.363282,-0.8594 0.50005,0.50005 0 0 0 -0.34375,0.1523 l -1.146484,1.1465 -1.146484,-1.1465 a 0.50005,0.50005 0 0 0 -0.359375,-0.1523 z m -16.5,0.01 c -1.098647,0 -2,0.9014 -2,2 0,0.9253 0.641889,1.7029 1.5,1.9277 l 0,2.0371 a 0.50005,0.50005 0 0 0 0,0.035 l 0,0.094 0,0.9063 c 0,0.82246 0.677642,1.50006 1.5,1.50006 l 2.853515,0 6.115235,0 1.03125,0 c 0.285648,0 0.5,0.2144 0.5,0.5 l 0,1 0,1.4726 a 0.50005,0.50005 0 0 0 0,0.035 l 0,0.8418 0,0.1582 c 0,0.2857 -0.214351,0.5 -0.5,0.5 l -1.052735,0 a 0.50005,0.50005 0 0 0 -0.09375,-0.01 l -2.853515,0 c -0.822352,0 -1.5,0.6777 -1.5,1.5 l 0,9.5703 c -0.858111,0.2248 -1.5,1.0044 -1.5,1.9297 0,1.0987 0.901353,2 2,2 1.098647,0 2,-0.9013 2,-2 0,-0.9253 -0.64189,-1.7049 -1.5,-1.9297 l 0,-9.5703 c 0,-0.2856 0.214351,-0.5 0.5,-0.5 l 1.0625,0 a 0.50005,0.50005 0 0 0 0.08398,0.01 l 2.853516,0 c 0.822352,0 1.5,-0.6776 1.5,-1.5 l 0,-1 0,-1.4746 a 0.50005,0.50005 0 0 0 0,-0.033 l 0,-0.6875 0,-0.3125 c 0,-0.8223 -0.677649,-1.5 -1.5,-1.5 l -1.03125,0 -6.115234,0 -2.853516,0 c -0.285663,0 -0.5,-0.2143 -0.5,-0.50006 l 0,-1 0,-2.0723 c 0.85811,-0.2248 1.5,-1.0024 1.5,-1.9277 0,-1.0986 -0.901353,-2 -2,-2 z m -10.195313,0.5976 -0.474609,0.8809 0.880859,0.4726 0.47461,-0.8808 -0.88086,-0.4727 z m 38.382813,0 -0.88086,0.4746 0.47461,0.8789 0.880858,-0.4726 -0.474608,-0.8809 z m 6.3125,0.3653 0,1 1,0 0,-1 -1,0 z m -52,0.031 0,1 1,0 0,-1 -1,0 z m 17.5,0 c 0.558207,0 1,0.4418 1,1 0,0.5582 -0.441793,1 -1,1 -0.558208,0 -1,-0.4418 -1,-1 0,-0.5582 0.441792,-1 1,-1 z m 34.5,1.9668 0,1 1,0 0,-1 -1,0 z m -52,0.031 0,1 1,0 0,-1 -1,0 z m 52,1.9688 0,1 1,0 0,-1 -1,0 z m -52,0.031 0,1 1,0 0,-1 -1,0 z m 34,0.9922 a 0.50005,0.50005 0 0 0 -0.347657,0.8594 l 1.146485,1.14656 -1.146485,1.1464 a 0.50005,0.50005 0 1 0 0.707032,0.7071 l 1.146484,-1.1465 1.146484,1.1465 a 0.50005,0.50005 0 1 0 0.707032,-0.7071 l -1.146485,-1.1464 1.146485,-1.14656 a 0.50005,0.50005 0 0 0 -0.363282,-0.8594 0.50005,0.50005 0 0 0 -0.34375,0.1523 l -1.146484,1.14656 -1.146484,-1.14656 a 0.50005,0.50005 0 0 0 -0.359375,-0.146 z m 18,0.9766 0,1.00006 1,0 0,-1.00006 -1,0 z m -52,0.031 0,1.00006 1,0 0,-1.00006 -1,0 z m 52,1.96886 0,1 1,0 0,-1 -1,0 z m -52,0.031 0,1 1,0 0,-1 -1,0 z m 52,1.9688 0,1 1,0 0,-1 -1,0 z m -52,0.031 0,1 1,0 0,-1 -1,0 z m 15.990234,0.9922 a 0.50005,0.50005 0 0 0 -0.349609,0.8594 l 1.146484,1.1465 -1.146484,1.1464 a 0.50005,0.50005 0 1 0 0.707031,0.7071 l 1.146484,-1.1465 1.146485,1.1465 a 0.50005,0.50005 0 1 0 0.707031,-0.7071 l -1.146484,-1.1464 1.146484,-1.1465 a 0.50005,0.50005 0 0 0 -0.363281,-0.8594 0.50005,0.50005 0 0 0 -0.34375,0.1523 l -1.146485,1.1465 -1.146484,-1.1465 a 0.50005,0.50005 0 0 0 -0.357422,-0.1523 z m 18.009766,0 a 0.50005,0.50005 0 0 0 -0.347657,0.8594 l 1.146485,1.1465 -1.146485,1.1464 a 0.50005,0.50005 0 1 0 0.707032,0.7071 l 1.146484,-1.1465 1.146484,1.1465 a 0.50005,0.50005 0 1 0 0.707032,-0.7071 l -1.146485,-1.1464 1.146485,-1.1465 a 0.50005,0.50005 0 0 0 -0.363282,-0.8594 0.50005,0.50005 0 0 0 -0.34375,0.1523 l -1.146484,1.1465 -1.146484,-1.1465 a 0.50005,0.50005 0 0 0 -0.359375,-0.1454 z m 18,0.9766 0,1 1,0 0,-1 -1,0 z m -52,0.031 0,1 1,0 0,-1 -1,0 z m 52,1.9688 0,1 1,0 0,-1 -1,0 z m -52,0.031 0,1 1,0 0,-1 -1,0 z m 52,1.9688 0,1 1,0 0,-1 -1,0 z m -52,0.031 0,1 1,0 0,-1 -1,0 z m 15.990234,0.9922 a 0.50005,0.50005 0 0 0 -0.349609,0.8594 l 1.146484,1.1465 -1.146484,1.1464 a 0.50005,0.50005 0 1 0 0.707031,0.7071 l 1.146484,-1.1465 1.146485,1.1465 a 0.50005,0.50005 0 1 0 0.707031,-0.7071 l -1.146484,-1.1464 1.146484,-1.1465 a 0.50005,0.50005 0 0 0 -0.363281,-0.8594 0.50005,0.50005 0 0 0 -0.34375,0.1523 l -1.146485,1.1465 -1.146484,-1.1465 a 0.50005,0.50005 0 0 0 -0.357422,-0.1523 z m 12,0 a 0.50005,0.50005 0 0 0 -0.349609,0.8594 l 1.146484,1.1465 -1.146484,1.1464 a 0.50005,0.50005 0 1 0 0.707031,0.7071 l 1.146484,-1.1465 1.146485,1.1465 a 0.50005,0.50005 0 1 0 0.707031,-0.7071 l -1.146484,-1.1464 1.146484,-1.1465 a 0.50005,0.50005 0 0 0 -0.363281,-0.8594 0.50005,0.50005 0 0 0 -0.34375,0.1523 l -1.146485,1.1465 -1.146484,-1.1465 a 0.50005,0.50005 0 0 0 -0.357422,-0.1523 z m 6.009766,0 a 0.50005,0.50005 0 0 0 -0.347657,0.8594 l 1.146485,1.1465 -1.146485,1.1464 a 0.50005,0.50005 0 1 0 0.707032,0.7071 l 1.146484,-1.1465 1.146484,1.1465 a 0.50005,0.50005 0 1 0 0.707032,-0.7071 l -1.146485,-1.1464 1.146485,-1.1465 a 0.50005,0.50005 0 0 0 -0.363282,-0.8594 0.50005,0.50005 0 0 0 -0.34375,0.1523 l -1.146484,1.1465 -1.146484,-1.1465 a 0.50005,0.50005 0 0 0 -0.359375,-0.1448 z m 18,0.9766 0,1 1,0 0,-1 -1,0 z m -52,0.029 0,1 1,0 0,-1 -1,0 z m 52,1.9687 0,1 1,0 0,-1 -1,0 z m -52,0.031 0,1 1,0 0,-1 -1,0 z m 7.550781,0.1406 -0.880859,0.4726 0.474609,0.8809 0.880859,-0.4746 -0.474609,-0.8789 z m 37.990234,0.049 -0.474609,0.8809 0.880859,0.4726 0.472656,-0.8789 -0.878906,-0.4746 z m -39.75,0.8984 -0.880859,0.4747 0.474609,0.8808 0.878907,-0.4746 -0.472657,-0.8809 z m 41.509766,0.049 -0.47461,0.8808 0.88086,0.4746 0.474609,-0.8808 -0.880859,-0.4746 z m 4.699219,0.832 0,0.6055 c -0.374051,0.098 -0.704853,0.3 -0.960938,0.5761 l -0.216797,-0.1171 -0.472657,0.8808 0.214844,0.1153 c -0.03778,0.1527 -0.06445,0.3107 -0.06445,0.4746 0,0.2038 0.0401,0.3962 0.09766,0.582 l -0.525389,0.3223 0.523437,0.8515 0.521484,-0.3203 c 0.360307,0.3472 0.846892,0.5645 1.382812,0.5645 1.098647,0 2,-0.9013 2,-2 0,-0.9253 -0.641889,-1.7049 -1.5,-1.9297 l 0,-0.6055 -1,0 z m -52,0.031 0,0.5742 c -0.85811,0.2248 -1.5,1.0044 -1.5,1.9297 0,1.0987 0.901352,2 2,2 0.534937,0 1.020742,-0.2164 1.380859,-0.5625 l 0.457031,0.2812 0.523438,-0.8516 -0.458985,-0.2832 C 23.96025,1018.7597 24,1018.5665 24,1018.362 c 0,-0.1637 -0.02482,-0.3221 -0.0625,-0.4746 l 0.304687,-0.1641 -0.474609,-0.8809 -0.306641,0.166 c -0.256085,-0.2761 -0.586888,-0.4781 -0.960937,-0.5761 l 0,-0.5742 -1,0 z m 4.029297,0.037 -0.88086,0.4726 0.47461,0.8809 0.880859,-0.4746 -0.474609,-0.8789 z m 45.033203,0.049 -0.47461,0.8809 0.88086,0.4726 0.474608,-0.8789 -0.880858,-0.4746 z m -21.072266,0.9082 a 0.50005,0.50005 0 0 0 -0.349609,0.8594 l 1.146484,1.1465 -1.146484,1.1464 a 0.50005,0.50005 0 1 0 0.707031,0.7071 l 1.146484,-1.1465 1.146485,1.1465 a 0.50005,0.50005 0 1 0 0.707031,-0.7071 l -1.146484,-1.1464 1.146484,-1.1465 a 0.50005,0.50005 0 0 0 -0.363281,-0.8594 0.50005,0.50005 0 0 0 -0.34375,0.1523 l -1.146485,1.1465 -1.146484,-1.1465 a 0.50005,0.50005 0 0 0 -0.357422,-0.1523 z m -27.490234,0.5178 c 0.558207,0 1,0.4418 1,1 0,0.5582 -0.441793,1 -1,1 -0.558208,0 -1,-0.4418 -1,-1 0,-0.5582 0.441792,-1 1,-1 z m 52,0 c 0.558207,0 1,0.4418 1,1 0,0.5582 -0.441793,1 -1,1 -0.558208,0 -1,-0.4418 -1,-1 0,-0.5582 0.441792,-1 1,-1 z m -29,0.5 c 0.558207,0 1,0.4418 1,1 0,0.5582 -0.441793,1 -1,1 -0.558208,0 -1,-0.4418 -1,-1 0,-0.5582 0.441792,-1 1,-1 z m -19.78711,1.8906 -0.523437,0.8515 0.851562,0.5235 0.523438,-0.8516 -0.851563,-0.5234 z m 45.507812,0.037 -0.851562,0.5254 0.523437,0.8515 0.851563,-0.5253 -0.523438,-0.8516 z m -43.802734,1.0117 -0.52539,0.8516 0.851562,0.5234 0.525391,-0.8515 -0.851563,-0.5235 z m 42.099609,0.037 -0.853515,0.5235 0.52539,0.8515 0.851563,-0.5234 -0.523438,-0.8516 z m -40.396484,1.0098 -0.52539,0.8516 0.851562,0.5253 0.525391,-0.8515 -0.851563,-0.5254 z m 38.691407,0.039 -0.851562,0.5234 0.525389,0.8516 0.851563,-0.5235 -0.52539,-0.8515 z m -10.3125,0.4749 3.292968,0 -3.292968,3.2929 0,-3.2929 z m -3.685547,8.1386 -0.851563,0.5254 0.525391,0.8516 0.851562,-0.5254 -0.52539,-0.8516 z m -10.617188,0.012 -0.523437,0.8515 0.851562,0.5235 0.523438,-0.8516 -0.851563,-0.5234 z m 4.802735,1.0175 0,0.9024 c -0.335877,0.088 -0.639186,0.2576 -0.882813,0.4922 l -0.513672,-0.3164 -0.523437,0.8515 0.517578,0.3184 c -0.05756,0.1857 -0.09766,0.3801 -0.09766,0.584 0,1.0987 0.901353,2 1.999999,2 1.098647,0 2,-0.9013 2,-2 0,-0.2045 -0.03974,-0.3997 -0.09766,-0.586 l 0.529297,-0.3261 -0.523438,-0.8516 -0.529297,0.3242 c -0.243096,-0.233 -0.544434,-0.4026 -0.878906,-0.4902 l 0,-0.9024 -1,0 z m 4.111328,0.02 -0.851563,0.5234 0.523438,0.8516 0.851562,-0.5235 -0.523437,-0.8515 z m -7.210938,0.012 -0.523437,0.8515 0.851562,0.5235 0.523438,-0.8516 -0.851563,-0.5234 z m 3.59961,1.7999 c 0.558207,0 1,0.4418 1,1 0,0.5582 -0.441793,1 -1,1 -0.558208,0 -1,-0.4418 -1,-1 0,-0.5582 0.441792,-1 1,-1 z" color="#000" font-family="sans-serif" font-weight="400" overflow="visible" white-space="normal"/></g></svg>