<svg xmlns="http://www.w3.org/2000/svg" xmlns:xlink="http://www.w3.org/1999/xlink" width="96" height="96" viewBox="0 0 96 96"><defs><linearGradient id="b" x1="906.952" x2="931.379" y1="515.915" y2="546.094" gradientTransform="matrix(3.0757 0 0 3.0757 -2777.437 -629.677)" gradientUnits="userSpaceOnUse" xlink:href="#a"/><linearGradient id="a"><stop offset="0" stop-color="#ffd800"/><stop offset="1" stop-color="#ff6100"/></linearGradient></defs><g transform="translate(0 -956.362)"><rect width="96" height="96" y="956.362" fill="url(#b)" rx="20.288" ry="20.288"/><path fill="#fff" style="line-height:normal;text-indent:0;text-align:start;text-decoration-line:none;text-decoration-style:solid;text-decoration-color:#000;text-transform:none;block-progression:tb;isolation:auto;mix-blend-mode:normal" d="m 28.460899,978.36009 a 0.50005,0.50005 0 0 0 -0.5,0.5 l 0,6.03904 a 0.50005,0.50005 0 0 0 0.5,0.5 l 42.078124,0 a 0.50005,0.50005 0 0 0 0.5,-0.5 l 0,-6.03904 a 0.50005,0.50005 0 0 0 -0.5,-0.5 l -42.078124,0 z m 0.5,1 41.078124,0 0,5.03904 -1.039062,0 0,-2.03904 -1,0 0,2.03904 -1,0 0,-1.039 -1,0 0,1.039 -1,0 0,-2.03904 -1,0 0,2.03904 -1,0 0,-1.039 -1,0 0,1.039 -1,0 0,-2.03904 -1,0 0,2.03904 -1,0 0,-1.039 -1,0 0,1.039 -1,0 0,-2.03904 -1,0 0,2.03904 -1,0 0,-1.039 -1,0 0,1.039 -1,0 0,-2.03904 -1,0 0,2.03904 -1,0 0,-1.039 -1,0 0,1.039 -1,0 0,-2.03904 -1,0 0,2.03904 -1,0 0,-1.039 -1,0 0,1.039 -1,0 0,-2.03904 -1,0 0,2.03904 -1,0 0,-1.039 -1,0 0,1.039 -1,0 0,-2.03904 -1,0 0,2.03904 -1,0 0,-1.039 -1,0 0,1.039 -1,0 0,-2.03904 -1,0 0,2.03904 -1,0 0,-1.039 -1,0 0,1.039 -1,0 0,-2.03904 -1,0 0,2.03904 -1,0 0,-1.039 -1,0 0,1.039 -1.039062,0 0,-5.03904 z m -3.960938,3 c -1.607217,-3.4e-4 -3.09485,0.85814 -3.898437,2.25004 -0.449786,0.7846 -0.652464,1.6862 -0.582032,2.5879 l -0.002,-0.039 c 0,1.7396 -0.0013,3.0351 -0.0019,4.5644 a 0.50005,0.50005 0 0 0 -0.01563,0.1308 l 0,25.99997 c 0,0 0,0 0,0.01 a 0.50005,0.50005 0 0 0 0.01172,0.1035 c 0.05959,2.4325 2.041431,4.3906 4.488281,4.3906 l 45.5,0 0,3.5059 0,4 a 0.50005,0.50005 0 0 0 0.5,0.5 c 1.606893,0 3.093038,-0.8584 3.896484,-2.25 0.388215,-0.6725 0.584622,-1.4215 0.597657,-2.1719 a 0.50005,0.50005 0 0 0 0.0059,-0.088 l 0,-8 0,-25.99997 c 0,-2.4844 -2.015649,-4.5 -4.5,-4.5 l -45.5,0 0,-0.1934 0,-0.3007 0,-4.00004 a 0.50005,0.50005 0 0 0 -0.5,-0.5 z m -0.5,1.13474 0,3.3653 0,0.3007 0,0.6133 a 0.50005,0.50005 0 0 0 0,0.1602 l 0,2.9258 0,22.63467 c -1.207452,0.1431 -2.260333,0.7501 -2.998047,1.7149 0.0025,-10.8594 0.01563,-17.35927 0.01563,-28.04887 a 0.50005,0.50005 0 0 0 -0.002,-0.037 c -0.05479,-0.7014 0.103251,-1.4032 0.453125,-2.0136 0.536305,-0.9289 1.489959,-1.4565 2.53125,-1.6153 z m 1,4.8594 45.5,0 c 1.947649,0 3.5,1.5523 3.5,3.5 l 0,25.99997 0,5.1875 c -0.820171,-1.0187 -2.049671,-1.6366 -3.375,-1.6738 a 0.50005,0.50005 0 0 0 -0.125,-0.014 l -46,0 c -1.938285,0 -3.483218,-1.5382 -3.498047,-3.4727 a 0.50005,0.50005 0 0 0 0.002,-0.021 c -8.75e-4,-0.6144 0.15916,-1.2177 0.464844,-1.75 0.625731,-1.0837 1.779807,-1.7502 3.03125,-1.75 a 0.50005,0.50005 0 0 0 0.5,-0.5 l 0,-22.99997 0,-2.5059 z m 23.5,1.0059 c -1.099351,0 -2,0.9007 -2,2 0,1.0994 0.900649,2 2,2 l 1,0 0,1 -3.5,0 a 0.50005,0.50005 0 0 0 -0.5,0.5 l 0,0.5 -4.5,0 a 0.50004997,0.50004997 0 0 0 -0.5,0.5 l 0,1 -2.646484,2.6464 a 0.50004997,0.50004997 0 0 0 0,0.70707 l 2.646484,2.6465 0,1.5 -3.033203,0 a 0.50005,0.50005 0 0 0 -0.5,0.5 l 0,1.5 -1.966797,0 a 0.50005,0.50005 0 0 0 -0.5,0.5 l 0,3 a 0.50005,0.50005 0 0 0 0.5,0.5 l 2,0 0,1.5 a 0.50005,0.50005 0 0 0 0.5,0.5 l 3,0 0,1.5 a 0.50005,0.50005 0 0 0 0.5,0.5 l 5.5,0 0,0.5 a 0.50005,0.50005 0 0 0 0.5,0.5 l 2.5,0 0,1 -2,0 c -1.099351,0 -2,0.9007 -2,2 0,1.0994 0.900649,2 2,2 l 5,0 c 1.099351,0 2,-0.9006 2,-2 0,-1.0993 -0.900649,-2 -2,-2 l -2,0 0,-1 2.5,0 a 0.50005,0.50005 0 0 0 0.5,-0.5 l 0,-0.5 3,0 a 0.50005,0.50005 0 0 0 0.5,-0.5 l 0,-3.5 3,0 a 0.50005,0.50005 0 0 0 0.5,-0.5 l 0,-3 a 0.50005,0.50005 0 0 0 -0.5,-0.5 l -3,0 0,-2 3,0 a 0.50005,0.50005 0 0 0 0.5,-0.5 l 0,-3 a 0.50005,0.50005 0 0 0 -0.5,-0.5 l -3,0 0,-4.49997 a 0.50005,0.50005 0 0 0 -0.5,-0.5 l -2,0 0,-0.5 a 0.50005,0.50005 0 0 0 -0.5,-0.5 l -3.5,0 0,-1 1,0 c 1.099351,0 2,-0.9006 2,-2 0,-1.0993 -0.900649,-2 -2,-2 l -3,0 z m 0,1 3,0 c 0.562649,0 1,0.4374 1,1 0,0.5627 -0.437351,1 -1,1 l -3,0 c -0.562649,0 -1,-0.4373 -1,-1 0,-0.5626 0.437351,-1 1,-1 z m -2,5 7,0 0,0.4179 a 0.50005,0.50005 0 0 0 0,0.1641 l 0,1.418 -7,0 0,-2 z m -5,1 4,0 0,1.5 a 0.50005,0.50005 0 0 0 0.5,0.5 l 8,0 a 0.50005,0.50005 0 0 0 0.5,-0.5 l 0,-1.5 1.5,0 0,3.99997 -3,0 a 0.50005,0.50005 0 0 0 -0.5,0.5 l 0,3 a 0.50005,0.50005 0 0 0 0.5,0.5 l 3,0 0,2 -3,0 a 0.50005,0.50005 0 0 0 -0.5,0.5 l 0,3 a 0.50005,0.50005 0 0 0 0.5,0.5 l 3,0 0,3 -2.5,0 0,-1.5 a 0.50005,0.50005 0 0 0 -0.5,-0.5 l -6,0 a 0.50005,0.50005 0 0 0 -0.5,0.5 l 0,1.5 -5,0 0,-1 3,0 a 0.50005,0.50005 0 0 0 0.5,-0.5 l 0,-0.5 0,-1 2,0 a 0.50005,0.50005 0 0 0 0.5,-0.5 l 0,-3 a 0.50005,0.50005 0 0 0 -0.5,-0.5 l -1.982422,0 0,-1.5 a 0.50005,0.50005 0 0 0 -0.5,-0.5 l -3.017578,0 0,-1.5 2.646484,-2.6465 a 0.50004997,0.50004997 0 0 0 0,-0.70707 l -2.646484,-2.6464 0,-0.5 z m -0.542969,1.4589 a 0.50004997,0.50004997 0 0 0 0.08594,0 l 2.042969,2.0411 -2.085938,2.08587 -2.085938,-2.08587 2.042969,-2.0411 z m 12.542969,3.54107 6,0 0,2 -6,0 0,-2 z m -15.533203,4 6.050781,0 0,1 -2.017578,0 a 0.50005,0.50005 0 0 0 -0.5,0.5 l 0,3 a 0.50005,0.50005 0 0 0 0.5,0.5 l 2,0 0,1 -2.921875,0 a 0.50005,0.50005 0 0 0 -0.08594,-0.01 0.50005,0.50005 0 0 0 -0.07422,0.01 l -2.917969,0 0,-1 2,0 a 0.50005,0.50005 0 0 0 0.5,-0.5 l 0,-3 a 0.50005,0.50005 0 0 0 -0.5,-0.5 l -2.033203,0 0,-1 z m -2.466797,2 4,0 0,2 -1.921875,0 a 0.50005,0.50005 0 0 0 -0.08594,-0.01 0.50005,0.50005 0 0 0 -0.07422,0.01 l -1.917969,0 0,-2 z m 7,0 4,0 0,2 -4,0 0,-2 z m 11,0 6,0 0,2 -2.921875,0 a 0.50005,0.50005 0 0 0 -0.08594,-0.01 0.50005,0.50005 0 0 0 -0.07422,0.01 l -2.917969,0 0,-2 z m -6,5 5,0 0,2 -5,0 0,-2 z m 0,5 5,0 c 0.562649,0 1,0.4374 1,1 0,0.5627 -0.437351,1 -1,1 l -5,0 c -0.562649,0 -1,-0.4373 -1,-1 0,-0.5626 0.437351,-1 1,-1 z m 23.5,5.1347 c 1.041092,0.1589 1.995045,0.6866 2.53125,1.6153 0.625582,1.0836 0.625582,2.4165 0,3.5 -0.536205,0.9288 -1.490158,1.4563 -2.53125,1.6152 l 0,-3.3652 0,-3.3653 z m -10.007812,1.8594 a 0.50005,0.50005 0 0 0 -0.07422,0.01 l -24.917969,0 a 0.50004997,0.50004997 0 0 0 -0.220703,0.051 l -4.964844,1.9864 a 0.50005,0.50005 0 0 0 0,0.9277 l 5,2 a 0.50005,0.50005 0 0 0 0.146485,0.033 0.50004997,0.50004997 0 0 0 0.0039,0 0.50005,0.50005 0 0 0 0.0098,0 0.50004997,0.50004997 0 0 0 0.02539,0 0.50005,0.50005 0 0 0 0.0098,0 l 24.914062,0 a 0.50005,0.50005 0 0 0 0.152344,0 l 1.923828,0 2,0 c 0.822356,0 1.5,-0.6776 1.5,-1.5 l 0,-2 c 0,-0.8223 -0.677644,-1.5 -1.5,-1.5 l -1.964844,0 a 0.50004997,0.50004997 0 0 0 -0.03516,0 l -1.921875,0 a 0.50005,0.50005 0 0 0 -0.08594,-0.01 z m -24.492188,1.0059 24,0 0,1 -24,0 0,-1 z m 25,0 1,0 0,3 -1,0 0,-3 z m 2,0 1.5,0 c 0.285662,0 0.5,0.2144 0.5,0.5 l 0,2 c 0,0.2857 -0.214338,0.5 -0.5,0.5 l -1.5,0 0,-3 z m -28,0.2382 0,2.5254 -3.154297,-1.2617 3.154297,-1.2637 z m 1,1.7618 24,0 0,1 -24,0 0,-1 z" color="#000" font-family="sans-serif" font-weight="400" overflow="visible" white-space="normal"/></g></svg>