<svg xmlns="http://www.w3.org/2000/svg" width="64" height="64" viewBox="0 0 64 64"><g transform="translate(-666 -1778.873)"><path fill="#dae7fc" d="M680.13672 1809.3729c-2.01455 0-3.63672 1.6223-3.63672 3.6367l0 10.3633 11.5 0 0-12.4551c0-.5459.11023-1.0608.28516-1.5449l-8.14844 0zM707.71484 1809.3729c.17493.4841.28516.999.28516 1.5449l0 12.4551 11.5 0 0-10.3633c0-2.0144-1.62217-3.6367-3.63672-3.6367l-8.14844 0z"/><path fill="#dae7fc" d="m 692.54547,1806.3729 10.90906,0 c 2.51819,0 4.54547,2.0272 4.54547,4.5454 l 0,14.4546 -20,0 0,-14.4546 c 0,-2.5182 2.02728,-4.5454 4.54547,-4.5454 z"/><circle cx="684.5" cy="1804.373" r="4" fill="#f4f7f8"/><circle cx="711.5" cy="1804.373" r="4" fill="#f4f7f8"/><circle cx="698" cy="1799.373" r="6" fill="#f4f7f8"/><circle cx="698" cy="1780.873" r="1.5" fill="#6ca6fd"/><circle cx="698" cy="1840.873" r="1.5" fill="#6ca6fd"/><circle cx="-724" cy="-1796.873" r="1.5" fill="#6ca6fd" transform="scale(-1)"/><circle cx="-672" cy="-1796.873" r="1.5" fill="#6ca6fd" transform="scale(-1)"/><circle cx="-724" cy="-1824.873" r="1.5" fill="#6ca6fd" transform="scale(-1)"/><circle cx="-672" cy="-1824.873" r="1.5" fill="#6ca6fd" transform="scale(-1)"/><path fill="#b2cdf8" d="m 676.5,1823.3729 11.5,0 0,-12.4551 c 0,-0.5459 0.11023,-1.0608 0.28516,-1.5449 -11.78516,14 0,0 -11.78516,14 z"/><path fill="#546e7a" fill-rule="evenodd" stroke="#0e7bff" stroke-dasharray="1 1" d="M673.28499 1797.5648l5.90266 3.1784m40.56319 21.8604l3.01308 1.6037M722.70762 1797.5688l-5.85986 3.1553m-40.44968 21.5979l-3.23717 1.9258"/><path fill="none" stroke="#0e7bff" stroke-dasharray="1 1" d="m 697.99998,1825.8729 0,13.6"/><path fill="#b2cdf8" d="m 708,1823.3729 11.5,0 0,-10.3633 c 0,-1.0072 -0.40554,-1.9164 -1.0629,-2.5737 -10.4371,12.937 0,0 -10.4371,12.937 z"/><path fill="#546e7a" fill-rule="evenodd" stroke="#0e7bff" stroke-dasharray="1 1" d="m 671.99998,1823.3729 0,-24.9688 m 1.28936,-2.3247 23.4082,-14.4049 m 2.51596,-0.055 23.43522,14.4216 m 1.35126,2.3002 0,25.0938 m -1.31465,2.2465 -23.38465,14.3906 m -2.60663,0 -23.47009,-14.4432"/><circle cx="698" cy="1780.873" r="1.5" fill="none" stroke="#0e7bff" stroke-linecap="round" stroke-linejoin="round"/><circle cx="698" cy="1840.873" r="1.5" fill="none" stroke="#0e7bff" stroke-linecap="round" stroke-linejoin="round"/><circle cx="-724" cy="-1796.873" r="1.5" fill="none" stroke="#0e7bff" stroke-linecap="round" stroke-linejoin="round" transform="scale(-1)"/><circle cx="-672" cy="-1796.873" r="1.5" fill="none" stroke="#0e7bff" stroke-linecap="round" stroke-linejoin="round" transform="scale(-1)"/><circle cx="-724" cy="-1824.873" r="1.5" fill="none" stroke="#0e7bff" stroke-linecap="round" stroke-linejoin="round" transform="scale(-1)"/><circle cx="-672" cy="-1824.873" r="1.5" fill="none" stroke="#0e7bff" stroke-linecap="round" stroke-linejoin="round" transform="scale(-1)"/><path fill="none" stroke="#0e7bff" d="m 680.13672,1809.3729 c -2.01455,0 -3.63672,1.6223 -3.63672,3.6367 l 0,10.3633 11.5,0 0,-12.4551 c 0,-0.5459 0.11023,-1.0608 0.28516,-1.5449 l -8.14844,0 z"/><circle cx="684.5" cy="1804.373" r="4" fill="none" stroke="#0e7bff"/><circle cx="711.5" cy="1804.373" r="4" fill="none" stroke="#0e7bff"/><path fill="#b2cdf8" d="m 706.67159,1807.7013 c 0.82159,0.8216 1.32841,1.9579 1.32841,3.217 l 0,14.4546 -20,0 c 18.67159,-17.6716 0,0 18.67159,-17.6716 z"/><path fill="none" stroke="#0e7bff" d="m 707.71484,1809.3729 c 0.17493,0.4841 0.28516,0.999 0.28516,1.5449 l 0,12.4551 11.5,0 0,-10.3633 c 0,-2.0144 -1.62217,-3.6367 -3.63672,-3.6367 l -8.14844,0 z"/><circle cx="698" cy="1799.373" r="6" fill="none" stroke="#0e7bff"/><rect width="1" height="13" x="692" y="1812.873" fill="#0e7bff" rx="0" ry="0"/><rect width="1" height="13" x="703" y="1812.873" fill="#0e7bff" rx="0" ry="0"/><rect width="1" height="9" x="679" y="1814.873" fill="#0e7bff" rx="0" ry="0"/><rect width="1" height="9" x="716" y="1814.873" fill="#0e7bff" rx="0" ry="0"/><path fill="none" stroke="#0e7bff" stroke-dasharray="1 1" d="m 697.99998,1782.373 0,11.4749"/><path fill="none" stroke="#0e7bff" d="m 692.54547,1806.3729 10.90906,0 c 2.51819,0 4.54547,2.0272 4.54547,4.5454 l 0,14.4546 -20,0 0,-14.4546 c 0,-2.5182 2.02728,-4.5454 4.54547,-4.5454 z"/></g></svg>