<svg xmlns="http://www.w3.org/2000/svg" width="64" height="64" viewBox="0 0 64 64"><g transform="translate(-583 -1777.873)"><path fill="#f4f7f8" d="m 629.5,1813.1325 0,14.4419 c 0,1.108 0.892,2 2,2 1.108,0 2,-0.892 2,-2 l 0,-14.4419"/><path fill="#b2cdf8" d="m 629.5,1816.7018 0,10.8726 c 0,1.108 0.892,2 2,2 1.108,0 2,-0.892 2,-2 l 0,-10.8722 c -1.95546,1.129 -2.26741,-0.4646 -4,-4e-4 z"/><path fill="#f4f7f8" d="m 637.5,1813.1325 0,14.4419 c 0,1.108 0.892,2 2,2 1.108,0 2,-0.892 2,-2 l 0,-14.4419"/><circle style="isolation:auto;mix-blend-mode:normal" cx="619.251" cy="1790.585" r="1" fill="#6ca6fd" color="#000" overflow="visible"/><circle cx="596.5" cy="1803.585" r="1" fill="#6ca6fd" color="#000" overflow="visible" style="isolation:auto;mix-blend-mode:normal"/><path fill="#f4f7f8" d="m 603.23175,1829.3729 c 0.35727,0.6188 0.35727,1.3812 0,2 -0.35727,0.6188 -1.01752,1 -1.73205,1 l 0,0 -14,0 0,0 c -0.71453,0 -1.37479,-0.3812 -1.73205,-1 -0.35727,-0.6188 -0.35727,-1.3812 0,-2 l 0.005,0 6.72734,-12 0,-8 4,0 0,8 c 2.66667,4.6667 6.73,12 6.73,12 z"/><path fill="#6ca6fd" d="m 592.07227,833.7168 c -1.07107,0.0524 -1.81641,0.49218 -1.81641,0.49218 -0.20011,0.13015 -0.46431,0.1007 -0.63086,-0.0703 l -3.85156,6.8711 -0.006,0 c -0.35727,0.6188 -0.35727,1.3812 0,2 0.35726,0.6188 1.01789,1 1.73242,1 l 14,0 c 0.71453,0 1.37515,-0.3812 1.73242,-1 0.35727,-0.6188 0.35727,-1.3812 0,-2 l -0.002,0 c 0,0 -1.84808,-3.31813 -3.85742,-6.90039 -0.0367,0.0399 -0.0795,0.0735 -0.12696,0.0996 0,0 -2.41309,1.39467 -4.98437,0.01 -0.78739,-0.42487 -1.54681,-0.53339 -2.18945,-0.50195 z" transform="translate(0 988.362)"/><path fill="none" stroke="#0e7bff" d="m 603.23175,1829.3729 c 0.35727,0.6188 0.35727,1.3812 0,2 -0.35727,0.6188 -1.01752,1 -1.73205,1 l 0,0 -14,0 0,0 c -0.71453,0 -1.37479,-0.3812 -1.73205,-1 -0.35727,-0.6188 -0.35727,-1.3812 0,-2 l 0.005,0 6.72734,-12 0,-8 4,0 0,8 c 2.66667,4.6667 6.73,12 6.73,12 z"/><path fill="#f4f7f8" d="m 611.5,1797.3729 0,10.2207 c -5.33056,1.5547 -8.99653,6.4395 -9,11.9922 0,6.9036 5.59644,12.5 12.5,12.5 6.90356,0 12.5,-5.5964 12.5,-12.5 -0.004,-5.5527 -3.66944,-10.4375 -9,-11.9922 l 0,-10.2207 z"/><path fill="#dae7fc" d="m 602.69531,829.05859 c -0.12446,0.70624 -0.19485,1.42817 -0.19531,2.16407 0,6.9036 5.59644,12.5 12.5,12.5 6.90356,0 12.5,-5.5964 12.5,-12.5 -5.3e-4,-0.7359 -0.0708,-1.45783 -0.19531,-2.16407 z" transform="translate(0 988.362)"/><path fill="none" stroke="#0e7bff" stroke-linecap="round" stroke-linejoin="round" d="m 629.5,1813.1325 0,14.4419 c 0,1.108 0.892,2 2,2 1.108,0 2,-0.892 2,-2 l 0,-14.4419"/><path fill="none" stroke="#0e7bff" stroke-linecap="round" stroke-linejoin="round" d="m 626.72487,1814.8622 15.77513,0 c 1.108,0 2,0.892 2,2 l 0,13 c 0,1.108 -0.892,2 -2,2 l -19,0 c -0.92383,0 -1.69749,-0.6201 -1.92917,-1.4685"/><path fill="none" stroke="#0e7bff" stroke-linejoin="round" d="m 611.5,1797.3729 0,10.2207 c -5.33056,1.5547 -8.99653,6.4395 -9,11.9922 0,6.9036 5.59644,12.5 12.5,12.5 6.90356,0 12.5,-5.5964 12.5,-12.5 -0.004,-5.5527 -3.66944,-10.4375 -9,-11.9922 l 0,-10.2207 z"/><rect width="11" height="2" x="609.5" y="1795.373" fill="#b2cdf8" stroke="#0e7bff" rx="1" ry="1"/><rect width="6" height="2" x="591.5" y="1807.373" fill="#b2cdf8" stroke="#0e7bff" rx="1" ry="1"/><rect width="7" height="1" x="628" y="1812.362" fill="#0e7bff" rx=".583" ry=".5"/><path fill="#b2cdf8" d="m 637.5,1818.0276 0,9.5468 c 0,1.108 0.892,2 2,2 1.108,0 2,-0.892 2,-2 l 0,-9.5468 c -1.99263,1.1504 -2.60303,-0.8065 -4,0 z"/><path fill="none" stroke="#0e7bff" d="M629.5 1816.8622l2 0M629.75103 1818.8622l1 0M629.5 1820.8622l2 0M629.75103 1822.8622l1 0M629.5 1824.8622l2 0M629.75103 1826.8622l1 0"/><circle cx="598.5" cy="1828.373" r="1" fill="#b2cdf8"/><circle cx="590.5" cy="1829.373" r=".5" fill="#0e7bff"/><circle cx="595.251" cy="1830.373" r=".5" fill="#0e7bff"/><circle cx="591.749" cy="1826.373" r="1" fill="#b2cdf8"/><circle cx="598.5" cy="1828.373" r="1" fill="none" stroke="#0e7bff" stroke-linecap="round" stroke-linejoin="round"/><circle cx="591.749" cy="1826.373" r="1" fill="none" stroke="#0e7bff" stroke-linecap="round" stroke-linejoin="round"/><circle cx="596.251" cy="1826.373" r=".5" fill="#0e7bff"/><circle cx="595.5" cy="1824.373" r=".5" fill="#0e7bff"/><circle cx="611.251" cy="1824.585" r=".5" fill="#0e7bff"/><circle cx="613.251" cy="1828.585" r=".5" fill="#0e7bff"/><circle cx="616.5" cy="1828.373" r="1" fill="#b2cdf8"/><circle cx="616.5" cy="1828.373" r="1" fill="none" stroke="#0e7bff" stroke-linecap="round" stroke-linejoin="round"/><circle cx="607.751" cy="1823.085" r="1" fill="#f4f7f8"/><circle cx="607.751" cy="1823.085" r="1" fill="none" stroke="#0e7bff" stroke-linecap="round" stroke-linejoin="round"/><circle cx="-623.751" cy="-1822.085" r="1" fill="#f4f7f8" transform="scale(-1)"/><circle cx="-616.251" cy="-1822.585" r=".5" fill="#0e7bff" transform="scale(-1)"/><circle cx="-623.751" cy="-1822.085" r="1" fill="none" stroke="#0e7bff" stroke-linecap="round" stroke-linejoin="round" transform="scale(-1)"/><circle cx="621.251" cy="1824.585" r=".5" fill="#0e7bff"/><circle cx="617.5" cy="1812.373" r="1" fill="#6ca6fd"/><circle cx="617.5" cy="1812.373" r="1" fill="none" stroke="#0e7bff" stroke-linecap="round" stroke-linejoin="round"/><circle cx="-614.251" cy="-1819.585" r=".5" fill="#0e7bff" transform="scale(-1)"/><circle cx="-610.5" cy="-1814.373" r=".5" fill="#0e7bff" transform="scale(-1)"/><circle cx="-614.251" cy="-1805.585" r=".5" fill="#0e7bff" transform="scale(-1)"/><circle cx="-616.251" cy="-1802.585" r=".5" fill="#0e7bff" transform="scale(-1)"/><path fill="none" stroke="#0e7bff" stroke-linecap="round" stroke-linejoin="round" d="M608.83177 1789.58l1.41421-1.4142M608.83177 1788.1658l1.41421 1.4142M607.25097 1802.3658l.00001-2M606.25098 1801.3658l1.99999 0"/><circle cx="619.251" cy="1790.585" r="1" fill="none" stroke="#0e7bff" stroke-linecap="round" stroke-linejoin="round" color="#000" overflow="visible" style="isolation:auto;mix-blend-mode:normal"/><circle style="isolation:auto;mix-blend-mode:normal" cx="596.5" cy="1803.585" r="1" fill="none" stroke="#0e7bff" stroke-linecap="round" stroke-linejoin="round" color="#000" overflow="visible"/><g stroke="#0e7bff" transform="translate(577.751 793.723)"><path fill="none" stroke-linecap="round" stroke-linejoin="round" d="M45.50505 1006.8673l.989939.9898M48.50505 1009.8673l.9899.9898M49.49495 1006.8673l-.9899.9898M46.494989 1009.8672l-.989939.9899"/></g><path fill="none" stroke="#0e7bff" stroke-linecap="round" stroke-linejoin="round" d="M601.83177 1809.58l1.41421-1.4142M601.83177 1808.1658l1.41421 1.4142M626.83177 1794.0044l1.41421-1.4142M626.83177 1792.5902l1.41421 1.4142"/><circle cx="-632" cy="-1822.862" r=".5" fill="#0e7bff" transform="scale(-1)"/><circle cx="-631.5" cy="-1827.862" r=".5" fill="#0e7bff" transform="scale(-1)"/><circle cx="-631.5" cy="-1818.862" r=".5" fill="#0e7bff" transform="scale(-1)"/><path fill="none" stroke="#0e7bff" stroke-linecap="round" stroke-linejoin="round" d="m 590.00505,1822.1385 c 0,0 2.15916,-1.2578 4.49465,0 2.33549,1.2579 4.49464,0 4.49464,0"/><path fill="none" stroke="#0e7bff" d="m 603,1817.3729 24,0"/><path fill="none" stroke="#0e7bff" stroke-linecap="round" stroke-linejoin="round" d="m 637.5,1813.1325 0,14.4419 c 0,1.108 0.892,2 2,2 1.108,0 2,-0.892 2,-2 l 0,-14.4419"/><rect width="7" height="1" x="636" y="1812.362" fill="#0e7bff" rx=".583" ry=".5"/><path fill="none" stroke="#0e7bff" d="M637.5 1816.8622l2 0M637.75103 1818.8622l1 0M637.5 1820.8622l2 0M637.75103 1822.8622l1 0M637.5 1824.8622l2 0M637.75103 1826.8622l1 0"/><circle cx="-640" cy="-1822.862" r=".5" fill="#0e7bff" transform="scale(-1)"/><circle cx="-639.5" cy="-1827.862" r=".5" fill="#0e7bff" transform="scale(-1)"/><circle cx="-639.422" cy="-1819.472" r=".5" fill="#0e7bff" transform="scale(-1)"/></g></svg>