<svg xmlns="http://www.w3.org/2000/svg" xmlns:xlink="http://www.w3.org/1999/xlink" width="96" height="96" viewBox="0 0 96 96"><defs><linearGradient id="b" x1="949.87" x2="974.39" y1="518.014" y2="544.657" gradientTransform="matrix(3.0757 0 0 3.0757 -2908.705 -629.677)" gradientUnits="userSpaceOnUse" xlink:href="#a"/><linearGradient id="a"><stop offset="0" stop-color="#24f7bc"/><stop offset="1" stop-color="#24c4fc"/></linearGradient></defs><g transform="translate(0 -956.362)"><rect width="96" height="96" y="956.362" fill="url(#b)" rx="20.288" ry="20.288"/><path fill="#fff" style="line-height:normal;text-indent:0;text-align:start;text-decoration-line:none;text-decoration-style:solid;text-decoration-color:#000;text-transform:none;block-progression:tb;isolation:auto;mix-blend-mode:normal" d="m 29.5,977.84932 a 0.50005,0.50005 0 0 0 -0.492188,0.50781 l 0,1 -1,0 a 0.50005,0.50005 0 1 0 0,1 l 1,0 0,1 a 0.50005,0.50005 0 1 0 1,0 l 0,-1 1,0 a 0.50005,0.50005 0 1 0 0,-1 l -1,0 0,-1 A 0.50005,0.50005 0 0 0 29.5,977.84932 Z m 7.5,3.51367 c -0.822505,0 -1.5,0.67754 -1.5,1.50004 1.6e-5,0.8224 0.677507,1.5 1.5,1.5 0.822493,0 1.499984,-0.6776 1.5,-1.5 0,-0.8225 -0.677495,-1.50004 -1.5,-1.50004 z m -14,1.00004 c -0.822494,0 -1.499984,0.6775 -1.5,1.5 0,0.8225 0.677495,1.5 1.5,1.5 0.822505,0 1.5,-0.6775 1.5,-1.5 -1.6e-5,-0.8225 -0.677507,-1.5 -1.5,-1.5 z m 14,0 c 0.282065,0 0.5,0.2179 0.5,0.5 -6e-6,0.282 -0.21794,0.5 -0.5,0.5 -0.28206,0 -0.499994,-0.218 -0.5,-0.5 0,-0.2821 0.217935,-0.5 0.5,-0.5 z m 35.486328,0.2441 a 0.50005,0.50005 0 0 0 -0.49414,0.5059 l 0,1 -1,0 a 0.50005,0.50005 0 1 0 0,1 l 1,0 0,1 a 0.50005,0.50005 0 1 0 1,0 l 0,-1 1,0 a 0.50005,0.50005 0 1 0 0,-1 l -1,0 0,-1 a 0.50005,0.50005 0 0 0 -0.50586,-0.5059 z M 23,983.36303 c 0.28206,0 0.499994,0.218 0.5,0.5 0,0.2821 -0.217935,0.5 -0.5,0.5 -0.282065,0 -0.5,-0.2179 -0.5,-0.5 6e-6,-0.282 0.21794,-0.5 0.5,-0.5 z m 43.039062,2.0039 c -3.902945,0 -7.221332,2.5084 -8.447265,5.9961 l -15.591797,0 0,-2.5 c 0,-0.8223 -0.677644,-1.5 -1.5,-1.5 l -19,0 c -0.822356,0 -1.5,0.6777 -1.5,1.5 l 0,13.99997 c 0,0.8224 0.677644,1.5 1.5,1.5 l 6.5,0 0,11.5 0,1.5859 -0.486328,0.047 -0.275391,0 -0.002,1 0.306641,0 0.02539,0 0.02539,0 0.40625,-0.041 0,1.4082 c 0,1.3764 1.123649,2.5 2.5,2.5 l 3.236328,0 -0.113281,0.037 0.3125,0.9511 0.933594,-0.3066 0.01563,-0.01 0.01563,-0.01 0.01563,-0.012 -0.261719,-0.6504 1.076172,0 0.113281,0.2812 0.693359,-0.2812 8.462891,0 0,5 -2.5,0 c -0.822351,0 -1.5,0.6777 -1.5,1.5 l 0,1.5 1.5,0 13,0 1.5,0 0,-1.5 c 0,-0.8223 -0.677649,-1.5 -1.5,-1.5 l -2.5,0 0,-5 14.5,0 c 1.376351,0 2.5,-1.1236 2.5,-2.5 l 0,-2 0,-2 0,-13.5157 c 2.956538,-1.4649 4.998044,-4.50497 4.998047,-8.02337 -4e-6,-4.9418 -4.01731,-8.957 -8.958985,-8.957 z m 0,0.998 0,0 c 4.401244,0 7.958981,3.5556 7.958985,7.957 -4e-6,4.4012 -3.557741,7.95897 -7.958985,7.95897 -0.550252,0 -1.085786,-0.056 -1.603515,-0.1621 -0.518014,-0.1061 -1.018341,-0.2615 -1.494141,-0.4629 l -0.125,-0.055 -4.658203,0.5996 0.601563,-4.65817 -0.05273,-0.125 c -0.201288,-0.4759 -0.358867,-0.9743 -0.464843,-1.4922 -0.105976,-0.5178 -0.162109,-1.0555 -0.16211,-1.6055 -4e-6,-4.4014 3.55774,-7.957 7.958984,-7.957 z M 21.5,988.36303 l 19,0 c 0.285662,0 0.5,0.2144 0.5,0.5 l 0,13.99997 c 0,0.2857 -0.214338,0.5 -0.5,0.5 l -4.5,0 0,1.5664 -2.347656,-1.5664 -12.152344,0 c -0.285663,0 -0.5,-0.2143 -0.5,-0.5 l 0,-13.99997 c 0,-0.2856 0.214337,-0.5 0.5,-0.5 z m 44.171875,1.0097 c -0.862315,0.056 -1.71741,0.337 -2.474609,0.8496 -2.01921,1.3669 -2.759182,4.0008 -1.746094,6.2188 1.013096,2.2179 3.488429,3.38293 5.84375,2.7519 l -0.259766,-0.9648 c -1.8903,0.5064 -3.860768,-0.4231 -4.673828,-2.2031 -0.813053,-1.78 -0.224053,-3.8775 1.396484,-4.9746 1.620529,-1.097 3.787944,-0.8653 5.138672,0.5507 1.296507,1.3592 1.452983,3.4123 0.427735,4.961 l -1.324219,0 0,-5.1992 -1,0 0,0.1953 c -0.398462,-0.099 -0.808312,-0.1208 -1.205078,-0.051 -0.653143,0.1151 -1.265515,0.4524 -1.716797,0.9902 -0.902565,1.0756 -0.902565,2.6529 0,3.7285 0.726163,0.8654 1.871751,1.2005 2.925781,0.9375 A 0.50005,0.50005 0 0 0 67.5,997.56223 l 2.099609,0 a 0.50005,0.50005 0 0 0 0.470703,-0.3125 c 1.378216,-1.9443 1.201933,-4.6049 -0.451171,-6.3379 -0.841517,-0.8822 -1.943127,-1.3968 -3.085938,-1.5195 -0.285703,-0.031 -0.57389,-0.038 -0.861328,-0.02 z M 24.5,990.36303 c -0.135967,0 -0.265437,0.022 -0.390625,0.057 -0.06561,0.018 -0.13156,0.036 -0.193359,0.062 -0.02586,0.011 -0.04911,0.027 -0.07422,0.039 -0.14069,0.07 -0.269266,0.1593 -0.38086,0.2675 -0.07515,0.073 -0.14427,0.1515 -0.203125,0.2383 -5.15e-4,8e-4 -0.0014,0 -0.0019,0 -0.05353,0.079 -0.09888,0.1632 -0.136719,0.2519 -0.02651,0.062 -0.04259,0.1294 -0.06055,0.1953 -0.0079,0.029 -0.02118,0.056 -0.02734,0.086 -1.27e-4,6e-4 1.27e-4,0 0,0 -0.01989,0.1008 -0.03125,0.2008 -0.03125,0.303 l 0,1.3398 0,6.66013 c 0,0.82244 0.677644,1.50004 1.5,1.50004 l 13,0 c 0.822356,0 1.5,-0.6776 1.5,-1.50004 l 0,-6.66013 0,-1.3398 c 0,-0.8223 -0.677644,-1.5 -1.5,-1.5 l -13,0 z m 0,1 13,0 c 0.285662,0 0.5,0.2144 0.5,0.5 l 0,0.6621 -7,2.8008 -7,-2.8008 0,-0.6621 c 0,-0.2695 0.220199,-0.5 0.5,-0.5 z m 17.5,1 15.302734,0 c -0.141641,0.6317 -0.222656,1.2868 -0.222656,1.9609 0,0.013 0.0019,0.026 0.002,0.039 l -15.082031,0 0,-2 z m 24.292969,0.096 c 0.238165,-6e-4 0.477836,0.049 0.707031,0.1406 l 0,3.5234 c -0.752551,0.3004 -1.621556,0.098 -2.15625,-0.539 -0.594892,-0.7089 -0.594892,-1.7345 0,-2.4434 0.371807,-0.4431 0.9054,-0.6803 1.449219,-0.6816 z M 24,993.60323 l 7,2.7988 7,-2.7988 0,6.25973 c 0,0.28574 -0.214338,0.50004 -0.5,0.50004 l -13,0 c -0.285663,0 -0.5,-0.2143 -0.5,-0.50004 l 0,-6.25973 z m 18,1.7598 15.146484,0 c 0.03021,0.2577 0.06588,0.5148 0.117188,0.7656 0.108284,0.5291 0.275561,1.0365 0.472656,1.5273 l -0.734375,5.70507 5.710938,-0.7344 c 0.489725,0.1965 0.993697,0.3665 1.521484,0.4746 0.571076,0.117 1.161771,0.1772 1.765625,0.1797 l 0,11.0821 -17.544922,0 -0.603516,-0.6348 -0.300781,0.2891 -0.40625,0.3457 -7.662109,0 0.107422,-0.057 0.01172,-0.012 0.01172,-0.01 0.07031,-0.041 -0.509766,-0.8613 -0.04883,0.037 -0.0039,0 -0.01953,0.014 -0.789062,0.4121 0.269531,0.5176 -1.123047,0 -0.0332,-0.064 -0.11914,0.064 -5.306641,0 0,-10 1.347656,0 3.652344,2.4355 0,-2.4355 3.5,0 c 0.822356,0 1.5,-0.6776 1.5,-1.5 l 0,-7.49997 z m 27,7.40617 0,13.0938 0,1.5 -23.974609,0 0.404297,-0.3086 -0.605469,-0.795 -0.794922,0.6075 0.376953,0.4961 -12.1875,0 -0.230469,-0.7715 -0.957031,0.2851 0.144531,0.4864 -1.019531,0 -0.05273,-0.252 -0.980469,0.2031 0.0098,0.049 -0.132812,0 0,-1.5 0,-11.5 2,0 0,11 4.199219,0 -0.460938,0.2089 0.410157,0.9102 0.912109,-0.4102 -0.320313,-0.7089 1.09961,0 0.132812,0.2949 0.19336,-0.088 0.01172,-0.01 0.01367,-0.01 0.359375,-0.1875 8.417969,0 -0.242188,0.207 -0.0078,0.01 -0.01367,0.012 -0.08594,0.064 0.605468,0.795 0.109375,-0.082 0.0098,-0.01 0.0098,-0.012 0.658203,-0.5605 -0.359375,-0.4238 20.347656,0 0,-12.1348 c 0.694173,-0.074 1.362191,-0.2348 2,-0.459 z m -13.486328,0.584 0,0.012 a 0.50005,0.50005 0 0 0 -0.002,0 0.50005,0.50005 0 0 0 -0.03711,0 0.50005,0.50005 0 0 0 -0.09766,0.016 0.50005,0.50005 0 0 0 -0.03906,0.014 l -0.0098,0 a 0.50005,0.50005 0 0 0 -0.002,0 l -12.90625,3.4785 a 0.50005,0.50005 0 0 0 -0.121094,0.914 l 3.105469,1.8028 0.638672,2.4004 a 0.50005,0.50005 0 0 0 0.816406,0.2441 l 1.970703,-1.7559 2.970703,1.7227 a 0.50005,0.50005 0 0 0 0.708985,-0.2324 l 3.435546,-7.8809 a 0.50005,0.50005 0 0 0 0.0039,-0.01 0.50005,0.50005 0 0 0 0.01953,-0.045 0.50005,0.50005 0 0 0 0.01563,-0.049 0.50005,0.50005 0 0 0 0.01563,-0.098 0.50005,0.50005 0 0 0 0,-0.051 0.50005,0.50005 0 0 0 -0.0039,-0.049 0.50005,0.50005 0 0 0 -0.0078,-0.039 0.50005,0.50005 0 0 0 -0.002,-0.012 0.50005,0.50005 0 0 0 -0.01172,-0.039 0.50005,0.50005 0 0 0 -0.0039,-0.01 0.50005,0.50005 0 0 0 -0.01953,-0.047 0.50005,0.50005 0 0 0 -0.01758,-0.033 0.50005,0.50005 0 0 0 -0.0059,-0.01 0.50005,0.50005 0 0 0 -0.02148,-0.033 0.50005,0.50005 0 0 0 -0.0059,-0.01 0.50005,0.50005 0 0 0 -0.02539,-0.031 0.50005,0.50005 0 0 0 -0.0059,-0.01 0.50005,0.50005 0 0 0 -0.02734,-0.027 0.50005,0.50005 0 0 0 -0.0098,-0.01 0.50005,0.50005 0 0 0 -0.0293,-0.023 0.50005,0.50005 0 0 0 -0.0078,-0.012 0.50005,0.50005 0 0 0 -0.0332,-0.019 0.50005,0.50005 0 0 0 -0.04492,-0.023 0.50005,0.50005 0 0 0 -0.04492,-0.02 0.50005,0.50005 0 0 0 -0.0098,0 0.50005,0.50005 0 0 0 -0.03906,-0.01 0.50005,0.50005 0 0 0 -0.09766,-0.018 0.50005,0.50005 0 0 0 -0.01172,0 z M 73,1003.6208 c -0.822505,0 -1.5,0.6775 -1.5,1.5 0,0.8225 0.677495,1.5 1.5,1.5 0.822505,0 1.5,-0.6775 1.5,-1.5 0,-0.8225 -0.677495,-1.5 -1.5,-1.5 z m 0,1 c 0.282065,0 0.5,0.218 0.5,0.5 0,0.2821 -0.217935,0.5 -0.5,0.5 -0.282065,0 -0.5,-0.2179 -0.5,-0.5 0,-0.282 0.217935,-0.5 0.5,-0.5 z m -21.291016,0.7871 -5.873046,3.2773 -1.996094,-1.1582 7.86914,-2.1191 z m 2.416016,0.3535 -2.306641,5.2969 -2.201171,-1.2774 4.507812,-4.0195 z m -2.359375,0.7617 -3.330078,2.9688 a 0.50005,0.50005 0 0 0 -0.03516,0.033 l -1.59961,1.4258 -0.384765,-1.4415 5.349609,-2.9863 z m -27.896484,1.0977 a 0.50005,0.50005 0 0 0 -0.34961,0.8593 l 0.707031,0.7071 -0.707031,0.707 a 0.50005,0.50005 0 1 0 0.707031,0.707 l 0.707032,-0.707 0.707031,0.707 a 0.50005,0.50005 0 1 0 0.707031,-0.707 l -0.707031,-0.707 0.707031,-0.7071 a 0.50005,0.50005 0 0 0 -0.363281,-0.8593 0.50005,0.50005 0 0 0 -0.34375,0.1523 l -0.707031,0.707 -0.707032,-0.707 a 0.50005,0.50005 0 0 0 -0.357421,-0.1523 z m 20.353515,2.584 -0.832031,0.5546 0.554687,0.8321 0.832032,-0.5547 -0.554688,-0.832 z m -1.664062,1.1093 -0.832032,0.5547 0.554688,0.8321 0.832031,-0.5547 -0.554687,-0.8321 z m 6.742187,1.0391 -0.724609,0.6894 0.689453,0.7247 0.724609,-0.6895 -0.689453,-0.7246 z m -8.408203,0.02 -0.859375,0.5098 0.509766,0.8594 0.859375,-0.5098 -0.509766,-0.8594 z m -14.857422,0.01 -0.501953,0.5332 -0.01172,0.014 -0.0098,0.012 -0.171875,0.2051 0.767578,0.6426 0.166016,-0.2012 0.0059,-0.01 0.482422,-0.5079 -0.726563,-0.6875 z m -1.330078,1.5821 -0.123047,0.1718 -0.01367,0.02 -0.01172,0.02 -0.308593,0.5274 -0.01367,0.025 -0.01172,0.025 -0.07227,0.1641 0.916016,0.4004 0.05859,-0.1309 0.283203,-0.4883 0.109375,-0.1523 -0.8125,-0.582 z m 9.132813,1.9648 -0.935547,0.3535 0.353515,0.9356 0.935547,-0.3535 -0.353515,-0.9356 z m -10.007813,0.1016 -0.01953,0.2304 -0.0039,0.055 0.0078,0.057 0.05078,0.3652 0.0078,0.064 0.02539,0.059 0.134766,0.3242 0.02344,0.061 0.04102,0.053 0.0293,0.037 0.539062,-0.4121 0.291016,-0.1211 -0.111328,-0.2657 -0.0332,-0.2519 0.01367,-0.1699 -0.996094,-0.084 z m 1.683594,1.1894 -0.460938,0.8809 0.08594,0.045 0.03711,0.02 0.03711,0.012 0.441407,0.1464 0.03125,0.01 0.03125,0.01 0.429687,0.082 0.189454,-0.9824 -0.398438,-0.076 -0.373047,-0.123 -0.05078,-0.024 z M 29,1018.363 l 13.662109,0 0.310547,0.4531 0.66211,-0.4531 25.365234,0 0,1.5 c 0,0.8397 -0.660351,1.5 -1.5,1.5 l -28.878906,0 -0.376953,-0.6895 -0.08594,-0.1816 -0.0098,0.016 -0.878907,0.416 0.208985,0.4395 -1.09961,0 -0.01172,-0.024 -0.0293,0.024 -5.837891,0 c -0.839649,0 -1.5,-0.6603 -1.5,-1.5 l 0,-1.5 z m 12.591797,0.1621 -0.851563,0.5234 0.521485,0.8516 0.853515,-0.5215 -0.523437,-0.8535 z m -1.685547,1.0254 -0.878906,0.4785 0.476562,0.8789 0.878906,-0.4785 -0.476562,-0.8789 z m -13.792969,1.9902 -0.9375,0.3496 0.03516,0.094 0.937501,-0.3497 -0.03516,-0.094 z m 0.419922,0.7988 -0.744141,0.6699 0.175782,0.1954 0.03125,0.031 0.03516,0.029 0.359375,0.2734 0.03125,0.025 0.03711,0.02 0.253907,0.1347 0.470703,-0.8828 -0.216797,-0.1152 -0.283203,-0.2149 -0.150391,-0.166 z M 46,1022.3635 l 6,0 0,5 -6,0 0,-5 z m -13.292969,0.3183 -0.970703,0.2344 0.234375,0.9727 0.972656,-0.2364 -0.236328,-0.9707 z m -1.904297,0.4024 -0.875,0.125 -0.05273,0 0.0098,1 0.08984,0 0.03125,0 0.0332,-0.01 0.900391,-0.125 -0.136719,-0.9902 z m -2.804687,0.029 -0.21875,0.9785 0.21875,0.051 0.02539,0.01 0.02539,0 0.576172,0.066 0.03125,0 0.03125,0 0.197266,0 -0.0098,-1 -0.167969,0 -0.503906,-0.061 -0.205078,-0.045 z m 14.501953,5.25 13,0 c 0.285649,0 0.5,0.2144 0.5,0.5 l 0,0.5 -0.5,0 -13,0 -0.5,0 0,-0.5 c 0,-0.2856 0.214351,-0.5 0.5,-0.5 z" color="#000" font-family="sans-serif" font-weight="400" overflow="visible" white-space="normal"/></g></svg>