<svg xmlns="http://www.w3.org/2000/svg" width="64" height="64" viewBox="0 0 64 64"><g transform="translate(0 -988.362)"><path fill="#6ca6fd" d="M33.499969 990.36218a1.5 1.5 0 0 1-1.5 1.5 1.5 1.5 0 0 1-1.5-1.5 1.5 1.5 0 0 1 1.5-1.5 1.5 1.5 0 0 1 1.5 1.5zM33.499969 1050.3622a1.5 1.5 0 0 1-1.5 1.5 1.5 1.5 0 0 1-1.5-1.5 1.5 1.5 0 0 1 1.5-1.5 1.5 1.5 0 0 1 1.5 1.5z"/><path fill="#6ca6fd" d="M-56.5-1006.3622a1.5 1.5 0 0 1-1.5 1.5 1.5 1.5 0 0 1-1.5-1.5 1.5 1.5 0 0 1 1.5-1.5 1.5 1.5 0 0 1 1.5 1.5zM-4.5-1006.3622a1.5 1.5 0 0 1-1.5 1.5 1.5 1.5 0 0 1-1.5-1.5 1.5 1.5 0 0 1 1.5-1.5 1.5 1.5 0 0 1 1.5 1.5zM-56.5-1034.3622a1.5 1.5 0 0 1-1.5 1.5 1.5 1.5 0 0 1-1.5-1.5 1.5 1.5 0 0 1 1.5-1.5 1.5 1.5 0 0 1 1.5 1.5zM-4.5-1034.3622a1.5 1.5 0 0 1-1.5 1.5 1.5 1.5 0 0 1-1.5-1.5 1.5 1.5 0 0 1 1.5-1.5 1.5 1.5 0 0 1 1.5 1.5z" transform="scale(-1)"/><path fill="#dae7fc" d="m 40.127,1000.8549 6.873,0 c 0.83498,0 1.50719,0.6722 1.50719,1.5072 l 0,42 c 0,0.835 -0.67221,1.5072 -1.50719,1.5072 l -30.00003,0 c -0.83499,0 -1.50719,-0.6722 -1.50719,-1.5072 l 0,-42 c 0,-0.835 0.6722,-1.5072 1.50719,-1.5072 l 6.87303,0"/><path fill="#546e7a" fill-rule="evenodd" stroke="#0e7bff" stroke-dasharray="1 1" d="m 7.28499,1007.054 6.18487,3.3303 1.46578,0.7893 m 34.10648,18.365 1.53693,0.8276 6.18487,3.3303"/><path fill="#b2cdf8" d="m 48.06671,1001.2954 c 0.27243,0.2724 0.44048,0.6492 0.44048,1.0667 l 0,42 c 0,0.835 -0.67221,1.5072 -1.50719,1.5072 l -30.00003,0 c -0.41749,0 -0.79429,-0.168 -1.06672,-0.4405"/><path fill="#546e7a" fill-rule="evenodd" stroke="#0e7bff" stroke-dasharray="1 1" d="m 56.70762,1007.058 -6.19334,3.3349 -1.64895,0.8879 m -33.81602,18.2086 -1.69506,0.9127 -6.19334,3.3349"/><path fill="none" stroke="#0e7bff" stroke-dasharray="1 1" d="m 31.99998,991.86224 0,2.0867"/><path fill="#546e7a" fill-rule="evenodd" stroke="#0e7bff" stroke-dasharray="1 1" d="m 5.99998,1032.8621 0,-24.9688 m 1.28937,-2.3247 23.40819,-14.40486 m 2.51596,-0.055 23.43522,14.42156 m 1.35126,2.3002 0,25.0938 m -1.31464,2.2465 -7.66918,4.7195 m -9.73593,5.9913 -5.97955,3.6798 m -2.60663,0 -6.07165,-3.7364 m -9.70907,-5.9749 -7.68937,-4.7319"/><path fill="none" stroke="#0e7bff" stroke-linecap="round" stroke-linejoin="round" d="M33.499969 990.36218a1.5 1.5 0 0 1-1.5 1.5 1.5 1.5 0 0 1-1.5-1.5 1.5 1.5 0 0 1 1.5-1.5 1.5 1.5 0 0 1 1.5 1.5zM33.499969 1050.3622a1.5 1.5 0 0 1-1.5 1.5 1.5 1.5 0 0 1-1.5-1.5 1.5 1.5 0 0 1 1.5-1.5 1.5 1.5 0 0 1 1.5 1.5z"/><path fill="none" stroke="#0e7bff" stroke-linecap="round" stroke-linejoin="round" d="M-56.5-1006.3622a1.5 1.5 0 0 1-1.5 1.5 1.5 1.5 0 0 1-1.5-1.5 1.5 1.5 0 0 1 1.5-1.5 1.5 1.5 0 0 1 1.5 1.5zM-4.5-1006.3622a1.5 1.5 0 0 1-1.5 1.5 1.5 1.5 0 0 1-1.5-1.5 1.5 1.5 0 0 1 1.5-1.5 1.5 1.5 0 0 1 1.5 1.5zM-56.5-1034.3622a1.5 1.5 0 0 1-1.5 1.5 1.5 1.5 0 0 1-1.5-1.5 1.5 1.5 0 0 1 1.5-1.5 1.5 1.5 0 0 1 1.5 1.5zM-4.5-1034.3622a1.5 1.5 0 0 1-1.5 1.5 1.5 1.5 0 0 1-1.5-1.5 1.5 1.5 0 0 1 1.5-1.5 1.5 1.5 0 0 1 1.5 1.5z" transform="scale(-1)"/><path fill="#f4f7f8" d="m 40.127,1002.8534 5.38171,0 0,35.0153 -4.82455,5.0021 -22.1929,0 0,-40.0174 5.38174,0"/><path fill="#dae7fc" d="m 45.50871,1004.3534 0,33.5153 -4.82455,5.0021 -22.53665,0"/><path fill="#b2cdf8" stroke="#0e7bff" stroke-linejoin="round" d="m 32,993.86121 a 3.9999995,4.0000043 0 0 0 -4,4 3.9999995,4.0000043 0 0 0 0.13086,1 l -3.13086,0 c -0.55401,0 -1,0.446 -1,1 l 0,3.99999 c 0,0.554 0.44599,1 1,1 l 14,0 c 0.55401,0 1,-0.446 1,-1 l 0,-3.99999 c 0,-0.554 -0.44599,-1 -1,-1 l -3.13281,0 a 3.9999995,4.0000043 0 0 0 0.13281,-1 3.9999995,4.0000043 0 0 0 -4,-4 z m 0,2 a 2.0000002,2.0000026 0 0 1 2,2 2.0000002,2.0000026 0 0 1 -2,2 2.0000002,2.0000026 0 0 1 -2,-2 2.0000002,2.0000026 0 0 1 2,-2 z"/><path fill="#b2cdf8" stroke="#0e7bff" stroke-linecap="round" stroke-linejoin="round" d="m 40.5,1037.8621 5,0 -5,5 z"/><path fill="#6ca6fd" stroke="#0e7bff" d="m 24.499969,1010.8622 a 1.5,1.5 0 0 1 -1.5,1.5 1.5,1.5 0 0 1 -1.5,-1.5 1.5,1.5 0 0 1 1.5,-1.5 1.5,1.5 0 0 1 1.5,1.5 z"/><path fill="none" stroke="#0e7bff" stroke-linecap="round" stroke-linejoin="round" d="M27.50503 1012.3571l3-3M30.50503 1012.3571l-3-3M33.50503 1012.3571l3-3M36.50503 1012.3571l-3-3M39.50503 1012.3571l3-3M42.50503 1012.3571l-3-3M33.49493 1030.3572l3-3M36.49493 1030.3572l-3-3M39.50503 1018.3571l3-3M42.50503 1018.3571l-3-3M21.49493 1024.3572l3-3.0001M24.49493 1024.3572l-3-3.0001M39.50503 1024.3572l3-3.0001M42.50503 1024.3572l-3-3.0001M21.49493 1030.3572l3-3M24.49493 1030.3572l-3-3"/><path fill="none" stroke="#0e7bff" d="m 22.99998,1012.1108 0,2.8435 m 2.47488,1.9078 7.49387,0 m 2.03125,1.3125 0,3.0356"/><path fill="none" stroke="#0e7bff" stroke-linecap="round" stroke-linejoin="round" d="M26.85407 1016.8621l-2.85407 0c-.55401 0-1.00002-.446-1.00002-1l0-1M31.1461 1016.862l2.854 0c.554 0 1 .446 1 1l0 1"/><path fill="#6ca6fd" stroke="#0e7bff" d="m 30.499969,1034.8622 a 1.5,1.5 0 0 1 -1.5,1.5 1.5,1.5 0 0 1 -1.5,-1.5 1.5,1.5 0 0 1 1.5,-1.5 1.5,1.5 0 0 1 1.5,1.5 z"/><path fill="none" stroke="#0e7bff" stroke-linecap="round" stroke-linejoin="round" d="M33.49493 1036.3572l3-3M36.49493 1036.3572l-3-3M31.14593 1022.3693l2.854 0c.554 0 1-.446 1-1l0-1"/><path fill="none" stroke="#0e7bff" stroke-linecap="round" stroke-linejoin="round" d="M32.85403 1022.3622l-2.854 0c-.554 0-1 .446-1 1l0 9.8438M39.50503 1030.3572l3-3M42.50503 1030.3572l-3-3"/><path fill="none" stroke="#0e7bff" stroke-dasharray="1 1" d="m 31.99998,1045.53 0,3.4321"/><path fill="none" stroke="#0e7bff" stroke-linecap="round" stroke-linejoin="round" d="m 40.127,1002.8534 5.38171,0 0,35.0153 -4.82455,5.0021 -22.1929,0 0,-40.0174 5.38174,0"/><path fill="none" stroke="#0e7bff" stroke-linecap="round" stroke-linejoin="round" d="m 40.127,1000.8549 6.873,0 c 0.83498,0 1.50719,0.6722 1.50719,1.5072 l 0,42 c 0,0.835 -0.67221,1.5072 -1.50719,1.5072 l -30.00003,0 c -0.83499,0 -1.50719,-0.6722 -1.50719,-1.5072 l 0,-42 c 0,-0.835 0.6722,-1.5072 1.50719,-1.5072 l 6.87303,0"/></g></svg>