<svg xmlns="http://www.w3.org/2000/svg" width="64" height="64" viewBox="0 0 64 64"><g transform="translate(-527.42 -1854.872)"><path fill="#b2cdf8" fill-rule="evenodd" d="m 560.11415,1900.6445 7.72191,3.8304 c 1.55154,0.7696 3.11708,1.4236 3.11708,3.192 l 0,9.7056 -3.11708,0 -21.81969,0 -3.11708,0 0,-9.7056 c 0,-1.7684 1.87023,-2.5536 3.11708,-3.192 1.24685,-0.6384 7.72191,-3.8304 7.72191,-3.8304"/><path fill="#6ca6fd" fill-rule="evenodd" d="m 557.28893,1901.7894 c 0.17851,0.1466 3.14316,-1.0996 3.14316,-1.0996 l 3.31734,1.774 c 0,0 7.20371,3.8859 7.20371,4.7391 l 0,10.1696 -3.11708,0 -8.10094,0 -2.79667,0"/><path fill="#f4f7f8" fill-rule="evenodd" d="m 553.66425,1900.6439 3.26205,1.4495 -2.60964,2.5366 -2.5754,-2.9897"/><path fill="#f4f7f8" d="m 553.66425,1900.8427 0,-3.4013 6.52409,0 0,3.4013 -3.26205,1.3037 z"/><path fill="#f4f7f8" fill-rule="evenodd" d="m 560.18834,1900.6439 -3.26204,1.4495 2.60963,2.5366 2.5657,-2.9784"/><path fill="#dae7fc" d="m 553.66425,1900.8427 0,-3.4013 6.52409,0 z"/><path fill="#f4f7f8" d="m 562.14557,1886.5897 0,6.866 c 0,2.8961 -2.32779,5.2276 -5.21928,5.2276 -2.89148,0 -5.21927,-2.3315 -5.21927,-5.2276 l 0,-6.866"/><path fill="#b2cdf8" d="m 578.89967,1904.3726 -2.07873,2.0788 a 1.6317843,1.6317843 0 0 0 -0.45973,-0.9249 1.6317843,1.6317843 0 0 0 -2.3077,0 1.6317843,1.6317843 0 0 0 0,2.3077 1.6317843,1.6317843 0 0 0 0.92398,0.4606 l -2.07782,2.0778 6,6 6,-6 -2.07783,-2.0778 a 1.6317843,1.6317843 0 0 1 -0.46064,0.924 1.6317843,1.6317843 0 0 1 -2.30769,0 1.6317843,1.6317843 0 0 1 0,-2.3077 1.6317843,1.6317843 0 0 1 0.92488,-0.4597 l -2.07872,-2.0788 z"/><path fill="#dae7fc" d="m 537.83008,1856.0907 -0.53125,1.9844 a 3.5180221,3.5180221 0 0 0 -0.80664,0.1094 l -1.0293,-1.7813 -1.66211,0.959 1.02734,1.7773 a 3.5180221,3.5180221 0 0 0 -0.49414,0.6485 l -1.98632,-0.5313 -0.49805,1.8536 1.98437,0.5312 a 3.5180221,3.5180221 0 0 0 0.10938,0.8086 l -1.78125,1.0273 0.96094,1.6621 1.77734,-1.0273 a 3.5180221,3.5180221 0 0 0 0.64844,0.4961 l -0.53321,1.9863 1.85352,0.4961 0.5332,-1.9844 a 3.5180221,3.5180221 0 0 0 0.80664,-0.1093 l 1.0293,1.7812 1.66211,-0.959 -1.02734,-1.7793 a 3.5180221,3.5180221 0 0 0 0.49414,-0.6484 l 1.98633,0.5332 0.49609,-1.8535 -1.98242,-0.5313 a 3.5180221,3.5180221 0 0 0 -0.10938,-0.8086 l 1.78125,-1.0273 -0.96094,-1.6621 -1.77734,1.0254 a 3.5180221,3.5180221 0 0 0 -0.64844,-0.4942 l 0.53125,-1.9863 -1.85351,-0.4961 z m -0.45313,4 a 1.5407468,1.5407468 0 0 1 0.41211,0.053 1.5407468,1.5407468 0 0 1 1.08985,1.8867 1.5407468,1.5407468 0 0 1 -1.88672,1.0899 1.5407468,1.5407468 0 0 1 -1.08985,-1.8887 1.5407468,1.5407468 0 0 1 1.47461,-1.1406 z"/><g stroke="#0e7bff" transform="translate(460.4 842.51)"><circle cx="-165.21" cy="1023.22" r="1.748" fill="#dae7fc" stroke="none" transform="rotate(-15)"/><circle cx="-169.599" cy="1025.754" r="1.165" fill="#dae7fc" stroke="none" transform="rotate(-15)"/><path fill="#dae7fc" stroke="none" d="m 119.12954,1013.8662 a 5.4428814,5.7456486 0 0 0 -1.61636,0.1928 5.4428814,5.7456486 0 0 0 -3.26611,2.6082 4.4532507,4.7009685 0 0 0 -2.21341,0.023 4.4532507,4.7009685 0 0 0 -3.2936,4.6191 3.4636336,3.6563027 0 0 0 -1.67331,0.031 3.4636336,3.6563027 0 0 0 -2.44909,4.4762 3.4636336,3.6563027 0 0 0 3.79835,2.6765 3.4636525,3.6563226 0 0 0 0.0943,0.5494 3.4636525,3.6563226 0 0 0 4.2422,2.5854 3.4636525,3.6563226 0 0 0 0.66579,-0.2716 5.1976145,5.4867384 0 0 0 4.91782,1.3205 5.1976145,5.4867384 0 0 0 3.70603,-4.0054 4.9480577,5.2232998 0 0 0 1.70278,-0.1534 4.9480577,5.2232998 0 0 0 3.49785,-6.396 4.9480577,5.2232998 0 0 0 -2.96168,-3.5017 5.4428814,5.7456486 0 0 0 -0.10213,-0.4996 5.4428814,5.7456486 0 0 0 -5.0494,-4.2543 z"/><path fill="#f4f7f8" stroke="none" d="m 118.92773,1026.8394 0,-2.1588 c 1.27379,-0.672 2.07134,-1.9935 2.07227,-3.4336 -6e-5,-2.1455 -1.7393,-3.8847 -3.88477,-3.8848 -2.14547,10e-5 -3.8847,1.7393 -3.88476,3.8848 9.2e-4,1.4401 0.79847,2.7616 2.07226,3.4336 l 0,2.1588"/><path fill="none" d="m 119.12954,1013.8662 a 5.4428814,5.7456486 0 0 0 -1.61636,0.1928 5.4428814,5.7456486 0 0 0 -3.26611,2.6082 4.4532507,4.7009685 0 0 0 -2.21341,0.023 4.4532507,4.7009685 0 0 0 -3.2936,4.6191 3.4636336,3.6563027 0 0 0 -1.67331,0.031 3.4636336,3.6563027 0 0 0 -2.44909,4.4762 3.4636336,3.6563027 0 0 0 3.79835,2.6765 3.4636525,3.6563226 0 0 0 0.0943,0.5494 3.4636525,3.6563226 0 0 0 4.2422,2.5854 3.4636525,3.6563226 0 0 0 0.66579,-0.2716 5.1976145,5.4867384 0 0 0 4.91782,1.3205 5.1976145,5.4867384 0 0 0 3.70603,-4.0054 4.9480577,5.2232998 0 0 0 1.70278,-0.1534 4.9480577,5.2232998 0 0 0 3.49785,-6.396 4.9480577,5.2232998 0 0 0 -2.96168,-3.5017 5.4428814,5.7456486 0 0 0 -0.10213,-0.4996 5.4428814,5.7456486 0 0 0 -5.0494,-4.2543 z"/><circle cx="-165.21" cy="1023.22" r="1.748" fill="none" transform="rotate(-15)"/><circle cx="-169.599" cy="1025.754" r="1.165" fill="none" transform="rotate(-15)"/><path fill="none" stroke-linecap="round" stroke-linejoin="round" d="M118.92773 1026.8394l0-2.1588c1.27379-.672 2.07134-1.9935 2.07227-3.4336-.00006-2.1455-1.7393-3.8847-3.88477-3.8848-2.14547.0001-3.8847 1.7393-3.88476 3.8848.00092 1.4401.79847 2.7616 2.07226 3.4336l0 2.1588M117 1022.8693l0 3.6259"/><rect width="5" height="2" x="114.5" y="1026.862" fill="#b2cdf8" stroke="none"/><path fill="#0e7bff" stroke="none" d="m 116.5,1028.9722 0,0.89 c 0,0.277 -0.223,0.5 -0.5,0.5 -0.277,0 -0.5,-0.223 -0.5,-0.5 l 0,-0.89 c 0,-0.277 0.223,-0.5 0.5,-0.5 0.277,0 0.5,0.223 0.5,0.5 z"/><rect width="5" height="2" x="114.5" y="1026.862" fill="none" stroke-linecap="round" stroke-linejoin="round"/><path fill="none" stroke-linecap="round" stroke-linejoin="round" d="m 117.86081,1022.8623 -1.72163,0"/><path fill="#0e7bff" stroke="none" d="m 118.5,1028.9722 0,0.89 c 0,0.277 -0.223,0.5 -0.5,0.5 -0.277,0 -0.5,-0.223 -0.5,-0.5 l 0,-0.89 c 0,-0.277 0.223,-0.5 0.5,-0.5 0.277,0 0.5,0.223 0.5,0.5 z"/></g><path fill="#b2cdf8" d="m 542.15039,1866.8895 0,3.211 a 5.5,5.5 0 0 0 -1.17578,0.4922 l -2.27344,-2.2735 -2.12109,2.1211 2.26953,2.2696 a 5.5,5.5 0 0 0 -0.48438,1.1796 l -3.21484,0 0,3 3.21094,0 a 5.5,5.5 0 0 0 0.49219,1.1758 l -2.27344,2.2735 2.12109,2.1211 2.26953,-2.2696 a 5.5,5.5 0 0 0 1.17969,0.4844 l 0,3.2148 3,0 0,-3.2109 a 5.5,5.5 0 0 0 1.17578,-0.4922 l 2.27344,2.2735 2.12109,-2.1211 -2.26953,-2.2696 a 5.5,5.5 0 0 0 0.48438,-1.1797 l 3.21484,0 0,-3 -3.21094,0 a 5.5,5.5 0 0 0 -0.49023,-1.1777 l 2.27148,-2.2715 -2.12109,-2.1211 -2.26953,2.2696 a 5.5,5.5 0 0 0 -1.17969,-0.4844 l 0,-3.2149 -3,0 z m 1.5,6 a 2.5,2.5 0 0 1 2.5,2.5 2.5,2.5 0 0 1 -2.5,2.5 2.5,2.5 0 0 1 -2.5,-2.5 2.5,2.5 0 0 1 2.5,-2.5 z"/><path fill="none" stroke="#0e7bff" stroke-linecap="round" stroke-linejoin="round" d="M542.15039 1866.8895l0 3.211a5.5 5.5 0 0 0-1.17578.4922l-2.27344-2.2735-2.12109 2.1211 2.26953 2.2696a5.5 5.5 0 0 0-.48438 1.1796l-3.21484 0 0 3 3.21094 0a5.5 5.5 0 0 0 .49219 1.1758l-2.27344 2.2735 2.12109 2.1211 2.26953-2.2696a5.5 5.5 0 0 0 1.17969.4844l0 3.2148 3 0 0-3.2109a5.5 5.5 0 0 0 1.17578-.4922l2.27344 2.2735 2.12109-2.1211-2.26953-2.2696a5.5 5.5 0 0 0 .48438-1.1797l3.21484 0 0-3-3.21094 0a5.5 5.5 0 0 0-.49023-1.1777l2.27148-2.2715-2.12109-2.1211-2.26953 2.2696a5.5 5.5 0 0 0-1.17969-.4844l0-3.2149-3 0zm1.5 6a2.5 2.5 0 0 1 2.5 2.5 2.5 2.5 0 0 1-2.5 2.5 2.5 2.5 0 0 1-2.5-2.5 2.5 2.5 0 0 1 2.5-2.5zM537.83008 1856.0907l-.53125 1.9844a3.5180221 3.5180221 0 0 0-.80664.1094l-1.0293-1.7813-1.66211.959 1.02734 1.7773a3.5180221 3.5180221 0 0 0-.49414.6485l-1.98632-.5313-.49805 1.8536 1.98437.5312a3.5180221 3.5180221 0 0 0 .10938.8086l-1.78125 1.0273.96094 1.6621 1.77734-1.0273a3.5180221 3.5180221 0 0 0 .64844.4961l-.53321 1.9863 1.85352.4961.5332-1.9844a3.5180221 3.5180221 0 0 0 .80664-.1093l1.0293 1.7812 1.66211-.959-1.02734-1.7793a3.5180221 3.5180221 0 0 0 .49414-.6484l1.98633.5332.49609-1.8535-1.98242-.5313a3.5180221 3.5180221 0 0 0-.10938-.8086l1.78125-1.0273-.96094-1.6621-1.77734 1.0254a3.5180221 3.5180221 0 0 0-.64844-.4942l.53125-1.9863-1.85351-.4961zm-.45313 4a1.5407468 1.5407468 0 0 1 .41211.053 1.5407468 1.5407468 0 0 1 1.08985 1.8867 1.5407468 1.5407468 0 0 1-1.88672 1.0899 1.5407468 1.5407468 0 0 1-1.08985-1.8887 1.5407468 1.5407468 0 0 1 1.47461-1.1406z"/><path fill="#dae7fc" d="m 562.14557,1886.5897 0,1.6785 -10.9698,5.1875 0.53125,-6.866"/><ellipse cx="559.184" cy="1891.862" fill="#0e7bff" rx=".499" ry=".5"/><ellipse cx="554.618" cy="1891.862" fill="#0e7bff" rx=".499" ry=".5"/><path fill="none" stroke="#0e7bff" d="m 560.11415,1900.6445 7.72191,3.8304 c 1.55154,0.7696 3.11708,1.4236 3.11708,3.192 l 0,9.7056 -3.11708,0 -21.81969,0 -3.11708,0 0,-9.7056 c 0,-1.7684 1.87023,-2.5536 3.11708,-3.192 1.24685,-0.6384 7.72191,-3.8304 7.72191,-3.8304"/><path fill="none" stroke="#0e7bff" stroke-linecap="round" stroke-linejoin="round" d="M556.9263 1892.5456l0 1.3058M553.34037 1891.3044a1.5039437 1.4471678 0 0 1 1.30245-.7236 1.5039437 1.4471678 0 0 1 1.30246.7236M557.90726 1891.3044a1.5039437 1.4471678 0 0 1 1.30246-.7236 1.5039437 1.4471678 0 0 1 1.30245.7236M560.18834 1897.6624l0 2.9814m-6.52409 0l0-2.9814"/><path fill="none" stroke="#0e7bff" d="m 562.14557,1891.4953 0,1.9604 c 0,2.8961 -2.32779,5.2276 -5.21928,5.2276 -2.89148,0 -5.21927,-2.3315 -5.21927,-5.2276 l 0,-1.9604"/><path fill="#6ca6fd" stroke="#0e7bff" stroke-linecap="round" stroke-linejoin="round" d="m 558.00855,1904.3079 1.20118,8.8556 -2.28343,3.1635 -2.28344,-3.1635 1.20084,-8.8532"/><rect width="1" height="6.535" x="547.14" y="1911.132" fill="#0e7bff"/><rect width="1" height="6.535" x="566.06" y="1911.132" fill="#0e7bff"/><path fill="#6ca6fd" stroke="#0e7bff" stroke-linecap="round" stroke-linejoin="round" d="m 555.29525,1903.7297 1.63103,-1.7136 1.63105,1.7137 -0.54597,0.5735 -2.17197,0 z"/><path fill="none" stroke="#0e7bff" stroke-linecap="round" stroke-linejoin="round" d="M553.73054 1900.5666l3.19576 1.5268-2.60964 2.5366-2.5754-2.9897M560.18834 1900.5666l-3.26204 1.5268 2.60963 2.5366 2.5657-2.9784M556.9263 1892.5456l0 1.3058M553.34037 1891.3044a1.5039437 1.4471678 0 0 1 1.30245-.7236 1.5039437 1.4471678 0 0 1 1.30246.7236M557.90726 1891.3044a1.5039437 1.4471678 0 0 1 1.30246-.7236 1.5039437 1.4471678 0 0 1 1.30245.7236M558.5147 1895.8042a2.2834215 2.2871013 0 0 1-3.17676.031"/><g fill="none" stroke="#0e7bff" stroke-linecap="round" stroke-linejoin="round" stroke-width="1.532" transform="matrix(.65241 0 0 .65346 313.577 1151.606)"><path fill="#6ca6fd" stroke="none" d="m 438,214 a 10,10 0 0 0 -10,10 10,10 0 0 0 2,5.98438 l 0,-4.10352 c 3.27405,0.60206 6.66747,-0.079 9.45117,-1.95313 1.01433,-0.68291 1.90867,-1.50531 2.67578,-2.42578 0.90273,1.25536 2.27858,2.14232 3.87305,2.40821 l 0,6.07031 A 10,10 0 0 0 448,224 10,10 0 0 0 438,214 Z" transform="translate(-65 903.362)"/><path d="m 438,214 a 10,10 0 0 0 -10,10 10,10 0 0 0 2,5.98438 l 0,-4.10352 c 3.27405,0.60206 6.66747,-0.079 9.45117,-1.95313 1.01433,-0.68291 1.90867,-1.50531 2.67578,-2.42578 0.90273,1.25536 2.27858,2.14232 3.87305,2.40821 l 0,6.07031 A 10,10 0 0 0 448,224 10,10 0 0 0 438,214 Z" transform="translate(-65 903.362)"/></g><path fill="none" stroke="#0e7bff" stroke-linecap="round" stroke-linejoin="round" d="M578.89967 1904.3726l-2.07873 2.0788a1.6317843 1.6317843 0 0 0-.45973-.9249 1.6317843 1.6317843 0 0 0-2.3077 0 1.6317843 1.6317843 0 0 0 0 2.3077 1.6317843 1.6317843 0 0 0 .92398.4606l-2.07782 2.0778 6 6 6-6-2.07783-2.0778a1.6317843 1.6317843 0 0 1-.46064.924 1.6317843 1.6317843 0 0 1-2.30769 0 1.6317843 1.6317843 0 0 1 0-2.3077 1.6317843 1.6317843 0 0 1 .92488-.4597l-2.07872-2.0788zM537.3365 1910.7894l2.00001-.0001M538.33651 1909.7893l0 2.0001"/><circle cx="1412.101" cy="1368.825" r="1" fill="none" stroke="#0e7bff" stroke-linecap="round" stroke-linejoin="round" color="#000" style="isolation:auto;mix-blend-mode:normal" overflow="visible" transform="rotate(30)"/><path fill="none" stroke="#0e7bff" stroke-linecap="round" stroke-linejoin="round" d="M531.50505 1899.6519l.70718.707M533.63141 1901.7782l.70717.707M534.33851 1899.6518l-.70704.7072M532.21216 1901.7781l-.70703.7072"/><g stroke="#0e7bff" stroke-width="1.425" transform="matrix(.67768 0 0 .72645 541.997 1146.289)"><path fill="none" stroke-linecap="round" stroke-linejoin="round" d="M42.49995 1025.8551l0-.9999M42.5 1024.8551c0-.8706.610439-1.3246 1.25005-1.6939.630382-.364.908471-1.128.659539-1.812-.248963-.684-.953125-1.0906-1.670012-.9642-.716877.1264-1.239521.7493-1.239527 1.4772M42.49995 1027.8551l0 .0001"/></g><g stroke="#0e7bff" stroke-width="1.425" transform="rotate(45 -1091.992 1993.466) scale(.67768 .72645)"><path fill="none" stroke-linecap="round" stroke-linejoin="round" d="M42.49995 1025.8551l0-.9999M42.5 1024.8551c0-.8706.610439-1.3246 1.25005-1.6939.630382-.364.908471-1.128.659539-1.812-.248963-.684-.953125-1.0906-1.670012-.9642-.716877.1264-1.239521.7493-1.239527 1.4772M42.49995 1027.8551l0 .0001"/></g></g></svg>