<svg xmlns="http://www.w3.org/2000/svg" xmlns:xlink="http://www.w3.org/1999/xlink" width="96" height="96" viewBox="0 0 96 96"><defs><linearGradient id="b" x1="868.253" x2="937.656" y1="521.354" y2="588.736" gradientTransform="matrix(3.0757 0 0 3.0757 -2653.937 -629.677)" gradientUnits="userSpaceOnUse" xlink:href="#a"/><linearGradient id="a"><stop offset="0" stop-color="#24f3d2"/><stop offset=".394" stop-color="#0674f0"/><stop offset=".507" stop-color="#6961b5"/><stop offset=".813" stop-color="#f34660"/><stop offset="1" stop-color="#ee078d"/></linearGradient></defs><g transform="translate(0 -956.362)"><rect width="96" height="96" y="956.362" fill="url(#b)" rx="20.288" ry="20.288"/><path fill="#fff" style="line-height:normal;text-indent:0;text-align:start;text-decoration-line:none;text-decoration-style:solid;text-decoration-color:#000;text-transform:none;block-progression:tb;isolation:auto;mix-blend-mode:normal" d="m 41.826824,981.15122 a 0.50005,0.50005 0 0 0 -0.347656,0.85742 l 0.353515,0.35352 -0.353515,0.35352 a 0.50063738,0.50063738 0 0 0 0.707031,0.70898 l 0.353515,-0.35352 0.353516,0.35352 a 0.50063738,0.50063738 0 0 0 0.707031,-0.70898 l -0.353515,-0.35352 0.353515,-0.35352 a 0.50005,0.50005 0 0 0 -0.363281,-0.85742 0.50005,0.50005 0 0 0 -0.34375,0.15039 l -0.353516,0.35352 -0.353515,-0.35352 a 0.50005,0.50005 0 0 0 -0.359375,-0.15039 z m 10.425781,1.42383 c -0.822505,0 -1.5,0.6775 -1.5,1.50001 0,0.8225 0.677495,1.5 1.5,1.5 0.822505,0 1.5,-0.6775 1.5,-1.5 0,-0.82251 -0.677495,-1.50001 -1.5,-1.50001 z m 0,1 c 0.282065,0 0.5,0.218 0.5,0.50001 0,0.2821 -0.217935,0.5 -0.5,0.5 -0.282065,0 -0.5,-0.2179 -0.5,-0.5 0,-0.28201 0.217935,-0.50001 0.5,-0.50001 z m 7.574219,2.00001 a 0.50005,0.50005 0 0 0 -0.347656,0.8594 l 0.353515,0.3535 -0.353515,0.3535 a 0.50005,0.50005 0 1 0 0.707031,0.707 l 0.353515,-0.3535 0.353516,0.3535 a 0.50005,0.50005 0 1 0 0.707031,-0.707 l -0.353515,-0.3535 0.353515,-0.3535 a 0.50005,0.50005 0 0 0 -0.363281,-0.8594 0.50005,0.50005 0 0 0 -0.34375,0.1523 l -0.353516,0.3536 -0.353515,-0.3536 a 0.50005,0.50005 0 0 0 -0.359375,-0.1523 z m -16.326172,2.7871 c -0.822351,0 -1.5,0.6777 -1.5,1.5 0,0.8224 0.677649,1.5 1.5,1.5 l 0.5,0 0,9.41414 c -5.329735,1.7366 -8.996477,6.6627 -9,12.2988 0,7.1738 5.826223,13 13,13 2.500747,0 4.82898,-0.721 6.8125,-1.9473 0.169898,0.5225 0.520203,1.0204 0.964844,1.4336 0.475382,0.4419 1.057747,0.8008 1.722656,0.8008 l 2.5,0 0,1 1,0 0,-1 13,0 0,1 1,0 0,-1 1.5,0 c 1.376351,0 2.5,-1.1236 2.5,-2.5 l 0,-13 c 0,-1.3763 -1.123649,-2.5 -2.5,-2.5 l -1.5,0 0,-1 0.416016,0 c 0.323166,0 0.583984,-0.223 0.583984,-0.5 0,-0.277 -0.260818,-0.5 -0.583984,-0.5 l -5.832032,0 c -0.323166,0 -0.583984,0.223 -0.583984,0.5 0,0.277 0.260818,0.5 0.583984,0.5 l 0.416016,0 0,1 -3,0 0,-1 0.416016,0 c 0.323166,0 0.583984,-0.223 0.583984,-0.5 0,-0.277 -0.260818,-0.5 -0.583984,-0.5 l -5.832032,0 c -0.323166,0 -0.583984,0.223 -0.583984,0.5 0,0.277 0.260818,0.5 0.583984,0.5 l 0.416016,0 0,1 -1.90625,0 c -1.399687,-3.5374 -4.327689,-6.3588 -8.09375,-7.5859 l 0,-9.41414 0.5,0 c 0.822351,0 1.5,-0.6776 1.5,-1.5 0,-0.8223 -0.677649,-1.5 -1.5,-1.5 l -9,0 z m 0,1 9,0 c 0.285649,0 0.5,0.2144 0.5,0.5 0,0.2857 -0.214351,0.5 -0.5,0.5 l -9,0 c -0.285649,0 -0.5,-0.2143 -0.5,-0.5 0,-0.2856 0.214351,-0.5 0.5,-0.5 z m 1.5,2 6,0 0,9.72074 a 0.50005,0.50005 0 0 0 0.359375,0.4805 c 4.227422,1.2329 7.358059,4.6447 8.324219,8.7988 l -23.365235,0 c 0.966756,-4.153 4.095604,-7.5642 8.322266,-8.7969 a 0.50005,0.50005 0 0 0 0.359375,-0.4824 l 0,-9.72074 z m -4.755859,1.9863 a 0.50005,0.50005 0 0 0 -0.492188,0.5078 l 0,0.5 -0.5,0 a 0.50005,0.50005 0 1 0 0,1 l 0.498047,0 0,0.5 a 0.50005,0.50005 0 1 0 1,0 l 0,-0.5 0.5,0 a 0.50005,0.50005 0 1 0 0,-1 l -0.498047,0 0,-0.5 a 0.50005,0.50005 0 0 0 -0.507812,-0.5078 z m 16.005859,0.2266 a 0.50005,0.50005 0 0 0 -0.347656,0.8594 l 0.990234,0.9902 a 0.50064305,0.50064305 0 1 0 0.707031,-0.709 l -0.990234,-0.9883 a 0.50005,0.50005 0 0 0 -0.359375,-0.1523 z m 3.986328,0 a 0.50005,0.50005 0 0 0 -0.34375,0.1523 l -0.990234,0.9883 a 0.50064305,0.50064305 0 1 0 0.707031,0.709 l 0.990234,-0.9902 a 0.50005,0.50005 0 0 0 -0.363281,-0.8594 z m -30.736328,2 c -0.822505,0 -1.5,0.6775 -1.5,1.5 0,0.8225 0.677495,1.5 1.5,1.5 0.822505,0 1.5,-0.6775 1.5,-1.5 0,-0.8225 -0.677495,-1.5 -1.5,-1.5 z m 19.714844,0 a 0.5,0.5 0 0 0 -0.462891,0.5 0.5,0.5 0 0 0 0.5,0.5 0.5,0.5 0 0 0 0.5,-0.5 0.5,0.5 0 0 0 -0.5,-0.5 0.5,0.5 0 0 0 -0.03711,0 z m -19.714844,1 c 0.282065,0 0.5,0.218 0.5,0.5 0,0.2821 -0.217935,0.5 -0.5,0.5 -0.282065,0 -0.5,-0.2179 -0.5,-0.5 0,-0.282 0.217935,-0.5 0.5,-0.5 z m 27.736328,0 a 0.50005,0.50005 0 0 0 -0.34375,0.1523 l -0.990234,0.9883 a 0.50064305,0.50064305 0 1 0 0.707031,0.709 l 0.990234,-0.9902 a 0.50005,0.50005 0 0 0 -0.363281,-0.8594 z m 2.013672,0 a 0.50005,0.50005 0 0 0 -0.347656,0.8594 l 0.990234,0.9902 a 0.50064305,0.50064305 0 1 0 0.707031,-0.709 l -0.990234,-0.9883 a 0.50005,0.50005 0 0 0 -0.359375,-0.1523 z m -12.035156,2 a 0.5,0.5 0 0 0 -0.462891,0.5 0.5,0.5 0 0 0 0.5,0.5 0.5,0.5 0 0 0 0.5,-0.5 0.5,0.5 0 0 0 -0.5,-0.5 0.5,0.5 0 0 0 -0.03711,0 z m -21.714844,1.78714 c -0.822346,0 -1.5,0.6777 -1.5,1.5 0,0.6468 0.421021,1.1977 1,1.4063 l 0,7.4648 -6.521484,11.6289 -0.144531,0.25 c -0.446183,0.7728 -0.446183,1.7272 0,2.5 0.446181,0.7728 1.273652,1.25 2.166015,1.25 l 14,0 c 0.892363,0 1.717881,-0.4772 2.164062,-1.25 0.445122,-0.7709 0.444908,-1.7223 0.002,-2.4941 l -0.002,0 -0.01562,-0.027 c -0.02339,-0.042 -3.985913,-7.1881 -6.648442,-11.8519 l 0,-7.4707 c 0.578979,-0.2086 1,-0.7595 1,-1.4063 0,-0.8223 -0.677653,-1.5 -1.5,-1.5 l -4,0 z m 9.326172,0.7891 a 0.50005,0.50005 0 0 0 -0.347656,0.8574 l 0.353515,0.3535 -0.353515,0.3535 a 0.50064305,0.50064305 0 1 0 0.707031,0.709 l 0.353515,-0.3535 0.353516,0.3535 a 0.50064305,0.50064305 0 1 0 0.707031,-0.709 l -0.353515,-0.3535 0.353515,-0.3535 a 0.50005,0.50005 0 0 0 -0.363281,-0.8574 0.50005,0.50005 0 0 0 -0.34375,0.1504 l -0.353516,0.3535 -0.353515,-0.3535 a 0.50005,0.50005 0 0 0 -0.359375,-0.1504 z m -9.326172,0.2109 4,0 c 0.285635,0 0.5,0.2144 0.5,0.5 0,0.2857 -0.214305,0.5 -0.5,0.5 l -4,0 c -0.285694,0 -0.5,-0.2143 -0.5,-0.5 0,-0.2856 0.214366,-0.5 0.5,-0.5 z m 0.5,2 3,0 0,7.6328 0.06641,0.1152 c 0.726815,1.272 1.556549,2.7597 2.38086,4.2266 -0.595466,0.2588 -2.080886,0.7273 -3.710938,-0.1523 -0.642819,-0.3462 -1.275558,-0.518 -1.863281,-0.5821 l 0,0 c -0.781553,-0.085 -1.45719,0.029 -1.996094,0.1739 l 2.123043,-3.7832 0,-7.6309 z m 24.5,1 c -0.822505,0 -1.5,0.6775 -1.5,1.5 0,0.8225 0.677495,1.5 1.5,1.5 0.822505,0 1.5,-0.6775 1.5,-1.5 0,-0.8225 -0.677495,-1.5 -1.5,-1.5 z m 0,1 c 0.282065,0 0.5,0.218 0.5,0.5 0,0.2821 -0.217935,0.5 -0.5,0.5 -0.282065,0 -0.5,-0.2179 -0.5,-0.5 0,-0.282 0.217935,-0.5 0.5,-0.5 z m -7,2 a 0.5,0.5 0 0 0 -0.5,0.5 0.5,0.5 0 0 0 0.5,0.5 0.5,0.5 0 0 0 0.5,-0.5 0.5,0.5 0 0 0 -0.5,-0.5 z m 19.5,0 3,0 0,14.2129 c 0,0.8397 -0.660351,1.5 -1.5,1.5 -0.839649,0 -1.5,-0.6603 -1.5,-1.5 l 0,-0.2129 0.751953,0 0,-1 -0.751953,0 0,-1 1.5,0 0,-1 -1.5,0 0,-1 0.751953,0 0,-1 -0.751953,0 0,-1 1.5,0 0,-1 -1.5,0 0,-1 0.751953,0 0,-1 -0.751953,0 0,-1 1.5,0 0,-1 -1.5,0 0,-3 z m 8,0 3,0 0,14.2129 c 0,0.8397 -0.660351,1.5 -1.5,1.5 -0.839649,0 -1.5,-0.6603 -1.5,-1.5 l 0,-0.2129 0.751953,0 0,-1 -0.751953,0 0,-1 1.5,0 0,-1 -1.5,0 0,-1 0.751953,0 0,-1 -0.751953,0 0,-1 1.5,0 0,-1 -1.5,0 0,-1 0.751953,0 0,-1 -0.751953,0 0,-1 1.5,0 0,-1 -1.5,0 0,-3 z m -10.558594,2 1.558594,0 0,12.2129 c 0,1.3764 1.123649,2.5 2.5,2.5 1.376351,0 2.5,-1.1236 2.5,-2.5 l 0,-12.2129 3,0 0,12.2129 c 0,1.3764 1.123649,2.5 2.5,2.5 1.376351,0 2.5,-1.1236 2.5,-2.5 l 0,-12.2129 1.5,0 c 0.839649,0 1.5,0.6604 1.5,1.5 l 0,13 c 0,0.8397 -0.660351,1.5 -1.5,1.5 l -19,0 c -0.258917,0 -0.682853,-0.2003 -1.041016,-0.5332 -0.358162,-0.3329 -0.642529,-0.784 -0.720703,-1.0703 a 0.50005,0.50005 0 0 0 -0.0918,-0.1914 c 3.238641,-2.3655 5.353519,-6.1792 5.353519,-10.4922 -8.21e-4,-1.285 -0.200632,-2.5311 -0.558594,-3.7129 z m -24.310547,2 23.738282,0 c 0.08119,0.5616 0.130399,1.1327 0.130859,1.7129 0,6.6334 -5.366659,12 -12,12 -6.632675,0 -11.998923,-5.3657 -12,-11.9981 4.58e-4,-0.5808 0.04949,-1.1526 0.130859,-1.7148 z m 28.369141,1 a 0.5,0.5 0 0 0 -0.5,0.5 0.5,0.5 0 0 0 0.5,0.5 0.5,0.5 0 0 0 0.5,-0.5 0.5,0.5 0 0 0 -0.5,-0.5 z m 8,0 a 0.5,0.5 0 0 0 -0.5,0.5 0.5,0.5 0 0 0 0.5,0.5 0.5,0.5 0 0 0 0.5,-0.5 0.5,0.5 0 0 0 -0.5,-0.5 z m -25.285156,0.2129 a 0.5,0.5 0 0 0 -0.462891,0.5 0.5,0.5 0 0 0 0.5,0.5 0.5,0.5 0 0 0 0.5,-0.5 0.5,0.5 0 0 0 -0.5,-0.5 0.5,0.5 0 0 0 -0.03711,0 z m 9.537109,1.5 c -0.822505,0 -1.5,0.6775 -1.5,1.5 0,0.8225 0.677495,1.5 1.5,1.5 0.822505,0 1.5,-0.6775 1.5,-1.5 0,-0.8225 -0.677495,-1.5 -1.5,-1.5 z m -16,1 c -0.822505,0 -1.5,0.6775 -1.5,1.5 0,0.8225 0.677495,1.5 1.5,1.5 0.822505,0 1.5,-0.6775 1.5,-1.5 0,-0.8225 -0.677495,-1.5 -1.5,-1.5 z m 16,0 c 0.282065,0 0.5,0.218 0.5,0.5 0,0.2821 -0.217935,0.5 -0.5,0.5 -0.282065,0 -0.5,-0.2179 -0.5,-0.5 0,-0.282 0.217935,-0.5 0.5,-0.5 z m -31.679687,0.4941 c 0.64264,-0.031 1.402066,0.077 2.189453,0.502 2.094015,1.1278 4.007562,0.4393 4.673828,0.1348 2.00844,3.5813 3.857422,6.9003 3.857422,6.9003 l 0.0059,0.01 c 0.266256,0.4642 0.26765,1.0325 0,1.4961 -0.26835,0.4648 -0.762129,0.75 -1.298828,0.75 l -14,0 c -0.536699,0 -1.030478,-0.2852 -1.298828,-0.75 -0.2673,-0.4629 -0.265212,-1.0303 0,-1.4941 l 3.927734,-7.0059 a 0.500132,0.500132 0 0 0 0.126954,-0.051 c 0,0 0.745339,-0.4398 1.816406,-0.4922 z m 24.142578,0.01 a 0.5,0.5 0 0 0 -0.462891,0.5 0.5,0.5 0 0 0 0.5,0.5 0.5,0.5 0 0 0 0.5,-0.5 0.5,0.5 0 0 0 -0.5,-0.5 0.5,0.5 0 0 0 -0.03711,0 z m -8.462891,0.5 c 0.282065,0 0.5,0.218 0.5,0.5 0,0.2821 -0.217935,0.5 -0.5,0.5 -0.282065,0 -0.5,-0.2179 -0.5,-0.5 0,-0.282 0.217935,-0.5 0.5,-0.5 z m 24.248047,0.283 a 0.5,0.5 0 0 0 -0.5,0.5 0.5,0.5 0 0 0 0.5,0.5 0.5,0.5 0 0 0 0.5,-0.5 0.5,0.5 0 0 0 -0.5,-0.5 z m 8,0 a 0.5,0.5 0 0 0 -0.5,0.5 0.5,0.5 0 0 0 0.5,0.5 0.5,0.5 0 0 0 0.5,-0.5 0.5,0.5 0 0 0 -0.5,-0.5 z m -44.5,1 a 0.5,0.5 0 0 0 -0.5,0.5 0.5,0.5 0 0 0 0.5,0.5 0.5,0.5 0 0 0 0.5,-0.5 0.5,0.5 0 0 0 -0.5,-0.5 z m 15.714844,0.2129 a 0.5,0.5 0 0 0 -0.462891,0.5 0.5,0.5 0 0 0 0.5,0.5 0.5,0.5 0 0 0 0.5,-0.5 0.5,0.5 0 0 0 -0.5,-0.5 0.5,0.5 0 0 0 -0.03711,0 z m 10,0 a 0.5,0.5 0 0 0 -0.462891,0.5 0.5,0.5 0 0 0 0.5,0.5 0.5,0.5 0 0 0 0.5,-0.5 0.5,0.5 0 0 0 -0.5,-0.5 0.5,0.5 0 0 0 -0.03711,0 z m -29.466797,0.7871 c -0.822505,0 -1.5,0.6775 -1.5,1.5 0,0.8225 0.677495,1.5 1.5,1.5 0.822505,0 1.5,-0.6775 1.5,-1.5 0,-0.8225 -0.677495,-1.5 -1.5,-1.5 z m 0,1 c 0.282065,0 0.5,0.218 0.5,0.5 0,0.2821 -0.217935,0.5 -0.5,0.5 -0.282065,0 -0.5,-0.2179 -0.5,-0.5 0,-0.282 0.217935,-0.5 0.5,-0.5 z m 4.503906,0 a 0.5,0.5 0 0 0 -0.5,0.5 0.5,0.5 0 0 0 0.5,0.5 0.5,0.5 0 0 0 0.5,-0.5 0.5,0.5 0 0 0 -0.5,-0.5 z m 2.248047,1 c -0.822505,0 -1.5,0.6775 -1.5,1.5 0,0.8225 0.677495,1.5 1.5,1.5 0.822505,0 1.5,-0.6775 1.5,-1.5 0,-0.8225 -0.677495,-1.5 -1.5,-1.5 z m 18,0 c -0.822505,0 -1.5,0.6775 -1.5,1.5 0,0.8225 0.677495,1.5 1.5,1.5 0.822505,0 1.5,-0.6775 1.5,-1.5 0,-0.8225 -0.677495,-1.5 -1.5,-1.5 z m -18,1 c 0.282065,0 0.5,0.218 0.5,0.5 0,0.2821 -0.217935,0.5 -0.5,0.5 -0.282065,0 -0.5,-0.2179 -0.5,-0.5 0,-0.282 0.217935,-0.5 0.5,-0.5 z m 18,0 c 0.282065,0 0.5,0.218 0.5,0.5 0,0.2821 -0.217935,0.5 -0.5,0.5 -0.282065,0 -0.5,-0.2179 -0.5,-0.5 0,-0.282 0.217935,-0.5 0.5,-0.5 z m 15,0 a 0.5,0.5 0 0 0 -0.5,0.5 0.5,0.5 0 0 0 0.5,0.5 0.5,0.5 0 0 0 0.5,-0.5 0.5,0.5 0 0 0 -0.5,-0.5 z m 8,0 a 0.5,0.5 0 0 0 -0.5,0.5 0.5,0.5 0 0 0 0.5,0.5 0.5,0.5 0 0 0 0.5,-0.5 0.5,0.5 0 0 0 -0.5,-0.5 z m -26.285156,0.2129 a 0.5,0.5 0 0 0 -0.462891,0.5 0.5,0.5 0 0 0 0.5,0.5 0.5,0.5 0 0 0 0.5,-0.5 0.5,0.5 0 0 0 -0.5,-0.5 0.5,0.5 0 0 0 -0.03711,0 z m -22.714844,0.7871 a 0.5,0.5 0 0 0 -0.5,0.5 0.5,0.5 0 0 0 0.5,0.5 0.5,0.5 0 0 0 0.5,-0.5 0.5,0.5 0 0 0 -0.5,-0.5 z m 4.751953,1 a 0.5,0.5 0 0 0 -0.5,0.5 0.5,0.5 0 0 0 0.5,0.5 0.5,0.5 0 0 0 0.5,-0.5 0.5,0.5 0 0 0 -0.5,-0.5 z" color="#000" font-family="sans-serif" font-weight="400" overflow="visible" white-space="normal"/></g></svg>