<svg xmlns="http://www.w3.org/2000/svg" width="64" height="64" viewBox="0 0 64 64"><g transform="translate(-446.5 -1704.873)"><rect width="42.078" height="6.039" x="458.961" y="1711.373" fill="#dae7fc"/><rect width="27" height="4" x="467" y="1757.373" fill="#b2cdf8" rx="0" ry="0"/><path fill="#f4f7f8" d="m 505.49995,1758.3658 0,-8 0,-26 c 0,-2.216 -1.784,-4 -4,-4 l -46,0 -4,4 0,26 c 0,2.216 1.784,4 4,4 l 46,0"/><rect width="6" height="3" x="478" y="1722.373" fill="#dae7fc" rx="1.5" ry="1.5"/><rect width="8" height="3" x="477" y="1727.373" fill="#dae7fc" rx="0" ry="0"/><rect width="5" height="3" x="466" y="1739.373" fill="#dae7fc" rx="0" ry="0"/><path fill="#dae7fc" d="M471.99995 1729.58l2.79289 2.7929-2.79289 2.7929-2.79289-2.7929zM505.49995 1758.3658l0-8 0-26c0-1.108-.446-2.108-1.169-2.831-51.662 31.662 0 0-51.662 31.662.723.723 1.723 1.169 2.831 1.169l46 0"/><path fill="#b2cdf8" d="M501.49995 1762.3729a4.0000017 4.0000017 0 0 0 3.4641-2 4.0000017 4.0000017 0 0 0 0-3.9999 4.0000017 4.0000017 0 0 0-3.4641-2l0 4zM455.49995 1715.3729c-1.42933-.0003-2.75018.7622-3.46484 2-.39983.6975-.58019 1.4993-.51758 2.3008 0 11.6992-.0176 17.6992-.0176 30.6992l.004 0c-.001-.7017.1818-1.3915.53125-2 .71466-1.2378 2.03551-2.0003 3.46484-2l0-23 0-3.6992 0-.3008z"/><rect width="1" height="2" x="460.5" y="1715.873" fill="#0e7bff"/><rect width="1" height="3" x="462.5" y="1714.873" fill="#0e7bff"/><rect width="1" height="2" x="464.5" y="1715.873" fill="#0e7bff"/><rect width="1" height="3" x="466.5" y="1714.873" fill="#0e7bff"/><rect width="1" height="2" x="468.5" y="1715.873" fill="#0e7bff"/><rect width="1" height="3" x="470.5" y="1714.873" fill="#0e7bff"/><rect width="1" height="2" x="472.5" y="1715.873" fill="#0e7bff"/><rect width="1" height="3" x="474.5" y="1714.873" fill="#0e7bff"/><rect width="1" height="2" x="476.5" y="1715.873" fill="#0e7bff"/><rect width="1" height="3" x="478.5" y="1714.873" fill="#0e7bff"/><rect width="1" height="2" x="480.5" y="1715.873" fill="#0e7bff"/><rect width="1" height="3" x="482.5" y="1714.873" fill="#0e7bff"/><rect width="1" height="2" x="484.5" y="1715.873" fill="#0e7bff"/><rect width="1" height="3" x="486.5" y="1714.873" fill="#0e7bff"/><rect width="1" height="2" x="488.5" y="1715.873" fill="#0e7bff"/><rect width="1" height="3" x="490.5" y="1714.873" fill="#0e7bff"/><rect width="1" height="2" x="492.5" y="1715.873" fill="#0e7bff"/><rect width="1" height="3" x="494.5" y="1714.873" fill="#0e7bff"/><rect width="1" height="2" x="496.5" y="1715.873" fill="#0e7bff"/><rect width="1" height="3" x="498.5" y="1714.873" fill="#0e7bff"/><rect width="2.121" height="3.757" x="491.97" y="1757.502" fill="#b2cdf8"/><path fill="none" stroke="#0e7bff" stroke-linecap="round" stroke-linejoin="round" d="m 451.49995,1724.3658 0,26 c 0,2.216 1.784,4 4,4 l 46,0 m 4,4 0,-8 0,-26 c 0,-2.216 -1.784,-4 -4,-4 l -46,0"/><path fill="none" stroke="#0e7bff" stroke-linecap="round" stroke-linejoin="round" d="M501.49995 1762.3729a4.0000017 4.0000017 0 0 0 3.4641-2 4.0000017 4.0000017 0 0 0 0-3.9999 4.0000017 4.0000017 0 0 0-3.4641-2l0 4zM487.49995 1742.3729l0 4-3.43701 0M468.49923 1742.3729l0 2 7.00072 0 0-.5 0-1.2708M487.49995 1739.3104l0-2.9063m0-3.1562l0-4.875-2.5 0M468.46632 1739.0035l0-1.6306 7.0515 0 0 1.6306M471.99995 1737.2426l0-2.2224m0-5.1929l0-1.4544 4.75 0"/><rect width="6" height="3" x="478" y="1722.373" fill="none" stroke="#0e7bff" stroke-linecap="round" stroke-linejoin="round" rx="1.5" ry="1.5"/><rect width="8" height="3" x="477" y="1727.373" fill="none" stroke="#0e7bff" stroke-linecap="round" stroke-linejoin="round" rx="0" ry="0"/><rect width="5" height="3" x="466" y="1739.373" fill="none" stroke="#0e7bff" stroke-linecap="round" stroke-linejoin="round" rx="0" ry="0"/><rect width="7" height="3" x="484" y="1739.373" fill="#b2cdf8" rx="0" ry="0"/><rect width="5" height="3" x="473" y="1739.373" fill="#b2cdf8" rx="0" ry="0"/><rect width="8" height="3" x="477" y="1749.373" fill="#b2cdf8" rx="1.5" ry="1.5"/><path fill="none" stroke="#0e7bff" stroke-linecap="round" stroke-linejoin="round" d="M480.99995 1725.5292l0 1.7812M471.99995 1729.58l2.79289 2.7929-2.79289 2.7929-2.79289-2.7929z"/><rect width="7" height="3" x="484" y="1733.373" fill="#b2cdf8" rx="0" ry="0"/><path fill="none" stroke="#0e7bff" stroke-linecap="round" stroke-linejoin="round" d="m 471.99995,1744.3729 0,2 5.91724,0"/><rect width="6" height="3" x="478" y="1744.373" fill="#b2cdf8" rx="0" ry="0"/><path fill="none" stroke="#0e7bff" stroke-linecap="round" stroke-linejoin="round" d="M480.99995 1747.4916l0 1.7349M455.49995 1715.3729c-1.42933-.0003-2.75018.7622-3.46484 2-.39983.6975-.58019 1.4993-.51758 2.3008 0 11.6992-.0176 17.6992-.0176 30.6992l.004 0c-.001-.7017.1818-1.3915.53125-2 .71466-1.2378 2.03551-2.0003 3.46484-2l0-23 0-3.6992 0-.3008z"/><rect width="42.078" height="6.039" x="458.961" y="1711.373" fill="none" stroke="#0e7bff" stroke-linejoin="round"/><path fill="#dae7fc" d="m 466.99995,1757.3729 0,4 -5.00008,-2 z"/><path fill="#6ca6fd" d="m 493.99997,1757.3729 1.99996,0 c 0.55401,0 1.00002,0.446 1.00002,1 l 0,2 c 0,0.554 -0.44601,1 -1.00002,1 l -1.99996,0"/><path fill="none" stroke="#0e7bff" stroke-linecap="round" stroke-linejoin="round" d="m 491.9999,1761.3729 0,-4"/><path fill="#f4f7f8" stroke="#0e7bff" stroke-linecap="round" stroke-linejoin="round" d="m 466.99995,1757.3729 0,4 -5.00008,-2 z"/><path fill="none" stroke="#0e7bff" d="m 466.99995,1759.3729 25,0"/><path fill="none" stroke="#0e7bff" stroke-linecap="round" stroke-linejoin="round" d="m 493.99997,1757.3729 1.99996,0 c 0.55401,0 1.00002,0.446 1.00002,1 l 0,2 c 0,0.554 -0.44601,1 -1.00002,1 l -1.99996,0"/><rect width="27" height="4" x="467" y="1757.373" fill="none" stroke="#0e7bff" stroke-linecap="round" stroke-linejoin="round" rx="0" ry="0"/><rect width="7" height="3" x="484" y="1739.373" fill="none" stroke="#0e7bff" stroke-linecap="round" stroke-linejoin="round" rx="0" ry="0"/><rect width="5" height="3" x="473" y="1739.373" fill="none" stroke="#0e7bff" stroke-linecap="round" stroke-linejoin="round" rx="0" ry="0"/><rect width="8" height="3" x="477" y="1749.373" fill="none" stroke="#0e7bff" stroke-linecap="round" stroke-linejoin="round" rx="1.5" ry="1.5"/><rect width="7" height="3" x="484" y="1733.373" fill="none" stroke="#0e7bff" stroke-linecap="round" stroke-linejoin="round" rx="0" ry="0"/><rect width="6" height="3" x="478" y="1744.373" fill="none" stroke="#0e7bff" stroke-linecap="round" stroke-linejoin="round" rx="0" ry="0"/></g></svg>