<svg xmlns="http://www.w3.org/2000/svg" width="64" height="64" viewBox="0 0 64 64"><g transform="translate(-517 -1704.873)"><path fill="#6ca6fd" d="m 543.5021,1760.3729 c -0.554,0 -1,0.446 -1,1 l 0,1 1,0 13,0 1,0 0,-1 c 0,-0.554 -0.446,-1 -1,-1 l -13,0 z"/><path fill="#b2cdf8" d="m 546.50208,1754.3729 7,0 0,6 -7,0 z"/><path fill="#f4f7f8" d="m 570.50208,1724.4078 0,23.9651 0,2 -41,0 0,-2 0,-23.9651 m 12.93752,-0.035 16.56175,0"/><path fill="#dae7fc" d="m 567.5021,1727.4012 0,19.9717 -35,0 0,-19.9717 9.9375,-0.028 16.22964,0 z"/><path fill="#6ca6fd" d="m 570.50208,1750.3729 0,2 c 0,1.108 -0.892,2 -2,2 l -37,0 c -1.108,0 -2,-0.892 -2,-2 l 0,-2"/><circle style="isolation:auto;mix-blend-mode:normal" cx="538.002" cy="1715.373" r="1" fill="#6ca6fd" stroke="#0e7bff" stroke-linecap="round" stroke-linejoin="round" color="#000" overflow="visible"/><g stroke="#0e7bff" transform="rotate(90 -81 1610.865)"><path fill="none" stroke-linecap="round" stroke-linejoin="round" d="M20.49995 1000.8551l0-3.00002M18.99994 999.35509l3.00002 0"/></g><circle cx="524.002" cy="1716.373" r="1" fill="#6ca6fd" stroke="#0e7bff" stroke-linecap="round" stroke-linejoin="round" color="#000" overflow="visible" style="isolation:auto;mix-blend-mode:normal"/><path fill="#6ca6fd" d="m 553.50208,1754.3729 0,6 -7,0 z"/><path fill="none" stroke="#0e7bff" d="m 570.50208,1750.3729 0,2 c 0,1.108 -0.892,2 -2,2 l -37,0 c -1.108,0 -2,-0.892 -2,-2 l 0,-2"/><path fill="#6ca6fd" d="m 522.50211,1720.3729 18.99998,0 c 0.55401,0 1.00002,0.446 1.00002,1 l 0,14 c 0,0.554 -0.44601,1 -1.00002,1 l -4.00001,0 0,2 -3,-2 -11.99997,0 c -0.55401,0 -1.00002,-0.446 -1.00002,-1 l 0,-14 c 0,-0.554 0.44601,-1 1.00002,-1 z"/><path fill="none" stroke="#0e7bff" d="m 570.50208,1734.5113 0,13.8616 0,2 -41,0 0,-2 0,-11.9375 m 12.93752,-12.0625 16.56175,0"/><path fill="#b2cdf8" d="m 567.5021,1727.4012 0,19.9717 -35,0 z"/><path fill="none" stroke="#0e7bff" d="m 567.5021,1735.267 0,12.1059 -35,0 0,-11.0625 m 9.9375,-8.9375 16.22964,0"/><rect width="7" height="6" x="546.502" y="1754.373" fill="none" stroke="#0e7bff" rx="0" ry="0"/><path fill="none" stroke="#0e7bff" d="m 543.5021,1760.3729 c -0.554,0 -1,0.446 -1,1 l 0,1 1,0 13,0 1,0 0,-1 c 0,-0.554 -0.446,-1 -1,-1 l -13,0 z"/><g stroke="#0e7bff" transform="rotate(45 -622.866 1980.641)"><path fill="none" stroke-linecap="round" stroke-linejoin="round" d="M20.49995 1000.8551l0-3.00002M18.99994 999.35509l3.00002 0"/></g><g stroke="#0e7bff" transform="rotate(90 -61.886 1634.737)"><path fill="none" stroke-linecap="round" stroke-linejoin="round" d="M20.49995 1000.8551l0-3.00002M18.99994 999.35509l3.00002 0"/></g><circle cx="574.002" cy="1737.63" r="1" fill="#6ca6fd" stroke="#0e7bff" stroke-linecap="round" stroke-linejoin="round" color="#000" overflow="visible" style="isolation:auto;mix-blend-mode:normal"/><path fill="#6ca6fd" d="m 575.5,1726.8335 c 0,4.6715 -3.78697,8.4584 -8.45843,8.4584 -0.58393,0 -1.15405,-0.059 -1.70467,-0.1718 -0.55062,-0.1128 -1.08176,-0.2789 -1.58773,-0.493 l -5.16602,0.6648 0.6647,-5.1661 c -0.21402,-0.506 -0.38019,-1.0371 -0.49287,-1.5877 -0.11267,-0.5506 -0.17184,-1.1208 -0.17184,-1.7046 -10e-6,-4.6716 3.78697,-8.4585 8.45843,-8.4585 4.67146,0 8.45843,3.7869 8.45843,8.4585 z"/><path fill="none" stroke="#0e7bff" stroke-linecap="round" d="m 575.5,1726.8335 c 0,4.6715 -3.78697,8.4584 -8.45843,8.4584 -0.58393,0 -1.15405,-0.059 -1.70467,-0.1718 -0.55062,-0.1128 -1.08176,-0.2789 -1.58773,-0.493 l -5.16602,0.6648 0.6647,-5.1661 c -0.21402,-0.506 -0.38019,-1.0371 -0.49287,-1.5877 -0.11267,-0.5506 -0.17184,-1.1208 -0.17184,-1.7046 -10e-6,-4.6716 3.78697,-8.4585 8.45843,-8.4585 4.67146,0 8.45843,3.7869 8.45843,8.4585 z"/><g stroke="#0e7bff" transform="translate(495.751 719.509)"><path fill="none" stroke-dashoffset="1.3" stroke-linejoin="round" style="isolation:auto;mix-blend-mode:normal" d="m 72.750006,1009.4413 a 2.4002967,2.4002006 0 0 1 -3.038882,-0.5358 2.4002967,2.4002006 0 0 1 0,-3.0856 2.4002967,2.4002006 0 0 1 3.038883,-0.5359" color="#000" overflow="visible"/><path fill="none" d="m 72.750006,1009.9211 0,-5.5586"/><path fill="none" stroke-linecap="round" stroke-linejoin="round" d="m 72.750005,1010.0629 2.101221,0"/><path fill="none" stroke-dashoffset="1.3" stroke-linejoin="round" style="isolation:auto;mix-blend-mode:normal" d="m 72.416151,1011.7106 a 4.5010047,4.500823 0 0 1 -5.259093,-2.4776 4.5010047,4.500823 0 0 1 1.570861,-5.597 4.5010047,4.500823 0 0 1 5.780268,0.6206 4.5010047,4.500823 0 0 1 0.346894,5.8029" color="#000" overflow="visible"/></g><g stroke="#0e7bff" transform="matrix(2.58909 -.69738 .69374 2.60266 -238.981 -831.522)"><path fill="#dae7fc" fill-rule="evenodd" stroke="none" d="m 35,997.3622 5,0 -4,1 z"/><path fill="none" stroke-linecap="round" stroke-linejoin="round" stroke-width=".372" d="m 35,997.3622 5,0 -4,1 z"/><path fill="#6ca6fd" fill-rule="evenodd" stroke="none" d="m 40,997.3622 -4,1 0,1 1,-0.5 3,-1.5"/><path fill="#dae7fc" fill-rule="evenodd" stroke="none" d="m 40,997.3622 -3,1.5 1,1 z"/><path fill="none" stroke-linecap="round" stroke-linejoin="round" stroke-width=".372" d="M40 997.3622l-4 1 0 1 1-.5 3-1.5M40 997.3622l-3 1.5 1 1z"/></g><path fill="none" stroke="#0e7bff" stroke-dasharray="1 1" d="m 545.50208,1743.13 c -14.2179,10 -25,9 -18,2"/><path fill="none" stroke="#0e7bff" stroke-dasharray="1 1" stroke-dashoffset=".5" d="m 550.64724,1745.2251 c -9.19728,9.2656 -22.62314,14 -24,9"/><path fill="none" stroke="#0e7bff" d="m 522.50211,1720.3729 18.99998,0 c 0.55401,0 1.00002,0.446 1.00002,1 l 0,14 c 0,0.554 -0.44601,1 -1.00002,1 l -4.00001,0 0,2 -3,-2 -11.99997,0 c -0.55401,0 -1.00002,-0.446 -1.00002,-1 l 0,-14 c 0,-0.554 0.44601,-1 1.00002,-1 z"/><rect width="15" height="10" x="524.502" y="1723.373" fill="#dae7fc" rx="1" ry="1"/><path fill="#f4f7f8" d="m 525.5021,1723.3729 12.99996,0 c 0.55401,0 1.00002,0.446 1.00002,1 l 0,1 -7.5,3 -7.5,-3 0,-1 c 0,-0.543 0.4455,-1 1.00002,-1 z"/><path fill="#b2cdf8" d="m 534.87707,1723.3729 3.62499,0 c 0.55401,0 1.00002,0.446 1.00002,1 l 0,8 c 0,0.554 -0.44601,1 -1.00002,1 l -13.24997,0 z"/><rect width="15" height="10" x="524.502" y="1723.373" fill="none" stroke="#0e7bff" rx="1" ry="1"/><path fill="#dae7fc" d="m 534.83021,1723.3729 3.67185,0 c 0.55401,0 1.00002,0.446 1.00002,1 l 0,1 -7.5,3 -0.9375,-0.375 -0.46875,-0.1875 z"/><path fill="none" stroke="#0e7bff" d="m 525.5021,1723.3729 12.99996,0 c 0.55401,0 1.00002,0.446 1.00002,1 l 0,1 -7.5,3 -7.5,-3 0,-1 c 0,-0.543 0.4455,-1 1.00002,-1 z"/></g></svg>