<svg xmlns="http://www.w3.org/2000/svg" xmlns:xlink="http://www.w3.org/1999/xlink" width="96" height="96" viewBox="0 0 96 96"><defs><linearGradient id="b" x1="868.253" x2="937.656" y1="521.354" y2="588.736" gradientTransform="matrix(3.0757 0 0 3.0757 -2653.937 -629.677)" gradientUnits="userSpaceOnUse" xlink:href="#a"/><linearGradient id="a"><stop offset="0" stop-color="#24f3d2"/><stop offset=".394" stop-color="#0674f0"/><stop offset=".507" stop-color="#6961b5"/><stop offset=".813" stop-color="#f34660"/><stop offset="1" stop-color="#ee078d"/></linearGradient></defs><g transform="translate(0 -956.362)"><rect width="96" height="96" y="956.362" fill="url(#b)" rx="20.288" ry="20.288"/><path fill="#fff" style="line-height:normal;text-indent:0;text-align:start;text-decoration-line:none;text-decoration-style:solid;text-decoration-color:#000;text-transform:none;block-progression:tb;isolation:auto;mix-blend-mode:normal" d="m 25.500682,973.07833 c -0.21967,0.008 -0.408304,0.15867 -0.464843,0.37109 l -0.445313,1.66601 c -0.04831,0.006 -0.09645,0.0121 -0.144531,0.0195 l -0.861328,-1.49414 c -0.137906,-0.23969 -0.444162,-0.32194 -0.683594,-0.1836 l -1.662109,0.96094 c -0.237804,0.13852 -0.318982,0.44315 -0.181641,0.68164 l 0.861328,1.49414 c -0.02949,0.0373 -0.05779,0.075 -0.08594,0.11328 l -1.667968,-0.44531 c -0.266379,-0.0708 -0.539803,0.0873 -0.611328,0.35351 l -0.498047,1.85352 c -0.07078,0.26638 0.08734,0.5398 0.353515,0.61133 l 1.666016,0.44726 c 0.0056,0.0478 0.01223,0.095 0.01953,0.14258 l -1.49414,0.86328 c -0.237804,0.13852 -0.318982,0.44316 -0.181641,0.68164 l 0.958984,1.66211 c 0.137906,0.23969 0.444162,0.32194 0.683594,0.1836 l 1.492188,-0.86133 c 0.03791,0.03 0.07627,0.0593 0.115234,0.0879 l -0.447266,1.66604 c -0.07078,0.2664 0.08734,0.5398 0.353516,0.6113 l 1.853516,0.4961 c 0.267012,0.072 0.541783,-0.086 0.613281,-0.3535 l 0.447265,-1.66603 c 0.04767,-0.006 0.09514,-0.0122 0.142578,-0.0195 l 0.861329,1.49416 c 0.137905,0.2397 0.444161,0.3219 0.683593,0.1836 l 1.66211,-0.95901 c 0.238973,-0.13858 0.320308,-0.44468 0.18164,-0.6836 l -0.861328,-1.49219 c 0.02998,-0.0379 0.0593,-0.0763 0.08789,-0.11523 l 1.666015,0.44531 c 0.267012,0.072 0.541784,-0.0864 0.613282,-0.35351 l 0.496094,-1.85352 c 0.07078,-0.26638 -0.08734,-0.5398 -0.353515,-0.61133 l -1.666016,-0.44531 c -0.0055,-0.0483 -0.01029,-0.0965 -0.01758,-0.14453 l 1.492189,-0.86133 c 0.238975,-0.13858 0.320309,-0.44467 0.181641,-0.68359 l -0.958984,-1.66211 c -0.137906,-0.23969 -0.444162,-0.32194 -0.683594,-0.1836 l -1.492187,0.86133 c -0.03798,-0.03 -0.0762,-0.0592 -0.115235,-0.0879 l 0.447266,-1.66406 c 0.07203,-0.26701 -0.08636,-0.54179 -0.353516,-0.61328 l -1.853515,-0.4961 c -0.04832,-0.0133 -0.09836,-0.0192 -0.148438,-0.0176 z m 41.736328,0.2832 0,0.004 c -0.597719,-0.0236 -1.194408,0.0473 -1.771484,0.21094 -1.40139,0.3966 -2.572124,1.35222 -3.367188,2.60937 -0.702193,-0.12513 -1.421046,-0.17315 -2.111328,0.0215 l -0.002,0 c -2.043654,0.58151 -3.423567,2.4629 -3.585937,4.625 -0.462717,-0.0429 -0.930031,-0.10201 -1.38086,0.0254 -2.119115,0.59975 -3.354151,2.88039 -2.796875,5.08012 0.465297,1.8289 2.073088,3.0294 3.857422,3.0214 0.01323,0.067 0.0188,0.1352 0.03516,0.2012 0.558518,2.2005 2.743108,3.5432 4.863281,2.9434 l 0.002,0 c 0.175452,-0.05 0.339057,-0.1322 0.505859,-0.2071 1.412016,1.2313 3.280864,1.7613 5.074219,1.2559 l 0.002,0 c 1.88992,-0.5344 3.28756,-2.0915 3.869141,-4.0195 0.517223,0.013 1.03634,0 1.537109,-0.1387 l 0.002,0 c 2.910971,-0.8242 4.615687,-3.9644 3.845703,-7.00001 l 0,-0.002 c -0.415735,-1.63139 -1.535995,-2.93066 -2.992187,-3.64648 -0.02247,-0.1175 -0.04143,-0.23556 -0.07031,-0.35156 l 0,-0.002 c -0.635142,-2.50135 -2.696207,-4.28226 -5.138772,-4.55079 -0.261719,-0.0664 -0.263343,-0.056 -0.376953,-0.0801 z m -41.363281,0.82812 0.886719,0.23828 -0.402344,1.50391 c -0.05842,0.21697 0.03505,0.44626 0.228516,0.56055 0.201318,0.11935 0.386265,0.26133 0.554687,0.42383 0.160779,0.15474 0.404629,0.18422 0.597656,0.0723 l 1.345703,-0.77539 0.458985,0.79492 -1.345703,0.77735 c -0.194757,0.11149 -0.291382,0.33908 -0.236328,0.55664 0.05767,0.2269 0.08991,0.45927 0.09375,0.69336 0.0038,0.22332 0.15528,0.41704 0.371093,0.47461 l 1.5,0.40234 -0.238281,0.88867 -1.501953,-0.4043 c -0.216969,-0.0584 -0.446261,0.0351 -0.560547,0.22852 -0.119373,0.20129 -0.261308,0.38824 -0.423828,0.55664 -0.155384,0.16031 -0.185671,0.40421 -0.07422,0.59766 l 0.777344,1.34375 -0.794922,0.46093 -0.779297,-1.3496 c -0.112082,-0.19402 -0.339539,-0.28979 -0.556639,-0.23438 -0.22662,0.058 -0.459467,0.0894 -0.69336,0.0937 -0.223327,0.004 -0.41704,0.15528 -0.474609,0.37109 l -0.400391,1.50191 -0.888671,-0.23823 0.402343,-1.50391 c 0.05781,-0.21591 -0.03469,-0.44396 -0.226562,-0.55859 -0.201314,-0.11935 -0.388223,-0.26328 -0.556641,-0.42579 -0.160778,-0.15474 -0.404629,-0.18422 -0.597656,-0.0723 l -1.345703,0.77734 -0.458985,-0.79687 1.347657,-0.77735 c 0.19485,-0.1123 0.290753,-0.34087 0.234375,-0.55859 -0.05804,-0.22658 -0.08941,-0.45755 -0.09375,-0.69141 -0.0036,-0.22277 -0.154101,-0.41631 -0.369141,-0.47461 l -1.501953,-0.40234 0.238281,-0.88672 1.503906,0.40235 c 0.216358,0.0574 0.444535,-0.0359 0.558594,-0.22852 0.119369,-0.20133 0.261301,-0.38822 0.423828,-0.55664 0.154435,-0.15998 0.184678,-0.40272 0.07422,-0.5957 l -0.777344,-1.34571 0.796875,-0.45898 0.777344,1.34766 c 0.112084,0.19401 0.33954,0.28978 0.556641,0.23437 0.226613,-0.058 0.459471,-0.0895 0.693359,-0.0937 0.223327,-0.004 0.41704,-0.15528 0.474609,-0.37109 l 0.402344,-1.50196 z m 41.324219,0.17188 0,0.002 c 2.155632,0.087 4.017278,1.64638 4.583984,3.8789 0.03742,0.15052 0.06908,0.30158 0.09375,0.45508 l 0.04492,0.27539 0.255859,0.10742 c 1.305068,0.54372 2.300329,1.71375 2.669922,3.16407 0.642035,2.53541 -0.784629,5.12121 -3.150391,5.79101 -0.495756,0.1383 -1.009357,0.1844 -1.519531,0.1367 l -0.435547,-0.041 -0.09766,0.4258 c -0.409646,1.7812 -1.702646,3.1694 -3.355469,3.6367 -1.570753,0.4427 -3.239672,0 -4.427734,-1.1914 l -0.263672,-0.2637 -0.326172,0.1758 c -0.180462,0.097 -0.371734,0.1744 -0.566406,0.2305 -1.574466,0.4454 -3.186338,-0.5257 -3.619141,-2.2246 -0.03881,-0.1567 -0.06626,-0.3152 -0.08203,-0.4766 l -0.05078,-0.5195 -0.517578,0.07 c -1.465149,0.2041 -2.851479,-0.7613 -3.244141,-2.3047 -0.430729,-1.7002 0.526989,-3.42546 2.101563,-3.8711 0.464595,-0.13128 0.949528,-0.14132 1.417968,-0.0273 l 0.628907,0.15429 -0.0098,-0.64844 c -0.03133,-1.93992 1.187027,-3.63304 2.929687,-4.1289 0.639368,-0.18027 1.308705,-0.18648 1.951172,-0.0195 l 0.371094,0.0957 0.189453,-0.33398 c 0.663303,-1.17489 1.729002,-2.02275 2.966797,-2.37305 0.476117,-0.13505 0.96887,-0.19525 1.460938,-0.17578 z m -1.994141,2.5 c -2.41567,1.1e-4 -4.384698,1.96906 -4.384766,4.38476 9.57e-4,1.4979 0.826425,2.82186 2.072266,3.62306 l 0,1.4922 -0.302734,0 c -0.276131,0 -0.499972,0.2238 -0.5,0.5 l 0,2 c 2.8e-5,0.2761 0.223869,0.5 0.5,0.5 l 1,0 0,0.498 c 0,0.277 0.223,0.5 0.5,0.5 0.277,0 0.5,-0.223 0.5,-0.5 l 0,-0.498 1,0 0,0.498 c 0,0.277 0.223,0.5 0.5,0.5 0.277,0 0.5,-0.223 0.5,-0.5 l 0,-0.498 1,0 c 0.276131,0 0.499972,-0.2239 0.5,-0.5 l 0,-2 c -2.8e-5,-0.2762 -0.223869,-0.5 -0.5,-0.5 l -0.07227,0 0,-1.4922 c 1.245231,-0.8013 2.071299,-2.12557 2.072266,-3.62306 -6.8e-5,-2.41571 -1.969096,-4.38465 -4.384766,-4.38476 z m -40.001953,0.2207 c -0.944998,-0.0554 -1.839847,0.55828 -2.09375,1.50586 -0.290177,1.08296 0.360412,2.20982 1.44336,2.5 1.082947,0.29017 2.209824,-0.36041 2.499999,-1.44336 0.290172,-1.08294 -0.360414,-2.2059 -1.443359,-2.49609 -0.135369,-0.0363 -0.27125,-0.0585 -0.40625,-0.0664 z m 40.001953,0.7793 c 1.874603,8e-5 3.383641,1.50844 3.384766,3.38281 -8.11e-4,1.25569 -0.695943,2.40624 -1.806641,2.99221 -0.163973,0.087 -0.266242,0.2577 -0.265625,0.4433 l 0,1.6817 -0.927734,0 0,-3.00002 0.361328,0 c 0.676161,0.01 0.676161,-1.00956 0,-1 l -1.722657,0 c -0.676161,-0.01 -0.67616,1.00956 0,1 l 0.361329,0 0,3.00002 -0.697266,0 0,-1.6817 c 2.36e-4,-0.186 -0.102849,-0.3568 -0.267578,-0.4433 -1.110122,-0.58567 -1.803167,-1.73533 -1.804688,-2.99026 l 0,-0.002 c 0.0011,-1.87437 1.510163,-3.38273 3.384766,-3.38281 z m -40.269531,0.22461 c 0.134033,-0.018 0.273832,-0.0102 0.414062,0.0273 0.56092,0.15031 0.886624,0.71253 0.736328,1.27344 -0.150299,0.56092 -0.712514,0.88663 -1.273437,0.73633 -0.560923,-0.1503 -0.886629,-0.71446 -0.736328,-1.27539 0.112724,-0.42069 0.457277,-0.70782 0.859375,-0.76172 z m 4.904297,5.79101 c -0.276131,0 -0.499972,0.2239 -0.5,0.5 l 0,2.8809 c -0.189718,0.068 -0.374762,0.1472 -0.556641,0.2343 l -2.039062,-2.039 c -0.195265,-0.1952 -0.511767,-0.1952 -0.707032,0 l -2.121093,2.1211 c -0.195184,0.1952 -0.195184,0.5117 0,0.707 l 2.037109,2.0371 c -0.08598,0.1826 -0.163302,0.3684 -0.230469,0.5586 l -2.882812,0 c -0.276131,0 -0.499972,0.2239 -0.5,0.5 l 0,3 c 2.8e-5,0.2761 0.223869,0.5 0.5,0.5 l 2.880859,0 c 0.06832,0.1898 0.147306,0.3747 0.234375,0.5566 l -2.039062,2.0391 c -0.195185,0.1953 -0.195185,0.5118 0,0.707 l 2.121093,2.12115 c 0.195265,0.1952 0.511766,0.1952 0.707032,0 l 2.037109,-2.03715 c 0.182517,0.086 0.368347,0.1633 0.558594,0.2305 l 0,2.88285 c 2.8e-5,0.2761 0.223869,0.5 0.5,0.5 l 3,0 c 0.276131,0 0.499972,-0.2239 0.5,-0.5 l 0,-2.88095 c 0.190059,-0.068 0.374454,-0.147 0.55664,-0.2343 l 2.039063,2.03905 c 0.195265,0.1952 0.511766,0.1952 0.707031,0 l 2.121094,-2.12115 c 0.195185,-0.1952 0.195185,-0.5117 0,-0.707 l -2.03711,-2.0371 c 0.08612,-0.1828 0.163237,-0.368 0.230469,-0.5586 l 2.882813,0 c 0.276131,0 0.499972,-0.2239 0.5,-0.5 l 0,-3 c -2.8e-5,-0.2761 -0.223869,-0.5 -0.5,-0.5 l -2.88086,0 c -0.06811,-0.1901 -0.145489,-0.3762 -0.232422,-0.5586 l 2.03711,-2.0371 c 0.195184,-0.1953 0.195184,-0.5118 0,-0.707 l -2.121094,-2.1211 c -0.195265,-0.1952 -0.511766,-0.1952 -0.707031,0 l -2.03711,2.0371 c -0.182394,-0.086 -0.368483,-0.1614 -0.558593,-0.2285 l 0,-2.8848 c -2.8e-5,-0.2761 -0.223869,-0.5 -0.5,-0.5 l -3,0 z m 0.5,1 2,0 0,2.7148 c -3.99e-4,0.2246 0.148971,0.4219 0.365234,0.4825 0.373344,0.1047 0.733064,0.2516 1.072266,0.4394 0.195086,0.108 0.438063,0.074 0.595703,-0.084 l 1.916015,-1.9179 1.414063,1.414 -1.917969,1.92 c -0.159565,0.1582 -0.193926,0.4035 -0.08398,0.5996 0.18958,0.3384 0.340739,0.6973 0.447265,1.0703 0.06251,0.2132 0.258252,0.3596 0.480469,0.3594 l 2.710938,0 0,2 -2.714844,0 c -0.22513,-2e-4 -0.422606,0.1501 -0.482422,0.3671 -0.104699,0.3733 -0.251584,0.7312 -0.439453,1.0704 -0.107938,0.195 -0.07368,0.438 0.08398,0.5957 l 1.916016,1.9179 -1.414063,1.4121 -1.919921,-1.9179 c -0.158758,-0.159 -0.404002,-0.1925 -0.59961,-0.082 -0.337752,0.19 -0.695924,0.3381 -1.068359,0.4453 -0.214714,0.062 -0.362221,0.259 -0.361328,0.4825 l 0,2.70905 -2,0 0,-2.71295 c 3.98e-4,-0.2246 -0.148972,-0.4219 -0.365235,-0.4825 -0.373347,-0.1047 -0.733068,-0.2535 -1.072265,-0.4414 -0.195507,-0.1074 -0.438535,-0.072 -0.595703,0.086 l -1.916016,1.914 -1.414062,-1.4121 1.919921,-1.9218 c 0.157017,-0.1582 0.190471,-0.4011 0.08203,-0.5957 -0.19007,-0.3378 -0.340049,-0.6979 -0.447265,-1.0704 -0.06108,-0.2148 -0.257164,-0.363 -0.480469,-0.3632 l -2.710937,0 0,-2 2.714843,0 c 0.223305,-3e-4 0.419393,-0.1485 0.480469,-0.3633 0.104699,-0.3733 0.253538,-0.735 0.441406,-1.0742 0.107938,-0.1951 0.07368,-0.4381 -0.08398,-0.5957 l -1.916015,-1.9161 1.414062,-1.414 1.919922,1.9219 c 0.158436,0.1579 0.402519,0.1914 0.597656,0.082 0.337756,-0.19 0.697881,-0.342 1.070312,-0.4492 0.213324,-0.062 0.360481,-0.2565 0.361329,-0.4786 l 0,-2.7109 z m 32.75,2.4844 4,0 0,1 -4,0 0,-1 z m -9.886719,1.5078 c -0.148761,0.01 -0.298061,0.032 -0.447266,0.072 -1.193623,0.3198 -1.909677,1.5603 -1.589844,2.7539 0.319832,1.1936 1.560284,1.9077 2.753907,1.5879 1.193626,-0.3198 1.907721,-1.5584 1.58789,-2.752 -0.279854,-1.0444 -1.263363,-1.723 -2.304687,-1.6621 z m 0.0625,0.9961 c 0.581963,-0.037 1.119881,0.3362 1.277344,0.9238 0.179955,0.6716 -0.211212,1.3493 -0.882813,1.5293 -0.671599,0.1799 -1.349343,-0.2112 -1.529297,-0.8828 -0.179955,-0.6716 0.211215,-1.3493 0.882813,-1.5293 0.08395,-0.023 0.168815,-0.036 0.251953,-0.041 z m -21.925781,0.012 c -1.650932,0 -3,1.3491 -3,3 0,1.651 1.349068,3 3,3 1.650932,0 3,-1.349 3,-3 0,-1.6509 -1.349068,-3 -3,-3 z m 0,1 c 1.110491,0 2,0.8895 2,2 0,1.1105 -0.889509,2 -2,2 -1.110492,0 -2,-0.8895 -2,-2 0,-1.1105 0.889508,-2 2,-2 z m 18.314453,2.1563 c -0.110132,0.01 -0.221688,0.023 -0.332032,0.053 -0.882759,0.2365 -1.412316,1.1582 -1.175781,2.041 0.236534,0.8828 1.15435,1.4123 2.03711,1.1758 0.88275,-0.2366 1.416222,-1.1563 1.179687,-2.0391 -0.206967,-0.7723 -0.938062,-1.2751 -1.708984,-1.2305 z m 0.193359,1 c 0.257486,0.034 0.476335,0.2197 0.548828,0.4902 0.09666,0.3608 -0.109978,0.7159 -0.470703,0.8125 -0.360735,0.097 -0.715842,-0.1081 -0.8125,-0.4688 -0.09666,-0.3608 0.108015,-0.7177 0.46875,-0.8144 0.09018,-0.024 0.179796,-0.031 0.265625,-0.019 z m -5.232422,4.7128 c -3.873811,0 -7.02343,3.15655 -7.023437,7.03525 0.0023,1.4554 0.465925,2.8678 1.304687,4.0527 l 0,1.1094 c 0,1.7201 0.759252,3.2586 1.957031,4.3086 l 0,2.6074 c -0.116703,0.058 -1.074235,0.5336 -1.591796,0.7891 -0.03856,0.014 -0.07529,0.032 -0.109375,0.055 -1.916735,0.9461 -4.741329,2.3369 -5.673829,2.8144 -0.607188,0.3108 -1.418104,0.6754 -2.109374,1.2266 -0.691274,0.5513 -1.279297,1.3497 -1.279297,2.4102 l 0,10.207 3.617187,0 21.81836,0 3.617187,0 0,-10.207 c 0,-1.0318 -0.498199,-1.8155 -1.158203,-2.3575 -0.660004,-0.5421 -1.470017,-0.9011 -2.236328,-1.2812 l -7.369141,-3.6563 0,-2.6093 c 1.197105,-1.05 1.957031,-2.5876 1.957031,-4.3067 l 0,-1.1133 c 0.838214,-1.1839 1.301847,-2.5925 1.304688,-4.0468 -7e-6,-3.8787 -3.15158,-7.03525 -7.025391,-7.03525 l 0,0 z m 0,1 c 3.332501,0 6.025385,2.69615 6.025391,6.03525 -0.0012,0.639 -0.108507,1.2679 -0.304688,1.8672 l 0,-1.9258 c -5.27e-4,-0.2441 -0.177195,-0.4521 -0.417968,-0.4922 -0.908149,-0.1517 -1.689471,-0.6576 -2.203125,-1.373 -0.191109,-0.266 -0.582,-0.2795 -0.791016,-0.027 -0.471914,0.5671 -1.020171,1.0718 -1.640625,1.4903 -1.706553,1.1504 -3.785537,1.5693 -5.794922,1.1992 -0.30709,-0.057 -0.590969,0.1778 -0.591797,0.4902 l 0,0.6387 c -0.196179,-0.5997 -0.303683,-1.2279 -0.304687,-1.8672 6e-6,-3.3391 2.690937,-6.03525 6.023437,-6.03525 z m 14.21875,4.77355 c -0.09064,-6e-4 -0.18329,0.01 -0.27539,0.025 l -0.002,0 c -0.736526,0.1395 -1.246089,0.8123 -1.246094,1.5644 -0.0096,0.6762 1.009563,0.6762 1,0 2e-6,-0.3056 0.198492,-0.5375 0.433594,-0.582 0.234828,-0.044 0.468622,0.087 0.564453,0.3691 0.09578,0.282 -0.01947,0.5963 -0.236329,0.7305 -0.234152,0.145 -0.49618,0.3216 -0.71289,0.5898 -0.199578,0.247 -0.341332,0.5851 -0.363281,0.9688 -0.0058,0.032 -0.0084,0.065 -0.0078,0.098 l 0,0.7265 c -0.0096,0.6762 1.009563,0.6762 1,0 l 0,-0.6933 c 3.68e-4,-0.011 3.68e-4,-0.022 0,-0.033 0,-0.2072 0.0519,-0.3156 0.150391,-0.4375 0.09849,-0.1219 0.259689,-0.2438 0.458984,-0.3672 0.637536,-0.3946 0.899813,-1.1909 0.658203,-1.9024 -0.211401,-0.6226 -0.787375,-1.0523 -1.421875,-1.0566 z m -11.529297,0.3008 c 0.547256,0.5887 1.232754,1.018 2.03125,1.2382 l 0,3.6309 0,1.2539 c 0,2.6283 -2.098001,4.7285 -4.720703,4.7285 -2.622703,0 -4.71875,-2.1002 -4.71875,-4.7285 l 0,-1.2519 0,-2.1954 c 2.076083,0.2399 4.186943,-0.1622 5.945313,-1.3476 0.555674,-0.3747 1.015315,-0.8484 1.46289,-1.3281 z m -21.214843,2.6621 c -0.481185,0.035 -0.938278,0.297 -1.195313,0.7422 -0.41125,0.7123 -0.163478,1.6376 0.548828,2.0488 0.712314,0.4113 1.637578,0.1635 2.048828,-0.5488 0.411255,-0.7123 0.163486,-1.6377 -0.548828,-2.0489 -0.267114,-0.1542 -0.564805,-0.2142 -0.853515,-0.1933 z m 16.242187,0.086 c -0.708429,0 -1.368602,0.3637 -1.730469,0.9668 -0.220201,0.3429 0.0403,0.7911 0.447266,0.7695 0.01702,0 0.03396,0 0.05078,-0.01 0.151843,-0.024 0.284364,-0.1158 0.359375,-0.25 0.175432,-0.2924 0.506855,-0.4804 0.873047,-0.4804 0.366192,0 0.699568,0.188 0.875,0.4804 0.04899,0.088 0.123161,0.1583 0.212891,0.2032 0.05964,0.03 0.124721,0.048 0.191406,0.053 0.01692,9e-4 0.03386,9e-4 0.05078,0 0.01633,-5e-4 0.03263,0 0.04883,0 0.362314,-0.049 0.551033,-0.4579 0.353516,-0.7656 -0.361867,-0.6031 -1.023992,-0.9668 -1.732422,-0.9668 z m 4.56836,0 c -0.177109,0 -0.35218,0.021 -0.519532,0.064 -0.502054,0.1305 -0.941491,0.45 -1.21289,0.9023 -0.173162,0.2704 -0.05022,0.6316 0.251953,0.7402 0.04709,0.017 0.09647,0.027 0.146484,0.029 0.01627,8e-4 0.03256,8e-4 0.04883,0 0.01702,0 0.03396,0 0.05078,-0.01 0.151845,-0.024 0.284363,-0.1158 0.359376,-0.25 0.175432,-0.2924 0.508807,-0.4804 0.875,-0.4804 0.366191,0 0.697614,0.188 0.873046,0.4804 0.04899,0.088 0.123161,0.1583 0.212891,0.2032 0.05964,0.03 0.124721,0.048 0.191406,0.053 0.01692,9e-4 0.03386,9e-4 0.05078,0 0.01633,-5e-4 0.03263,0 0.04883,0 0.362314,-0.049 0.551032,-0.4579 0.353515,-0.7656 -0.361866,-0.6031 -1.022041,-0.9668 -1.730468,-0.9668 z m -20.648438,0.9082 c 0.06446,0.01 0.130338,0.031 0.191406,0.066 0.244279,0.141 0.322676,0.4374 0.181641,0.6817 -0.14103,0.2443 -0.437362,0.3247 -0.681641,0.1836 -0.244272,-0.141 -0.324623,-0.4393 -0.183594,-0.6836 0.105777,-0.1833 0.298795,-0.2737 0.492188,-0.2481 z m 16.080078,0.5703 c -0.18069,0 -0.326943,0.1472 -0.326172,0.3282 3.08e-4,0.1802 0.146244,0.3261 0.326172,0.3261 0.179928,0 0.325864,-0.1459 0.326172,-0.3261 7.71e-4,-0.181 -0.145482,-0.3282 -0.326172,-0.3282 z m 4.56836,0 c -0.18069,0 -0.326943,0.1472 -0.326172,0.3282 3.08e-4,0.1802 0.146243,0.3261 0.326172,0.3261 0.179926,0 0.325863,-0.1459 0.326171,-0.3261 7.71e-4,-0.181 -0.145482,-0.3282 -0.326171,-0.3282 z m -2.291016,0.4785 c -0.276912,0 -0.498459,0.231 -0.494141,0.5079 l 0,1.3066 c -0.0096,0.6762 1.009563,0.6762 1,0 l 0,-1.3066 c 0.0044,-0.2815 -0.224356,-0.5112 -0.505859,-0.5079 z m 13.828125,0.4375 c -0.666666,0.034 -0.615884,1.0339 0.05078,1 0.676161,0.01 0.676161,-1.0095 0,-1 -0.01692,-8e-4 -0.03386,-8e-4 -0.05078,0 z m -12.240235,2.8243 c -0.129483,0 -0.252714,0.056 -0.34375,0.1484 -0.68915,0.6812 -1.778635,0.6908 -2.480468,0.023 -0.483073,-0.4596 -1.172526,0.265 -0.689453,0.7246 1.085096,1.0327 2.8076,1.0178 3.873047,-0.035 0.330867,-0.3163 0.09816,-0.874 -0.359376,-0.8613 z m 1.181641,3.1699 0,1.8496 -2.701172,1.2012 c -0.01879,0 -0.0377,0 -0.05664,0 -0.02089,0 -0.04177,0 -0.0625,0 l -2.705079,-1.2012 0,-1.8477 c 0.818837,0.4533 1.759379,0.7129 2.761719,0.7129 1.003254,0 1.944045,-0.2608 2.763672,-0.7148 z m -28.189453,0.6777 c -0.449402,10e-5 -0.670587,0.5469 -0.347656,0.8594 l 0.707031,0.707 c 0.472657,0.4759 1.184196,-0.2376 0.707032,-0.709 l -0.707032,-0.707 c -0.09454,-0.097 -0.224178,-0.1509 -0.359375,-0.1504 z m 2.828125,0 c -0.12976,0 -0.25303,0.058 -0.34375,0.1504 l -0.707031,0.709 c -0.480736,0.4726 0.237667,1.1891 0.708984,0.707 l 0.707032,-0.709 c 0.326057,-0.3186 0.09046,-0.8717 -0.365235,-0.8574 z m 51.007813,0.8516 0,0 c -0.353114,0.042 -0.695042,0.2048 -0.960938,0.4707 -0.490807,0.4712 0.235776,1.1978 0.707031,0.707 0.216026,-0.216 0.519348,-0.2402 0.716797,-0.1055 0.19744,0.1347 0.270449,0.395 0.138672,0.6622 -0.131828,0.2674 -0.435266,0.406 -0.683594,0.3476 -0.268064,-0.063 -0.577039,-0.1223 -0.919922,-0.086 -0.313825,0.033 -0.651605,0.1693 -0.9375,0.4218 -0.02902,0.02 -0.05587,0.043 -0.08008,0.068 -0.01229,0.011 -0.02403,0.023 -0.03516,0.035 l -0.478516,0.4785 c -0.490806,0.4712 0.235778,1.1978 0.707032,0.707 l 0.513672,-0.5137 0,0 c 0.146518,-0.1465 0.260183,-0.1846 0.416015,-0.2011 0.155832,-0.017 0.357805,0.011 0.585938,0.064 0.729776,0.1718 1.476281,-0.2067 1.808593,-0.8808 0.332334,-0.6739 0.148768,-1.5072 -0.470703,-1.9297 -0.309725,-0.2113 -0.674232,-0.2886 -1.027343,-0.2461 z m -31.621094,1.2148 2.308594,1.0274 -0.419922,0.4414 -1.253907,1.2187 -1.8125,-2.1035 c 0.304224,-0.1502 1.116827,-0.5539 1.177735,-0.584 z m 6.421875,0 1.177734,0.584 -1.810547,2.1035 -1.236328,-1.2011 -0.4375,-0.461 2.306641,-1.0254 z m -27.933594,0.061 c -0.12976,0 -0.25303,0.058 -0.34375,0.1504 l -0.707031,0.707 c -0.490833,0.4712 0.235777,1.1979 0.707031,0.707 l 0.707032,-0.707 c 0.325269,-0.318 0.09144,-0.8699 -0.363282,-0.8574 z m 1.423828,0 c -0.44802,10e-5 -0.669797,0.544 -0.349609,0.8574 l 0.708984,0.707 c 0.471255,0.4909 1.197862,-0.2358 0.707032,-0.707 l -0.708985,-0.707 c -0.09406,-0.096 -0.222902,-0.1504 -0.357422,-0.1504 z m 17.986328,0.9824 2.324219,2.6992 c 0.18832,0.2187 0.52216,0.233 0.728516,0.031 l 0.589843,-0.5743 0.06055,0.065 -1.167968,8.6191 c -0.01716,0.1269 0.01499,0.2555 0.08984,0.3594 l 2.283203,3.1641 c 0.199609,0.2761 0.610938,0.2761 0.810547,0 l 2.283203,-3.1641 c 0.07485,-0.1039 0.107011,-0.2325 0.08984,-0.3594 l -1.169922,-8.6191 0.06055,-0.065 0.591797,0.5762 c 0.206905,0.2013 0.540777,0.1861 0.728516,-0.033 l 2.324218,-2.6992 5.373047,2.666 c 0.785226,0.3895 1.536222,0.7408 2.046875,1.1602 0.510654,0.4194 0.792969,0.8473 0.792969,1.584 l 0,9.207 -2.617187,0 -1.123047,0 0,-5.7422 -0.652344,0 0,5.7422 -18.267578,0 0,-5.7422 -0.652344,0 0,5.7422 -1.123047,0 -2.617187,0 0,-9.207 c 0,-0.708 0.346788,-1.186 0.902343,-1.629 0.555556,-0.4431 1.301743,-0.7897 1.941407,-1.1171 0.851481,-0.4361 3.378511,-1.6808 5.36914,-2.6641 z m 5.3125,0.5332 0.628907,0.6113 0.3125,0.3282 -0.07031,0.072 -1.742187,0 -0.06836,-0.07 0.359375,-0.377 0.580078,-0.5644 z m 21.966797,1.084 c -0.129887,0 -0.25387,0.055 -0.345703,0.1465 l -1.607422,1.6054 c -0.08797,-0.146 -0.102893,-0.3289 -0.224609,-0.4511 -0.828326,-0.8283 -2.185346,-0.8283 -3.013672,0 -0.828333,0.8284 -0.828333,2.1872 0,3.0156 0.12247,0.1222 0.306717,0.1363 0.453125,0.2246 l -1.607422,1.6074 c -0.195184,0.1953 -0.195184,0.5118 0,0.7071 l 6,6 c 0.195265,0.1951 0.511766,0.1951 0.707031,0 l 6,-6 c 0.195184,-0.1953 0.195184,-0.5118 0,-0.7071 l -2.078125,-2.0781 c -0.291452,-0.2928 -0.792143,-0.1259 -0.849609,0.2832 -0.03434,0.2426 -0.145253,0.4671 -0.31836,0.6406 -0.446176,0.4462 -1.153432,0.4462 -1.599609,0 -0.446181,-0.4462 -0.446181,-1.1553 0,-1.6015 0.173455,-0.1719 0.39873,-0.2845 0.640625,-0.3184 0.407042,-0.059 0.57327,-0.5561 0.283203,-0.8477 l -2.078125,-2.0781 c -0.09566,-0.096 -0.226027,-0.1485 -0.361328,-0.1465 l 0,0 z m 3.21875,0 c -0.182964,0.01 -0.347054,0.1149 -0.427734,0.2793 -0.303385,0.5937 0.58724,1.0488 0.890625,0.4551 0.181564,-0.3415 -0.07654,-0.751 -0.462891,-0.7344 z m -25.830078,0.9277 1.291016,0 1.115234,8.2304 -1.761719,2.4395 -1.759765,-2.4395 1.115234,-8.2304 z m 22.619141,0.2773 1.251953,1.252 c -0.145775,0.088 -0.329107,0.103 -0.451172,0.2246 -0.828333,0.8283 -0.828333,2.1873 0,3.0156 0.828326,0.8283 2.185346,0.8283 3.013672,0 0.122215,-0.1224 0.136329,-0.3067 0.224609,-0.4531 l 1.253906,1.2539 -5.292968,5.2929 -5.292969,-5.2929 1.724609,-1.7246 c 0.292828,-0.2915 0.125931,-0.7922 -0.283203,-0.8496 -0.242044,-0.034 -0.467333,-0.146 -0.640625,-0.3184 -0.446181,-0.4461 -0.446181,-1.1555 0,-1.6016 0.446177,-0.4462 1.153433,-0.4462 1.599609,0 0.172996,0.1737 0.284324,0.3979 0.31836,0.6407 0.05614,0.4099 0.557505,0.5782 0.849609,0.2851 l 1.72461,-1.7246 z m -40.570313,4.2012 c -0.276912,0 -0.498458,0.2309 -0.49414,0.5078 l 0,0.5 -0.5,0 c -0.676161,-0.01 -0.676161,1.0096 0,1 l 0.5,0 0,0.5 c -0.0096,0.6762 1.009563,0.6762 1,0 l 0,-0.5 0.5,0 c 0.676161,0.01 0.676161,-1.0096 0,-1 l -0.5,0 0,-0.5 c 0.0044,-0.2815 -0.224356,-0.5111 -0.50586,-0.5078 z" color="#000" font-family="sans-serif" font-weight="400" overflow="visible" white-space="normal"/></g></svg>