<svg xmlns="http://www.w3.org/2000/svg" width="64" height="64" viewBox="0 0 64 64"><g stroke="#0e7bff" transform="translate(0 -988.362)"><path fill="#dae7fc" fill-rule="evenodd" stroke="none" d="m 891.314,1759.8231 0,-10 11.99846,-11.9375 2.93092,3 7.96844,-8 1.95395,2 12.27323,-12.0643 0,37.0018 z" transform="translate(-885 -717.51)"/><path fill="#dae7fc" stroke="none" d="m 50.5,1040.8622 c -0.55401,0 -1,0.446 -1,1 l 0,1 0,1 0,1 1,0 7,0 1,0 0,-1 0,-1 0,-1 c 0,-0.554 -0.44599,-1 -1,-1 l -7,0 z" color="#000" overflow="visible" style="isolation:auto;mix-blend-mode:normal"/><rect style="isolation:auto;mix-blend-mode:normal" width="2" height="4" x="53" y="1034.862" fill="#6ca6fd" stroke="none" color="#000" overflow="visible"/><circle style="isolation:auto;mix-blend-mode:normal" cx="50" cy="1014.862" r="1" fill="#6ca6fd" stroke="none" color="#000" overflow="visible"/><path fill="#dae7fc" stroke="none" style="isolation:auto;mix-blend-mode:normal" d="m 48.5,1021.8622 0,6.8887 0,0.8682 0,0.3544 c 0,2.7085 2.180232,4.8887 4.888672,4.8887 l 1.222656,0 c 2.70844,0 4.888672,-2.1802 4.888672,-4.8887 l 0,-0.4238 0,-0.7988 0,-6.8887 z" color="#000" overflow="visible"/><path fill="none" d="M3.5 995.3622l0 50M49.5 1042.8622l-48.5 0M5.8391401 1032.3622l12.9999999-12 3 3 8-8 2 2 12.006219-12.346"/><path fill="none" d="M40.5 1004.8622l3.5 0 0 3.5M8 1033.3622l0 7M11 1030.3622l0 10M14.000001 1027.3622l0 13M17 1024.3622l0 16M20 1024.3622l0 16M22.999999 1025.3621l0 15M26.000001 1022.3623l0 18M28.999998 1019.3622l0 20.9999M32.000001 1020.3623l0 20M35.000001 1017.3622l0 23M37.999999 1014.3622l0 26M41.000003 1011.3622l0 29"/><rect width="2" height="4" x="53" y="1034.862" fill="none" stroke-linecap="round" stroke-linejoin="round" color="#000" overflow="visible" style="isolation:auto;mix-blend-mode:normal"/><path fill="#b2cdf8" stroke="none" d="m 49.928671,1033.4335 c 0.883613,0.8836 2.105781,1.4287 3.460001,1.4287 l 1.222656,0 c 2.70844,0 4.888672,-2.1802 4.888672,-4.8887 l 0,-0.4238 0,-0.7988 0,-6.8887 c -9.571329,11.5713 0,0 -9.571329,11.5713 z" color="#000" overflow="visible" style="isolation:auto;mix-blend-mode:normal"/><g transform="matrix(-1 0 0 1 109 0)"><path fill="none" stroke-linecap="round" stroke-linejoin="round" d="M49.551266 1030.834C47.825717 1030.615 46.5 1029.1491 46.5 1027.3622l0-.7292M46.5 1026.454l0-2.5918 2.967496 0" color="#000" overflow="visible" style="isolation:auto;mix-blend-mode:normal"/></g><path fill="none" stroke-linecap="round" stroke-linejoin="round" d="M48.40672 1030.8125c-.730849-.1238-1.383203-.4726-1.883795-.9732-.632625-.6326-1.022875-1.5076-1.022875-2.4771l0-.7293M45.50005 1026.454l0-2.5918 2.867924 0M48.5 1021.8622l0 6.8887 0 .8682 0 .3544c0 2.7085 2.180232 4.8887 4.888672 4.8887l1.222656 0c2.70844 0 4.888672-2.1802 4.888672-4.8887l0-.4238 0-.7988 0-6.8887z" color="#000" overflow="visible" style="isolation:auto;mix-blend-mode:normal"/><path fill="#6ca6fd" stroke="none" style="isolation:auto;mix-blend-mode:normal" d="m 54,1036.3622 -0.889384,-0.3016 -0.752656,0.5617 0.012,-0.9391 -0.766765,-0.5422 0.896802,-0.2788 0.278768,-0.8968 0.542252,0.7667 0.939054,-0.012 -0.561673,0.7527 z" color="#000" overflow="visible" transform="rotate(8.722 5949.092 1184.808) scale(1.85876)"/><path fill="none" stroke-linecap="round" stroke-linejoin="round" stroke-width=".538" d="m 54,1036.3622 -0.889384,-0.3016 -0.752656,0.5617 0.012,-0.9391 -0.766765,-0.5422 0.896802,-0.2788 0.278768,-0.8968 0.542252,0.7667 0.939054,-0.012 -0.561673,0.7527 z" color="#000" overflow="visible" transform="rotate(8.722 5949.092 1184.808) scale(1.85876)" style="isolation:auto;mix-blend-mode:normal"/><path fill="#b2cdf8" stroke="none" d="m 52,1038.8622 c -0.277,0 -0.5,0.223 -0.5,0.5 l 0,1.5 5,0 0,-1.5 c 0,-0.277 -0.223,-0.5 -0.5,-0.5 z" color="#000" overflow="visible" style="isolation:auto;mix-blend-mode:normal"/><path fill="#b2cdf8" stroke="none" style="isolation:auto;mix-blend-mode:normal" d="m 940.31836,770.00977 -4.16211,3.94726 0,0.0527 1,0 5.34375,0 1,0 0,-1 0,-1 0,-1 c 0,-0.554 -0.44599,-1 -1,-1 z" color="#000" overflow="visible" transform="translate(-885 270.851)"/><path fill="none" stroke-linecap="round" stroke-linejoin="round" style="isolation:auto;mix-blend-mode:normal" d="M52 1038.8622c-.277 0-.5.223-.5.5l0 1.5 5 0 0-1.5c0-.277-.223-.5-.5-.5zM50.5 1040.8622c-.55401 0-1 .446-1 1l0 1 0 1 0 1 1 0 7 0 1 0 0-1 0-1 0-1c0-.554-.44599-1-1-1l-7 0z" color="#000" overflow="visible"/><rect width="1" height="1" x="6" y="998.362" fill="#0e7bff" stroke="none" color="#000" overflow="visible" style="isolation:auto;mix-blend-mode:normal"/><rect style="isolation:auto;mix-blend-mode:normal" width="3" height="1" x="8" y="998.362" fill="#0e7bff" stroke="none" color="#000" overflow="visible"/><rect width="11" height="1" x="12" y="998.362" fill="#0e7bff" stroke="none" color="#000" overflow="visible" style="isolation:auto;mix-blend-mode:normal"/><g transform="rotate(45 48.374 1005.072)"><path fill="none" stroke-linecap="round" stroke-linejoin="round" d="M56.50005 1017.8551l0-2M55.50005 1016.8551l2 0"/></g><path fill="none" stroke-linecap="round" stroke-linejoin="round" d="M61.075091 1017.4885l.918735-.5304M59.618581 1017.0982l-.530455-.9187M60.686863 1018.9374l.53048.9186M59.230353 1018.5471l-.91871.5303M48.126237 1036.3664l.867589-.501M46.755552 1035.9952L46.26241 1035.141M47.767234 1037.7363l.493197.854M46.384235 1037.3656l-.854031.493"/><g transform="rotate(45 30.774 1034.282)"><path fill="none" stroke-linecap="round" stroke-linejoin="round" d="M56.50005 1017.8551l0-2M55.50005 1016.8551l2 0"/></g><circle cx="50" cy="1014.862" r="1" fill="none" stroke-linecap="round" stroke-linejoin="round" color="#000" overflow="visible" style="isolation:auto;mix-blend-mode:normal"/><circle style="isolation:auto;mix-blend-mode:normal" cx="59" cy="1035.862" r=".5" fill="#0e7bff" stroke="none" color="#000" overflow="visible"/><circle cx="44.5" cy="1040.862" r=".5" fill="#0e7bff" stroke="none" color="#000" overflow="visible" style="isolation:auto;mix-blend-mode:normal"/><rect style="isolation:auto;mix-blend-mode:normal" width="1" height="1" x="6" y="1000.362" fill="#0e7bff" stroke="none" color="#000" overflow="visible"/><rect width="3" height="1" x="8" y="1000.362" fill="#0e7bff" stroke="none" color="#000" overflow="visible" style="isolation:auto;mix-blend-mode:normal"/><rect style="isolation:auto;mix-blend-mode:normal" width="11" height="1" x="12" y="1000.362" fill="#0e7bff" stroke="none" color="#000" overflow="visible"/><path fill="none" d="m 52,1042.8622 4,0"/></g></svg>