<svg xmlns="http://www.w3.org/2000/svg" width="64" height="64" viewBox="0 0 64 64"><g transform="translate(-507.107 -1784.154)"><path fill="#b2cdf8" fill-rule="evenodd" d="m 512.87492,1842.2213 c 0,0 3.03156,-13.3477 8.0488,-13.8204 3.54771,-0.1254 6.29729,3.0208 5.93194,5.9319 -0.49904,5.0222 -13.98074,7.8885 -13.98074,7.8885 z"/><circle cx="1650.505" cy="901.675" r="1" fill="#6ca6fd" color="#000" overflow="visible" transform="rotate(45)" style="isolation:auto;mix-blend-mode:normal"/><circle style="isolation:auto;mix-blend-mode:normal" cx="-1007.984" cy="-1611.693" r="1" fill="#6ca6fd" color="#000" overflow="visible" transform="rotate(-165)"/><path fill="#6ca6fd" fill-rule="evenodd" d="m 530.14963,1826.9863 c 0.85756,0.9999 1.53703,2.104 1.80135,3.4257 l -1.59117,0.8399 -2.47263,-2.4392 m -1.32359,-1.3057 -2.68652,-2.6502 0.72902,-1.7013 c 1.46885,0.3441 2.6655,1.1024 3.71945,2.0095"/><path fill="#f4f7f8" fill-rule="evenodd" d="m 531.85022,1825.6399 c 1.07696,1.3279 1.87223,2.7926 2.14425,4.1528 10.6066,-3.5356 27.57717,-14.8493 27.57716,-36.0625 l 0,0 0,0 c -21.2132,0 -32.52691,16.9706 -36.06244,27.5772 1.35425,0.2708 2.81224,1.0604 4.13555,2.1303"/><circle cx="1887.371" cy="-61.682" r="3.428" fill="#b2cdf8" transform="rotate(75)"/><path fill="#6ca6fd" fill-rule="evenodd" d="m 530.32218,1811.4809 c -1.81788,2.9382 -3.88078,6.7183 -4.78903,9.8261 -0.72591,-0.2881 -0.70002,-0.7141 -2.11693,-0.7201 -1.41421,-0.01 -3.60703,2.0404 -5.4105,3.0605 1.17659,-4.5006 4.05696,-12.9685 6.17984,-13.2206 1.41692,-0.4333 4.94806,0.2954 6.13662,1.0541 z"/><path fill="#dae7fc" fill-rule="evenodd" d="m 537.30961,829.54236 c 0,0 -8.98839,4.46391 -7.66508,5.53381 l 2.20508,2.20117 c 1.07696,1.3279 1.87251,2.79215 2.14453,4.15235 7.84774,-2.61597 19.17336,-9.4943 24.53634,-21.48633 -21.22087,9.599 -21.22087,9.599 -21.22087,9.599 z" transform="translate(0 988.362)"/><path fill="#6ca6fd" fill-rule="evenodd" d="M543.82302 1825.0005c-2.8851 1.7408-6.72483 3.8695-9.83419 4.7725.28685.7264.70709.7071.71652 2.1182.006 1.4141-2.04637 3.6035-3.06959 5.4053 4.50265-1.169 12.97528-4.0351 13.23106-6.1576.43563-1.4162-.28714-4.9486-1.0438-6.1384zM535.38888 1822.0569c.84719-1.1056 1.69676-3.8187 1.69676-3.8187 0 0-2.71169.8513-3.81808 1.6974-3.85945 2.9514-9.2037 11.3024-9.2037 11.3024 0 0 8.36913-5.3237 11.32502-9.1811z"/><circle cx="1887.371" cy="-61.682" r="3.428" fill="none" stroke="#0e7bff" stroke-linecap="round" stroke-linejoin="round" transform="rotate(75)"/><path fill="#0e7bff" fill-rule="evenodd" style="line-height:normal;text-indent:0;text-align:start;text-decoration-line:none;text-decoration-style:solid;text-decoration-color:#000;text-transform:none;block-progression:tb;isolation:auto;mix-blend-mode:normal" d="m 532.7207,806.50977 a 0.50004997,0.50004997 0 1 0 0,1 l 0.50782,0 a 0.50030889,0.50030889 0 0 1 -0.0137,1 l -1.5,0 c -0.67616,-0.01 -0.67616,1.0096 0,1 l 2.02735,0 a 0.50030889,0.50030889 0 0 1 -0.0137,1 l -1.01368,0 c -0.67615,-0.01 -0.67615,1.0096 0,1 l 2.99219,0 c 0.67616,0.01 0.67616,-1.0096 0,-1 l -0.0352,0 a 0.50030966,0.50030966 0 0 1 0.0156,-1 l 3.01953,0 c 0.67616,0.01 0.67616,-1.0096 0,-1 l -0.54297,0 a 0.50030966,0.50030966 0 0 1 0.0156,-1 l 1.52734,0 a 0.50004997,0.50004997 0 1 0 0,-1 l -1.98633,0 -5,0 z m 2.45313,1 1.06055,0 a 0.50030889,0.50030889 0 0 1 -0.0137,1 l -1.0625,0 a 0.50030966,0.50030966 0 0 1 0.0156,-1 z" color="#000" font-family="sans-serif" font-weight="400" overflow="visible" transform="translate(0 988.362)" white-space="normal"/><path fill="#0e7bff" fill-rule="evenodd" d="M529.7213 1794.8726c-.67616-.01-.67616 1.0096 0 1l1 0c.67616.01.67616-1.0097 0-1zM537.70718 1798.8726c-.67616-.01-.67616 1.0096 0 1l-.00012 0c.67616.01.67616-1.0097 0-1z" color="#000" font-family="sans-serif" font-weight="400" overflow="visible" white-space="normal" style="line-height:normal;text-indent:0;text-align:start;text-decoration-line:none;text-decoration-style:solid;text-decoration-color:#000;text-transform:none;block-progression:tb;isolation:auto;mix-blend-mode:normal"/><path fill="none" stroke="#0e7bff" d="m 512.87492,1842.2213 c 0,0 3.03156,-13.3477 8.0488,-13.8204 3.54771,-0.1254 6.29729,3.0208 5.93194,5.9319 -0.49904,5.0222 -13.98074,7.8885 -13.98074,7.8885 z"/><path fill="#dae7fc" fill-rule="evenodd" d="m 519.07275,1836.0777 c 0,0 0.31502,-6.7785 3.4585,-7.0747 2.22282,-0.078 3.9456,1.8927 3.71665,3.7167 -0.31265,3.1466 -7.17515,3.358 -7.17515,3.358 z"/><path fill="none" stroke="#0e7bff" d="m 519.07275,1836.0777 c 0,0 0.31502,-6.7785 3.4585,-7.0747 2.22282,-0.078 3.9456,1.8927 3.71665,3.7167 -0.31265,3.1466 -7.17515,3.358 -7.17515,3.358 z"/><path fill="none" stroke="#0e7bff" stroke-linecap="round" stroke-linejoin="round" d="m 561.57163,1793.7302 c -21.2132,0 -32.52691,16.9706 -36.06244,27.5772 1.35425,0.2708 2.81224,1.0604 4.13555,2.1303 m 2.20548,2.2022 c 1.07696,1.3279 1.87223,2.7926 2.14425,4.1528 10.6066,-3.5356 27.57717,-14.8493 27.57716,-36.0625 l 0,0"/><path fill="none" stroke="#0e7bff" stroke-linecap="round" stroke-linejoin="round" d="M530.32218 1811.4809c-1.81788 2.9382-3.88078 6.7183-4.78903 9.8261-.72591-.2881-.70002-.7141-2.11693-.7201-1.41421-.01-3.60703 2.0404-5.4105 3.0605 1.17659-4.5006 4.05696-12.9685 6.17984-13.2206 1.41692-.4333 4.94806.2954 6.13662 1.0541zM543.82302 1825.0005c-2.8851 1.7408-6.72483 3.8695-9.83419 4.7725.28685.7264.70709.7071.71652 2.1182.006 1.4141-2.04637 3.6035-3.06959 5.4053 4.50265-1.169 12.97528-4.0351 13.23106-6.1576.43563-1.4162-.28714-4.9486-1.0438-6.1384zM530.14963 1826.9863c.85756.9999 1.53703 2.104 1.80135 3.4257l-1.59117.8399-2.47263-2.4392m-1.32359-1.3057l-2.68652-2.6502.72902-1.7013c1.46885.3441 2.6655 1.1024 3.71945 2.0095"/><path fill="#6ca6fd" d="m 549.4771,1795.7763 c -0.69266,0.247 -1.37515,0.5066 -2.03708,0.7914 l 11.29437,11.2944 c 0.2848,-0.662 0.54441,-1.3444 0.79136,-2.0371 l -10.04865,-10.0487 z"/><path fill="none" stroke="#0e7bff" stroke-linecap="round" stroke-linejoin="round" d="M549.4771 1795.7763c-.69266.247-1.37515.5066-2.03708.7914l11.29437 11.2944c.2848-.662.54441-1.3444.79136-2.0371l-10.04865-10.0487zM535.38888 1822.0569c.84719-1.1056 1.69676-3.8187 1.69676-3.8187 0 0-2.71169.8513-3.81808 1.6974-3.85945 2.9514-9.2037 11.3024-9.2037 11.3024 0 0 8.36913-5.3237 11.32502-9.1811z"/><g fill="#e9eded" stroke="#0e7bff" transform="translate(470.986 608.799)"><path fill="#0e7bff" fill-rule="evenodd" stroke="none" d="m 553.45703,835.79883 a 0.50064474,0.50064474 0 0 0 0.0508,1 l 0.50586,0 a 0.50030889,0.50030889 0 0 1 -0.0137,1 l -1.5,0 c -0.67616,-0.01 -0.67616,1.0096 0,1 l 2.02734,0 a 0.50030889,0.50030889 0 0 1 -0.0137,1 l -1.01172,0 c -0.67615,-0.01 -0.67615,1.0096 0,1 l 2.99219,0 c 0.67616,0.01 0.67616,-1.0096 0,-1 l -0.0352,0 a 0.50030896,0.50030896 0 0 1 0.0137,-1 l 3.02148,0 c 0.67616,0.01 0.67616,-1.0096 0,-1 l -0.54297,0 a 0.50030896,0.50030896 0 0 1 0.0137,-1 l 1.52735,0 a 0.50004997,0.50004997 0 1 0 0,-1 l -1.98438,0 -5,0 a 0.50004997,0.50004997 0 0 0 -0.0508,0 z m 2.50195,1 1.06055,0 a 0.50030889,0.50030889 0 0 1 -0.0137,1 l -1.06055,0 a 0.50030896,0.50030896 0 0 1 0.0137,-1 z" color="#000" font-family="sans-serif" style="line-height:normal;text-indent:0;text-align:start;text-decoration-line:none;text-decoration-style:solid;text-decoration-color:#000;text-transform:none;block-progression:tb;isolation:auto;mix-blend-mode:normal" font-weight="400" overflow="visible" transform="translate(-470.986 379.563)" white-space="normal"/><path fill="#0e7bff" fill-rule="evenodd" stroke="none" d="M79.521352 1215.3621c-.676158-.01-.676158 1.0096 0 1l1 0c.676158.01.676158-1.0097 0-1zM87.507233 1219.3621c-.676158-.01-.676158 1.0096 0 1l-.000119 0c.676158.01.676158-1.0097 0-1z" color="#000" font-family="sans-serif" font-weight="400" overflow="visible" white-space="normal" style="line-height:normal;text-indent:0;text-align:start;text-decoration-line:none;text-decoration-style:solid;text-decoration-color:#000;text-transform:none;block-progression:tb;isolation:auto;mix-blend-mode:normal"/></g><path fill="none" stroke="#0e7bff" stroke-linecap="round" stroke-linejoin="round" d="M540.49288 1790.6611l1.99999 0M541.49287 1789.6611l.00001 2M524.29492 1793.3679l1.41422-1.4141M524.29492 1791.9538l1.41421 1.4141"/><circle cx="1650.505" cy="901.675" r="1" fill="none" stroke="#0e7bff" stroke-linecap="round" stroke-linejoin="round" color="#000" style="isolation:auto;mix-blend-mode:normal" overflow="visible" transform="rotate(45)"/><path fill="none" stroke="#0e7bff" stroke-linecap="round" stroke-linejoin="round" d="M554.23821 1834.2825l-1.73204 1M553.87219 1835.6485l-1.00001-1.732M565.49494 1824.2418l-1.4142 1.4142M565.49495 1825.656l-1.41422-1.4142"/><circle cx="-1007.984" cy="-1611.693" r="1" fill="none" stroke="#0e7bff" stroke-linecap="round" stroke-linejoin="round" color="#000" style="isolation:auto;mix-blend-mode:normal" overflow="visible" transform="rotate(-165)"/><path fill="none" stroke="#0e7bff" stroke-linecap="round" stroke-linejoin="round" d="M545.65519 1799.6328c-.95207.5205-1.86807 1.0788-2.7485 1.6692-.88043.5904-1.7253 1.213-2.53512 1.8619-.80982.6489-1.5846 1.3243-2.32485 2.0203-.74026.6961-1.44598 1.4129-2.1177 2.1447l-.94057 1.0984m-.97307 1.1363c-.15106.189-.30002.3786-.44689.5687m-.8563 1.1459c-.13857.1918-.27507.3838-.40951.5761M521.56945 1818.9443c.0996-.2616.20061-.521.30283-.7768m.72264-1.6981c.10887-.2388.21843-.471.3284-.6955l.82184-1.5072c.6337-1.0221 1.26054-1.6863 1.83241-1.7542.45301-.1385 1.12212-.1583 1.8617-.096"/></g></svg>