<svg xmlns="http://www.w3.org/2000/svg" width="64" height="64" viewBox="0 0 64 64"><g transform="translate(-805.044 -1780.873)"><path fill="#dae7fc" d="m 827.5879,1822.3729 11.99996,0 c 2.77001,0 5.00002,2.23 5.00002,5 l 0,15 -22,0 0,-15 c 0,-2.77 2.23001,-5 5.00002,-5 z"/><path fill="#b2cdf8" d="m 843.12662,1823.8342 c 0.90376,0.9037 1.46126,2.1537 1.46126,3.5387 l 0,15 -22,0 c 0,0 0.0365,-0.011 20.53874,-18.5387 z"/><circle cx="833.887" cy="1813.772" r="6.6" fill="#f4f7f8"/><path fill="#b2cdf8" d="m 851.89551,1830.7874 -1.97215,1.9722 a 1.5481255,1.5481255 0 0 0 -0.43617,-0.8775 1.5481255,1.5481255 0 0 0 -2.18938,0 1.5481255,1.5481255 0 0 0 0,2.1894 1.5481255,1.5481255 0 0 0 0.87661,0.437 l -1.9713,1.9713 5.69239,5.6924 5.69239,-5.6924 -1.9713,-1.9713 a 1.5481255,1.5481255 0 0 1 -0.43702,0.8766 1.5481255,1.5481255 0 0 1 -2.18938,0 1.5481255,1.5481255 0 0 1 0,-2.1894 1.5481255,1.5481255 0 0 1 0.87746,-0.4361 l -1.97215,-1.9722 z"/><circle style="isolation:auto;mix-blend-mode:normal" cx="1614.985" cy="1171.727" r="1" fill="#6ca6fd" color="#000" overflow="visible" transform="rotate(30)"/><path fill="none" stroke="#0e7bff" d="m 827.5879,1822.3729 11.99996,0 c 2.77001,0 5.00002,2.23 5.00002,5 l 0,15 -22,0 0,-15 c 0,-2.77 2.23001,-5 5.00002,-5 z"/><rect width="1" height="12.299" x="827.088" y="1829.873" fill="#0e7bff" rx="0" ry="0"/><path fill="#dae7fc" d="m 857.21742,1784.3769 a 5.4428814,5.7456486 0 0 0 -1.61636,0.1929 5.4428814,5.7456486 0 0 0 -3.2661,2.6081 4.4532507,4.7009685 0 0 0 -2.21341,0.023 4.4532507,4.7009685 0 0 0 -3.29361,4.6191 3.4636336,3.6563027 0 0 0 -1.67331,0.031 3.4636336,3.6563027 0 0 0 -2.44909,4.4762 3.4636336,3.6563027 0 0 0 3.79835,2.6765 3.4636525,3.6563226 0 0 0 0.0943,0.5494 3.4636525,3.6563226 0 0 0 4.2422,2.5854 3.4636525,3.6563226 0 0 0 0.66579,-0.2716 5.1976145,5.4867384 0 0 0 4.91782,1.3205 5.1976145,5.4867384 0 0 0 3.70604,-4.0054 4.9480577,5.2232998 0 0 0 1.70277,-0.1534 4.9480577,5.2232998 0 0 0 3.49786,-6.3959 4.9480577,5.2232998 0 0 0 -2.96169,-3.5017 5.4428814,5.7456486 0 0 0 -0.10213,-0.4997 5.4428814,5.7456486 0 0 0 -5.0494,-4.2543 z"/><circle cx="348.305" cy="1958.508" r="1.748" fill="#dae7fc" transform="rotate(-15)"/><circle cx="343.917" cy="1961.041" r="1.165" fill="#dae7fc" transform="rotate(-15)"/><path fill="none" stroke="#0e7bff" stroke-linecap="round" stroke-linejoin="round" d="M857.01561 1797.3501l0-2.1588c1.2738-.672 2.07134-1.9935 2.07227-3.4336-.00006-2.1455-1.73929-3.8847-3.88477-3.8848-2.14547.0001-3.8847 1.7393-3.88476 3.8848.00092 1.4401.79847 2.7616 2.07226 3.4336l0 2.1588M855.08788 1793.38l0 3.6259"/><path fill="none" d="m 854.58788,1799.4829 0,0.89 c 0,0.277 -0.223,0.5 -0.5,0.5 -0.277,0 -0.5,-0.223 -0.5,-0.5 l 0,-0.89 c 0,-0.277 0.223,-0.5 0.5,-0.5 0.277,0 0.5,0.223 0.5,0.5 z"/><rect width="5" height="2" x="852.588" y="1797.373" fill="none" stroke="#0e7bff" stroke-linecap="round" stroke-linejoin="round"/><path fill="none" stroke="#0e7bff" stroke-linecap="round" stroke-linejoin="round" d="m 855.94869,1793.373 -1.72163,0"/><path fill="#b2cdf8" d="m 818.88672,1795.1728 0,3.2109 a 5.5,5.5 0 0 0 -1.17578,0.4922 l -2.27344,-2.2735 -2.12109,2.1211 2.26953,2.2696 a 5.5,5.5 0 0 0 -0.48438,1.1797 l -3.21484,0 0,3 3.21094,0 a 5.5,5.5 0 0 0 0.49218,1.1757 l -2.27343,2.2735 2.12109,2.1211 2.26953,-2.2696 a 5.5,5.5 0 0 0 1.17969,0.4844 l 0,3.2149 3,0 0,-3.211 a 5.5,5.5 0 0 0 1.17578,-0.4922 l 2.27344,2.2735 2.12109,-2.1211 -2.26953,-2.2696 a 5.5,5.5 0 0 0 0.48438,-1.1796 l 3.21484,0 0,-3 -3.21094,0 a 5.5,5.5 0 0 0 -0.49023,-1.1778 l 2.27148,-2.2715 -2.12109,-2.1211 -2.26953,2.2696 a 5.5,5.5 0 0 0 -1.17969,-0.4844 l 0,-3.2148 -3,0 z m 1.5,6 a 2.5,2.5 0 0 1 2.5,2.5 2.5,2.5 0 0 1 -2.5,2.5 2.5,2.5 0 0 1 -2.5,-2.5 2.5,2.5 0 0 1 2.5,-2.5 z"/><path fill="#dae7fc" d="m 814.56836,1784.372 -0.53125,1.9843 a 3.5180221,3.5180221 0 0 0 -0.80859,0.1094 l -1.02735,-1.7812 -1.66211,0.9609 1.02539,1.7774 a 3.5180221,3.5180221 0 0 0 -0.49414,0.6484 l -1.98633,-0.5313 -0.49609,1.8536 1.98438,0.5312 a 3.5180221,3.5180221 0 0 0 0.10937,0.8066 l -1.78125,1.0293 0.95899,1.6622 1.77734,-1.0274 a 3.5180221,3.5180221 0 0 0 0.65039,0.4941 l -0.5332,1.9864 1.85351,0.4961 0.53125,-1.9825 a 3.5180221,3.5180221 0 0 0 0.8086,-0.1093 l 1.02734,1.7812 1.66211,-0.9609 -1.02539,-1.7774 a 3.5180221,3.5180221 0 0 0 0.49414,-0.6484 l 1.98633,0.5312 0.49609,-1.8535 -1.98437,-0.5312 a 3.5180221,3.5180221 0 0 0 -0.10743,-0.8086 l 1.7793,-1.0274 -0.95898,-1.6621 -1.77735,1.0274 a 3.5180221,3.5180221 0 0 0 -0.65039,-0.4942 l 0.53321,-1.9863 -1.85352,-0.498 z m -0.45313,4 a 1.5407468,1.5407468 0 0 1 0.41211,0.053 1.5407468,1.5407468 0 0 1 1.08985,1.8867 1.5407468,1.5407468 0 0 1 -1.88867,1.0898 1.5407468,1.5407468 0 0 1 -1.0879,-1.8867 1.5407468,1.5407468 0 0 1 1.47461,-1.1426 z"/><circle cx="833.887" cy="1813.772" r="6.6" fill="none" stroke="#0e7bff"/><path fill="none" stroke="#0e7bff" stroke-linecap="round" stroke-linejoin="round" d="M851.89551 1830.7874l-1.97215 1.9722a1.5481255 1.5481255 0 0 0-.43617-.8775 1.5481255 1.5481255 0 0 0-2.18938 0 1.5481255 1.5481255 0 0 0 0 2.1894 1.5481255 1.5481255 0 0 0 .87661.437l-1.9713 1.9713 5.69239 5.6924 5.69239-5.6924-1.9713-1.9713a1.5481255 1.5481255 0 0 1-.43702.8766 1.5481255 1.5481255 0 0 1-2.18938 0 1.5481255 1.5481255 0 0 1 0-2.1894 1.5481255 1.5481255 0 0 1 .87746-.4361l-1.97215-1.9722zM817.38006 1839.6721l2.00001-.0001M818.38006 1838.672l0 2.0001M818.01499 1826.0418l1.00001-1.7321M817.64897 1824.6758l1.73204 1"/><circle cx="1614.985" cy="1171.727" r="1" fill="none" stroke="#0e7bff" stroke-linecap="round" stroke-linejoin="round" color="#000" style="isolation:auto;mix-blend-mode:normal" overflow="visible" transform="rotate(30)"/><path fill="none" stroke="#0e7bff" stroke-linecap="round" stroke-linejoin="round" d="M811.5486 1830.8339l.70718.707M813.67496 1832.9602l.70718.707M814.38206 1830.8338l-.70704.7072M812.25572 1832.9601l-.70704.7072"/><g stroke="#0e7bff" transform="matrix(.67768 0 0 .72645 820.134 1075.172)"><path fill="none" stroke-linecap="round" stroke-linejoin="round" stroke-width="1.425" d="M42.49995 1025.8551l0-.9999M42.5 1024.8551c0-.8706.610439-1.3246 1.25005-1.6939.630382-.364.908471-1.128.659539-1.812-.248963-.684-.953125-1.0906-1.670012-.9642-.716877.1264-1.239521.7493-1.239527 1.4772M42.49995 1027.8551l0 .0001"/></g><g stroke="#0e7bff" transform="rotate(45 -867.845 2288.24) scale(.67768 .72645)"><path fill="none" stroke-linecap="round" stroke-linejoin="round" stroke-width="1.425" d="M42.49995 1025.8551l0-.9999M42.5 1024.8551c0-.8706.610439-1.3246 1.25005-1.6939.630382-.364.908471-1.128.659539-1.812-.248963-.684-.953125-1.0906-1.670012-.9642-.716877.1264-1.239521.7493-1.239527 1.4772M42.49995 1027.8551l0 .0001"/></g><rect width="1" height="12.299" x="839.088" y="1829.873" fill="#0e7bff" rx="0" ry="0"/><path fill="none" d="m 856.58788,1799.4829 0,0.89 c 0,0.277 -0.223,0.5 -0.5,0.5 -0.27699,0 -0.49999,-0.223 -0.49999,-0.5 l 0,-0.89 c 0,-0.277 0.22299,-0.5 0.49999,-0.5 0.277,0 0.5,0.223 0.5,0.5 z"/><path fill="none" stroke="#0e7bff" stroke-linecap="round" stroke-linejoin="round" d="M854 1800.3622l0-1M856.00005 1800.3622l0-1"/><path fill="none" stroke="#0e7bff" d="m 857.21742,1784.3769 a 5.4428814,5.7456486 0 0 0 -1.61636,0.1929 5.4428814,5.7456486 0 0 0 -3.2661,2.6081 4.4532507,4.7009685 0 0 0 -2.21341,0.023 4.4532507,4.7009685 0 0 0 -3.29361,4.6191 3.4636336,3.6563027 0 0 0 -1.67331,0.031 3.4636336,3.6563027 0 0 0 -2.44909,4.4762 3.4636336,3.6563027 0 0 0 3.79835,2.6765 3.4636525,3.6563226 0 0 0 0.0943,0.5494 3.4636525,3.6563226 0 0 0 4.2422,2.5854 3.4636525,3.6563226 0 0 0 0.66579,-0.2716 5.1976145,5.4867384 0 0 0 4.91782,1.3205 5.1976145,5.4867384 0 0 0 3.70604,-4.0054 4.9480577,5.2232998 0 0 0 1.70277,-0.1534 4.9480577,5.2232998 0 0 0 3.49786,-6.3959 4.9480577,5.2232998 0 0 0 -2.96169,-3.5017 5.4428814,5.7456486 0 0 0 -0.10213,-0.4997 5.4428814,5.7456486 0 0 0 -5.0494,-4.2543 z"/><circle cx="348.305" cy="1958.508" r="1.748" fill="none" stroke="#0e7bff" transform="rotate(-15)"/><circle cx="343.917" cy="1961.041" r="1.165" fill="none" stroke="#0e7bff" transform="rotate(-15)"/><path fill="none" stroke="#0e7bff" stroke-linecap="round" stroke-linejoin="round" d="M818.88672 1795.1728l0 3.2109a5.5 5.5 0 0 0-1.17578.4922l-2.27344-2.2735-2.12109 2.1211 2.26953 2.2696a5.5 5.5 0 0 0-.48438 1.1797l-3.21484 0 0 3 3.21094 0a5.5 5.5 0 0 0 .49218 1.1757l-2.27343 2.2735 2.12109 2.1211 2.26953-2.2696a5.5 5.5 0 0 0 1.17969.4844l0 3.2149 3 0 0-3.211a5.5 5.5 0 0 0 1.17578-.4922l2.27344 2.2735 2.12109-2.1211-2.26953-2.2696a5.5 5.5 0 0 0 .48438-1.1796l3.21484 0 0-3-3.21094 0a5.5 5.5 0 0 0-.49023-1.1778l2.27148-2.2715-2.12109-2.1211-2.26953 2.2696a5.5 5.5 0 0 0-1.17969-.4844l0-3.2148-3 0zm1.5 6a2.5 2.5 0 0 1 2.5 2.5 2.5 2.5 0 0 1-2.5 2.5 2.5 2.5 0 0 1-2.5-2.5 2.5 2.5 0 0 1 2.5-2.5zM814.56836 1784.372l-.53125 1.9843a3.5180221 3.5180221 0 0 0-.80859.1094l-1.02735-1.7812-1.66211.9609 1.02539 1.7774a3.5180221 3.5180221 0 0 0-.49414.6484l-1.98633-.5313-.49609 1.8536 1.98438.5312a3.5180221 3.5180221 0 0 0 .10937.8066l-1.78125 1.0293.95899 1.6622 1.77734-1.0274a3.5180221 3.5180221 0 0 0 .65039.4941l-.5332 1.9864 1.85351.4961.53125-1.9825a3.5180221 3.5180221 0 0 0 .8086-.1093l1.02734 1.7812 1.66211-.9609-1.02539-1.7774a3.5180221 3.5180221 0 0 0 .49414-.6484l1.98633.5312.49609-1.8535-1.98437-.5312a3.5180221 3.5180221 0 0 0-.10743-.8086l1.7793-1.0274-.95898-1.6621-1.77735 1.0274a3.5180221 3.5180221 0 0 0-.65039-.4942l.53321-1.9863-1.85352-.498zm-.45313 4a1.5407468 1.5407468 0 0 1 .41211.053 1.5407468 1.5407468 0 0 1 1.08985 1.8867 1.5407468 1.5407468 0 0 1-1.88867 1.0898 1.5407468 1.5407468 0 0 1-1.0879-1.8867 1.5407468 1.5407468 0 0 1 1.47461-1.1426z"/></g></svg>