<svg xmlns="http://www.w3.org/2000/svg" xmlns:xlink="http://www.w3.org/1999/xlink" width="96" height="96" viewBox="0 0 96 96"><defs><linearGradient id="b" x1="992.183" x2="1019.298" y1="516.081" y2="545.959" gradientTransform="matrix(3.0757 0 0 3.0757 -3045.41 -629.677)" gradientUnits="userSpaceOnUse" xlink:href="#a"/><linearGradient id="a"><stop offset="0" stop-color="#ff1679"/><stop offset="1" stop-color="#ff770b"/></linearGradient></defs><g transform="translate(0 -956.362)"><rect width="96" height="96" y="956.362" fill="url(#b)" rx="20.288" ry="20.288"/><path fill="#fff" style="line-height:normal;text-indent:0;text-align:start;text-decoration-line:none;text-decoration-style:solid;text-decoration-color:#000;text-transform:none;block-progression:tb;isolation:auto;mix-blend-mode:normal" d="m 26.505112,974.3641 a 0.50005,0.50005 0 0 0 -0.46289,0.36914 l -0.445313,1.66602 c -0.04842,0.006 -0.09635,0.0121 -0.144531,0.0195 l -0.863281,-1.49411 a 0.50005,0.50005 0 0 0 -0.681641,-0.18164 l -1.662109,0.95898 a 0.50005,0.50005 0 0 0 -0.183594,0.6836 l 0.861328,1.49218 c -0.03006,0.038 -0.05923,0.0762 -0.08789,0.11524 l -1.664063,-0.44727 a 0.50005,0.50005 0 0 0 -0.613281,0.35352 l -0.496094,1.85351 a 0.50005,0.50005 0 0 0 0.353516,0.61328 l 1.666016,0.44727 c 0.0056,0.0477 0.01224,0.0951 0.01953,0.14258 l -1.49414,0.86133 a 0.50005,0.50005 0 0 0 -0.183594,0.68359 l 0.958984,1.66213 a 0.50005,0.50005 0 0 0 0.683594,0.1816 l 1.494141,-0.8613 c 0.03726,0.029 0.075,0.058 0.113281,0.086 l -0.445313,1.668 a 0.50005,0.50005 0 0 0 0.353516,0.6113 l 1.853516,0.4981 a 0.50005,0.50005 0 0 0 0.611328,-0.3535 l 0.445312,-1.6661 c 0.04842,-0.01 0.09635,-0.013 0.144532,-0.021 l 0.863281,1.4941 a 0.50005,0.50005 0 0 0 0.681641,0.1816 l 1.662109,-0.9589 a 0.50005,0.50005 0 0 0 0.183594,-0.6836 L 29.165269,982.847 c 0.03006,-0.038 0.05923,-0.0762 0.08789,-0.11523 l 1.664063,0.44728 a 0.50005,0.50005 0 0 0 0.613281,-0.35353 l 0.496094,-1.85352 a 0.50005,0.50005 0 0 0 -0.353516,-0.61328 l -1.666015,-0.44531 c -0.0055,-0.0483 -0.01029,-0.0965 -0.01758,-0.14453 l 1.492188,-0.85938 a 0.50005,0.50005 0 0 0 0.183594,-0.68359 l -0.958985,-1.66211 a 0.50005,0.50005 0 0 0 -0.683593,-0.18164 l -1.494141,0.86133 c -0.03726,-0.0295 -0.075,-0.0578 -0.113281,-0.0859 l 0.445312,-1.66797 a 0.50005,0.50005 0 0 0 -0.353515,-0.61328 l -1.853516,-0.49619 a 0.50005,0.50005 0 0 0 -0.148438,-0.0156 z m 42.687501,0.004 c -0.597721,-0.0237 -1.19441,0.0472 -1.771485,0.21094 -1.401439,0.3966 -2.570162,1.35216 -3.365234,2.60937 -0.702796,-0.12561 -1.422345,-0.17328 -2.113281,0.0215 l -0.002,0 c -2.044117,0.58164 -3.424104,2.46228 -3.585937,4.625 -0.462539,-0.0428 -0.928265,-0.10197 -1.378906,0.0254 l -0.002,0 c -2.119093,0.59975 -3.354124,2.88034 -2.796876,5.08004 0.465297,1.8288 2.073091,3.0296 3.857422,3.0215 0.01322,0.067 0.0188,0.1351 0.03516,0.2012 0.558518,2.2004 2.743106,3.5431 4.863281,2.9433 l 0.002,0 c 0.174989,-0.05 0.339472,-0.1303 0.505859,-0.205 1.412006,1.2313 3.282861,1.7612 5.076172,1.2558 1.889886,-0.5344 3.287537,-2.0916 3.869141,-4.0195 0.517221,0.013 1.036342,0 1.537109,-0.1387 l 0.002,0 c 2.910963,-0.8241 4.615674,-3.9644 3.845703,-6.99997 -0.41561,-1.63084 -1.534771,-2.93049 -2.990234,-3.64649 -0.02248,-0.11755 -0.04337,-0.23551 -0.07227,-0.35156 l 0,-0.002 c -0.668632,-2.634 -2.900078,-4.52535 -5.513671,-4.63086 l -0.002,0 z m -0.03906,0.99804 c 2.155625,0.087 4.017269,1.64641 4.583984,3.87891 0.03742,0.15054 0.06908,0.30156 0.09375,0.45508 l 0.04492,0.27539 0.25586,0.10742 c 1.305062,0.54372 2.300318,1.71375 2.669921,3.16401 0.642025,2.5355 -0.782682,5.1213 -3.148437,5.7911 -0.495755,0.1382 -1.011312,0.1845 -1.521484,0.1367 l -0.435547,-0.041 -0.09766,0.4258 c -0.409647,1.7811 -1.702644,3.1694 -3.355469,3.6367 -1.570184,0.4418 -3.240165,-10e-5 -4.427735,-1.1934 l -0.261718,-0.2617 -0.328125,0.1758 c -0.180678,0.097 -0.369536,0.1744 -0.564453,0.2305 -1.574469,0.4454 -3.188291,-0.5258 -3.621094,-2.2247 -0.0388,-0.1568 -0.06627,-0.3172 -0.08203,-0.4785 l -0.05078,-0.5175 -0.515625,0.07 c -1.465146,0.2042 -2.853431,-0.7614 -3.246094,-2.3047 -0.430706,-1.7002 0.527006,-3.4255 2.101563,-3.87113 0.464591,-0.13132 0.949521,-0.1413 1.417969,-0.0273 l 0.628906,0.15234 -0.0098,-0.64648 c -0.03135,-1.93994 1.187007,-3.63499 2.929688,-4.13086 l 0,0.002 c 0.63938,-0.18022 1.308718,-0.18844 1.951172,-0.0215 l 0.373047,0.0996 0.1875,-0.33594 c 0.663313,-1.17487 1.729013,-2.02081 2.966797,-2.37109 l 0.002,0 c 0.476115,-0.13506 0.966916,-0.19526 1.458984,-0.17579 z m -42.275391,0.10938 0.886719,0.23828 -0.402344,1.50195 a 0.50005,0.50005 0 0 0 0.228516,0.56055 c 0.201319,0.11935 0.388219,0.26132 0.556641,0.42383 a 0.50005,0.50005 0 0 0 0.597656,0.0742 l 1.34375,-0.77735 0.458984,0.79493 -1.345703,0.77734 a 0.50005,0.50005 0 0 0 -0.234375,0.55664 c 0.05767,0.2269 0.08795,0.45927 0.0918,0.69336 a 0.50005,0.50005 0 0 0 0.371094,0.47656 l 1.5,0.40039 -0.238281,0.88867 -1.501954,-0.40234 a 0.50005,0.50005 0 0 0 -0.558593,0.22656 c -0.119369,0.20132 -0.263257,0.38823 -0.425782,0.55664 a 0.50005,0.50005 0 0 0 -0.07226,0.59762 l 0.77539,1.3458 -0.794922,0.459 -0.777343,-1.3477 a 0.50005,0.50005 0 0 0 -0.558594,-0.2344 c -0.226618,0.058 -0.459467,0.089 -0.69336,0.094 a 0.50005,0.50005 0 0 0 -0.472656,0.3691 l -0.402344,1.502 -0.888672,-0.2383 0.404297,-1.5039 A 0.50005,0.50005 0 0 0 24.4973,982.95034 c -0.201315,-0.11936 -0.388224,-0.26132 -0.556641,-0.42383 a 0.50005,0.50005 0 0 0 -0.597656,-0.0742 l -1.34375,0.77734 -0.458985,-0.79687 1.347657,-0.77734 A 0.50005,0.50005 0 0 0 23.1223,981.0988 c -0.05805,-0.22659 -0.08941,-0.4595 -0.09375,-0.69336 a 0.50005,0.50005 0 0 0 -0.371094,-0.47461 l -1.5,-0.40235 0.236328,-0.88671 1.503906,0.40234 a 0.50005,0.50005 0 0 0 0.558594,-0.22656 c 0.11937,-0.20132 0.263255,-0.38823 0.425781,-0.55664 a 0.50005,0.50005 0 0 0 0.07227,-0.59766 l -0.77539,-1.3457 0.794922,-0.45899 0.777343,1.34766 a 0.50005,0.50005 0 0 0 0.558594,0.23437 c 0.226613,-0.058 0.459471,-0.0894 0.693359,-0.0937 a 0.50005,0.50005 0 0 0 0.472657,-0.37109 l 0.402343,-1.5 z m 40.28125,2.38672 c -2.41568,7e-5 -4.384695,1.96908 -4.384765,4.38476 a 0.50005,0.50005 0 0 0 0,0.002 c 9.62e-4,1.49755 0.827036,2.82175 2.072265,3.62305 l 0,1.4902 -0.302734,0 a 0.50005,0.50005 0 0 0 -0.5,0.5 l 0,2 a 0.50005,0.50005 0 0 0 0.5,0.5 l 1,0 0,0.5 c 0,0.277 0.223001,0.5 0.5,0.5 0.277,0 0.5,-0.223 0.5,-0.5 l 0,-0.5 1,0 0,0.5 c 0,0.277 0.223001,0.5 0.5,0.5 0.277,0 0.5,-0.223 0.5,-0.5 l 0,-0.5 1,0 a 0.50005,0.50005 0 0 0 0.5,-0.5 l 0,-2 a 0.50005,0.50005 0 0 0 -0.5,-0.5 l -0.07227,0 0,-1.4902 c 1.245231,-0.8013 2.071303,-2.1255 2.072266,-3.62305 a 0.50005,0.50005 0 0 0 0,-0.002 c -7e-5,-2.41569 -1.969085,-4.38469 -4.384766,-4.38476 z m -40.953125,0.5039 c -0.945005,-0.0554 -1.839847,0.56024 -2.09375,1.50782 -0.290165,1.08295 0.360412,2.20982 1.443359,2.5 1.082948,0.29017 2.209826,-0.36042 2.500001,-1.44336 0.290175,-1.08295 -0.360412,-2.20787 -1.44336,-2.49805 -0.13537,-0.0363 -0.271249,-0.0585 -0.40625,-0.0664 z m 40.953125,0.4961 c 1.875262,5e-5 3.384712,1.50949 3.384766,3.38476 -8.07e-4,1.25575 -0.693983,2.40625 -1.804688,2.99225 a 0.50005,0.50005 0 0 0 -0.267578,0.4414 l 0,1.6816 -0.927734,0 0,-3 0.361328,0 a 0.50005,0.50005 0 1 0 0,-1 l -0.86914,0 -0.853516,0 a 0.50005,0.50005 0 1 0 0,1 l 0.361328,0 0,3 -0.697266,0 0,-1.6816 a 0.50005,0.50005 0 0 0 -0.267578,-0.4414 c -1.110702,-0.586 -1.803881,-1.7365 -1.804687,-2.99225 5.4e-5,-1.87527 1.509504,-3.38471 3.384765,-3.38476 z m -41.220703,0.50781 c 0.134034,-0.018 0.273829,-0.0102 0.414062,0.0273 0.560923,0.1503 0.888581,0.71251 0.738282,1.27344 -0.150299,0.56092 -0.714468,0.88663 -1.275391,0.73633 -0.560923,-0.1503 -0.886627,-0.71447 -0.736328,-1.27539 0.112724,-0.4207 0.457274,-0.70782 0.859375,-0.76172 z m 4.904297,5.793 a 0.50005,0.50005 0 0 0 -0.5,0.5 l 0,2.8828 c -0.189711,0.068 -0.374771,0.1453 -0.55664,0.2324 l -2.039063,-2.039 a 0.50005,0.50005 0 0 0 -0.707031,0 l -2.121097,2.1209 a 0.50005,0.50005 0 0 0 0,0.7071 l 2.037109,2.0371 c -0.08591,0.1824 -0.161389,0.3685 -0.228516,0.5586 l -2.884765,0 a 0.50005,0.50005 0 0 0 -0.5,0.5 l 0,3 a 0.50005,0.50005 0 0 0 0.5,0.5 l 2.882812,0 c 0.06837,0.1897 0.14531,0.3747 0.232422,0.5566 l -2.039062,2.0391 a 0.50005,0.50005 0 0 0 0,0.707 l 2.121094,2.12115 a 0.50005,0.50005 0 0 0 0.707031,0 l 2.037109,-2.0371 c 0.182394,0.086 0.368482,0.1614 0.558594,0.2285 l 0,2.8848 a 0.50005,0.50005 0 0 0 0.5,0.5 l 3,0 a 0.50005,0.50005 0 0 0 0.5,-0.5 l 0,-2.8809 c 0.189719,-0.068 0.374763,-0.1474 0.556641,-0.2344 l 2.039062,2.0391 a 0.50005,0.50005 0 0 0 0.707031,0 l 2.121094,-2.12115 a 0.50005,0.50005 0 0 0 0,-0.707 l -2.037109,-2.0371 c 0.08598,-0.1825 0.163302,-0.3683 0.230469,-0.5586 l 2.882812,0 a 0.50005,0.50005 0 0 0 0.5,-0.5 l 0,-3 a 0.50005,0.50005 0 0 0 -0.5,-0.5 l -2.880859,0 c -0.0682,-0.1905 -0.145329,-0.3759 -0.232422,-0.5586 l 2.037109,-2.0371 a 0.50005,0.50005 0 0 0 0,-0.7071 l -2.121094,-2.121 a 0.50005,0.50005 0 0 0 -0.707031,0 l -2.037109,2.0371 c -0.182518,-0.086 -0.368348,-0.1633 -0.558594,-0.2305 l 0,-2.8828 a 0.50005,0.50005 0 0 0 -0.5,-0.5 l -3,0 z m 0.5,1 2,0 0,2.7148 a 0.50005,0.50005 0 0 0 0.365234,0.4805 c 0.373344,0.1047 0.733065,0.2536 1.072266,0.4414 a 0.50005,0.50005 0 0 0 0.595703,-0.084 l 1.916016,-1.916 1.414062,1.4141 -1.917968,1.9179 a 0.50005,0.50005 0 0 0 -0.08203,0.5977 c 0.18958,0.3384 0.338787,0.6974 0.445313,1.0703 a 0.50005,0.50005 0 0 0 0.480469,0.3633 l 2.710937,0 0,2 -2.714844,0 a 0.50005,0.50005 0 0 0 -0.480468,0.3652 c -0.1047,0.3734 -0.253538,0.7331 -0.441407,1.0723 a 0.50005,0.50005 0 0 0 0.08398,0.5957 l 1.916015,1.916 -1.414062,1.41415 -1.919922,-1.92005 a 0.50005,0.50005 0 0 0 -0.597656,-0.082 c -0.337752,0.1901 -0.697878,0.3401 -1.070313,0.4473 a 0.50005,0.50005 0 0 0 -0.361328,0.4804 l 0,2.71105 -2,0 0,-2.71495 a 0.50005,0.50005 0 0 0 -0.365234,-0.4824 c -0.373348,-0.1047 -0.733069,-0.2515 -1.072266,-0.4394 a 0.50005,0.50005 0 0 0 -0.595703,0.084 l -1.916016,1.91615 -1.414062,-1.41415 1.919922,-1.9199 a 0.50005,0.50005 0 0 0 0.08203,-0.5996 c -0.190071,-0.3378 -0.340049,-0.6959 -0.447266,-1.0684 a 0.50005,0.50005 0 0 0 -0.480468,-0.3613 l -2.710938,0 0,-2 2.714844,0 a 0.50005,0.50005 0 0 0 0.482422,-0.3653 c 0.104699,-0.3734 0.251584,-0.733 0.439453,-1.0722 a 0.50005,0.50005 0 0 0 -0.08399,-0.5957 l -1.916015,-1.916 1.414062,-1.4141 1.919922,1.9199 a 0.50005,0.50005 0 0 0 0.59961,0.082 c 0.337756,-0.1901 0.695928,-0.3401 1.068359,-0.4473 a 0.50005,0.50005 0 0 0 0.361328,-0.4805 l 0,-2.7109 z m 33.701169,2.1991 4,0 0,1 -4,0 0,-1 z m -9.886719,1.5078 c -0.148812,0.01 -0.298061,0.032 -0.447265,0.072 -1.193626,0.3198 -1.909687,1.5602 -1.589844,2.7539 0.31983,1.1936 1.558332,1.9096 2.751953,1.5898 1.193624,-0.3199 1.911627,-1.5603 1.591797,-2.7539 -0.279846,-1.0445 -1.264955,-1.7232 -2.306641,-1.6621 z m 0.0625,0.9981 c 0.582326,-0.037 1.121844,0.3361 1.279297,0.9238 0.179954,0.6716 -0.213167,1.3474 -0.884766,1.5273 -0.671596,0.18 -1.349341,-0.2092 -1.529296,-0.8808 -0.179966,-0.6716 0.211214,-1.3493 0.882812,-1.5293 0.08395,-0.023 0.168764,-0.036 0.251953,-0.041 z m -22.876953,0.2949 c -1.650932,0 -3,1.3491 -3,3 0,1.6509 1.349068,3 3,3 1.650932,0 3,-1.3491 3,-3 0,-1.6509 -1.349068,-3 -3,-3 z m 0,1 c 1.110492,0 2,0.8895 2,2 0,1.1105 -0.889508,2 -2,2 -1.110492,0 -2,-0.8895 -2,-2 0,-1.1105 0.889508,-2 2,-2 z m 19.267578,1.8711 c -0.110131,0.01 -0.221687,0.023 -0.332031,0.053 -0.88276,0.2366 -1.414269,1.1582 -1.177734,2.041 0.236534,0.8827 1.156302,1.4144 2.039062,1.1778 0.882749,-0.2365 1.416223,-1.1564 1.179688,-2.0391 -0.206968,-0.7725 -0.938063,-1.277 -1.708985,-1.2324 z m 0.19336,1.0019 c 0.257486,0.034 0.476334,0.2178 0.548828,0.4883 0.09666,0.3607 -0.109978,0.7197 -0.470703,0.8164 -0.360734,0.097 -0.719748,-0.11 -0.816407,-0.4707 -0.09666,-0.3608 0.109969,-0.7197 0.470704,-0.8164 0.09018,-0.024 0.181749,-0.029 0.267578,-0.018 z m -5.960938,2.127 c -3.915299,0 -7.099609,3.18435 -7.099609,7.09965 0,3.9153 3.18431,7.0996 7.099609,7.0996 3.9153,0 7.09961,-3.1843 7.09961,-7.0996 0,-3.9153 -3.18431,-7.09965 -7.09961,-7.09965 z m 0,1 c 3.374859,0 6.09961,2.72485 6.09961,6.09965 0,3.3749 -2.724751,6.0996 -6.09961,6.0996 -3.374859,0 -6.099609,-2.7247 -6.099609,-6.0996 0,-3.3748 2.72475,-6.09965 6.099609,-6.09965 z m 15.392578,8.24415 c -0.0907,-5e-4 -0.183285,0.01 -0.27539,0.025 l 0,0 c -0.736524,0.1395 -1.246088,0.8124 -1.246094,1.5644 a 0.50005,0.50005 0 1 0 1,0 c 2e-6,-0.3055 0.198493,-0.5375 0.433594,-0.582 0.234793,-0.044 0.468622,0.087 0.564453,0.3691 0.09582,0.2823 -0.01942,0.5963 -0.236328,0.7305 -0.234155,0.145 -0.496179,0.3216 -0.712891,0.5898 -0.198869,0.2462 -0.338572,0.5828 -0.361328,0.9649 a 0.50005,0.50005 0 0 0 -0.0098,0.1015 l 0,0.7266 a 0.50005,0.50005 0 1 0 1,0 l 0,-0.6934 a 0.50005,0.50005 0 0 0 0,-0.033 c 0,-0.2073 0.0519,-0.3156 0.150391,-0.4375 0.09849,-0.1219 0.259689,-0.2457 0.458984,-0.3691 0.637488,-0.3945 0.899775,-1.1888 0.658203,-1.9004 -0.211401,-0.6226 -0.788937,-1.0508 -1.423828,-1.0547 z m -36.626953,4.8262 c -0.481184,0.035 -0.938278,0.2989 -1.195313,0.7441 -0.41125,0.7123 -0.163486,1.6377 0.548828,2.0489 0.712306,0.4113 1.637579,0.1634 2.048829,-0.5489 0.411255,-0.7123 0.163477,-1.6376 -0.548829,-2.0488 -0.267118,-0.1542 -0.564805,-0.2162 -0.853515,-0.1953 z m 36.275391,0.6074 a 0.50005,0.50005 0 0 0 -0.492188,0.5078 0.50005,0.50005 0 1 0 1,0 0.50005,0.50005 0 0 0 -0.507812,-0.5078 z m -36.111329,0.3887 c 0.06446,0.01 0.128383,0.029 0.189453,0.064 0.244272,0.141 0.324629,0.4393 0.183594,0.6836 -0.14103,0.2443 -0.439323,0.3227 -0.683594,0.1817 -0.244279,-0.141 -0.324623,-0.4374 -0.183593,-0.6817 0.105776,-0.1832 0.300746,-0.2736 0.49414,-0.248 z m 14.771485,0.1328 c -3.03836,0 -5.5,2.4617 -5.5,5.5 l 0,15.5 23,0 0,-15.5 c 0,-3.0383 -2.461641,-5.5 -5.5,-5.5 l -12,0 z m 0,1 12,0 c 2.501657,0 4.5,1.9984 4.5,4.5 l 0,14.5 -4,0 0,-12 -1,0 0,12 -11,0 0,-12 -1,0 0,12 -4,0 0,-14.5 c 0,-2.5016 1.998342,-4.5 4.5,-4.5 z m -8.564453,0.9316 a 0.50005,0.50005 0 0 0 -0.441406,0.2559 l -0.25,0.4336 -0.433594,-0.25 a 0.50005,0.50005 0 0 0 -0.287109,-0.07 0.50005,0.50005 0 0 0 -0.212891,0.9355 l 0.433594,0.25 -0.25,0.4336 a 0.50005,0.50005 0 1 0 0.865234,0.5 l 0.25,-0.4336 0.433594,0.25 a 0.50005,0.50005 0 1 0 0.5,-0.8652 l -0.433594,-0.25 0.25,-0.4336 a 0.50005,0.50005 0 0 0 -0.423828,-0.7559 z m 40.400391,4.0371 0,0 c -0.353113,0.042 -0.695042,0.2048 -0.960938,0.4707 a 0.50005,0.50005 0 1 0 0.707031,0.707 c 0.216026,-0.2161 0.519348,-0.2401 0.716797,-0.1054 0.19744,0.1347 0.270449,0.3949 0.138672,0.6621 -0.131828,0.2674 -0.435266,0.406 -0.683594,0.3476 -0.268064,-0.063 -0.577039,-0.1223 -0.919922,-0.086 -0.313825,0.033 -0.651605,0.1693 -0.9375,0.4219 a 0.50005,0.50005 0 0 0 -0.08008,0.068 0.50005,0.50005 0 0 0 -0.03516,0.035 l -0.478516,0.4785 a 0.50005,0.50005 0 1 0 0.707032,0.707 l 0.482422,-0.4843 a 0.50005,0.50005 0 0 0 0.03125,-0.029 c 0.146518,-0.1465 0.260183,-0.1867 0.416015,-0.2032 0.155832,-0.017 0.355851,0.012 0.583985,0.064 0.729776,0.1717 1.478234,-0.2069 1.810546,-0.8809 0.332334,-0.6739 0.148768,-1.5071 -0.470703,-1.9297 -0.309725,-0.2112 -0.674232,-0.2885 -1.027343,-0.2461 z m -7.535157,2.4473 a 0.50005,0.50005 0 0 0 -0.347656,0.1465 l -1.498047,1.498 c -0.08076,-0.1291 -0.0925,-0.2931 -0.201172,-0.4023 a 0.50005,0.50005 0 0 0 -0.002,0 c -0.795655,-0.7957 -2.100829,-0.7957 -2.896484,0 -0.795673,0.7956 -0.795673,2.1008 0,2.8965 a 0.50005,0.50005 0 0 0 0.002,0 c 0.109458,0.1092 0.274738,0.1201 0.404297,0.2012 l -1.5,1.5 a 0.50005,0.50005 0 0 0 0,0.707 l 5.691406,5.6933 a 0.50005,0.50005 0 0 0 0.708984,0 l 5.691407,-5.6933 a 0.50005,0.50005 0 0 0 0,-0.707 l -1.970704,-1.9707 a 0.50005,0.50005 0 0 0 -0.849609,0.2832 c -0.0318,0.2247 -0.134613,0.433 -0.294922,0.5937 -0.413506,0.4135 -1.068916,0.4135 -1.482422,0 -0.413515,-0.4135 -0.413515,-1.0689 0,-1.4824 0.160883,-0.1602 0.368913,-0.2633 0.59375,-0.2949 a 0.50005,0.50005 0 0 0 0.283203,-0.8496 l -1.970703,-1.9707 a 0.50005,0.50005 0 0 0 -0.361328,-0.1465 l 0,0 z m -40.345703,0.041 a 0.50005,0.50005 0 0 0 -0.347656,0.8594 l 0.707031,0.707 a 0.50064315,0.50064315 0 1 0 0.707031,-0.7089 l -0.707031,-0.7071 a 0.50005,0.50005 0 0 0 -0.359375,-0.1504 z m 2.830078,0 a 0.50005,0.50005 0 0 0 -0.34375,0.1504 l -0.707031,0.709 a 0.50005,0.50005 0 1 0 0.707031,0.707 l 0.707031,-0.7089 a 0.50005,0.50005 0 0 0 -0.363281,-0.8575 z m 37.523438,1.166 1.144531,1.1446 c -0.129405,0.081 -0.294899,0.092 -0.404297,0.2011 -0.795672,0.7957 -0.795672,2.1009 0,2.8965 0.795655,0.7957 2.100831,0.7957 2.896484,0 0.109505,-0.1097 0.11993,-0.2763 0.201172,-0.4062 l 1.146485,1.1465 -4.984375,4.9843 -4.986328,-4.9843 1.617187,-1.6172 a 0.50005,0.50005 0 0 0 -0.283203,-0.8496 c -0.224114,-0.032 -0.431325,-0.1354 -0.591797,-0.295 -0.413515,-0.4135 -0.413515,-1.0689 0,-1.4824 0.413506,-0.4135 1.066963,-0.4135 1.480469,0 0.160214,0.1609 0.263404,0.3689 0.294922,0.5938 a 0.50005,0.50005 0 0 0 0.849609,0.2832 l 1.619141,-1.6153 z m 4.269531,0.2286 a 0.50064426,0.50064426 0 1 0 0.05078,1 0.50005,0.50005 0 1 0 0,-1 0.50005,0.50005 0 0 0 -0.05078,0 z m -43.919922,0.7324 a 0.50005,0.50005 0 0 0 -0.34375,0.1504 l -0.707031,0.707 a 0.50005,0.50005 0 1 0 0.707031,0.707 l 0.707031,-0.707 a 0.50005,0.50005 0 0 0 -0.363281,-0.8574 z m 1.423828,0 a 0.50005,0.50005 0 0 0 -0.347656,0.8574 l 0.707031,0.707 a 0.50005,0.50005 0 1 0 0.707031,-0.707 l -0.707031,-0.707 a 0.50005,0.50005 0 0 0 -0.359375,-0.1504 z m 4.703125,5.709 a 0.50005,0.50005 0 0 0 -0.492187,0.5078 l 0,0.5 -0.5,0 a 0.50005,0.50005 0 1 0 0,1 l 0.5,0 0,0.5 a 0.50005,0.50005 0 1 0 1,0 l 0,-0.5 0.5,0 a 0.50005,0.50005 0 1 0 0,-1 l -0.5,0 0,-0.5 a 0.50005,0.50005 0 0 0 -0.507813,-0.5078 z" color="#000" font-family="sans-serif" font-weight="400" overflow="visible" white-space="normal"/></g></svg>