<svg xmlns="http://www.w3.org/2000/svg" width="96" height="96" xmlns:v="https://vecta.io/nano"><defs><linearGradient id="A" x1="16.549" x2="230.012" y1="973.851" y2="1181.098" gradientUnits="userSpaceOnUse"><stop offset="0" stop-color="#fff"/><stop offset=".394" stop-color="#24f3d2"/><stop offset=".507" stop-color="#6961b5"/><stop offset=".813" stop-color="#f34660"/><stop offset="1" stop-color="#ee078d"/></linearGradient></defs><g transform="translate(0 -956.362)"><rect width="96" height="96" y="956.362" fill="url(#A)" rx="20.288"/><path fill-rule="evenodd" d="M48 972.362a2.01 2.01 0 0 0-2 2c0 .925.642 1.703 1.5 1.928v.572h1v-.572c.335-.088.637-.257.88-.49l.423.26.525-.852-.426-.262c.058-.186.098-.38.098-.584a2.01 2.01 0 0 0-2-2zm0 1a.99.99 0 1 1 0 2 .99.99 0 1 1 0-2zm-1.979 1.63l-.851.524.525.852.852-.524-.526-.851zm5.159.739l-.526.854.852.523.525-.852-.851-.525zm-6.862.31l-.851.524.525.852.852-.524-.526-.851zm8.565.739l-.526.851.852.526.525-.854-.851-.523zm-10.268.308l-.851.526.523.851.852-.525-.524-.852zm5.385.274a4.51 4.51 0 0 0-4.5 4.5.5.5 0 0 0 0 .002c0 .168.045.331.064.498H41a1.51 1.51 0 0 0-1.5 1.5v.494H33c-.117 0-.23.016-.342.035l.262-.162-.524-.852-.853.526.453.734a2 2 0 0 0-1.004 1.725v8.275l-.426-.23-.474.88.607.327.293-.545v18.314l-.18-.333-.88.474.474.88.586-.315v9.218l-.668-.41-.525.852.851.523.342-.555v4.645c0 1.103.905 2.008 2.008 2.008h7.559l.763.47.29-.47H47.5v.16h1v-.16h5.908l.283.459.746-.46H63a2.015 2.015 0 0 0 2.008-2.007v-4.498l.275.447.852-.525-.526-.852-.601.371v-9.216l.678.365.474-.881-.88-.475-.272.504v-18.055l.094.174.798-.43-.472-.88-.42.226v-8.275c0-.448-.153-.86-.404-1.195l.529.326.523-.852-.851-.523-.467.76a2.003 2.003 0 0 0-.887-.465l.502-.819-.851-.525-.524.851.762.471a2.005 2.005 0 0 0-.34-.035h-6.5v-.494a1.51 1.51 0 0 0-1.5-1.5h-2.566c.02-.166.065-.329.066-.496a.5.5 0 0 0 0-.004 4.51 4.51 0 0 0-4.5-4.5zm6.586.467l-.525.851.851.524.525-.852-.851-.523zm-13.674.308l-.851.524.523.851.852-.523-.524-.852zm7.088.225a3.492 3.492 0 0 1 3.385 4.373.5.5 0 0 0 .482.627H55c.286 0 .5.214.5.5v4c0 .286-.214.5-.5.5H41a.488.488 0 0 1-.5-.5v-4c0-.286.214-.5.5-.5h3.13a.5.5 0 0 0 .485-.627A3.492 3.492 0 0 1 48 978.362zm8.29.514l-.524.853.851.524.524-.852-.852-.525zm-17.081.31l-.852.524.524.851.851-.523-.523-.852zm8.791.176a2.508 2.508 0 0 0-2.5 2.5 2.51 2.51 0 0 0 2.5 2.5 2.51 2.51 0 0 0 2.5-2.5 2.51 2.51 0 0 0-2.5-2.5zm9.992.562l-.523.852.851.525.524-.851-.852-.526zm-20.486.309l-.852.525.524.852.851-.525-.523-.852zm10.494.129c.834 0 1.5.666 1.5 1.5s-.666 1.5-1.5 1.5-1.5-.666-1.5-1.5.666-1.5 1.5-1.5zm11.695.611l-.523.852.851.523.524-.851-.852-.524zm-23.892.309l-.852.523.524.852.851-.524-.523-.851zm25.595.74l-.523.852.852.523.523-.852-.852-.523zm-27.298.309l-.852.523.523.852.852-.524-.523-.851zm-3.409 2.093l-.851.524.525.853.852-.525-.526-.852zm35.817.74l-.524.852.852.524.525-.852-.853-.523zM33 985.357h6.5v.998h-5.008a.5.5 0 0 0-.5.5v40.018a.5.5 0 0 0 .5.5h22.192a.5.5 0 0 0 .36-.153l4.825-5.002a.5.5 0 0 0 .139-.347v-35.016a.5.5 0 0 0-.5-.5H56.5v-.998H63a.994.994 0 0 1 1.008 1.006v42A.995.995 0 0 1 63 1029.37H33a.995.995 0 0 1-1.008-1.008v-42A.994.994 0 0 1 33 985.356zm-4.012.117l-.851.524.525.851.852-.523-.526-.852zm39.225.739l-.526.851.852.525.525-.851-.851-.525zm-40.928.308l-.851.526.525.851.852-.523-.526-.854zm42.631.74l-.525.852.851.523.526-.851-.852-.524zm-34.924.094H39.5v.508a1.51 1.51 0 0 0 1.5 1.5h14a1.51 1.51 0 0 0 1.5-1.5v-.508h4.508v34.008H56.5a.5.5 0 0 0-.5.5v4.51H34.992v-39.018zm-9.41.215l-.852.524.524.853.851-.525-.523-.852zm46.037.74l-.525.852.851.523.526-.851-.852-.524zM22 988.362a2.01 2.01 0 0 0-2 2c0 .925.642 1.703 1.5 1.928v.57h1v-.57a2 2 0 0 0 .959-.573l.469.252.474-.88-.466-.252c.038-.154.064-.31.064-.475 0-.204-.04-.398-.098-.584l.5-.307-.523-.851-.496.304a1.99 1.99 0 0 0-1.383-.562zm52 0a2.01 2.01 0 0 0-2 2 1.97 1.97 0 0 0 .064.475l-.474.255.474.881.477-.256a2 2 0 0 0 .959.573v.54h1v-.54a2.003 2.003 0 0 0 1.5-1.928 2.01 2.01 0 0 0-2-2zm-52 1a.99.99 0 1 1 0 2 .99.99 0 1 1 0-2zm52 0a.99.99 0 1 1 0 2 .99.99 0 1 1 0-2zm-48.717 2.201l-.474.88.88.474.475-.88-.88-.474zm45.426 0l-.879.475.473.879.88-.473-.474-.881zm-43.666.943l-.473.881.881.475.473-.881-.881-.475zm41.906 0l-.88.475.474.88.879-.474-.473-.88zm-25.449.346a.5.5 0 0 0-.348.86l1.147 1.146-1.147 1.146a.5.5 0 1 0 .707.708l1.147-1.147 1.146 1.147a.5.5 0 1 0 .707-.708l-1.146-1.146 1.146-1.146a.5.5 0 1 0-.707-.708l-1.146 1.147-1.147-1.147a.5.5 0 0 0-.359-.152zm6 0a.5.5 0 0 0-.348.86l1.147 1.146-1.147 1.146a.5.5 0 1 0 .707.708l1.147-1.147 1.146 1.147a.5.5 0 1 0 .707-.708l-1.146-1.146 1.146-1.146a.5.5 0 1 0-.707-.708l-1.146 1.147-1.147-1.147a.5.5 0 0 0-.359-.152zm6 0a.5.5 0 0 0-.348.86l1.147 1.146-1.147 1.146a.5.5 0 1 0 .707.708l1.147-1.147 1.146 1.147a.5.5 0 1 0 .707-.708l-1.146-1.146 1.146-1.146a.5.5 0 1 0-.707-.708l-1.146 1.147-1.147-1.147a.5.5 0 0 0-.359-.152zm-16.5.01a2.01 2.01 0 0 0-2 2c0 .925.642 1.703 1.5 1.928v2.037a.5.5 0 0 0 0 .035v1a1.51 1.51 0 0 0 1.5 1.5h10a.49.49 0 0 1 .5.5v2.473a.5.5 0 0 0 0 .035v1c0 .286-.214.5-.5.5h-1.053a.5.5 0 0 0-.093-.01H46a1.51 1.51 0 0 0-1.5 1.5v9.57a2.006 2.006 0 0 0-1.5 1.93 2.01 2.01 0 0 0 2 2 2.01 2.01 0 0 0 2-2c0-.925-.642-1.705-1.5-1.93v-9.57c0-.286.214-.5.5-.5h1.062a.5.5 0 0 0 .084.01H50a1.51 1.51 0 0 0 1.5-1.5v-2.475a.5.5 0 0 0 0-.033v-1a1.51 1.51 0 0 0-1.5-1.5H40a.488.488 0 0 1-.5-.5v-3.072a2.003 2.003 0 0 0 1.5-1.928 2.01 2.01 0 0 0-2-2zm-10.195.598l-.475.88.88.473.476-.88-.881-.473zm38.382 0l-.88.474.474.88.881-.473-.475-.881zm6.313.365v1h1v-1h-1zm-52 .031v1h1v-1h-1zm17.5 0a.99.99 0 1 1 0 2 .99.99 0 1 1 0-2zm34.5 1.967v1h1v-1h-1zm-52 .03v1h1v-1h-1zm52 1.97v1h1v-1h-1zm-52 .03v1h1v-1h-1zm34 .993a.5.5 0 0 0-.348.86l1.147 1.146-1.147 1.146a.5.5 0 1 0 .707.707l1.147-1.146 1.146 1.146a.5.5 0 1 0 .707-.707l-1.146-1.146 1.146-1.147a.5.5 0 1 0-.707-.707l-1.146 1.147-1.147-1.147a.5.5 0 0 0-.359-.146zm18 .976v1h1v-1h-1zm-52 .031v1h1v-1h-1zm52 1.97v1h1v-1h-1zm-52 .03v1h1v-1h-1zm52 1.97v1h1v-1h-1zm-52 .03v1h1v-1h-1zm15.99.992a.5.5 0 0 0-.35.86l1.147 1.146-1.146 1.147a.5.5 0 1 0 .707.707l1.146-1.147 1.147 1.147a.5.5 0 1 0 .707-.707l-1.147-1.147 1.147-1.146a.5.5 0 1 0-.707-.707l-1.147 1.146-1.146-1.146a.5.5 0 0 0-.358-.153zm18.01 0a.5.5 0 0 0-.348.86l1.147 1.146-1.147 1.147a.5.5 0 1 0 .707.707l1.147-1.147 1.146 1.147a.5.5 0 1 0 .707-.707l-1.146-1.147 1.146-1.146a.5.5 0 1 0-.707-.707l-1.146 1.146-1.147-1.146a.5.5 0 0 0-.359-.146zm18 .977v1h1v-1h-1zm-52 .03v1h1v-1h-1zm52 1.97v1h1v-1h-1zm-52 .03v1h1v-1h-1zm52 1.97v1h1v-1h-1zm-52 .03v1h1v-1h-1zm15.99.993a.5.5 0 0 0-.35.86l1.147 1.146-1.146 1.146a.5.5 0 1 0 .707.707l1.146-1.146 1.147 1.146a.5.5 0 1 0 .707-.707l-1.147-1.146 1.147-1.147a.5.5 0 1 0-.707-.707l-1.147 1.146-1.146-1.146a.5.5 0 0 0-.358-.152zm12 0a.5.5 0 0 0-.35.86l1.147 1.146-1.146 1.146a.5.5 0 1 0 .707.707l1.146-1.146 1.147 1.146a.5.5 0 1 0 .707-.707l-1.147-1.146 1.147-1.147a.5.5 0 1 0-.707-.707l-1.147 1.146-1.146-1.146a.5.5 0 0 0-.358-.152zm6.01 0a.5.5 0 0 0-.348.86l1.147 1.146-1.147 1.146a.5.5 0 1 0 .707.707l1.147-1.146 1.146 1.146a.5.5 0 1 0 .707-.707l-1.146-1.146 1.146-1.147a.5.5 0 1 0-.707-.707l-1.146 1.146-1.147-1.146a.5.5 0 0 0-.359-.145zm18 .976v1h1v-1h-1zm-52 .03v1h1v-1h-1zm52 1.968v1h1v-1h-1zm-52 .031v1h1v-1h-1zm7.55.14l-.88.473.475.881.88-.475-.474-.878zm37.991.05l-.475.88.881.473.473-.879-.879-.474zm-39.75.898l-.88.475.474.88.879-.474-.473-.881zm41.51.049l-.475.88.881.475.475-.88-.881-.475zm4.699.832v.605a2 2 0 0 0-.96.577l-.218-.118-.472.881.214.116a1.97 1.97 0 0 0-.064.474 1.94 1.94 0 0 0 .098.582l-.526.322.524.852.521-.32a1.99 1.99 0 0 0 1.383.564 2.01 2.01 0 0 0 2-2c0-.925-.642-1.705-1.5-1.93v-.605h-1zm-52 .031v.574a2.006 2.006 0 0 0-1.5 1.93 2.01 2.01 0 0 0 2 2 1.99 1.99 0 0 0 1.38-.563l.458.282.523-.852-.459-.283a1.86 1.86 0 0 0 .098-.576c0-.164-.025-.322-.063-.475l.305-.164-.474-.88-.307.165a2 2 0 0 0-.961-.576v-.574h-1zm4.03.037l-.882.473.475.88.88-.474-.474-.879zm45.032.049l-.474.88.88.473.475-.878-.88-.475zm-21.072.908a.5.5 0 0 0-.35.86l1.147 1.146-1.146 1.146a.5.5 0 1 0 .707.708l1.146-1.147 1.147 1.147a.5.5 0 1 0 .707-.708l-1.147-1.146 1.147-1.146a.5.5 0 1 0-.707-.708l-1.147 1.147-1.146-1.147a.5.5 0 0 0-.358-.152zm-27.49.518a.99.99 0 1 1 0 2 .99.99 0 1 1 0-2zm52 0a.99.99 0 1 1 0 2 .99.99 0 1 1 0-2zm-29 .5a.99.99 0 1 1 0 2 .99.99 0 1 1 0-2zm-19.787 1.89l-.524.852.852.524.523-.852-.851-.523zm45.508.038l-.852.525.524.851.851-.525-.523-.851zm-43.803 1.011l-.525.852.851.523.526-.851-.852-.524zm42.1.037l-.854.524.525.851.852-.523-.523-.852zm-40.397 1.01l-.525.852.851.525.526-.852-.852-.525zm38.691.04l-.851.522.525.852.852-.523-.526-.852zm-10.312.474h3.293L57 1025.655v-3.293zm-3.686 8.139l-.851.525.525.852.852-.526-.526-.851zm-10.617.012l-.523.851.851.524.524-.852-.852-.523zm4.803 1.017v.902c-.336.088-.64.258-.883.493l-.513-.317-.524.852.518.318c-.058.186-.098.38-.098.584a2.01 2.01 0 0 0 2 2 2.01 2.01 0 0 0 2-2c0-.204-.04-.4-.098-.586l.53-.326-.524-.852-.53.325a2 2 0 0 0-.878-.49v-.903h-1zm4.111.02l-.851.523.523.852.852-.523-.524-.852zm-7.21.012l-.524.852.852.523.523-.852-.852-.523zm3.599 1.8a.99.99 0 1 1 0 2 .99.99 0 1 1 0-2z"/></g></svg>