<svg xmlns="http://www.w3.org/2000/svg" xmlns:xlink="http://www.w3.org/1999/xlink" width="96" height="96" viewBox="0 0 96 96"><defs><linearGradient id="b" x1="1073.403" x2="1097.116" y1="516.451" y2="544.308" gradientTransform="matrix(3.0757 0 0 3.0757 -3287.743 -629.677)" gradientUnits="userSpaceOnUse" xlink:href="#a"/><linearGradient id="a"><stop offset="0" stop-color="#16ff6a"/><stop offset="1" stop-color="#0090a5"/></linearGradient></defs><g transform="translate(0 -956.362)"><rect width="96" height="96" y="956.362" fill="url(#b)" rx="20.288" ry="20.288"/><path fill="#fff" d="m 29.502472,973.36222 c -0.822505,0 -1.5,0.67749 -1.5,1.5 0,0.8225 0.677495,1.5 1.5,1.5 0.822505,0 1.5,-0.6775 1.5,-1.5 0,-0.82251 -0.677495,-1.5 -1.5,-1.5 z m 32.011719,0 a 0.50005,0.50005 0 0 0 -0.441407,0.25782 l -0.25,0.43164 -0.433593,-0.25 a 0.50005,0.50005 0 0 0 -0.236328,-0.0703 0.50005,0.50005 0 0 0 -0.263672,0.9375 l 0.433593,0.25 -0.25,0.43164 a 0.5005035,0.5005035 0 1 0 0.867188,0.5 l 0.25,-0.43164 0.431641,0.25 a 0.50050437,0.50050437 0 1 0 0.5,-0.86718 l -0.431641,-0.25 0.25,-0.43164 a 0.50005,0.50005 0 0 0 -0.425781,-0.75782 z m -32.011719,1 c 0.282065,0 0.5,0.21793 0.5,0.5 0,0.28206 -0.217935,0.5 -0.5,0.5 -0.282065,0 -0.5,-0.21794 -0.5,-0.5 0,-0.28207 0.217935,-0.5 0.5,-0.5 z m 18.5,3.5 c -5.793059,0 -10.499988,4.70697 -10.5,10.49998 0.0014,0.8972 0.121346,1.7833 0.345703,2.6406 -0.216281,0.3708 -0.345703,0.8014 -0.345703,1.2598 l 0,2 c 0,1.2123 0.873112,2.2242 2.021484,2.4492 0.126277,2.4164 1.251026,4.5621 2.978516,6.0293 l 0,4.2695 c -0.141815,0.07 -1.766561,0.8778 -2.632812,1.3047 a 0.50005,0.50005 0 0 0 -0.08594,0.041 c -2.928257,1.4432 -7.304301,3.5952 -8.730469,4.3243 -0.93934,0.4801 -2.166023,1.0328 -3.189453,1.8476 -1.023428,0.8149 -1.861326,1.9527 -1.861326,3.4824 l 0,15.3516 5.277344,0 33.445312,0 5.277344,0 0,-15.3516 c 0,-1.5009 -0.707811,-2.6053 -1.679688,-3.4023 -0.971876,-0.7969 -2.197329,-1.3476 -3.376953,-1.9317 l -11.443359,-5.666 0,-4.2695 c 1.72749,-1.4672 2.852239,-3.6129 2.978516,-6.0293 1.148372,-0.225 2.021484,-1.2369 2.021484,-2.4492 l 0,-2 c 0,-0.172 -0.01761,-0.3408 -0.05078,-0.5039 -0.03321,-0.163 -0.08137,-0.3209 -0.144531,-0.4707 -0.0419,-0.1 -0.09846,-0.1895 -0.152344,-0.2813 0.22506,-0.8579 0.345903,-1.7446 0.347656,-2.6426 -1.2e-5,-5.79295 -4.706941,-10.49992 -10.5,-10.49992 l 0,-0.002 z m 0,1 c 5.25262,0 9.499989,4.2474 9.5,9.49998 -0.0027,1.3948 -0.414836,2.7159 -1,3.9648 l 0,-4.0547 a 0.50005,0.50005 0 0 0 -0.417969,-0.4921 c -1.462545,-0.2439 -2.72151,-1.0567 -3.548828,-2.2071 a 0.50005,0.50005 0 0 0 -0.791015,-0.027 c -0.738527,0.8861 -1.597303,1.675 -2.570313,2.3301 -2.67409,1.8004 -5.934375,2.4556 -9.082031,1.8769 a 0.50005,0.50005 0 0 0 -0.589844,0.49 l 0,2.0878 c -0.585664,-1.25 -0.99782,-2.5727 -1,-3.9687 1.1e-5,-5.25258 4.24738,-9.49998 9.5,-9.49998 z m 4.125,7.67378 c 0.872304,1.0159 2.026683,1.7486 3.375,2.0723 l 0,5.7344 0,1.9199 c 0,4.1637 -3.336351,7.5 -7.5,7.5 -4.163649,0 -7.5,-3.3363 -7.5,-7.5 l 0,-1.916 0,-3.6172 c 3.215192,0.4442 6.504486,-0.1882 9.230469,-2.0235 0.908685,-0.6118 1.677714,-1.3728 2.394531,-2.1699 z m -29.632813,0.8203 a 0.50005,0.50005 0 0 0 -0.492188,0.5059 l 0,0.5 -0.5,0 a 0.50005,0.50005 0 1 0 0,1 l 0.5,0 0,0.5 a 0.50005,0.50005 0 1 0 1,0 l 0,-0.5 0.5,0 a 0.50005,0.50005 0 1 0 0,-1 l -0.5,0 0,-0.5 a 0.50005,0.50005 0 0 0 -0.507812,-0.5059 z m 50.275391,1.2598 a 0.50005,0.50005 0 0 0 -0.439453,0.2559 l -0.5,0.8671 a 0.50005,0.50005 0 1 0 0.865234,0.5 l 0.5,-0.8671 a 0.50005,0.50005 0 0 0 -0.425781,-0.7559 z m -2.730469,0.7344 a 0.50005,0.50005 0 0 0 -0.05078,0 0.50005,0.50005 0 0 0 -0.21289,0.9356 l 0.865234,0.5 a 0.50005,0.50005 0 1 0 0.5,-0.8653 l -0.865234,-0.5 a 0.50005,0.50005 0 0 0 -0.236329,-0.072 z m 2.603516,1.5039 a 0.50005,0.50005 0 0 0 -0.05078,0 0.50005,0.50005 0 0 0 -0.212891,0.9356 l 0.867188,0.5 a 0.50005,0.50005 0 1 0 0.5,-0.8653 l -0.867188,-0.5 a 0.50005,0.50005 0 0 0 -0.236328,-0.072 z m -1.376953,0.3672 a 0.50005,0.50005 0 0 0 -0.439453,0.2558 l -0.5,0.8653 a 0.50005,0.50005 0 1 0 0.865234,0.5 l 0.5,-0.8653 a 0.50005,0.50005 0 0 0 -0.425781,-0.7558 z m -26.763672,0.1425 c -0.994413,0 -1.920592,0.5091 -2.425781,1.3497 a 0.50004997,0.50004997 0 0 0 0.447265,0.7695 0.50004997,0.50004997 0 0 0 0.05078,-0.01 0.50004997,0.50004997 0 0 0 0.359375,-0.25 c 0.318389,-0.5298 0.91563,-0.8633 1.568359,-0.8633 0.652729,0 1.24997,0.3335 1.568359,0.8633 a 0.50004997,0.50004997 0 0 0 0.212891,0.2032 0.50004997,0.50004997 0 0 0 0.191406,0.053 0.50004997,0.50004997 0 0 0 0.05078,0 0.50004997,0.50004997 0 0 0 0.04883,0 0.50004997,0.50004997 0 0 0 0.353515,-0.7656 c -0.505187,-0.8407 -1.431366,-1.3498 -2.425779,-1.3498 z m 7,0 c -0.248603,0 -0.492,0.031 -0.726562,0.092 -0.703687,0.1826 -1.320327,0.6274 -1.699219,1.2579 a 0.50004997,0.50004997 0 0 0 0.251953,0.7402 0.50004997,0.50004997 0 0 0 0.146484,0.029 0.50004997,0.50004997 0 0 0 0.04883,0 0.50004997,0.50004997 0 0 0 0.05078,-0.01 0.50004997,0.50004997 0 0 0 0.359375,-0.25 c 0.318389,-0.5298 0.91563,-0.8633 1.568359,-0.8633 0.652729,0 1.24997,0.3335 1.568359,0.8633 a 0.50004997,0.50004997 0 0 0 0.212891,0.2032 0.50004997,0.50004997 0 0 0 0.191406,0.053 0.50004997,0.50004997 0 0 0 0.05078,0 0.50004997,0.50004997 0 0 0 0.04883,0 0.50004997,0.50004997 0 0 0 0.353515,-0.7656 c -0.505189,-0.8406 -1.431368,-1.3497 -2.425781,-1.3497 z m 6,1.4297 0,1.4688 c 0,0.6624 -0.414261,1.2071 -1,1.4101 l 0,-1.1738 c 0.389312,-0.5376 0.721185,-1.1099 1,-1.7051 z m -19,0 c 0.278706,0.5947 0.610966,1.166 1,1.7032 l 0,1.1718 c -0.585739,-0.203 -1,-0.7477 -1,-1.4101 l 0,-1.4649 z m 6,0.5645 a 0.5,0.5 0 0 0 -0.5,0.5 0.5,0.5 0 0 0 0.5,0.5 0.5,0.5 0 0 0 0.5,-0.5 0.5,0.5 0 0 0 -0.5,-0.5 z m 7,0 a 0.5,0.5 0 0 0 -0.5,0.5 0.5,0.5 0 0 0 0.5,0.5 0.5,0.5 0 0 0 0.5,-0.5 0.5,0.5 0 0 0 -0.5,-0.5 z m -3.507812,1 a 0.50005,0.50005 0 0 0 -0.492188,0.5117 l 0,1.9981 a 0.50005,0.50005 0 1 0 1,0 l 0,-1.9981 a 0.50005,0.50005 0 0 0 -0.507812,-0.5078 z m -15.916016,4 a 0.50005,0.50005 0 0 0 -0.34961,0.8594 l 0.353516,0.3535 -0.353516,0.3535 a 0.50005,0.50005 0 1 0 0.707032,0.707 l 0.353515,-0.3535 0.353516,0.3535 a 0.50005,0.50005 0 1 0 0.707031,-0.707 l -0.353515,-0.3535 0.353515,-0.3535 a 0.50005,0.50005 0 0 0 -0.363281,-0.8575 0.50005,0.50005 0 0 0 -0.34375,0.1504 l -0.353516,0.3536 -0.353515,-0.3536 a 0.50005,0.50005 0 0 0 -0.357422,-0.1523 z m 18.351562,0.9883 0,0 a 0.50004997,0.50004997 0 0 0 -0.34375,0.1485 c -1.156156,1.1414 -2.995855,1.1599 -4.173828,0.041 a 0.5001009,0.5001009 0 1 0 -0.689453,0.7246 c 1.561581,1.4832 4.031794,1.4567 5.564453,-0.057 a 0.50004997,0.50004997 0 0 0 -0.357422,-0.8593 z m 10.802735,2.0547 c -0.481185,0.035 -0.940232,0.2989 -1.197266,0.7441 -0.41125,0.7124 -0.161525,1.6375 0.550781,2.0488 0.712314,0.4112 1.637578,0.1636 2.048828,-0.5488 0.411256,-0.7123 0.163486,-1.6375 -0.548828,-2.0488 -0.267114,-0.1542 -0.564805,-0.2162 -0.853515,-0.1953 z m 0.162109,0.9961 c 0.06446,0.01 0.130338,0.029 0.191406,0.064 0.244282,0.1411 0.322676,0.4394 0.181641,0.6836 -0.14103,0.2441 -0.437362,0.3226 -0.681641,0.1816 -0.244273,-0.1411 -0.324623,-0.4373 -0.183593,-0.6816 0.105776,-0.183 0.298794,-0.2736 0.492187,-0.248 z m -17.892578,1.0703 c 1.305261,0.8158 2.84473,1.2949 4.5,1.2949 1.65527,0 3.194739,-0.4791 4.5,-1.2949 l 0,3.4687 -4.373047,1.9414 a 0.50005,0.50005 0 0 0 -0.123047,-0.016 0.50005,0.50005 0 0 0 -0.126953,0.016 l -4.376953,-1.9433 0,-3.4668 z m -0.427734,4.373 3.998046,1.7734 -0.935546,0.9805 -2.101563,2.041 -3.185547,-3.6914 c 0.636676,-0.3138 2.1436,-1.0636 2.22461,-1.1035 z m 9.855468,0 2.22461,1.1015 -3.185547,3.6914 -2.101563,-2.041 -0.935546,-0.9805 3.998046,-1.7714 z m -13.005859,1.5586 3.699219,4.289 a 0.50005,0.50005 0 0 0 0.726562,0.029 l 1.097656,-1.0664 0.369141,0.3887 -1.810547,13.3125 a 0.50004997,0.50004997 0 0 0 0.0918,0.3613 l 3.5,4.8399 a 0.50004997,0.50004997 0 0 0 0.808594,0 l 3.5,-4.8399 a 0.50004997,0.50004997 0 0 0 0.0918,-0.3613 l -1.810547,-13.3145 0.367187,-0.3847 1.09961,1.0664 a 0.50005,0.50005 0 0 0 0.726562,-0.031 l 3.699219,-4.289 8.421875,4.1718 c 1.19854,0.5935 2.363065,1.1341 3.185547,1.8086 0.822476,0.6764 1.314447,1.4256 1.314447,2.6309 l 0,14.3516 -4.277344,0 -1.722656,0 0,-9.0508 -1,0 0,9.0508 -28,0 0,-9.0508 -1,0 0,9.0508 -1.722656,0 -4.277344,0 0,-14.3516 c 0,-1.1766 0.59474,-1.9924 1.482422,-2.6992 0.887682,-0.7067 2.051627,-1.2434 3.023437,-1.7402 1.343329,-0.6867 5.400846,-2.6833 8.416016,-4.1699 z m -17.669923,0.4785 a 0.50005,0.50005 0 0 0 -0.441406,0.2558 l -0.5,0.8672 a 0.50005,0.50005 0 1 0 0.865234,0.5 l 0.5,-0.8672 a 0.50005,0.50005 0 0 0 -0.423828,-0.7558 z m 25.748048,0.3008 1.148438,1.1152 0.660156,0.6914 -0.359375,0.377 -2.900391,0 -0.357422,-0.377 0.685547,-0.7187 1.123047,-1.0879 z m -28.531251,0.4375 a 0.50005,0.50005 0 0 0 -0.212891,0.9375 l 0.867188,0.5 a 0.5005087,0.5005087 0 1 0 0.5,-0.8672 l -0.867188,-0.5 a 0.50005,0.50005 0 0 0 -0.236328,-0.07 0.50005,0.50005 0 0 0 -0.05078,0 z m 2.65625,1.502 a 0.50005,0.50005 0 0 0 -0.05078,0 0.50005,0.50005 0 0 0 -0.212891,0.9356 l 0.865235,0.5 a 0.50005,0.50005 0 1 0 0.5,-0.8653 l -0.865235,-0.5 a 0.50005,0.50005 0 0 0 -0.236328,-0.07 z m -1.376953,0.3671 a 0.50005,0.50005 0 0 0 -0.441406,0.2559 l -0.5,0.8652 a 0.50005,0.50005 0 1 0 0.865234,0.5 l 0.5,-0.8652 a 0.50005,0.50005 0 0 0 -0.423828,-0.7559 z m 26.031251,0.877 2.443359,0 1.75586,12.9297 -2.978516,4.1191 -2.978516,-4.1191 1.757813,-12.9297 z m 28.447265,0.055 a 0.50005,0.50005 0 0 0 -0.441406,0.6367 l 0.128906,0.4844 -0.482421,0.1289 a 0.50005,0.50005 0 1 0 0.259765,0.9648 l 0.482422,-0.1289 0.128906,0.4824 a 0.50029091,0.50029091 0 1 0 0.966797,-0.2578 l -0.128906,-0.4843 0.482422,-0.129 a 0.50005,0.50005 0 0 0 -0.126953,-0.9843 0.50005,0.50005 0 0 0 -0.132813,0.019 l -0.482422,0.1289 -0.128906,-0.4824 a 0.50005,0.50005 0 0 0 -0.474609,-0.3789 0.50005,0.50005 0 0 0 -0.05078,0 z"/></g></svg>