<svg xmlns="http://www.w3.org/2000/svg" width="64" height="64" viewBox="0 0 64 64"><g transform="translate(-448.96 -1773.373)"><path fill="#b2cdf8" d="m 490.2695,1815.8698 3.44044,16.5084 4,0 -3.42202,-16.42"/><path fill="#6ca6fd" d="m 469.63902,1815.9119 -3.43167,16.4663 -4,0 3.43004,-16.4585"/><path fill="#b2cdf8" d="m 466.89258,840.72852 -4.49219,3.2871 3.80664,0 0.68555,-3.2871 z" transform="translate(0 988.362)"/><path fill="#6ca6fd" d="m 481.95865,1815.8729 0,13.5053 -4,0 0,-13.5053"/><path fill="#b2cdf8" d="m 481.95898,829.70508 -4,2.92578 0,8.38476 4,0 0,-11.31054 z" transform="translate(0 988.362)"/><path fill="#b2cdf8" d="m 490.2695,1815.8698 3.44044,16.5084 4,0 -3.42202,-16.42"/><path fill="#f4f7f8" d="m 459.50336,1783.8728 41,0 0,30 -41,0 z"/><path fill="#dae7fc" d="m 500.50336,1783.8728 0,30 -41,0 z"/><rect width="44.999" height="2" x="457.459" y="1781.873" fill="#6ca6fd" rx="1" ry="1"/><rect width="44" height="2" x="457.959" y="1813.873" fill="#6ca6fd" rx="1" ry="1"/><path fill="none" stroke="#0e7bff" stroke-linecap="round" stroke-linejoin="round" d="M481.95865 1815.8729l0 13.5053-4 0 0-13.5053M469.63902 1815.9119l-3.43167 16.4663-4 0 3.43004-16.4585M490.2695 1815.8698l3.44044 16.5084 4 0-3.42202-16.42"/><circle cx="487.959" cy="1798.873" r="10.5" fill="#b2cdf8"/><path fill="#6ca6fd" d="m 496.41797,804.3125 -16.92774,12.38477 a 10.49971,10.49971 0 0 0 8.46875,4.3125 10.49971,10.49971 0 0 0 10.5,-10.5 10.49971,10.49971 0 0 0 -2.04101,-6.19727 z" transform="translate(0 988.362)"/><circle cx="487.959" cy="1798.873" r="7.5" fill="#dae7fc"/><rect width="41" height="30" x="459.503" y="1783.873" fill="none" stroke="#0e7bff"/><rect width="44.999" height="2" x="457.459" y="1781.873" fill="none" stroke="#0e7bff" rx="1" ry="1"/><rect width="44" height="2" x="457.959" y="1813.873" fill="none" stroke="#0e7bff" rx="1" ry="1"/><circle cx="487.959" cy="1798.873" r="10.5" fill="none" stroke="#0e7bff"/><circle cx="487.959" cy="1798.873" r="4.5" fill="#b2cdf8"/><path fill="#b2cdf8" d="m 494,806.08203 -12.08984,8.8457 a 7.4997621,7.4997621 0 0 0 6.04882,3.08204 7.4997621,7.4997621 0 0 0 7.5,-7.49805 A 7.4997621,7.4997621 0 0 0 494,806.08203 Z" transform="translate(0 988.362)"/><circle cx="487.959" cy="1798.873" r="7.5" fill="none" stroke="#0e7bff"/><path fill="#6ca6fd" d="m 491.58203,807.84961 -7.25391,5.30859 a 4.4996562,4.4996562 0 0 0 3.63086,1.85157 4.4996562,4.4996562 0 0 0 4.5,-4.5 4.4996562,4.4996562 0 0 0 -0.87695,-2.66016 z" transform="translate(0 988.362)"/><circle cx="487.959" cy="1798.873" r="1.5" fill="#dae7fc"/><circle cx="487.959" cy="1798.873" r="4.5" fill="none" stroke="#0e7bff"/><path fill="#b2cdf8" d="m 489.16406,809.62109 -2.41797,1.76758 a 1.4997092,1.4997092 0 0 0 1.21289,0.6211 1.4997092,1.4997092 0 0 0 1.5,-1.5 1.4997092,1.4997092 0 0 0 -0.29492,-0.88868 z" transform="translate(0 988.362)"/><circle cx="487.959" cy="1798.873" r="1.5" fill="none" stroke="#0e7bff"/><path fill="none" stroke="#0e7bff" stroke-linecap="round" stroke-linejoin="round" d="M487.95865 1798.8729l17 0M504.42134 1798.9136l1.07462-1.575M502.42234 1798.9136l1.07462-1.575M504.42134 1798.8325l1.07462 1.575M502.42234 1798.8325l1.07462 1.575"/><rect width="7.999" height="2" x="465.459" y="1787.373" fill="#b2cdf8"/><rect width="7.999" height="2" x="465.459" y="1787.373" fill="none" stroke="#0e7bff" stroke-linecap="round" stroke-linejoin="round"/><rect width="13" height="1" x="462.959" y="1791.873" fill="#0e7bff" rx=".5" ry=".5"/><rect width="13" height="1" x="462.959" y="1793.873" fill="#0e7bff" rx=".5" ry=".5"/><rect width="13" height="1" x="462.959" y="1795.873" fill="#0e7bff" rx=".5" ry=".5"/><rect width="13" height="1" x="462.959" y="1797.873" fill="#0e7bff" rx=".5" ry=".5"/><rect width="13" height="1" x="462.959" y="1799.873" fill="#0e7bff" rx=".5" ry=".5"/><rect width="13" height="1" x="462.959" y="1801.873" fill="#0e7bff" rx=".5" ry=".5"/><rect width="13" height="1" x="462.959" y="1803.873" fill="#0e7bff" rx=".5" ry=".5"/><rect width="13" height="1" x="462.959" y="1805.873" fill="#0e7bff" rx=".5" ry=".5"/></g></svg>