<svg xmlns="http://www.w3.org/2000/svg" xmlns:xlink="http://www.w3.org/1999/xlink" width="96" height="96" viewBox="0 0 96 96"><defs><linearGradient id="b" x1="1056.035" x2="1031.176" y1="544.13" y2="517.701" gradientTransform="matrix(3.0757 0 0 3.0757 -3163.474 -629.677)" gradientUnits="userSpaceOnUse" xlink:href="#a"/><linearGradient id="a"><stop offset="0" stop-color="#5a5a5a"/><stop offset="1" stop-color="#656e85"/></linearGradient></defs><g transform="translate(0 -956.362)"><rect width="96" height="96" y="956.362" fill="url(#b)" rx="20.288" ry="20.288"/><path fill="#fff" style="line-height:normal;text-indent:0;text-align:start;text-decoration-line:none;text-decoration-style:solid;text-decoration-color:#000;text-transform:none;block-progression:tb;isolation:auto;mix-blend-mode:normal" d="m 25.5,980.85628 c -0.822349,0 -1.5,0.67765 -1.5,1.5 0,0.82235 0.677657,1.5 1.5,1.5 l 0.544922,0 0,29.00012 -0.04492,0 c -0.822349,0 -1.5,0.6777 -1.5,1.5 0,0.8223 0.677651,1.5 1.5,1.5 l 6.074219,0 -3.316407,15.9043 a 0.50004997,0.50004997 0 0 0 0.490235,0.6015 l 4,0 a 0.50004997,0.50004997 0 0 0 0.490234,-0.3984 l 3.357422,-16.1074 7.404297,0 0,13.0058 a 0.50005,0.50005 0 0 0 0.5,0.5 l 4,0 a 0.50005,0.50005 0 0 0 0.5,-0.5 l 0,-13.0058 7.404297,0 3.357422,16.1074 a 0.50004997,0.50004997 0 0 0 0.488281,0.3984 l 4,0 a 0.50004997,0.50004997 0 0 0 0.490234,-0.6015 l -3.314453,-15.9043 6.074219,0 c 0.822349,0 1.5,-0.6777 1.5,-1.5 0,-0.807 -0.653544,-1.4715 -1.455078,-1.4961 l 0,-14.00398 1.18164,0 0.898438,1.31638 a 0.50005,0.50005 0 1 0 0.826172,-0.56248 l -0.513672,-0.7539 0.787109,0 0.898438,1.31638 a 0.50005,0.50005 0 1 0 0.826172,-0.56248 l -0.603516,-0.8868 a 0.50005,0.50005 0 0 0 0,-0.7343 l 0.603516,-0.8848 a 0.50005,0.50005 0 0 0 -0.416016,-0.7871 0.50005,0.50005 0 0 0 -0.410156,0.2246 l -0.896485,1.3145 -0.787109,0 0.511719,-0.752 a 0.50005,0.50005 0 0 0 -0.417969,-0.7871 0.50005,0.50005 0 0 0 -0.408203,0.2246 l -0.896484,1.3145 -1.183594,0 0,-14.00004 0.453125,0 c 0.822343,0 1.5,-0.67765 1.5,-1.5 0,-0.82235 -0.677651,-1.5 -1.5,-1.5 l -42.998047,0 z m 0,1 42.998047,0 c 0.285643,0 0.5,0.21436 0.5,0.5 0,0.28565 -0.214351,0.5 -0.5,0.5 l -42.998047,0 c -0.285648,0 -0.5,-0.21435 -0.5,-0.5 0,-0.28564 0.214358,-0.5 0.5,-0.5 z m 1.544922,2 40,0 0,14.00004 -1.070313,0 c -0.263497,-5.8361 -5.074151,-10.5 -10.974609,-10.5 -6.069046,0 -10.999994,4.931 -11,11 6e-6,6.06918 4.930954,11.00008 11,11.00008 5.900165,0 10.710672,-4.6643 10.974609,-10.50008 l 1.070313,0 0,14.00008 -40,0 0,-29.00012 z m 5.455078,2.5 a 0.50005,0.50005 0 0 0 -0.5,0.50004 l 0,2 a 0.50005,0.50005 0 0 0 0.5,0.5 l 7.998047,0 a 0.50005,0.50005 0 0 0 0.5,-0.5 l 0,-2 a 0.50005,0.50005 0 0 0 -0.5,-0.50004 l -7.998047,0 z m 0.5,1.00004 6.998047,0 0,1 -6.998047,0 0,-1 z m 22,1 c 5.359784,0 9.712952,4.2059 9.974609,9.5 l -2,0 c -0.259657,-4.1792 -3.730861,-7.4981 -7.974609,-7.4981 -4.41224,0 -8.000022,3.5859 -8,7.9981 -2.2e-5,4.41238 3.58776,8.00008 8,8.00008 4.243346,0 7.714367,-3.3212 7.974609,-7.50008 l 2,0 c -0.261657,5.29418 -4.614825,9.50008 -9.974609,9.50008 -5.528606,0 -9.999995,-4.4714 -10,-10.00008 5e-6,-5.5286 4.471394,-10 10,-10 z m -24.5,3 c -0.277,0 -0.5,0.223 -0.5,0.5 0,0.277 0.223,0.5 0.5,0.5 l 12,0 c 0.277,0 0.5,-0.223 0.5,-0.5 0,-0.277 -0.223,-0.5 -0.5,-0.5 l -12,0 z m 24.5,0 c 3.702986,0 6.718072,2.8616 6.974609,6.4981 l -2,0 c -0.251386,-2.5224 -2.387593,-4.5 -4.974609,-4.5 -2.755288,0 -4.999966,2.2447 -5,5 -2.7e-5,2.75548 2.244669,5.00008 5,5.00008 2.586413,0 4.722397,-1.9785 4.974609,-4.50008 l 2,0 c -0.257192,3.63608 -3.272083,6.50008 -6.974609,6.50008 -3.871798,0 -7.00002,-3.1282 -7,-7.00008 -2e-5,-3.8718 3.128202,-6.9981 7,-6.9981 z m -24.5,1.9981 c -0.277,0 -0.5,0.223 -0.5,0.5 0,0.277 0.223,0.5 0.5,0.5 l 12,0 c 0.277,0 0.5,-0.223 0.5,-0.5 0,-0.277 -0.223,-0.5 -0.5,-0.5 l -12,0 z m 24.5,1 c 2.043679,0 3.704021,1.5251 3.951172,3.5 l -2.023438,0 c -0.224659,-0.8583 -1.002396,-1.5 -1.927734,-1.5 -1.098482,0 -1.999993,0.9015 -2,2 7e-6,1.0985 0.901518,1.99998 2,1.99998 0.924686,0 1.702444,-0.64268 1.927734,-1.49998 l 2.023438,0 c -0.247639,1.97428 -1.907871,3.50008 -3.951172,3.50008 -2.214887,0 -4.000022,-1.7852 -4,-4.00008 2.8e-5,-2.2148 1.785148,-4 4,-4 z m -24.5,1 c -0.277,0 -0.5,0.223 -0.5,0.5 0,0.277 0.223,0.5 0.5,0.5 l 12,0 c 0.277,0 0.5,-0.223 0.5,-0.5 0,-0.277 -0.223,-0.5 -0.5,-0.5 l -12,0 z m 0,2 c -0.277,0 -0.5,0.223 -0.5,0.5 0,0.277 0.223,0.5 0.5,0.5 l 12,0 c 0.277,0 0.5,-0.223 0.5,-0.5 0,-0.277 -0.223,-0.5 -0.5,-0.5 l -12,0 z m 24.5,0 c 0.371371,0 0.677105,0.2045 0.849609,0.5 l -0.849609,0 a 0.50005,0.50005 0 1 0 0,1 l 0.849609,0 c -0.172698,0.2946 -0.478829,0.5 -0.849609,0.5 -0.558044,0 -0.999997,-0.4419 -1,-1 3e-6,-0.558 0.441956,-1 1,-1 z m -24.5,2 c -0.277,0 -0.5,0.223 -0.5,0.5 0,0.27698 0.223,0.49998 0.5,0.49998 l 12,0 c 0.277,0 0.5,-0.223 0.5,-0.49998 0,-0.277 -0.223,-0.5 -0.5,-0.5 l -12,0 z m 0,2.00008 c -0.277,0 -0.5,0.223 -0.5,0.5 0,0.277 0.223,0.5 0.5,0.5 l 12,0 c 0.277,0 0.5,-0.223 0.5,-0.5 0,-0.277 -0.223,-0.5 -0.5,-0.5 l -12,0 z m 0,2 c -0.277,0 -0.5,0.223 -0.5,0.5 0,0.277 0.223,0.5 0.5,0.5 l 12,0 c 0.277,0 0.5,-0.223 0.5,-0.5 0,-0.277 -0.223,-0.5 -0.5,-0.5 l -12,0 z m 0,2 c -0.277,0 -0.5,0.223 -0.5,0.5 0,0.277 0.223,0.5 0.5,0.5 l 12,0 c 0.277,0 0.5,-0.223 0.5,-0.5 0,-0.277 -0.223,-0.5 -0.5,-0.5 l -12,0 z m -4.5,8.5 42,0 c 0.285641,0 0.5,0.2144 0.5,0.5 0,0.2855 -0.214359,0.5 -0.5,0.5 l -10.591797,0 a 0.50004997,0.50004997 0 0 0 -0.109375,-0.01 0.50004997,0.50004997 0 0 0 -0.08984,0.01 l -8.117187,0 a 0.50005,0.50005 0 0 0 -0.173828,0 l -3.839844,0 a 0.50005,0.50005 0 0 0 -0.08594,-0.01 0.50005,0.50005 0 0 0 -0.07422,0.01 l -18.917969,0 c -0.285642,0 -0.5,-0.2145 -0.5,-0.5 0,-0.2856 0.214358,-0.5 0.5,-0.5 z m 7.095703,2 2.976563,0 -3.230469,15.5058 -2.978516,0 3.232422,-15.5058 z m 12.404297,0 3,0 0,12.5058 -3,0 0,-12.5058 z m 12.425781,0 2.978516,0 3.232422,15.5058 -2.978516,0 -3.232422,-15.5058 z" color="#000" font-family="sans-serif" font-weight="400" overflow="visible" white-space="normal"/></g></svg>