<svg xmlns="http://www.w3.org/2000/svg" width="64" height="64" viewBox="0 0 64 64"><g stroke="#0e7bff" transform="translate(0 -989.362)"><path fill="#b2cdf8" stroke="none" d="m 59.5,1032.3622 0,6 c 0,0.831 -0.669008,1.5 -1.500017,1.5 l -5.999966,0 c -0.831009,0 -1.500017,-0.669 -1.500017,-1.5 l 0,-6 0,2.9687 0,-6.4687 1,0 7,0 1,0 0,6.4687 z"/><path fill="#6ca6fd" stroke="none" style="isolation:auto;mix-blend-mode:normal" d="m 2.5,1033.8622 c 0,2.1741 1.6488978,3.9252 3.6962891,3.9252 l 37.6075659,0 c 2.047392,0 3.696289,-1.7511 3.696289,-3.9252 l -19.005387,0 c 0,0.7353 -0.5575,1.3274 -1.25,1.3274 l -4.497659,0 c -0.6925,0 -1.250001,-0.5921 -1.250001,-1.3274 z" color="#000" overflow="visible"/><path fill="#f4f7f8" stroke="none" d="m 6.5,1033.8622 0,-2 0,-22 c 0,-1.108 0.892,-2 2,-2 l 33,0 c 1.108,0 2.005037,0.892 2,2 l 0,22 0,2 -14.90625,0 -0.828125,1.3281 -2.765625,0.047 -2.591799,0.016 -0.939451,-1.3906 z"/><rect width="31" height="20" x="9.5" y="1010.862" fill="#dae7fc" stroke="none" rx="0" ry="0"/><path fill="#b2cdf8" stroke="none" d="m 40.5,1010.8622 0,20 -31,0 z"/><path fill="none" d="m 6.5,1033.8622 0,-2 0,-22 c 0,-1.108 0.892,-2 2,-2 l 33,0 c 1.108,0 2.005037,0.892 2,2 l 0,22 0,2"/><path fill="none" stroke-linecap="round" stroke-linejoin="round" d="m 2.5,1033.8622 c 0,2.1741 1.6488978,3.9252 3.6962891,3.9252 l 37.6075659,0 c 2.047392,0 3.696289,-1.7511 3.696289,-3.9252 l -19.005387,0 c 0,0.7353 -0.5575,1.3274 -1.25,1.3274 l -4.497659,0 c -0.6925,0 -1.250001,-0.5921 -1.250001,-1.3274 z" color="#000" overflow="visible" style="isolation:auto;mix-blend-mode:normal"/><rect width="31" height="20" x="9.5" y="1010.862" fill="none" stroke-linecap="round" stroke-linejoin="round" rx="0" ry="0"/><path fill="none" stroke-linecap="round" stroke-linejoin="round" d="m 59.749989,1030.8622 1.250012,0 c 0.831,0 1.5,0.669 1.5,1.5 l 0,3 c 0,0.831 -0.669,1.5 -1.5,1.5 l -1.250012,0" color="#000" overflow="visible" style="isolation:auto;mix-blend-mode:normal"/><path fill="#0e7bff" fill-rule="evenodd" stroke="none" d="M53.514811 1026.3649c-.676158-.01-.676158 1.0096 0 1l2.992188 0c.676158.01.676158-1.0096 0-1zM52.514118 1024.3649c-.676158-.01-.676158 1.0096 0 1l6.993 0c.676158.01.676158-1.0096 0-1z" color="#000" font-family="sans-serif" font-weight="400" overflow="visible" white-space="normal" style="line-height:normal;text-indent:0;text-align:start;text-decoration-line:none;text-decoration-style:solid;text-decoration-color:#000;text-transform:none;block-progression:tb;isolation:auto;mix-blend-mode:normal"/><path fill="#0e7bff" fill-rule="evenodd" stroke="none" d="M54.541462 1025.3658a.50030889.50030889 0 0 1-.01367 1l1.99414 0a.50030896.50030896 0 1 1-.03516-1l-1.945312 0zM50.521237 1022.3657c-.676158-.01-.676158 1.0096 0 1l1 0c.676158.01.676158-1.0096 0-1zM53.521237 1022.3649a.50004997.50004997 0 1 0 0 1l5 0a.50004997.50004997 0 1 0 0-1l-5 0z" color="#000" font-family="sans-serif" font-weight="400" overflow="visible" white-space="normal" style="line-height:normal;text-indent:0;text-align:start;text-decoration-line:none;text-decoration-style:solid;text-decoration-color:#000;text-transform:none;block-progression:tb;isolation:auto;mix-blend-mode:normal"/><path fill="#0e7bff" fill-rule="evenodd" stroke="none" d="m 55.506306,1022.3649 a 0.50004997,0.50004997 0 1 0 0,1 l 5,0 a 0.50004997,0.50004997 0 1 0 0,-1 l -5,0 z" color="#000" font-family="sans-serif" font-weight="400" overflow="visible" white-space="normal" style="line-height:normal;text-indent:0;text-align:start;text-decoration-line:none;text-decoration-style:solid;text-decoration-color:#000;text-transform:none;block-progression:tb;isolation:auto;mix-blend-mode:normal"/><path fill="#0e7bff" fill-rule="evenodd" stroke="none" style="line-height:normal;text-indent:0;text-align:start;text-decoration-line:none;text-decoration-style:solid;text-decoration-color:#000;text-transform:none;block-progression:tb;isolation:auto;mix-blend-mode:normal" d="M54.027788 1023.3658a.50030889.50030889 0 0 1-.01367 1l1.99414 0a.50030896.50030896 0 0 1-.03516-1l-1.945312 0zM57.033648 1023.3658a.50030889.50030889 0 0 1-.01367 1l1.99414 0a.50030896.50030896 0 0 1-.03516-1l-1.945312 0zM58.507118 1026.3657c-.676158-.01-.676158 1.0096 0 1l-.000119 0c.676158.01.676158-1.0096 0-1z" color="#000" font-family="sans-serif" font-weight="400" overflow="visible" white-space="normal"/><path fill="none" stroke-linecap="round" stroke-linejoin="round" d="M48.492879 1018.8658l.000009-2M47.492888 1017.8658l1.999991 0"/><ellipse cx="59.5" cy="1019.866" fill="#0e7bff" stroke="none" color="#000" overflow="visible" rx=".5" ry=".5" style="isolation:auto;mix-blend-mode:normal"/><path fill="none" stroke-linecap="round" stroke-linejoin="round" d="M52.505044 1010.8571l1.414219-1.4142M52.50505 1009.4429l1.414207 1.4142M5.0020214 1006.8678l-1-1M6.5070714 1005.8658l0-.9929M4.5000002 1008.8658l-.992879 0M2.5806863 1029.8678l1.414214-1.4142M2.5806863 1028.4536l1.414214 1.4142M14.492879 1003.8657l.000009-2M13.492888 1002.8657l1.999991 0"/><circle style="isolation:auto;mix-blend-mode:normal" cx="2.5" cy="1014.866" r="1" fill="none" stroke-linecap="round" stroke-linejoin="round" color="#000" overflow="visible"/><path fill="#6ca6fd" stroke="none" d="m 59.5,1032.3622 0,6 c 0,0.831 -0.669008,1.5 -1.500017,1.5 l -5.999966,0 c -0.415505,0 -0.790509,-0.1672 -1.061637,-0.4384 8.56162,-10.5616 0,0 8.56162,-10.5616 l 0,6.4687 z"/><path fill="none" stroke-linecap="round" stroke-linejoin="round" d="m 59.5,1032.3622 0,6 c 0,0.831 -0.669008,1.5 -1.500017,1.5 l -5.999966,0 c -0.831009,0 -1.500017,-0.669 -1.500017,-1.5 l 0,-6 0,2.9687 0,-6.4687 1,0 7,0 1,0 0,6.4687 z"/></g></svg>