<svg xmlns="http://www.w3.org/2000/svg" xmlns:xlink="http://www.w3.org/1999/xlink" width="96" height="96" viewBox="0 0 96 96"><defs><linearGradient id="b" x1="868.253" x2="937.656" y1="521.354" y2="588.736" gradientTransform="matrix(3.0757 0 0 3.0757 -2653.937 -629.677)" gradientUnits="userSpaceOnUse" xlink:href="#a"/><linearGradient id="a"><stop offset="0" stop-color="#24f3d2"/><stop offset=".394" stop-color="#0674f0"/><stop offset=".507" stop-color="#6961b5"/><stop offset=".813" stop-color="#f34660"/><stop offset="1" stop-color="#ee078d"/></linearGradient></defs><g transform="translate(0 -956.362)"><rect width="96" height="96" y="956.362" fill="url(#b)" rx="20.288" ry="20.288"/><path fill="#fff" style="line-height:normal;text-indent:0;text-align:start;text-decoration-line:none;text-decoration-style:solid;text-decoration-color:#000;text-transform:none;block-progression:tb;isolation:auto;mix-blend-mode:normal" d="m 31.486328,984.3603 a 0.50005,0.50005 0 0 0 -0.49414,0.5059 l 0,0.5 -0.5,0 a 0.50005,0.50005 0 1 0 0,1 l 0.5,0 0,0.5 a 0.50005,0.50005 0 1 0 1,0 l 0,-0.5 0.5,0 a 0.50005,0.50005 0 1 0 0,-1 l -0.5,0 0,-0.5 a 0.50005,0.50005 0 0 0 -0.50586,-0.5059 z M 23.5,987.3662 a 0.50005,0.50005 0 0 0 -0.492188,0.5078 l 0,0.9922 a 0.50005,0.50005 0 1 0 1,0 l 0,-0.9922 A 0.50005,0.50005 0 0 0 23.5,987.3662 Z m -2.503906,0.998 a 0.50005,0.50005 0 0 0 -0.347657,0.8574 l 1,1 a 0.50005,0.50005 0 1 0 0.707032,-0.707 l -1,-1 a 0.50005,0.50005 0 0 0 -0.359375,-0.1504 z m 4.503906,1.9961 0,0 c -1.376351,0 -2.5,1.1237 -2.5,2.5 l 0,22.0001 0,1.5 -3.5,0 a 0.50005,0.50005 0 0 0 -0.5,0.5 c 0,2.4269 1.86478,4.4257 4.197266,4.4257 l 37.607422,0 c 2.332486,0 4.195312,-1.9988 4.195312,-4.4257 a 0.50005,0.50005 0 0 0 -0.5,-0.5 l -3.5,0 0,-1.502 0,-21.9962 c 0.0063,-1.379 -1.123649,-2.5039 -2.5,-2.5039 l -33,0 z m 0,1.002 33,0 c 0.839649,0 1.503805,0.6611 1.5,1.498 l 0,22.0001 0,1.502 -14.505859,0 a 0.50005,0.50005 0 0 0 -0.5,0.5 c 0,0.4826 -0.342506,0.8281 -0.75,0.8281 l -4.496094,0 c -0.407494,0 -0.75,-0.3455 -0.75,-0.8281 a 0.50005,0.50005 0 0 0 -0.5,-0.5 l -14.498047,0 0,-1.5 0,-22.0001 c 0,-0.8396 0.660351,-1.5 1.5,-1.5 z m -5.042969,0 a 0.50064427,0.50064427 0 1 0 0.05078,1 l 0.992188,0 a 0.50005,0.50005 0 1 0 0,-1 l -0.992188,0 a 0.50005,0.50005 0 0 0 -0.05078,0 z M 69.5,991.9384 a 0.50005,0.50005 0 0 0 -0.347656,0.8594 l 0.353515,0.3535 -0.353515,0.3535 a 0.50005,0.50005 0 1 0 0.707031,0.7071 l 0.353516,-0.3536 0.353515,0.3536 a 0.50005,0.50005 0 1 0 0.707032,-0.7071 l -0.353516,-0.3535 0.353516,-0.3535 a 0.50005,0.50005 0 0 0 -0.363282,-0.8594 0.50005,0.50005 0 0 0 -0.34375,0.1524 l -0.353515,0.3535 -0.353516,-0.3535 A 0.50005,0.50005 0 0 0 69.5,991.9384 Z m -43,1.4239 a 0.50004991,0.50004991 0 0 0 -0.5,0.5 l 0,20.0001 a 0.50004991,0.50004991 0 0 0 0.5,0.5 l 31,0 a 0.50004991,0.50004991 0 0 0 0.5,-0.5 l 0,-20.0001 a 0.50004991,0.50004991 0 0 0 -0.5,-0.5 l -31,0 z m 0.5,1 30,0 0,19.0001 -30,0 0,-19.0001 z m -7.5,2.0039 c -0.822505,0 -1.5,0.6775 -1.5,1.5 0,0.8225 0.677495,1.49996 1.5,1.49996 0.822505,0 1.5,-0.67746 1.5,-1.49996 0,-0.8225 -0.677495,-1.5 -1.5,-1.5 z m 0,1 c 0.282065,0 0.5,0.218 0.5,0.5 0,0.2821 -0.217935,0.5 -0.5,0.5 -0.282065,0 -0.5,-0.2179 -0.5,-0.5 0,-0.282 0.217935,-0.5 0.5,-0.5 z m 45.986328,1.99406 a 0.50005,0.50005 0 0 0 -0.49414,0.506 l 0,0.50004 -0.5,0 a 0.50005,0.50005 0 1 0 0,1 l 0.5,0 0,0.5 a 0.50005,0.50005 0 1 0 1,0 l 0,-0.5 0.5,0 a 0.50005,0.50005 0 1 0 0,-1 l -0.5,0 0,-0.50004 a 0.50005,0.50005 0 0 0 -0.50586,-0.506 z m 10.978516,3.00604 a 0.49999991,0.5 0 0 0 -0.464844,0.5 0.49999991,0.5 0 0 0 0.5,0.5 0.49999991,0.5 0 0 0 0.5,-0.5 0.49999991,0.5 0 0 0 -0.5,-0.5 0.49999991,0.5 0 0 0 -0.03516,0 z m -5.94336,2.998 a 0.50004997,0.50004997 0 1 0 0,1 l 5,0 1.984375,0 a 0.50004997,0.50004997 0 1 0 0,-1 l -1.984375,0 -5,0 z m -3,0 c -0.676158,-0.01 -0.676158,1.0096 0,1 l 1,0 c 0.676158,0.01 0.676158,-1.0096 0,-1 l -1,0 z m 3.50586,1 a 0.50030889,0.50030889 0 0 1 0.02539,0.998 l -1.539062,0 c -0.676158,-0.01 -0.676158,1.0096 0,1 l 6.99414,0 c 0.676159,0.01 0.676158,-1.0096 0,-1 l -0.542968,0 a 0.50030896,0.50030896 0 0 1 -0.0059,-0.998 l -1.925781,0 a 0.50030889,0.50030889 0 0 1 0.02539,0.998 l -1.09961,0 a 0.50030896,0.50030896 0 0 1 -0.0059,-0.998 l -1.925781,0 z m 0.513672,2 a 0.50030889,0.50030889 0 0 1 0.02539,0.998 l -1.050781,0 c -0.676158,-0.01 -0.676158,1.0096 0,1 l 2.992187,0 c 0.670963,0.01 0.674324,-0.992 0.01367,-0.998 a 0.50030896,0.50030896 0 0 1 -0.0039,0 c -0.0037,0 -0.006,0 -0.0098,0 l -0.03516,0 a 0.50030896,0.50030896 0 0 1 -0.0059,-0.998 l -1.925781,0 z m 3.966796,1 c -0.676158,-0.01 -0.676158,1.0096 0,1 0.676159,0.01 0.676159,-1.0096 0,-1 z m -55.93164,1.5839 a 0.50005,0.50005 0 0 0 -0.34961,0.8575 l 0.353516,0.3535 -0.353516,0.3535 a 0.50005,0.50005 0 1 0 0.707032,0.707 l 0.353515,-0.3535 0.353516,0.3535 a 0.50005,0.50005 0 1 0 0.707031,-0.707 l -0.353515,-0.3535 0.353515,-0.3535 a 0.50005,0.50005 0 0 0 -0.363281,-0.8575 0.50005,0.50005 0 0 0 -0.34375,0.1504 l -0.353516,0.3536 -0.353515,-0.3536 a 0.50005,0.50005 0 0 0 -0.357422,-0.1484 z M 67.5,1011.3624 a 0.50005,0.50005 0 0 0 -0.5,0.5 l 0,3.4648 a 0.50005,0.50005 0 0 0 0,0.035 l 0,2.9687 0,3.0313 c 0,1.0994 0.900643,2 2,2 l 6,0 c 1.099357,0 2,-0.9006 2,-2 l 0,-1 1,0 c 1.099351,0 2,-0.9006 2,-2 l 0,-3 c 0,-1.0993 -0.900649,-2 -2,-2 l -1,0 0,-1.5 a 0.50005,0.50005 0 0 0 -0.5,-0.5 l -1,0 -7,0 -1,0 z m 0.5,1 0.5,0 7,0 0.5,0 0,3 0,6 c 0,0.5627 -0.437339,1 -1,1 l -6,0 c -0.562661,0 -1,-0.4373 -1,-1 l 0,-2.9981 a 0.50005,0.50005 0 0 0 0,-0.033 l 0,-2.9687 0,-3 z m 9,2 1,0 c 0.562649,0 1,0.4374 1,1 l 0,3 c 0,0.5627 -0.437351,1 -1,1 l -1,0 0,-0.9981 a 0.50005,0.50005 0 0 0 0,-0.033 l 0,-2.9687 0,-1 z m -56.90625,3 18.101562,0 c 0.224752,0.7283 0.765343,1.3281 1.552735,1.3281 l 4.496094,0 c 0.787392,0 1.327983,-0.5998 1.552734,-1.3281 l 18.109375,0 c -0.233012,1.664 -1.50297,2.9257 -3.101562,2.9257 l -37.607422,0 c -1.598593,0 -2.870504,-1.2617 -3.103516,-2.9257 z" color="#000" font-family="sans-serif" font-weight="400" overflow="visible" white-space="normal"/></g></svg>