<svg xmlns="http://www.w3.org/2000/svg" width="96" height="96" xmlns:v="https://vecta.io/nano"><defs><linearGradient id="A" x1="12.075" x2="87.205" y1="957.123" y2="1049.944" gradientUnits="userSpaceOnUse"><stop offset="0" stop-color="#fff"/><stop offset="1" stop-color="#24f3d2"/></linearGradient></defs><g transform="translate(0 -956.362)"><rect width="96" height="96" y="956.362" fill="url(#A)" rx="20.288"/><path fill-rule="evenodd" d="M48 972.367a2.01 2.01 0 0 0-2 2c0 .925.642 1.703 1.5 1.928v.572h1v-.572a2 2 0 0 0 .879-.49l.424.26.525-.852-.426-.262c.058-.186.098-.38.098-.584a2.01 2.01 0 0 0-2-2zm0 1a.99.99 0 1 1 0 2 .99.99 0 1 1 0-2zm-1.979 1.631l-.851.523.525.852.852-.523-.526-.852zm5.159.738l-.526.852.852.525.525-.851-.851-.526zm-6.862.31l-.851.524.525.852.852-.524-.526-.851zm8.565.74l-.526.85.852.524.525-.851-.851-.524zm-10.268.308l-.851.525.523.852.852-.526-.524-.851zm11.97.74l-.524.851.851.524.525-.852-.851-.523zm-7.085.033v1h1v-1h-1zm-6.588.275l-.851.524.523.851.852-.523-.524-.852zm15.377.739l-.523.851.851.526.524-.852-.852-.525zm-17.08.31l-.852.524.524.851.851-.523-.523-.852zm8.291.676v1h1v-1h-1zm10.492.063l-.523.851.851.524.524-.852-.852-.523zm-20.486.308l-.852.526.524.851.851-.525-.523-.852zm22.19.74l-.524.852.851.523.524-.851-.852-.524zm-23.893.309l-.852.523.524.852.851-.523-.523-.852zm11.697.58v1h1v-1h-1zm13.898.158l-.523.852.852.525.523-.851-.852-.526zm-27.298.31l-.852.524.523.852.852-.524-.523-.851zm29.002.74l-.524.85.852.524.523-.851-.851-.524zm-30.706.308l-.853.525.525.852.852-.526-.524-.851zm15.104.484v1h1v-1h-1zm17.305.256l-.524.852.852.523.523-.852-.851-.523zm-34.114.307l-.851.523.525.854.852-.526-.526-.851zm35.817.738l-.524.851.852.526.525-.852-.853-.525zm-37.52.31l-.851.524.525.851.852-.523-.526-.852zm18.512.39v.524c-3.35.257-6 3.06-6 6.475a6.51 6.51 0 0 0 6.5 6.5 6.51 6.51 0 0 0 6.5-6.5c0-3.415-2.65-6.218-6-6.474v-.526h-1zm.5 13.5h-5.455a5.039 5.039 0 0 0-4.604 3h-7.804a4.139 4.139 0 0 0-4.137 4.136v8.967l-.717.427.512.86.205-.123v.732h11.5v2h10v1h1v-1h10v-2H70v-.568l.398.21.471-.882-.869-.461v-9.162a4.139 4.139 0 0 0-4.137-4.137H58.06a5.039 5.039 0 0 0-4.604-3H48zm13.5 3a4.51 4.51 0 0 0 4.5-4.5 4.51 4.51 0 0 0-4.5-4.5 4.51 4.51 0 0 0-4.5 4.5 4.51 4.51 0 0 0 4.5 4.5zm-27 0a4.51 4.51 0 0 0 4.5-4.5 4.51 4.51 0 0 0-4.5-4.5 4.51 4.51 0 0 0-4.5 4.5 4.51 4.51 0 0 0 4.5 4.5zm33.713-16.151l-.526.851.852.524.525-.852-.851-.523zm-40.928.308l-.851.526.525.851.852-.523-.526-.854zm42.631.74l-.525.852.851.523.526-.851-.852-.523zM48 987.367c3.043 0 5.5 2.457 5.5 5.5s-2.457 5.5-5.5 5.5a5.492 5.492 0 0 1-5.5-5.5c0-3.043 2.457-5.5 5.5-5.5zm-22.418.207l-.852.524.524.853.851-.525-.523-.852zm46.037.738l-.525.852.851.525.526-.851-.852-.526zM22 988.367a2.01 2.01 0 0 0-2 2c0 .926.642 1.703 1.5 1.928v.57h1v-.57c.373-.098.703-.299.959-.574l.469.254.474-.881-.466-.252c.038-.153.064-.31.064-.475 0-.204-.04-.4-.098-.586l.5-.306-.523-.852-.498.307a1.989 1.989 0 0 0-1.381-.563zm52 0a2.01 2.01 0 0 0-2 2c0 .165.026.322.064.475l-.474.256.474.88.477-.257a2 2 0 0 0 .959.574v.541h1v-.54a2.003 2.003 0 0 0 1.5-1.929 2.01 2.01 0 0 0-2-2zm-52 1a.99.99 0 1 1 0 2 .99.99 0 1 1 0-2zm52 0a.99.99 0 1 1 0 2 .99.99 0 1 1 0-2zm-48.717 2.202l-.474.88.88.473.475-.879-.88-.474zm45.426 0l-.879.474.473.88.88-.474-.474-.88zm-43.666.943l-.473.88.881.475.473-.88-.881-.475zm41.906 0l-.88.475.474.88.879-.474-.473-.881zm-40.144.945l-.475.881.621.332.473-.879-.62-.334zm38.382 0l-.576.31.473.882.578-.31-.475-.882zm6.313.365v1h1v-1h-1zm-52 .031v1h1v-1h-1zm13 .502c1.939 0 3.5 1.562 3.5 3.5a3.49 3.49 0 0 1-3.5 3.5 3.492 3.492 0 0 1-3.5-3.5c0-1.938 1.561-3.5 3.5-3.5zm27 0c1.939 0 3.5 1.562 3.5 3.5a3.49 3.49 0 0 1-3.5 3.5 3.492 3.492 0 0 1-3.5-3.5c0-1.938 1.561-3.5 3.5-3.5zm12 1.467v1h1v-1h-1zm-52 .031v1h1v-1h-1zm52 1.97v1h1v-1h-1zm-52 .03v1h1v-1h-1zm52 1.969v1h1v-1h-1zm-52 .03v1h1v-1h-1zm21.045.503h10.91c1.656 0 3.059.977 3.688 2.389l.101.28a4.135 4.135 0 0 1 .256 1.377v13.954H54v-12h-1v12H43v-12h-1v12h-3.5v-13.953a4.112 4.112 0 0 1 .256-1.375l.101-.281a4.017 4.017 0 0 1 3.688-2.39zm30.955 1.467v1h1v-1h-1zm-52 .03v1h1v-1h-1zm8.637 1.503h7.474a5.062 5.062 0 0 0-.111 1.043v11.953H30v-8h-1v8h-2v-9.864a3.12 3.12 0 0 1 3.137-3.136zm28.252 0h7.474A3.12 3.12 0 0 1 69 1006.49v9.864h-2v-8h-1v8h-7.5V1004.4a5.04 5.04 0 0 0-.111-1.043zm15.111.466v1h1v-1h-1zm-52 .031v1h1v-1h-1zm52 1.97v1h1v-1h-1zm-52 .03v1h1v-1h-1zm52 1.97v1h1v-1h-1zm-52 .03v1h1v-1h-1zm52 1.969v1h1v-1h-1zm-52 .03v1h1v-1h-1zm52 1.97v1h1v-1h-1zm-52 .029v1h1v-1h-1zm52 1.968v1h1v-1h-1zm-52 .031v1h1v-1h-1zm52 1.97v.605a1.998 1.998 0 0 0-.96.578l-.788-.418-.47.883.78.414c-.037.152-.062.31-.062.472 0 .203.04.395.098.58l-.526.325.524.851.521-.32a1.99 1.99 0 0 0 1.383.564 2.01 2.01 0 0 0 2-2c0-.925-.642-1.705-1.5-1.93v-.605h-1zm-52 .03v.574a2.006 2.006 0 0 0-1.5 1.93 2.01 2.01 0 0 0 2 2 2 2 0 0 0 1.656-.883l-.219.354.852.525.523-.852-.851-.525-.303.492c.215-.318.342-.7.342-1.111 0-.925-.642-1.705-1.5-1.93v-.574h-1zm2.924.547l-.86.512.512.86.86-.513-.512-.859zm-2.424.957a.99.99 0 1 1 0 2 .99.99 0 1 1 0-2zm52 0a.99.99 0 1 1 0 2 .99.99 0 1 1 0-2zm-3.28 2.428l-.85.523.523.854.851-.526-.523-.851zm-45.056.24l-.523.851.851.524.524-.852-.852-.523zm43.354.809l-.854.523.525.852.852-.524-.523-.851zm-41.65.24l-.524.851.851.524.524-.852-.852-.523zm20.132.283v1h1v-1h-1zm19.812.525l-.851.524.525.851.852-.523-.526-.852zm-38.24.239l-.525.851.851.526.526-.852-.852-.525zm36.537.808l-.851.526.525.851.852-.525-.526-.852zm-34.834.24l-.525.852.852.523.525-.851-.852-.524zm16.725.188v1h1v-1h-1zm16.406.621l-.851.523.525.852.852-.523-.526-.852zm-31.427.24l-.526.852.852.523.525-.851-.851-.524zm29.724.809l-.851.523.523.852.852-.524-.524-.851zm-28.021.238l-.526.852.854.525.523-.851-.851-.526zm13.318.092v1h1v-1h-1zm13 .72l-.852.522.524.852.851-.525-.523-.848zm-24.615.237l-.524.852.852.523.523-.851-.851-.524zm22.912.809l-.852.523.524.852.851-.524-.523-.851zm-11.297.234v1h1v-1h-1zm-9.912.01l-.524.852.852.523.523-.851-.851-.524zm19.506.809l-.852.523.524.852.851-.524-.523-.851zm-17.803.238l-.523.852.851.525.524-.852-.852-.525zm16.1.809l-.852.525.523.852.852-.526-.523-.851zm-7.891.138v1h1v-1h-1zm-6.506.102l-.523.851.851.524.524-.852-.852-.523zm12.693.808l-.851.524.523.851.852-.523-.524-.852zm-10.99.24l-.523.852.851.524.524-.852-.852-.523zm9.287.81l-.851.523.523.851.852-.523-.524-.852zm-4.484.04v1h1v-1h-1zm.5 1c-.535 0-1.02.217-1.38.563l-.516-.317-.524.852.518.318c-.058.186-.098.38-.098.584a2.01 2.01 0 0 0 2 2 2.01 2.01 0 0 0 2-2 1.97 1.97 0 0 0-.254-.953l.207.336.852-.525-.526-.852-.851.526.183.296c-.364-.5-.95-.828-1.611-.828zm-3.6-.802l-.523.851.852.525.523-.851-.852-.525zm3.6 1.802a.99.99 0 1 1 0 2 .99.99 0 1 1 0-2z"/></g></svg>