<svg xmlns="http://www.w3.org/2000/svg" xmlns:xlink="http://www.w3.org/1999/xlink" width="96" height="96"><defs><linearGradient id="b" x1="992.183" x2="1019.298" y1="516.081" y2="545.959" gradientTransform="translate(-3045.41 -629.677) scale(3.0757)" gradientUnits="userSpaceOnUse" xlink:href="#a"/><linearGradient id="a"><stop offset="0" stop-color="#fff"/><stop offset="1" stop-color="#24f3d2"/></linearGradient></defs><g transform="translate(0 -956.362)"><rect width="96" height="96" y="956.362" fill="url(#b)" rx="20.288" ry="20.288"/><path style="line-height:normal;text-indent:0;text-align:start;text-decoration-line:none;text-decoration-style:solid;text-decoration-color:#000;text-transform:none;block-progression:tb;isolation:auto;mix-blend-mode:normal" fill="#000" d="M26.505 974.364a.5.5 0 0 0-.463.37l-.445 1.665a4.995 4.995 0 0 0-.145.02l-.863-1.494a.5.5 0 0 0-.682-.182l-1.662.959a.5.5 0 0 0-.183.684l.861 1.492c-.03.038-.06.076-.088.115l-1.664-.447a.5.5 0 0 0-.613.353l-.496 1.854a.5.5 0 0 0 .353.613l1.666.447.02.143-1.494.861a.5.5 0 0 0-.184.684l.96 1.662a.5.5 0 0 0 .683.182l1.494-.862c.037.03.075.058.113.086l-.445 1.668a.5.5 0 0 0 .353.612l1.854.498a.5.5 0 0 0 .611-.354l.445-1.666c.049-.01.097-.013.145-.021l.863 1.494a.5.5 0 0 0 .682.182l1.662-.96a.5.5 0 0 0 .184-.683l-.862-1.492c.03-.038.06-.076.088-.115l1.664.447a.5.5 0 0 0 .614-.353l.496-1.854a.5.5 0 0 0-.354-.613l-1.666-.446c-.005-.048-.01-.096-.018-.144l1.493-.86a.5.5 0 0 0 .183-.683l-.959-1.662a.5.5 0 0 0-.683-.182l-1.494.861a3.89 3.89 0 0 0-.114-.085l.446-1.668a.5.5 0 0 0-.354-.614l-1.853-.496a.5.5 0 0 0-.149-.015zm42.688.004a5.661 5.661 0 0 0-1.772.211c-1.401.397-2.57 1.352-3.365 2.61-.703-.126-1.422-.174-2.113.02h-.002c-2.045.583-3.424 2.463-3.586 4.626-.463-.043-.929-.102-1.38.025h-.001c-2.12.6-3.354 2.88-2.797 5.08.465 1.83 2.073 3.03 3.857 3.022.014.067.02.135.035.201.559 2.2 2.744 3.543 4.864 2.943h.002c.175-.05.34-.13.506-.205 1.412 1.232 3.282 1.762 5.076 1.256 1.89-.534 3.287-2.091 3.869-4.02.517.014 1.036 0 1.537-.138h.002c2.911-.824 4.616-3.964 3.846-7-.416-1.63-1.535-2.93-2.99-3.647-.023-.117-.044-.235-.073-.351v-.002c-.668-2.634-2.9-4.525-5.513-4.63h-.002zm-.04.998c2.156.087 4.018 1.647 4.585 3.879.037.15.069.302.093.455l.045.276.256.107c1.305.544 2.3 1.714 2.67 3.164.642 2.535-.783 5.121-3.148 5.791a4.205 4.205 0 0 1-1.522.137l-.435-.041-.098.426c-.41 1.78-1.703 3.169-3.356 3.636-1.57.442-3.24 0-4.427-1.193l-.262-.262-.328.176c-.18.097-.37.174-.565.23-1.574.446-3.188-.525-3.62-2.224a3.352 3.352 0 0 1-.083-.479l-.05-.517-.516.07c-1.465.204-2.854-.762-3.246-2.305-.431-1.7.527-3.425 2.101-3.871.465-.131.95-.141 1.418-.027l.63.152-.01-.647c-.032-1.94 1.186-3.635 2.93-4.13v.002a3.72 3.72 0 0 1 1.95-.022l.373.1.188-.336c.663-1.175 1.729-2.021 2.967-2.371h.002a4.663 4.663 0 0 1 1.459-.176zm-42.275.11.887.238-.402 1.502a.5.5 0 0 0 .228.56c.201.12.388.262.557.424a.5.5 0 0 0 .597.074l1.344-.777.46.795-1.347.777a.5.5 0 0 0-.234.557c.058.227.088.46.092.693a.5.5 0 0 0 .37.477l1.5.4-.237.889-1.502-.402a.5.5 0 0 0-.559.226c-.12.201-.263.388-.426.557a.5.5 0 0 0-.072.597l.775 1.346-.795.46-.777-1.349a.5.5 0 0 0-.558-.234 3.06 3.06 0 0 1-.694.094.5.5 0 0 0-.472.37l-.403 1.501-.888-.238.404-1.504a.5.5 0 0 0-.229-.559 3.017 3.017 0 0 1-.556-.423.5.5 0 0 0-.598-.075l-1.344.778-.459-.797 1.348-.778a.5.5 0 0 0 .234-.556 3.02 3.02 0 0 1-.093-.694.5.5 0 0 0-.372-.474l-1.5-.403.237-.886 1.504.402a.5.5 0 0 0 .558-.226c.12-.202.264-.389.426-.557a.5.5 0 0 0 .072-.598l-.775-1.345.795-.46.777 1.348a.5.5 0 0 0 .559.235c.226-.058.46-.09.693-.094a.5.5 0 0 0 .473-.371l.402-1.5zm40.281 2.386a4.393 4.393 0 0 0-4.384 4.385.5.5 0 0 0 0 .002c0 1.498.827 2.822 2.072 3.623v1.49h-.303a.5.5 0 0 0-.5.5v2a.5.5 0 0 0 .5.5h1v.5a.499.499 0 1 0 1 0v-.5h1v.5a.499.499 0 1 0 1 0v-.5h1a.5.5 0 0 0 .5-.5v-2a.5.5 0 0 0-.5-.5h-.072v-1.49c1.245-.801 2.071-2.125 2.072-3.623a.5.5 0 0 0 0-.002 4.392 4.392 0 0 0-4.385-4.385zm-40.953.504a2.05 2.05 0 0 0-2.093 1.508 2.05 2.05 0 0 0 1.443 2.5 2.05 2.05 0 0 0 2.5-1.443 2.047 2.047 0 0 0-1.85-2.565zm40.953.496a3.377 3.377 0 0 1 3.385 3.385 3.383 3.383 0 0 1-1.805 2.992.5.5 0 0 0-.267.442v1.681h-.928v-3h.362a.5.5 0 1 0 0-1H66.183a.5.5 0 1 0 0 1h.361v3h-.697v-1.681a.5.5 0 0 0-.268-.442 3.383 3.383 0 0 1-1.804-2.992 3.377 3.377 0 0 1 3.384-3.385zm-41.22.508c.134-.018.274-.01.414.027.56.15.888.713.738 1.274-.15.56-.714.886-1.275.736a1.034 1.034 0 0 1-.737-1.275 1.03 1.03 0 0 1 .86-.762zm4.904 5.793a.5.5 0 0 0-.5.5v2.883c-.19.068-.375.145-.557.232l-2.039-2.039a.5.5 0 0 0-.707 0l-2.12 2.121a.5.5 0 0 0 0 .707l2.036 2.037a5.985 5.985 0 0 0-.228.559h-2.885a.5.5 0 0 0-.5.5v3a.5.5 0 0 0 .5.5h2.883c.068.19.145.375.232.557l-2.039 2.039a.5.5 0 0 0 0 .707l2.121 2.12a.5.5 0 0 0 .707 0l2.037-2.036c.183.086.369.161.559.228v2.885a.5.5 0 0 0 .5.5h3a.5.5 0 0 0 .5-.5v-2.88a5.92 5.92 0 0 0 .557-.235l2.039 2.039a.5.5 0 0 0 .707 0l2.12-2.121a.5.5 0 0 0 0-.707l-2.036-2.037a5.98 5.98 0 0 0 .23-.56h2.883a.5.5 0 0 0 .5-.5v-3a.5.5 0 0 0-.5-.5h-2.88a5.973 5.973 0 0 0-.233-.558l2.037-2.037a.5.5 0 0 0 0-.707l-2.121-2.12a.5.5 0 0 0-.707 0l-2.037 2.036a5.992 5.992 0 0 0-.559-.23v-2.883a.5.5 0 0 0-.5-.5h-3zm.5 1h2v2.715a.5.5 0 0 0 .365.48c.374.105.733.254 1.073.442a.5.5 0 0 0 .595-.084l1.916-1.916 1.414 1.414-1.918 1.918a.5.5 0 0 0-.082.597c.19.339.34.698.446 1.07a.5.5 0 0 0 .48.364h2.711v2h-2.715a.5.5 0 0 0-.48.365 5.001 5.001 0 0 1-.442 1.073.5.5 0 0 0 .084.595l1.916 1.916-1.414 1.414-1.92-1.92a.5.5 0 0 0-.597-.082c-.338.19-.698.34-1.07.448a.5.5 0 0 0-.362.48v2.711h-2v-2.715a.5.5 0 0 0-.365-.482 4.994 4.994 0 0 1-1.072-.44.5.5 0 0 0-.596.084l-1.916 1.916-1.414-1.414 1.92-1.92a.5.5 0 0 0 .082-.6 4.995 4.995 0 0 1-.448-1.068.5.5 0 0 0-.48-.36h-2.711v-2h2.715a.5.5 0 0 0 .482-.366c.105-.374.252-.733.44-1.072a.5.5 0 0 0-.084-.596l-1.916-1.916 1.414-1.414 1.92 1.92a.5.5 0 0 0 .6.082c.337-.19.695-.34 1.068-.448a.5.5 0 0 0 .361-.48v-2.711zm33.701 2.2h4v1h-4v-1zm-9.887 1.507a2.256 2.256 0 0 0-2.037 2.826 2.254 2.254 0 0 0 2.752 1.59 2.258 2.258 0 0 0 1.592-2.754 2.259 2.259 0 0 0-2.307-1.662zm.063.998a1.24 1.24 0 0 1 1.28.924 1.24 1.24 0 0 1-.886 1.527 1.24 1.24 0 0 1-1.529-.88 1.241 1.241 0 0 1 1.135-1.571zm-22.877.295c-1.65 0-3 1.349-3 3 0 1.65 1.35 3 3 3s3-1.35 3-3c0-1.651-1.35-3-3-3zm0 1c1.11 0 2 .89 2 2 0 1.11-.89 2-2 2-1.11 0-2-.89-2-2 0-1.11.89-2 2-2zm19.268 1.871c-.11.01-.222.023-.332.053a1.674 1.674 0 0 0-1.178 2.041 1.672 1.672 0 0 0 2.039 1.178 1.674 1.674 0 0 0 1.18-2.04 1.677 1.677 0 0 0-1.71-1.232zm.193 1.002a.656.656 0 0 1 .549.488.66.66 0 0 1-.47.817.66.66 0 0 1-.817-.471.66.66 0 0 1 .47-.816.699.699 0 0 1 .268-.018zm-5.961 2.127a7.107 7.107 0 0 0-7.1 7.1c0 3.915 3.185 7.1 7.1 7.1 3.915 0 7.1-3.185 7.1-7.1 0-3.916-3.185-7.1-7.1-7.1zm0 1c3.375 0 6.1 2.725 6.1 6.1 0 3.374-2.725 6.1-6.1 6.1a6.092 6.092 0 0 1-6.1-6.1c0-3.375 2.725-6.1 6.1-6.1zm15.393 8.244c-.091 0-.184.01-.276.025-.736.14-1.246.812-1.246 1.564a.5.5 0 1 0 1 0c0-.305.199-.537.434-.582.234-.044.468.087.564.37.096.282-.02.596-.236.73-.234.145-.496.322-.713.59a1.7 1.7 0 0 0-.361.965.5.5 0 0 0-.01.101v.727a.5.5 0 1 0 1 0v-.694a.5.5 0 0 0 0-.033.61.61 0 0 1 .15-.437c.099-.122.26-.246.46-.37.637-.394.899-1.188.657-1.9-.211-.622-.789-1.05-1.423-1.054zm-36.627 4.826a1.503 1.503 0 0 0-1.196.744 1.507 1.507 0 0 0 .55 2.05 1.507 1.507 0 0 0 2.048-.55 1.507 1.507 0 0 0-.549-2.048 1.489 1.489 0 0 0-.853-.196zm36.275.608a.5.5 0 0 0-.492.507.5.5 0 1 0 1 0 .5.5 0 0 0-.508-.507zm-36.111.388c.064.01.128.03.19.064.243.141.324.44.183.684a.493.493 0 0 1-.684.182.491.491 0 0 1-.183-.682.493.493 0 0 1 .494-.248zm14.771.133a5.499 5.499 0 0 0-5.5 5.5v15.5h23v-15.5c0-3.038-2.461-5.5-5.5-5.5h-12zm0 1h12a4.48 4.48 0 0 1 4.5 4.5v14.5h-4v-12h-1v12h-11v-12h-1v12h-4v-14.5a4.48 4.48 0 0 1 4.5-4.5zm-8.564.932a.5.5 0 0 0-.442.256l-.25.433-.433-.25a.5.5 0 0 0-.287-.07.5.5 0 0 0-.213.936l.433.25-.25.433a.5.5 0 1 0 .866.5l.25-.433.433.25a.5.5 0 1 0 .5-.865l-.433-.25.25-.434a.5.5 0 0 0-.424-.756zm40.4 4.037a1.639 1.639 0 0 0-.96.47.5.5 0 1 0 .706.708c.216-.217.52-.24.717-.106.197.135.27.395.139.662-.132.268-.436.406-.684.348-.268-.063-.577-.122-.92-.086a1.7 1.7 0 0 0-.937.422.5.5 0 0 0-.08.068.5.5 0 0 0-.036.035l-.478.478a.5.5 0 1 0 .707.707l.482-.484a.5.5 0 0 0 .032-.029.61.61 0 0 1 .416-.203c.155-.017.355.012.584.064.73.171 1.478-.207 1.81-.881.332-.674.149-1.507-.47-1.93a1.497 1.497 0 0 0-1.028-.246zm-7.535 2.447a.5.5 0 0 0-.348.147L62 1022.423c-.08-.13-.092-.293-.2-.403a.5.5 0 0 0-.003 0 2.056 2.056 0 0 0-2.896 0 2.056 2.056 0 0 0 0 2.897.5.5 0 0 0 .002 0c.11.11.274.12.404.201l-1.5 1.5a.5.5 0 0 0 0 .707l5.691 5.693a.5.5 0 0 0 .71 0l5.69-5.693a.5.5 0 0 0 0-.707l-1.97-1.97a.5.5 0 0 0-.85.283 1.047 1.047 0 0 1-1.777.593 1.047 1.047 0 0 1 .594-1.777.5.5 0 0 0 .283-.85l-1.97-1.97a.5.5 0 0 0-.362-.147zm-40.346.041a.5.5 0 0 0-.347.86l.707.707a.5.5 0 1 0 .707-.71l-.707-.706a.5.5 0 0 0-.36-.15zm2.83 0a.5.5 0 0 0-.343.15l-.707.71a.5.5 0 1 0 .707.707l.707-.71a.5.5 0 0 0-.364-.857zm37.524 1.166 1.144 1.145c-.13.08-.295.092-.404.2a2.056 2.056 0 0 0 0 2.897c.796.796 2.1.796 2.896 0 .11-.11.12-.276.202-.406l1.146 1.147-4.984 4.984-4.987-4.984 1.618-1.618a.5.5 0 0 0-.284-.85 1.049 1.049 0 0 1-.591-.294 1.04 1.04 0 0 1 0-1.482 1.046 1.046 0 0 1 1.775.594.5.5 0 0 0 .85.282l1.619-1.615zm4.27.229a.5.5 0 1 0 .05 1 .5.5 0 1 0 0-1 .5.5 0 0 0-.05 0zm-43.92.732a.5.5 0 0 0-.344.15l-.707.708a.5.5 0 1 0 .707.707l.707-.707a.5.5 0 0 0-.364-.858zm1.423 0a.5.5 0 0 0-.347.858l.707.707a.5.5 0 1 0 .707-.707l-.707-.707a.5.5 0 0 0-.36-.15zm4.703 5.71a.5.5 0 0 0-.492.507v.5h-.5a.5.5 0 1 0 0 1h.5v.5a.5.5 0 1 0 1 0v-.5h.5a.5.5 0 1 0 0-1h-.5v-.5a.5.5 0 0 0-.508-.508z" color="#000" font-family="sans-serif" font-weight="400" overflow="visible"/></g></svg>