<svg xmlns="http://www.w3.org/2000/svg" width="64" height="64" viewBox="0 0 64 64"><g transform="translate(0 -988.362)"><ellipse cx="35.582" cy="1007.802" fill="#6ca6fd" color="#000" overflow="visible" rx="1.25" ry="1.25" style="isolation:auto;mix-blend-mode:normal"/><path fill="#6ca6fd" fill-rule="evenodd" d="M9.33055 1025.8268l2.1601-2.2653M15.30048 1013.918l-.42548 4.4419"/><ellipse style="isolation:auto;mix-blend-mode:normal" cx="4.579" cy="1034.802" fill="#6ca6fd" color="#000" overflow="visible" rx="1.25" ry="1.25"/><ellipse cx="8.803" cy="1026.371" fill="#6ca6fd" color="#000" overflow="visible" rx=".819" ry=".819" style="isolation:auto;mix-blend-mode:normal"/><ellipse cx="8.475" cy="1009.905" fill="#6ca6fd" color="#000" overflow="visible" rx="1.147" ry="1.147" style="isolation:auto;mix-blend-mode:normal"/><ellipse style="isolation:auto;mix-blend-mode:normal" cx="884.359" cy="-481.288" fill="#6ca6fd" color="#000" overflow="visible" rx=".819" ry=".819" transform="scale(1 -1) rotate(-60)"/><ellipse cx="44.987" cy="1004.86" fill="#6ca6fd" color="#000" overflow="visible" rx="1" ry="1" style="isolation:auto;mix-blend-mode:normal"/><circle style="isolation:auto;mix-blend-mode:normal" cx="57.875" cy="1005.112" r=".75" fill="#6ca6fd" color="#000" overflow="visible"/><ellipse cx="-59.272" cy="1034.905" fill="#6ca6fd" color="#000" overflow="visible" rx="1.147" ry="1.147" style="isolation:auto;mix-blend-mode:normal" transform="scale(-1 1)"/><ellipse style="isolation:auto;mix-blend-mode:normal" cx="-56.151" cy="1026.371" fill="#6ca6fd" color="#000" overflow="visible" rx=".819" ry=".819" transform="scale(-1 1)"/><ellipse style="isolation:auto;mix-blend-mode:normal" cx="-60.478" cy="1016.302" fill="#6ca6fd" color="#000" overflow="visible" rx="1.147" ry="1.147" transform="scale(-1 1)"/><ellipse style="isolation:auto;mix-blend-mode:normal" cx="34.72" cy="1000.862" fill="#6ca6fd" color="#000" overflow="visible" rx="1" ry="1"/><ellipse cx="878.422" cy="-488.249" fill="#6ca6fd" color="#000" overflow="visible" style="isolation:auto;mix-blend-mode:normal" rx="1.002" ry="1.002" transform="matrix(.5 .86603 .86603 -.5 0 0)"/><circle cx="16.375" cy="1037.86" r="1.5" fill="#6ca6fd"/><circle cx="47.875" cy="1038.36" r="1.5" fill="#6ca6fd"/><circle cx="31.875" cy="1040.36" r="1" fill="#6ca6fd"/><circle cx="47.375" cy="1011.86" r="1" fill="#6ca6fd"/><circle cx="31.875" cy="1016.36" r="1.5" fill="#6ca6fd"/><circle cx="15.375" cy="1012.86" r="1" fill="#6ca6fd"/><circle style="isolation:auto;mix-blend-mode:normal" cx="3.375" cy="1018.862" r="1" fill="#6ca6fd" color="#000" overflow="visible"/><path fill="none" stroke="#0e7bff" d="m 45.125,1005.5787 2.03125,5.4062"/><path fill="none" stroke="#0e7bff" d="m 47.8529,1012.6363 1.0221,5.7236" opacity=".99"/><path fill="none" stroke="#0e7bff" d="M17.875 1038.3599l13 2M32.875 1040.3599l14-2M8.875 1009.3599l7-4M4.87195 1033.8019l3.6563-6.75M8.25865 1025.8433l-5.0829-6.1878M3.52825 1018.1144l4.2187-7.3283M16.79763 1004.9373l7.9005 1.3314M9.48135 1010.2236l4.81911 2.3138M16.40006 1012.5392l8.46387-5.4142M26.01853 1006.1471l7.8564-4.8452M25.94123 1006.9041l8.464 1.0221M35.285304 1001.586l8.854826 3.3844M45.58763 1005.1528l11.5373.04M48.21492 1011.6553l9.28501-5.8691M58.24993 1005.5362l1.9621 9.6773M59.38313 1016.0146l-8.64597 5.0828M60.20643 1017.3849l-3.6519 8.2595M56.49993 1027.1456l2.4413 6.7086M55.73673 1027.0424l-7.5354 9.9798M5.34165 1035.6279l9.4063 2.2147M49.66093 1038.1883l8.9046-2.4888M9.33055 1025.8268l2.1601-2.2653M36.53123 1008.1143l9.81815 3.4085M9.25 1026.8599l6.625 9.5M16.875 1036.3599l8-8M31.875 1039.3599l0-5M38.40533 1029.2109l8.46967 8.149M51.77015 1025.0332l3.54679.929M25.875 1007.3599l5 8M15.30048 1013.918l-.64423 2.7544M31.875 1017.5809l-3 7.779M33.125 1017.2349l11.75 4.125M32.875 1015.3599l13.552-3.2209"/><ellipse cx="4.579" cy="1034.802" fill="none" stroke="#0e7bff" stroke-dashoffset="3.2" stroke-miterlimit="2.786" color="#000" style="isolation:auto;mix-blend-mode:normal" overflow="visible" rx="1.25" ry="1.25"/><ellipse cx="8.803" cy="1026.371" fill="none" stroke="#0e7bff" stroke-dashoffset="3.2" stroke-miterlimit="2.786" color="#000" style="isolation:auto;mix-blend-mode:normal" overflow="visible" rx=".819" ry=".819"/><ellipse cx="8.475" cy="1009.905" fill="none" stroke="#0e7bff" stroke-dashoffset="3.2" stroke-miterlimit="2.786" color="#000" style="isolation:auto;mix-blend-mode:normal" overflow="visible" rx="1.147" ry="1.147"/><ellipse cx="884.359" cy="-481.288" fill="none" stroke="#0e7bff" stroke-dashoffset="3.2" stroke-miterlimit="2.786" color="#000" style="isolation:auto;mix-blend-mode:normal" overflow="visible" rx=".819" ry=".819" transform="scale(1 -1) rotate(-60)"/><ellipse cx="35.582" cy="1007.802" fill="none" stroke="#0e7bff" stroke-dashoffset="3.2" stroke-miterlimit="2.786" color="#000" style="isolation:auto;mix-blend-mode:normal" overflow="visible" rx="1.25" ry="1.25"/><ellipse cx="44.987" cy="1004.86" fill="none" stroke="#0e7bff" stroke-dashoffset="3.2" stroke-miterlimit="2.786" color="#000" style="isolation:auto;mix-blend-mode:normal" overflow="visible" rx="1" ry="1"/><circle cx="57.875" cy="1005.112" style="isolation:auto;mix-blend-mode:normal" r=".75" fill="none" stroke="#0e7bff" stroke-dashoffset="3.2" stroke-miterlimit="2.786" color="#000" overflow="visible"/><ellipse cx="-59.272" cy="1034.905" fill="none" stroke="#0e7bff" stroke-dashoffset="3.2" stroke-miterlimit="2.786" color="#000" style="isolation:auto;mix-blend-mode:normal" overflow="visible" rx="1.147" ry="1.147" transform="scale(-1 1)"/><ellipse cx="-56.151" cy="1026.371" fill="none" stroke="#0e7bff" stroke-dashoffset="3.2" stroke-miterlimit="2.786" color="#000" style="isolation:auto;mix-blend-mode:normal" overflow="visible" rx=".819" ry=".819" transform="scale(-1 1)"/><ellipse cx="-60.478" cy="1016.302" fill="none" stroke="#0e7bff" stroke-dashoffset="3.2" stroke-miterlimit="2.786" color="#000" style="isolation:auto;mix-blend-mode:normal" overflow="visible" rx="1.147" ry="1.147" transform="scale(-1 1)"/><ellipse cx="34.72" cy="1000.862" fill="none" stroke="#0e7bff" stroke-dashoffset="3.2" stroke-miterlimit="2.786" color="#000" style="isolation:auto;mix-blend-mode:normal" overflow="visible" rx="1" ry="1"/><ellipse cx="878.422" cy="-488.249" fill="none" stroke="#0e7bff" stroke-dashoffset="3.2" stroke-miterlimit="2.786" color="#000" style="isolation:auto;mix-blend-mode:normal" overflow="visible" rx="1.002" ry="1.002" transform="matrix(.5 .86603 .86603 -.5 0 0)"/><circle cx="16.375" cy="1037.86" r="1.5" fill="none" stroke="#0e7bff" stroke-linecap="round" stroke-linejoin="round"/><circle cx="47.875" cy="1038.36" r="1.5" fill="none" stroke="#0e7bff" stroke-linecap="round" stroke-linejoin="round"/><circle cx="31.875" cy="1040.36" r="1" fill="none" stroke="#0e7bff" stroke-linecap="round" stroke-linejoin="round"/><circle cx="47.375" cy="1011.86" r="1" fill="none" stroke="#0e7bff" stroke-linecap="round" stroke-linejoin="round"/><circle cx="31.875" cy="1016.36" r="1.5" fill="none" stroke="#0e7bff" stroke-linecap="round" stroke-linejoin="round"/><circle cx="15.375" cy="1012.86" r="1" fill="none" stroke="#0e7bff" stroke-linecap="round" stroke-linejoin="round"/><path fill="#e9eded" fill-rule="evenodd" stroke="#0e7bff" d="m 15.875,1013.3599 14,3 0.9375,-0.062"/><circle cx="3.375" cy="1018.862" style="isolation:auto;mix-blend-mode:normal" r="1" fill="none" stroke="#0e7bff" stroke-dashoffset="3.2" stroke-miterlimit="2.786" color="#000" overflow="visible"/><path fill="#e6dfd2" stroke="#496078" stroke-dashoffset=".35" stroke-linecap="round" stroke-linejoin="round" stroke-width=".5" d="m 30.1247,1027.2687 c 0.2781,-0.4816 0.9081,-0.6348 1.4128,-0.3434 l 0.1427,0.091 1.8947,1.0939 c 0.7626,0.4403 1.7661,0.1194 2.2504,-0.7194 l -1.6227,-0.9398 -2.4125,-1.3929 -0.3773,-0.2198 c -1.5998,-0.9237 -3.6345,-0.3734 -4.5624,1.2337 l -1.0265,1.778"/><rect width="5" height="4" x="-878.706" y="-537.49" fill="#dae7fc" stroke="#0e7bff" stroke-dashoffset=".35" stroke-linecap="round" stroke-linejoin="round" transform="scale(1 -1) rotate(60)"/><rect width="5" height="4" x="-910.515" y="-482.395" fill="#dae7fc" stroke="#0e7bff" stroke-dashoffset=".35" stroke-linecap="round" stroke-linejoin="round" transform="rotate(-120)"/><path fill="#e6dfd2" stroke="#496078" stroke-dashoffset=".35" stroke-linecap="round" stroke-linejoin="round" stroke-width=".5" d="m 31.6802,1027.0168 1.8947,1.0939 c 0.7626,0.4403 1.7661,0.1194 2.2503,-0.7194 l -1.6226,-0.9398 -2.4125,-1.3929"/><path fill="#e6dfd2" stroke="#496078" stroke-dashoffset=".35" stroke-linecap="round" stroke-linejoin="round" stroke-width=".5" d="m 30.1247,1027.2687 c 0.2781,-0.4816 0.9081,-0.6348 1.4128,-0.3434 l 1.9286,1.1134"/><rect width="7.548" height="11.056" x="-912.407" y="-479.145" fill="#f4f7f8" transform="rotate(-120)"/><rect width="7.548" height="11.056" x="-912.407" y="-479.145" fill="none" stroke="#0e7bff" stroke-dashoffset=".35" stroke-linecap="round" stroke-linejoin="round" transform="rotate(-120)"/><path fill="#dae7fc" stroke="#0e7bff" stroke-dashoffset=".35" stroke-linecap="round" stroke-linejoin="round" d="m 30.6016,1025.7639 1.6032,-0.9256 c 1.5999,-0.9237 3.6346,-0.3734 4.5625,1.2337 l 1.0265,1.778 c 0.9279,1.6071 0.3871,3.6444 -1.2127,4.5681 l -1.6033,0.9256 0.2586,-0.1492 -4.5466,2.625 c -0.4199,0.2424 -0.9529,0.1 -1.1953,-0.3202 -0.2423,-0.4198 -0.1,-0.9529 0.3203,-1.1953 l 4.5466,-2.625 -0.8663,0.5002 -4.5467,2.625 c -0.4198,0.2424 -0.9529,0.1 -1.1953,-0.3203 -0.2423,-0.4198 -0.1,-0.9529 0.3203,-1.1953 l 4.5467,-2.625 -0.4327,0.2498 -4.5467,2.625 c -0.4198,0.2424 -0.9528,0.1 -1.1952,-0.3202 -0.2424,-0.4198 -0.1,-0.9529 0.3202,-1.1953 l 4.5467,-2.625 0.4327,-0.2498 -4.5467,2.625 c -0.4198,0.2424 -0.9529,0.099 -1.1953,-0.3203 -0.2423,-0.4198 -0.1,-0.9528 0.3203,-1.1952 l 4.5467,-2.625"/><circle cx="-910.984" cy="-477.752" r=".5" fill="#0e7bff" transform="rotate(-120)"/><rect width="7.697" height="10.944" x="-880.747" y="-534.24" fill="#f4f7f8" transform="scale(1 -1) rotate(60)"/><rect width="7.697" height="10.944" x="-880.747" y="-534.24" fill="none" stroke="#0e7bff" stroke-dashoffset=".35" stroke-linecap="round" stroke-linejoin="round" transform="scale(1 -1) rotate(60)"/><circle cx="-879.237" cy="-532.739" r=".5" fill="#0e7bff" transform="scale(1 -1) rotate(60)"/><path fill="#999" stroke="#496078" stroke-dashoffset=".35" stroke-linecap="round" stroke-linejoin="round" stroke-width=".5" d="m 31.9375,1027.0168 -1.8947,1.0939 c -0.7626,0.4403 -1.7661,0.1194 -2.2504,-0.7194 l 1.6227,-0.9398 2.4125,-1.3929"/><path fill="none" stroke="#496078" stroke-dashoffset=".35" stroke-linecap="round" stroke-linejoin="round" stroke-width=".5" d="m 33.493,1027.2687 c -0.2781,-0.4816 -0.9081,-0.6348 -1.4129,-0.3434 l -1.9285,1.1134"/><path fill="#dae7fc" stroke="#0e7bff" stroke-dashoffset=".35" stroke-linecap="round" stroke-linejoin="round" d="m 34.216,1026.4636 -1.4986,-0.9163 -1.3046,-0.709 c -1.6231,-0.8821 -3.6345,-0.3734 -4.5624,1.2337 l -1.0265,1.778 c -0.9279,1.6071 -0.3871,3.6444 1.2127,4.5681 l 1.6033,0.9256 -0.2587,-0.1492 4.5467,2.625 c 0.4198,0.2424 0.9529,0.1 1.1953,-0.3202 0.2423,-0.4198 0.1,-0.9529 -0.3203,-1.1953 l -4.5467,-2.625 0.8664,0.5002 4.5467,2.625 c 0.4198,0.2424 0.9528,0.1 1.1952,-0.3203 0.2424,-0.4198 0.1,-0.9529 -0.3202,-1.1953 l -4.5467,-2.625 0.4327,0.2498 4.5466,2.625 c 0.4199,0.2424 0.9529,0.1 1.1953,-0.3202 0.2424,-0.4198 0.1,-0.9529 -0.3203,-1.1953 l -4.5466,-2.625 -0.4327,-0.2498 4.5467,2.625 c 0.4198,0.2424 0.9528,0.099 1.1952,-0.3203 0.2424,-0.4198 0.1,-0.9528 -0.3202,-1.1952 l -4.1405,-2.3905"/><path fill="none" stroke="#0e7bff" stroke-dashoffset=".35" stroke-linecap="round" stroke-linejoin="round" d="m 34.216,1026.4636 -1.4986,-0.9163 -1.3046,-0.709 c -1.6231,-0.8821 -3.6345,-0.3734 -4.5624,1.2337 l -1.0265,1.778 c -0.9279,1.6071 -0.3871,3.6444 1.2127,4.5681 l 1.6033,0.9256 -0.2587,-0.1492 4.5467,2.625 c 0.4198,0.2424 0.9529,0.1 1.1953,-0.3202 0.2423,-0.4198 0.1,-0.9529 -0.3203,-1.1953 l -4.5467,-2.625 0.8664,0.5002 4.5467,2.625 c 0.4198,0.2424 0.9528,0.1 1.1952,-0.3203 0.2424,-0.4198 0.1,-0.9529 -0.3202,-1.1953 l -4.5467,-2.625 0.4327,0.2498 4.5466,2.625 c 0.4199,0.2424 0.9529,0.1 1.1953,-0.3202 0.2424,-0.4198 0.1,-0.9529 -0.3203,-1.1953 l -4.5466,-2.625 -0.4327,-0.2498 4.5467,2.625 c 0.4198,0.2424 0.9528,0.099 1.1952,-0.3203 0.2424,-0.4198 0.1,-0.9528 -0.3202,-1.1952 l -4.1405,-2.3905"/><path fill="#dae7fc" d="m 37.7938,1027.85 -1.0265,-1.778 c -0.9279,-1.6071 -2.9626,-2.1574 -4.5625,-1.2337 l -0.3772,0.2198 -2.4125,1.3929 -1.6227,0.9398 c 0.4843,0.8388 1.4878,1.1597 2.2504,0.7194 l 1.8947,-1.0939 0.1426,-0.091 c 0.5048,-0.2914 1.1348,-0.1382 1.4129,0.3434 l 0.01,0.019 c 0.0655,0.1134 0.1054,0.2346 0.12164,0.3574"/><path fill="none" stroke="#0e7bff" stroke-dashoffset=".35" stroke-linecap="round" stroke-linejoin="round" d="m 37.7938,1027.85 -1.0265,-1.778 c -0.9279,-1.6071 -2.9626,-2.1574 -4.5625,-1.2337 l -0.3772,0.2198 -2.4125,1.3929 -1.6227,0.9398 c 0.4843,0.8388 1.4878,1.1597 2.2504,0.7194 l 1.8947,-1.0939 0.1426,-0.091 c 0.5048,-0.2914 1.1348,-0.1382 1.4129,0.3434 l 0.01,0.019 c 0.0655,0.1134 0.1054,0.2346 0.12164,0.3574"/><rect width="8.962" height="11.265" x="-882.012" y="-532.166" fill="#6ca6fd" transform="scale(1 -1) rotate(60)"/><rect width="8.962" height="11.265" x="-882.012" y="-532.166" fill="none" stroke="#0e7bff" stroke-dashoffset=".35" stroke-linecap="round" stroke-linejoin="round" transform="scale(1 -1) rotate(60)"/><rect width="8.779" height="11.225" x="-913.637" y="-477.036" fill="#6ca6fd" transform="rotate(-120)"/><rect width="8.779" height="11.225" x="-913.637" y="-477.036" fill="none" stroke="#0e7bff" stroke-dashoffset=".35" stroke-linecap="round" stroke-linejoin="round" transform="rotate(-120)"/></g></svg>