<svg xmlns="http://www.w3.org/2000/svg" width="96" height="96" xmlns:v="https://vecta.io/nano"><defs><linearGradient id="A" x1="12.075" x2="87.205" y1="957.123" y2="1049.944" gradientUnits="userSpaceOnUse"><stop offset="0" stop-color="#24f3d2"/><stop offset="1" stop-color="#fff"/></linearGradient></defs><g transform="translate(0 -956.362)"><rect width="96" height="96" y="956.362" fill="url(#A)" rx="20.288"/><path fill-rule="evenodd" d="M19 979.362v47h-2v1h2v2h1v-2h45v1.5a.5.5 0 0 0 .5.5h9a.5.5 0 0 0 .5-.5v-3a1.51 1.51 0 0 0-1.5-1.5H73v-1a1.01 1.01 0 0 0-1-1h-.5v-3.08a5.385 5.385 0 0 0 4.34-4.025 3.988 3.988 0 0 0 3.16-3.895v-.66a.5.5 0 0 0 0-.033v-2.806a.5.5 0 0 0-.5-.5H76v-1.5a.5.5 0 0 0-.5-.5h-11a.5.5 0 0 0-.5.5v1.5h-2.5a.5.5 0 0 0-.5.5v2.591a.5.5 0 0 0 .006.09.5.5 0 0 0-.006.09v.729c0 1.104.447 2.11 1.17 2.832a3.978 3.978 0 0 0 1.992 1.07 5.385 5.385 0 0 0 4.338 4.018v3.08H68a1.01 1.01 0 0 0-1 1v1h-.5a1.51 1.51 0 0 0-1.5 1.5v.5H20v-47h-1zm3 3v1h1v-1h-1zm2 0v1h3v-1h-3zm4 0v1h11v-1H28zm-6 2v1h1v-1h-1zm2 0v1h3v-1h-3zm4 0v1h11v-1H28zm28.5 4v1h2.312l-10.978 11.287-1.994-1.994-8 8-2.987-2.984-13.353 12.324.678.736 12.648-11.675 3.014 3.013 8-8 2.004 2.006L59.5 990.09v2.273h1v-4h-4zm0 7v29h1v-29h-1zm9.5 2a1.51 1.51 0 0 0-1.5 1.5 1.51 1.51 0 0 0 1.5 1.5 1.51 1.51 0 0 0 1.5-1.5 1.51 1.51 0 0 0-1.5-1.5zm-12.5 1v26h1v-26h-1zm12.5 0a.49.49 0 1 1 0 1 .493.493 0 0 1-.5-.5.49.49 0 0 1 .5-.5zm9.064 1.313a.5.5 0 0 0-.41.756l.531.918a.5.5 0 1 0 .866-.5l-.53-.918a.5.5 0 0 0-.457-.256zm2.903.779a.5.5 0 0 0-.223.068l-.92.53a.5.5 0 1 0 .5.867l.92-.532a.5.5 0 0 0-.277-.935zm-27.467.908v23h1v-23h-1zm10.576.576a.5.5 0 0 0-.35.86l.354.353-.354.354a.5.5 0 1 0 .707.707l.354-.354.353.354a.5.5 0 1 0 .708-.707l-.354-.354.354-.353a.5.5 0 1 0-.708-.707l-.353.353-.354-.353a.5.5 0 0 0-.357-.153zm14.176.104a.5.5 0 0 0-.272.068l-.918.531a.5.5 0 1 0 .5.865l.918-.53a.5.5 0 0 0-.228-.937zm1.412.39a.5.5 0 0 0-.41.756l.531.918a.5.5 0 1 0 .865-.5l-.531-.918a.5.5 0 0 0-.455-.255zm-32.164.93v21h1v-21h-1zm3 1v20h1v-20h-1zm-6 2v18h1v-18h-1zm23.5 0h10v7.612a4.368 4.368 0 0 1-4.389 4.388H69.39a4.368 4.368 0 0 1-4.39-4.388v-7.612zm-32.5 2v16h1v-16h-1zm3 0v16h1v-16h-1zm26.5 0h2v5.612c0 .075.009.148.012.222a2.987 2.987 0 0 1-2.012-2.834v-.728a.5.5 0 0 0-.006-.092.5.5 0 0 0 .006-.088v-2.092zm14 0h2v2.235a.5.5 0 0 0 0 .037v.728a2.98 2.98 0 0 1-2.012 2.828l.012-.217v-5.612zm-37.5 1v15h1v-15h-1zm31.496.238a.5.5 0 0 0-.455.28l-.649 1.332-1.466.222a.5.5 0 0 0-.274.854l1.069 1.027-.245 1.465a.5.5 0 0 0 .729.524l1.309-.696 1.316.684a.5.5 0 0 0 .72-.533l-.257-1.461 1.058-1.037a.5.5 0 0 0-.283-.852l-1.467-.207-.664-1.326a.5.5 0 0 0-.441-.272zm-.002 1.63l.33.654a.5.5 0 0 0 .377.273l.727.102-.524.513a.5.5 0 0 0-.14.442l.126.724-.65-.338a.5.5 0 0 0-.467 0l-.646.342.12-.72a.5.5 0 0 0-.144-.444l-.527-.508.725-.109a.5.5 0 0 0 .377-.275l.316-.657zm-40.494.132v13h1v-13h-1zm-3 3v10h1v-10h-1zm-3 3v7h1v-7h-1zm38.74 1.274a.5.5 0 0 0-.41.756l.492.855a.5.5 0 1 0 .867-.5l-.494-.855a.5.5 0 0 0-.455-.256zm2.775.724a.5.5 0 0 0-.271.068l-.867.502a.5.5 0 1 0 .5.865l.867-.5a.5.5 0 0 0-.229-.937zm4.485 0h1v3h-1v-3zm5.5 0a.5.5 0 1 0 0 1 .5.5 0 1 0 0-1zm-12.594 1.498a.5.5 0 0 0-.271.068l-.856.494a.5.5 0 1 0 .5.866l.856-.493a.5.5 0 0 0-.229-.937zm1.338.371a.5.5 0 0 0-.41.756l.494.854a.5.5 0 1 0 .865-.5l-.492-.854a.5.5 0 0 0-.457-.256zm12.832 1.707a.5.5 0 0 0-.35.86l.354.353-.354.354a.5.5 0 1 0 .707.707l.354-.354.353.354a.5.5 0 1 0 .707-.707l-.353-.354.353-.353a.5.5 0 1 0-.707-.707l-.353.353-.354-.353a.5.5 0 0 0-.357-.153zm-8.576.424h4v1h-4v-1zm-7.5 1a.5.5 0 1 0 0 1 .5.5 0 1 0 0-1zm6 1h7a.49.49 0 0 1 .5.5v2.5h-8v-2.5a.49.49 0 0 1 .5-.5zm1.5 1v1h4v-1h-4z"/></g></svg>