<svg xmlns="http://www.w3.org/2000/svg" xmlns:xlink="http://www.w3.org/1999/xlink" width="96" height="96" viewBox="0 0 96 96"><defs><linearGradient id="b" x1="992.183" x2="1019.298" y1="516.081" y2="545.959" gradientTransform="matrix(3.0757 0 0 3.0757 -3045.41 -629.677)" gradientUnits="userSpaceOnUse" xlink:href="#a"/><linearGradient id="a"><stop offset="0" stop-color="#ff1679"/><stop offset="1" stop-color="#ff770b"/></linearGradient></defs><g transform="translate(0 -956.362)"><rect width="96" height="96" y="956.362" fill="url(#b)" rx="20.288" ry="20.288"/><path fill="#fff" style="line-height:normal;text-indent:0;text-align:start;text-decoration-line:none;text-decoration-style:solid;text-decoration-color:#000;text-transform:none;block-progression:tb;isolation:auto;mix-blend-mode:normal" d="m 28.045752,982.85614 a 0.50005,0.50005 0 0 0 -0.49414,0.5059 l 0,0.9941 a 0.50005,0.50005 0 1 0 1,0 l 0,-0.9941 a 0.50005,0.50005 0 0 0 -0.50586,-0.5059 z m -2.503906,0.9961 a 0.50005,0.50005 0 0 0 -0.347656,0.8594 l 1,1 a 0.50005,0.50005 0 1 0 0.707031,-0.7071 l -1,-1 a 0.50005,0.50005 0 0 0 -0.359375,-0.1523 z m -1.041016,2.5098 a 0.50064427,0.50064427 0 1 0 0.05078,1 l 0.994141,0 a 0.50005,0.50005 0 1 0 0,-1 l -0.994141,0 a 0.50005,0.50005 0 0 0 -0.05078,0 z m 4.603516,0 c -1.398107,0 -2.552735,1.1168 -2.552735,2.5 l 0,23.49806 -7.984375,0 a 0.50005,0.50005 0 0 0 -0.04102,0 0.50005,0.50005 0 0 0 -0.05078,0 0.50064427,0.50064427 0 1 0 0.05078,1 c 0.568662,0 1.004329,0.4294 1.025391,0.9844 l 0,0.9805 0.0078,0 0,1 -0.0078,0 0,1 0.0078,0 0,0.01 c 0,0.575 -0.450461,1.0254 -1.033203,1.0254 a 0.50005,0.50005 0 1 0 0,1 c 0.0047,0 0.009,0 0.01367,0 a 0.50005,0.50005 0 0 0 0.02734,0 l 2.314453,0 a 0.50004994,0.50004994 0 0 0 0.185547,0.033 l 13.464843,0 c 0.565599,0 0.997924,0.4221 1.025391,0.9649 l -14.005859,0 0,1 14.015624,0 0,1 -14.015624,0 0,1 14.011718,0 c -0.0088,0.5606 -0.452812,1 -1.03125,1 l -13.464843,0 a 0.50004994,0.50004994 0 1 0 0,1 l 13.464843,0 c 1.11498,0 2.035157,-0.9042 2.035156,-2.0157 l 0,-2.9336 c 0,-1.1114 -0.920137,-2.0156 -2.035156,-2.0156 l -0.27539,0 c 0.188458,-0.3018 0.303362,-0.6528 0.308593,-1.0312 l 9.001953,0 0,5 -2.501953,0 c -0.822351,0 -1.5,0.6777 -1.5,1.5 l 0,1.5 1.5,0 13,0 1.5,0 0,-1.5 c 0,-0.8223 -0.677648,-1.5 -1.5,-1.5 l -2.498047,0 0,-5 13.984376,0 0,0.5449 0,2.4512 0,3 c 0,1.0994 0.900641,2 2,2 l 6,0 c 1.098031,0 1.997829,-0.8985 2,-1.9961 l 1,0 c 1.099398,0 1.999999,-0.9007 2,-2 l 0,-3.0039 c 0,-1.0993 -0.900602,-2 -2,-2 l -1,0 0,-1.5 a 0.50005,0.50005 0 0 0 -0.5,-0.5 l -1,0 -5.470704,0 0,-5 0.486328,0 c 0.676161,0.01 0.67616,-1.0097 0,-1 l -0.486328,0 0,-19.49616 c 0,-1.3832 -1.152674,-2.5 -2.550781,-2.5 l -36.925781,0 z m 0,1 36.925781,0 c 0.874854,0 1.550781,0.6673 1.550781,1.5 l 0,19.86916 c -0.01979,0.084 -0.01979,0.1701 0,0.2539 l 0,3.377 -34.710937,0 0,0.031 c -0.110464,-0.019 -0.222396,-0.033 -0.337891,-0.033 l -4.980468,0 0,-23.49806 c 0,-0.8327 0.67788,-1.5 1.552734,-1.5 z m 0.447266,1.9961 0,0.5 0,20.50786 36,0 0,-21.00786 -36,0 z m 1,1 34,0 0,19.00786 -34,0 0,-19.00786 z m -6.492188,6.5078 c -0.822505,0 -1.5,0.6775 -1.5,1.5 0,0.8225 0.677495,1.50002 1.5,1.50002 0.822505,0 1.5,-0.67752 1.5,-1.50002 0,-0.8225 -0.677495,-1.5 -1.5,-1.5 z m 0,1 c 0.282065,0 0.5,0.218 0.5,0.5 0,0.2821 -0.217935,0.5 -0.5,0.5 -0.282065,0 -0.5,-0.2179 -0.5,-0.5 0,-0.282 0.217935,-0.5 0.5,-0.5 z m 52.576172,0.5761 a 0.50005,0.50005 0 0 0 -0.34961,0.8594 l 0.353516,0.3535 -0.353516,0.35356 a 0.50005,0.50005 0 1 0 0.707032,0.7071 l 0.353515,-0.3535 0.353516,0.3535 a 0.50005,0.50005 0 1 0 0.707031,-0.7071 l -0.353515,-0.35356 0.353515,-0.3535 a 0.50005,0.50005 0 0 0 -0.363281,-0.8594 0.50005,0.50005 0 0 0 -0.34375,0.1524 l -0.353516,0.3535 -0.353515,-0.3535 a 0.50005,0.50005 0 0 0 -0.357422,-0.1524 z m -5.591797,3.41806 a 0.50005,0.50005 0 0 0 -0.492187,0.5059 l 0,0.5 -0.5,0 a 0.50005,0.50005 0 1 0 0,1 l 0.5,0 0,0.5 a 0.50005,0.50005 0 1 0 1,0 l 0,-0.5 0.5,0 a 0.50005,0.50005 0 1 0 0,-1 l -0.5,0 0,-0.5 a 0.50005,0.50005 0 0 0 -0.507813,-0.5059 z m -51,0.9922 a 0.50005,0.50005 0 0 0 -0.492188,0.5078 l 0,0.5 -0.5,0 a 0.50005,0.50005 0 1 0 0,1 l 0.5,0 0,0.5 a 0.50005,0.50005 0 1 0 1,0 l 0,-0.5 0.5,0 a 0.50005,0.50005 0 1 0 0,-1 l -0.5,0 0,-0.5 a 0.50005,0.50005 0 0 0 -0.507812,-0.5078 z m 56.007813,2.5098 a 0.49999991,0.5 0 0 0 -0.5,0.5 0.49999991,0.5 0 0 0 0.5,0.5 0.49999991,0.5 0 0 0 0.5,-0.5 0.49999991,0.5 0 0 0 -0.5,-0.5 z m -52.416016,2.08 a 0.50005,0.50005 0 0 0 -0.34961,0.8594 l 0.353516,0.3535 -0.353516,0.3535 a 0.50005,0.50005 0 1 0 0.707032,0.7071 l 0.353515,-0.3535 0.353516,0.3535 a 0.50005,0.50005 0 1 0 0.707031,-0.7071 l -0.353515,-0.3535 0.353515,-0.3535 a 0.50005,0.50005 0 0 0 -0.363281,-0.8594 0.50005,0.50005 0 0 0 -0.34375,0.1524 l -0.353516,0.3535 -0.353515,-0.3535 a 0.50005,0.50005 0 0 0 -0.357422,-0.1524 z m 47.43164,0.92 a 0.50004997,0.50004997 0 1 0 0,1 l 0.50586,0 a 0.50030889,0.50030889 0 0 1 -0.01367,1 l -1.5,0 c -0.67615,-0.01 -0.67615,1.0096 0,1 l 2.027344,0 a 0.50030889,0.50030889 0 0 1 -0.01367,1 l -1.013672,0 c -0.67616,-0.01 -0.67616,1.0096 0,1 l 2.992188,0 c 0.676149,0.01 0.67615,-1.0096 0,-1 l -0.03516,0 a 0.50030966,0.50030966 0 0 1 0.01563,-1 l 3.019532,0 c 0.67616,0.01 0.67616,-1.0096 0,-1 l -0.542969,0 a 0.50030966,0.50030966 0 0 1 0.01563,-1 l 1.527344,0 a 0.50004997,0.50004997 0 1 0 0,-1 l -1.984376,0 -5,0 z m 2.451172,1 1.060547,0 a 0.50030889,0.50030889 0 0 1 -0.01367,1 l -1.0625,0 a 0.50030966,0.50030966 0 0 1 0.01563,-1 z m 2.533204,3 c -0.67615,-0.01 -0.676151,1.0096 0,1 0.676149,0.01 0.67615,-1.0097 0,-1 z m -55.783204,1.0019 7.25,0 c 0.561622,0 0.990417,0.4199 1.021485,0.9649 l -7.986328,0 c -0.01039,-0.3522 -0.114935,-0.6796 -0.285157,-0.9649 z m 8.992188,0 3.271484,0 c 0.58273,0 1.035156,0.4484 1.035156,1.0234 l 0,2.9512 c 0,0.575 -0.452426,1.0254 -1.035156,1.0254 l -3.271484,0 c 0.180528,-0.3021 0.291016,-0.65 0.291016,-1.0254 l 0,-2.9512 c 0,-0.3745 -0.111193,-0.722 -0.291016,-1.0234 z m 5.017578,0 33.302734,0 0,0.9961 -0.529296,0 -1,0 a 0.50005,0.50005 0 0 0 -0.5,0.5 l 0,1.5039 -30.984376,0 0,-1.9786 c 0,-0.3736 -0.109781,-0.7206 -0.289062,-1.0214 z m -13.71875,1.9649 7.992188,0 0,1 -7.992188,0 0,-1 z m 45.992188,0.033 0.5,0 7,0 0.5,0 0,2.5488 0,2.4512 0,3 c 0,0.5627 -0.43734,1 -1,1 l -6,0 c -0.562663,0 -1,-0.4373 -1,-1 l 0,-3 0,-2.4512 0,-2.5488 z m -45.992188,1.967 7.992188,0 0,0.01 c 0,0.575 -0.450461,1.0254 -1.033204,1.0254 l -7.25,0 c 0.180529,-0.3024 0.291016,-0.6503 0.291016,-1.0257 l 0,-0.01 z m 54.992188,0.033 1,0 c 0.562621,0 0.999999,0.4375 1,1 l 0,3.0039 c 0,0.5625 -0.437379,1 -1,1 l -1,0 0,-2.0039 0,-2.4512 0,-0.5488 z m -30.984376,0 6,0 0,5 -6,0 0,-5 z m -3.501953,6 13,0 c 0.285649,0 0.5,0.2144 0.5,0.5 l 0,0.5 -0.5,0 -13,0 -0.5,0 0,-0.5 c 0,-0.2856 0.214352,-0.5 0.5,-0.5 z" color="#000" font-family="sans-serif" font-weight="400" overflow="visible" white-space="normal"/></g></svg>