<svg xmlns="http://www.w3.org/2000/svg" width="64" height="64" viewBox="0 0 64 64"><g transform="translate(-583.73 -1709.873)"><path fill="#f4f7f8" d="m 594.49288,1750.2527 0,-23.8802 c 0,-1.108 0.91494,-2 2.05142,-2 l 36.92563,0 c 1.13648,0 2.05142,0.892 2.05142,2 l 0,23.8802"/><path fill="#6ca6fd" d="m 594.49288,1750.4298 0,1.9427 c 0,1.108 0.91494,2 2.05142,2 l 36.92563,0 c 1.13648,0 2.05142,-0.892 2.05142,-2 l 0,-1.9427"/><path fill="#f4f7f8" d="m 594.49288,1750.2527 0,-23.8802 c 0,-1.108 0.91494,-2 2.05142,-2 l 36.92563,0 c 1.13648,0 2.05142,0.892 2.05142,2 l 0,23.8802"/><path fill="#b2cdf8" d="m 611.50711,1760.4223 0,-6.0498 7,0 0,6.0498"/><path fill="#6ca6fd" d="m 608.50655,1760.3729 c -0.554,0 -1,0.446 -1,1 l 0,1 1,0 13,0 1,0 0,-1 c 0,-0.554 -0.446,-1 -1,-1 l -13,0 z"/><path fill="#f4f7f8" style="isolation:auto;mix-blend-mode:normal" d="m 588.50781,768.04102 0,0.0801 c 0.61589,0.19677 1.0625,0.7594 1.0625,1.43555 l 0,2.93359 c 0,0.67625 -0.44649,1.24081 -1.0625,1.4375 l 0,0.0781 13.46485,0 c 0.8496,0 1.53515,-0.67553 1.53515,-1.51563 l 0,-2.93359 c 0,-0.8401 -0.68555,-1.51562 -1.53515,-1.51562 l -13.46485,0 z" color="#000" overflow="visible" transform="translate(0 988.362)"/><path fill="#6ca6fd" d="m 611.50711,1760.4223 7,-6.0498 0,6.0498"/><path fill="none" stroke="#0e7bff" stroke-linecap="round" stroke-linejoin="round" d="m 642.65581,1754.369 1.33705,0 c 0.83101,0 1.50002,0.669 1.50002,1.5 l 0,3.0035 c 0,0.831 -0.66901,1.5 -1.50002,1.5 l -1.33705,0" color="#000" overflow="visible" style="isolation:auto;mix-blend-mode:normal"/><path fill="none" stroke="#0e7bff" d="m 635.52135,1750.3725 -35.21034,0"/><rect width="35" height="20.007" x="597.493" y="1727.369" fill="#dae7fc" rx="0" ry="0"/><path fill="#b2cdf8" d="m 632.49286,1727.369 0,20.0071 -35,0 z"/><rect width="35" height="20.007" x="597.493" y="1727.369" fill="none" stroke="#0e7bff" rx="0" ry="0"/><path fill="none" stroke="#0e7bff" d="m 611.50711,1760.4223 0,-6.0498 7,0 0,6.0498"/><path fill="none" stroke="#0e7bff" d="m 608.50655,1760.3729 c -0.554,0 -1,0.446 -1,1 l 0,1 1,0 13,0 1,0 0,-1 c 0,-0.554 -0.446,-1 -1,-1 l -13,0 z"/><path fill="#b2cdf8" style="isolation:auto;mix-blend-mode:normal" d="m 596.25711,1750.3691 3.71642,0 c 0.8496,0 1.53358,0.6801 1.53358,1.525 l 0,2.9498 c 0,0.8449 -0.68398,1.5251 -1.53358,1.5251 l -3.71642,0" color="#000" overflow="visible"/><path fill="#f4f7f8" style="isolation:auto;mix-blend-mode:normal" d="m 586.50781,762.00781 0,0.0801 c 0.61589,0.19785 1.0625,0.76334 1.0625,1.44336 l 0,2.95117 c 0,0.68002 -0.44661,1.24549 -1.0625,1.44336 l 0,0.0801 8.4336,0 c 0.8496,0 1.53515,-0.67854 1.53515,-1.52344 l 0,-2.95117 c 0,-0.8449 -0.68555,-1.52344 -1.53515,-1.52344 l -8.4336,0 z" color="#000" overflow="visible" transform="translate(0 988.362)"/><path fill="none" stroke="#0e7bff" stroke-linecap="round" stroke-linejoin="round" style="isolation:auto;mix-blend-mode:normal" d="m 588.50711,1756.4027 13.46642,0 c 0.8496,0 1.53358,0.6764 1.53358,1.5165 l 0,2.9333 c 0,0.8401 -0.68398,1.5165 -1.53358,1.5165 l -13.46642,0" color="#000" overflow="visible"/><path fill="none" stroke="#0e7bff" d="M588.99288 1758.369l14.49861 0M588.99288 1760.369l14.49861 0"/><path fill="none" stroke="#0e7bff" stroke-linecap="round" stroke-linejoin="round" d="m 586,1750.3691 13.97353,0 c 0.8496,0 1.53358,0.6801 1.53358,1.525 l 0,2.9498 c 0,0.8449 -0.68398,1.5251 -1.53358,1.5251 l -13.97353,0" color="#000" overflow="visible" style="isolation:auto;mix-blend-mode:normal"/><path fill="none" stroke="#0e7bff" d="M587.38351 1752.3354l9.1236 0M587.46163 1754.3354l9.04548 0"/><path fill="#0e7bff" fill-rule="evenodd" style="line-height:normal;text-indent:0;text-align:start;text-decoration-line:none;text-decoration-style:solid;text-decoration-color:#000;text-transform:none;block-progression:tb;isolation:auto;mix-blend-mode:normal" d="M638.50069 1749.8689c-.67616-.01-.67616 1.0096 0 1l2.99219 0c.67615.01.67615-1.0096 0-1zM637.49999 1747.8689c-.67615-.01-.67615 1.0096 0 1l6.993 0c.67616.01.67616-1.0096 0-1z" color="#000" font-family="sans-serif" font-weight="400" overflow="visible" white-space="normal"/><path fill="#0e7bff" fill-rule="evenodd" style="line-height:normal;text-indent:0;text-align:start;text-decoration-line:none;text-decoration-style:solid;text-decoration-color:#000;text-transform:none;block-progression:tb;isolation:auto;mix-blend-mode:normal" d="M639.52734 1748.8698a.50030889.50030889 0 0 1-.0137 1l1.99414 0a.50030966.50030966 0 0 1-.0352-1l-1.94531 0zM635.50711 1745.8697c-.67615-.01-.67615 1.0096 0 1l1 0c.67616.01.67616-1.0097 0-1zM638.50711 1745.8689a.50004997.50004997 0 1 0 0 1l5 0a.50004997.50004997 0 1 0 0-1l-5 0z" color="#000" font-family="sans-serif" font-weight="400" overflow="visible" white-space="normal"/><path fill="#0e7bff" fill-rule="evenodd" style="line-height:normal;text-indent:0;text-align:start;text-decoration-line:none;text-decoration-style:solid;text-decoration-color:#000;text-transform:none;block-progression:tb;isolation:auto;mix-blend-mode:normal" d="m 640.49218,1745.8689 a 0.50004997,0.50004997 0 1 0 0,1 l 5,0 a 0.50004997,0.50004997 0 1 0 0,-1 l -5,0 z" color="#000" font-family="sans-serif" font-weight="400" overflow="visible" white-space="normal"/><path fill="#0e7bff" fill-rule="evenodd" d="M639.01366 1746.8698a.50030889.50030889 0 0 1-.0137 1l1.99414 0a.50030966.50030966 0 0 1-.0352-1l-1.94531 0zM642.01952 1746.8698a.50030889.50030889 0 0 1-.0137 1l1.99414 0a.50030966.50030966 0 0 1-.0352-1l-1.94531 0zM643.49299 1749.8697c-.67615-.01-.67615 1.0096 0 1l-.00011 0c.67615.01.67615-1.0097 0-1z" color="#000" font-family="sans-serif" font-weight="400" overflow="visible" white-space="normal" style="line-height:normal;text-indent:0;text-align:start;text-decoration-line:none;text-decoration-style:solid;text-decoration-color:#000;text-transform:none;block-progression:tb;isolation:auto;mix-blend-mode:normal"/><path fill="none" stroke="#0e7bff" stroke-linecap="round" stroke-linejoin="round" d="M593.98788 1722.8638l-1-1M595.49293 1721.8618l0-.9929M592.98581 1724.3689l-.99288 0M591.08073 1746.8675l1.41421-1.4142M591.08073 1745.4533l1.41421 1.4142M587.49287 1742.8655l.00001-2M586.49288 1741.8655l1.99999 0M638.49287 1741.8726l.00001-2M637.49288 1740.8726l1.99999 0"/><ellipse style="isolation:auto;mix-blend-mode:normal" cx="643.493" cy="1743.369" fill="#0e7bff" color="#000" overflow="visible" rx=".5" ry=".5"/><path fill="none" stroke="#0e7bff" stroke-linecap="round" stroke-linejoin="round" d="M644.08073 1737.8675l1.41422-1.4142M644.08074 1736.4533l1.4142 1.4142"/><circle style="isolation:auto;mix-blend-mode:normal" cx="591.5" cy="1735.873" r="1" fill="none" stroke="#0e7bff" stroke-linecap="round" stroke-linejoin="round" color="#000" overflow="visible"/><path fill="#b2cdf8" d="m 642.49288,1757.869 0,3 c 0,0.831 -0.66901,1.5 -1.50002,1.5 l -5.99996,0 c -0.83101,0 -1.50002,-0.669 -1.50002,-1.5 l 0,-3 0,-2.4527 0,-3.0473 1,0 7,0 1,0 0,3.0473 z"/><path fill="#6ca6fd" d="m 642.49288,1757.869 0,3 c 0,0.831 -0.66901,1.5 -1.50002,1.5 l -5.99996,0 c -0.4155,0 -0.79051,-0.1672 -1.06164,-0.4384 8.56162,-9.5616 0,0 8.56162,-9.5616 l 0,3.0473 z"/><path fill="none" stroke="#0e7bff" stroke-linecap="round" stroke-linejoin="round" d="m 642.49288,1757.869 0,3 c 0,0.831 -0.66901,1.5 -1.50002,1.5 l -5.99996,0 c -0.83101,0 -1.50002,-0.669 -1.50002,-1.5 l 0,-3 0,-2.4527 0,-3.0473 1,0 7,0 1,0 0,3.0473 z"/><path fill="none" stroke="#0e7bff" stroke-linecap="round" stroke-linejoin="round" style="isolation:auto;mix-blend-mode:normal" d="M593.24288 1750.3691l1.71641 0c.84961 0 1.53359.6801 1.53359 1.525l0 2.9498c0 .8449-.68398 1.5251-1.53359 1.5251l-1.71641 0M585.96641 1750.3691c.84961 0 1.53359.6801 1.53359 1.525l0 2.9498c0 .8449-.68398 1.5251-1.53359 1.5251M587.96641 1756.3729c.84961 0 1.53359.6801 1.53359 1.525l0 2.9498c0 .845-.68398 1.5252-1.53359 1.5252" color="#000" overflow="visible"/><path fill="none" stroke="#0e7bff" d="m 633.46993,1754.3725 -32.20688,0 m -6.77017,-4.1146 0,-23.8854 c 0,-1.108 0.91494,-2 2.05142,-2 l 36.92563,0 c 1.13648,0 2.05142,0.892 2.05142,2 l 0,26"/></g></svg>