<svg xmlns="http://www.w3.org/2000/svg" width="64" height="64" viewBox="0 0 64 64"><g stroke="#0e7bff" transform="translate(-.014 -988.363)"><path fill="#dae7fc" stroke="none" style="isolation:auto;mix-blend-mode:normal" d="m 6.2735763,1028.4608 1.9318516,-0.5177 3.2352381,12.0741 -1.9318516,0.5176 z" color="#000" overflow="visible"/><rect width="2" height="2.031" x="-264.125" y="991.525" fill="#6ca6fd" stroke="none" color="#000" overflow="visible" style="isolation:auto;mix-blend-mode:normal" transform="rotate(-15)"/><rect width="6" height="5" x="-262.125" y="990.041" fill="#dae7fc" stroke="none" color="#000" overflow="visible" rx="0" style="isolation:auto;mix-blend-mode:normal" ry="0" transform="rotate(-15)"/><path fill="#f4f7f8" stroke="none" d="m 8.8431964,1022.596 9.5898966,-6.7109 3.36466,12.5572 -11.660455,-1.0167 z" color="#000" overflow="visible" style="isolation:auto;mix-blend-mode:normal"/><rect width="2" height="15" x="-245.125" y="985.041" fill="#6ca6fd" stroke="none" color="#000" overflow="visible" rx="1" style="isolation:auto;mix-blend-mode:normal" ry="1" transform="rotate(-15)"/><rect width="5" height="12" x="30.5" y="1028.862" fill="#f4f7f8" stroke="none" color="#000" overflow="visible" rx="0" style="isolation:auto;mix-blend-mode:normal" ry="0"/><rect width="5" height="19" x="38.5" y="1021.862" fill="#f4f7f8" stroke="none" color="#000" overflow="visible" rx="0" ry="0" style="isolation:auto;mix-blend-mode:normal"/><rect width="5" height="27" x="46.5" y="1013.862" fill="#f4f7f8" stroke="none" color="#000" overflow="visible" rx="0" style="isolation:auto;mix-blend-mode:normal" ry="0"/><rect width="5" height="35" x="54.5" y="1005.862" fill="#f4f7f8" stroke="none" color="#000" overflow="visible" rx="0" ry="0" style="isolation:auto;mix-blend-mode:normal"/><path fill="#dae7fc" stroke="none" d="M35.5 1028.8622l0 11.9999-5 0zM43.5 1021.8622l0 18.9999-5 0zM51.5 1013.8622l0 26.9999-5 0zM59.5 1005.8622l0 35-5 0z" color="#000" overflow="visible" style="isolation:auto;mix-blend-mode:normal"/><rect width="5" height="12" x="30.5" y="1028.862" fill="none" stroke-linecap="round" style="isolation:auto;mix-blend-mode:normal" stroke-linejoin="round" color="#000" overflow="visible" rx="0" ry="0"/><path fill="none" stroke-linecap="round" stroke-linejoin="round" style="isolation:auto;mix-blend-mode:normal" d="m 17.012798,1028.2443 c 0.04829,0.1 0.359958,0.944 0.389117,1.0334 0.283913,0.8699 -0.292409,1.2546 -0.823607,1.1612 l -2.556229,-0.3191 c -0.509856,-0.064 -1.022912,-0.5051 -1.150348,-0.9896 l -0.369955,-1.4062" color="#000" overflow="visible"/><path fill="#6ca6fd" stroke="none" d="m -256.12299,993.04995 -0.002,1.99058 -6,0 0.14467,-1.74452 z" color="#000" overflow="visible" style="isolation:auto;mix-blend-mode:normal" transform="rotate(-15)"/><rect width="6" height="5" x="-262.125" y="990.041" fill="none" stroke-linecap="round" style="isolation:auto;mix-blend-mode:normal" stroke-linejoin="round" color="#000" overflow="visible" rx="0" ry="0" transform="rotate(-15)"/><path fill="#dae7fc" stroke="none" style="isolation:auto;mix-blend-mode:normal" d="m 19.69484,1020.594 0.420583,1.5697 0.841165,3.1393 0.841165,3.1393 -11.660455,-1.0167 z" color="#000" overflow="visible"/><path fill="none" stroke-linecap="round" stroke-linejoin="round" style="isolation:auto;mix-blend-mode:normal" d="m 8.8431964,1022.596 9.5898966,-6.7109 3.36466,12.5572 -11.660455,-1.0167 z" color="#000" overflow="visible"/><rect width="2" height="15" x="-245.125" y="985.041" fill="none" stroke-linecap="round" style="isolation:auto;mix-blend-mode:normal" stroke-linejoin="round" color="#000" overflow="visible" rx="1" ry="1" transform="rotate(-15)"/><path fill="#6ca6fd" stroke="none" d="m 9.8230469,1033.9801 1.6176191,6.0371 -0.965926,0.2588 -0.9659256,0.2588 -1.6176191,-6.037 z" color="#000" overflow="visible" style="isolation:auto;mix-blend-mode:normal"/><path fill="none" stroke-linecap="round" stroke-linejoin="round" d="m 6.2735763,1028.4608 1.9318516,-0.5177 3.2352381,12.0741 -1.9318516,0.5176 z" color="#000" overflow="visible" style="isolation:auto;mix-blend-mode:normal"/><rect width="2" height="2.031" x="-264.125" y="991.525" fill="none" stroke-linecap="round" stroke-linejoin="round" style="isolation:auto;mix-blend-mode:normal" color="#000" overflow="visible" transform="rotate(-15)"/><path fill="none" stroke-linecap="round" stroke-linejoin="round" d="M24.954745 1020.8782l3.609363-.9671M25.350963 1022.8381l3.416566 1.1597M24.316837 1018.9787L26.697 1016.2705"/><rect width="5" height="19" x="38.5" y="1021.862" fill="none" stroke-linecap="round" stroke-linejoin="round" color="#000" overflow="visible" rx="0" ry="0" style="isolation:auto;mix-blend-mode:normal"/><rect width="5" height="27" x="46.5" y="1013.862" fill="none" stroke-linecap="round" style="isolation:auto;mix-blend-mode:normal" stroke-linejoin="round" color="#000" overflow="visible" rx="0" ry="0"/><rect width="5" height="35" x="54.5" y="1005.862" fill="none" stroke-linecap="round" stroke-linejoin="round" color="#000" overflow="visible" rx="0" ry="0" style="isolation:auto;mix-blend-mode:normal"/><path fill="none" stroke-linecap="round" stroke-linejoin="round" d="M17.507121 1040.8371l44.000001 0M30 1025.8371l4.5 0 0-7 8 0 0-8 8 0 0-9 8.6 0"/><path fill="none" stroke-linecap="round" stroke-linejoin="round" d="m 57.530414,999.86905 1.969606,1.99405 -1.969606,1.9941"/><path fill="none" stroke-linecap="round" stroke-linejoin="round" d="m 10.651644,1023.6972 0.796474,-0.5574 m 1.328936,-0.9299 0.658526,-0.4609 m 1.364495,-0.9549 4.189814,-2.9319" color="#000" overflow="visible" style="isolation:auto;mix-blend-mode:normal"/></g></svg>