<svg xmlns="http://www.w3.org/2000/svg" xmlns:xlink="http://www.w3.org/1999/xlink" width="96" height="96" viewBox="0 0 96 96"><defs><linearGradient id="b" x1="1056.035" x2="1031.176" y1="544.13" y2="517.701" gradientTransform="matrix(3.0757 0 0 3.0757 -3163.474 -629.677)" gradientUnits="userSpaceOnUse" xlink:href="#a"/><linearGradient id="a"><stop offset="0" stop-color="#5a5a5a"/><stop offset="1" stop-color="#656e85"/></linearGradient></defs><g transform="translate(0 -956.362)"><rect width="96" height="96" y="956.362" fill="url(#b)" rx="20.288" ry="20.288"/><path fill="#fff" style="line-height:normal;text-indent:0;text-align:start;text-decoration-line:none;text-decoration-style:solid;text-decoration-color:#000;text-transform:none;block-progression:tb;isolation:auto;mix-blend-mode:normal" d="m 73.035847,983.38955 a 0.50005,0.50005 0 0 0 -0.353515,0.8574 l 1.101562,1.1152 -7.775391,0 a 0.50005,0.50005 0 0 0 -0.5,0.5 l 0,8.5 -7.5,0 a 0.50005,0.50005 0 0 0 -0.5,0.5 l 0,7.49995 -7.5,0 a 0.50005,0.50005 0 0 0 -0.5,0.5 l 0,6.5 -4,0 a 0.50005,0.50005 0 1 0 0,1 l 4.5,0 a 0.50005,0.50005 0 0 0 0.5,-0.5 l 0,-6.5 7.5,0 a 0.50005,0.50005 0 0 0 0.5,-0.5 l 0,-7.49995 7.5,0 a 0.50005,0.50005 0 0 0 0.5,-0.5 l 0,-8.5 7.330079,0 -1.15625,1.1699 a 0.50005,0.50005 0 1 0 0.710937,0.7032 l 1.970703,-1.9942 a 0.50005,0.50005 0 0 0 0,-0.7031 l -1.970703,-1.9941 a 0.50005,0.50005 0 0 0 -0.357422,-0.1543 z m -3.548828,5.9726 a 0.50005,0.50005 0 0 0 -0.5,0.5 l 0,34.49995 -2,0 0,-26.49995 a 0.50005,0.50005 0 0 0 -0.5,-0.5 l -5,0 a 0.50005,0.50005 0 0 0 -0.5,0.5 l 0,26.49995 -2,0 0,-18.5 a 0.50005,0.50005 0 0 0 -0.5,-0.5 l -5,0 a 0.50005,0.50005 0 0 0 -0.5,0.5 l 0,18.5 -2,0 0,-11.5 a 0.50005,0.50005 0 0 0 -0.5,-0.5 l -5,0 a 0.50005,0.50005 0 0 0 -0.5,0.5 l 0,11.5 -12.49414,0 a 0.50005,0.50005 0 1 0 0,1 l 44,0 a 0.50005,0.50005 0 1 0 0,-1 l -1.50586,0 0,-34.49995 a 0.50005,0.50005 0 0 0 -0.5,-0.5 l -5,0 z m 0.5,1 4,0 0,33.99995 -4,0 0,-33.99995 z m -35.691406,7.7676 c -0.09913,0.01 -0.199537,0.02 -0.298828,0.047 -0.67122,0.1798 -1.113666,0.8014 -1.107422,1.4687 l -9.271484,6.48825 -5.714844,1.5312 a 0.50005,0.50005 0 0 0 -0.353516,0.6133 l 0.253907,0.9492 -1.447266,0.3887 a 0.50004994,0.50004994 0 0 0 -0.353516,0.6133 l 0.525391,1.9609 a 0.50004994,0.50004994 0 0 0 0.613281,0.3536 l 1.447266,-0.3887 0.255859,0.9512 a 0.50005,0.50005 0 0 0 0.613282,0.3554 l 1.449218,-0.3887 3.105469,11.5899 a 0.50005,0.50005 0 0 0 0.611328,0.3535 l 1.933594,-0.5176 a 0.50005,0.50005 0 0 0 0.353515,-0.6113 l -3.107421,-11.5918 1.357421,-0.3633 1.908203,0.166 0.304688,1.1602 c 0.192424,0.7316 0.821841,1.2632 1.572265,1.3574 l 2.53125,0.3164 c 0.411288,0.072 0.8666,-0.035 1.175782,-0.3769 0.309182,-0.3414 0.3906,-0.8812 0.210937,-1.4317 -0.03359,-0.1029 -0.106887,-0.2963 -0.195312,-0.5332 -5.39e-4,0 -0.0014,0 -0.002,0 l 3.779296,0.3281 c 0.328384,0.5807 1.020411,0.8966 1.691407,0.7168 0.794348,-0.2129 1.273395,-1.0435 1.060547,-1.8378 l -3.365235,-12.55665 c -0.186234,-0.695 -0.843203,-1.1475 -1.537109,-1.1074 z m 27.691406,0.2324 4,0 0,25.99995 -4,0 0,-25.99995 z m -27.529297,0.7656 c 0.193703,0.024 0.354708,0.1626 0.410157,0.3692 l 3.365234,12.55655 c 0.07393,0.2759 -0.07761,0.5373 -0.353516,0.6113 -0.275301,0.074 -0.538695,-0.077 -0.613281,-0.3515 l 0,0 -0.638672,-2.3828 -2.150391,-8.0254 a 0.50004997,0.50004997 0 0 0 -0.08594,-0.3242 l -0.488281,-1.82225 a 0.50004997,0.50004997 0 0 0 -0.002,-0.01 c -0.07015,-0.2737 0.0796,-0.5321 0.353515,-0.6054 0.06898,-0.019 0.138558,-0.024 0.203125,-0.016 z m 7.232422,0.6387 a 0.50005,0.50005 0 0 0 -0.382812,0.1738 l -2.378907,2.70895 a 0.50005,0.50005 0 1 0 0.75,0.6602 l 2.38086,-2.709 a 0.50005,0.50005 0 0 0 -0.369141,-0.83395 z m -8.568359,0.93745 0.257812,0.9668 -3.878906,2.7148 a 0.50004997,0.50004997 0 1 0 0.572266,0.8184 l 3.582031,-2.5059 2.458984,9.1836 -10.597656,-0.9238 -1.113281,-4.1523 8.71875,-6.1016 z m 10.43164,2.7051 0,0 a 0.50005,0.50005 0 0 0 -0.132812,0.016 l -3.609375,0.9668 a 0.50054473,0.50054473 0 0 0 0.259765,0.9668 l 3.609376,-0.9668 a 0.50005,0.50005 0 0 0 -0.126954,-0.9844 z m -15.152343,1.8379 a 0.50004997,0.50004997 0 0 0 -0.265625,0.094 l -0.658204,0.461 a 0.50004997,0.50004997 0 1 0 0.572266,0.8183 l 0.660156,-0.4609 a 0.50004997,0.50004997 0 0 0 -0.308593,-0.9121 z m 11.90039,1.0898 a 0.50004997,0.50004997 0 0 0 -0.125,0.9766 l 3.416016,1.1582 a 0.50030791,0.50030791 0 1 0 0.322265,-0.9473 l -3.416015,-1.1582 a 0.50004997,0.50004997 0 0 0 -0.197266,-0.029 z m 13.685547,0.025 4,0 0,18 -4,0 0,-18 z m -27.574219,0.2754 a 0.50004997,0.50004997 0 0 0 -0.265625,0.094 l -0.794922,0.5566 a 0.50010044,0.50010044 0 0 0 0.572266,0.8203 l 0.796875,-0.5586 a 0.50004997,0.50004997 0 0 0 -0.308594,-0.9121 z m -2.937499,0.5703 1.035156,3.8633 -1.447266,0.3887 -1.93164,0.5175 -1.451172,0.3887 -0.246094,-0.918 a 0.50004994,0.50004994 0 0 0 -0.002,-0.01 l -0.0059,-0.025 -0.52539,-1.9628 a 0.50004994,0.50004994 0 0 0 -0.0059,-0.018 l -0.25,-0.9336 4.830078,-1.293 z m -5.41211,2.9863 0.267578,0.9961 -0.966796,0.2598 -0.265625,-0.9961 0.964843,-0.2598 z m 10.064453,1.9961 3.433594,0.2989 c 0.002,0.01 0.01978,0.051 0.04883,0.1269 0.0354,0.092 0.07966,0.2079 0.123047,0.3242 0.08677,0.2324 0.18412,0.5078 0.179687,0.4942 0.10425,0.3194 0.0389,0.406 -0.002,0.4511 -0.0408,0.045 -0.139855,0.082 -0.259765,0.061 a 0.50005,0.50005 0 0 0 -0.02344,0 l -2.556641,-0.3203 c -0.269285,-0.034 -0.666067,-0.3818 -0.728515,-0.6192 l -0.214844,-0.8164 z m -5.289062,0.3653 2.976562,11.1093 -0.966797,0.2579 -2.976562,-11.1075 0.966797,-0.2597 z m 23.148437,0.8066 4,0 0,11 -4,0 0,-11 z" color="#000" font-family="sans-serif" font-weight="400" overflow="visible" white-space="normal"/></g></svg>