<svg xmlns="http://www.w3.org/2000/svg" width="64" height="64" viewBox="0 0 64 64"><g transform="translate(-965 -1702.873)"><circle cx="1019.493" cy="1728.373" r="1" fill="#b2cdf8" color="#000" overflow="visible" style="isolation:auto;mix-blend-mode:normal"/><circle style="isolation:auto;mix-blend-mode:normal" cx="968.493" cy="-1753.373" r="1" fill="#b2cdf8" color="#000" overflow="visible" transform="scale(1 -1)"/><path fill="#f4f7f8" d="m 1007.4999,1761.3731 -26,0 c -2.216,0 -4,-1.784 -4,-4 l 0,-46 -4,-4 8,0 26,0 c 2.216,0 4,1.784 4,4 l 0,18.9629 0,23.1904 0,3.8467"/><path fill="#dae7fc" d="m 1007.4999,1761.3731 -26,0 c -2.216,0 -4,-1.784 -4,-4 l 0,-12 34,-22 0,6.9629 0,23.1904 0,3.8467"/><rect width="7.583" height="2" x="995.993" y="1716.373" fill="#b2cdf8" color="#000" overflow="visible" style="isolation:auto;mix-blend-mode:normal"/><path fill="none" stroke="#0e7bff" stroke-linecap="round" stroke-linejoin="round" d="m 1007.4999,1761.3731 -26,0 c -2.216,0 -4,-1.784 -4,-4 l 0,-46 m -4,-4 8,0 26,0 c 2.216,0 4,1.784 4,4 l 0,18.9629 m 0,23.1904 0,3.8467"/><path fill="#dae7fc" stroke="#0e7bff" stroke-linecap="round" stroke-linejoin="round" d="m 969.4928,1711.3731 a 4.0000017,4.0000017 0 0 1 2,-3.4641 4.0000017,4.0000017 0 0 1 3.9999,0 4.0000017,4.0000017 0 0 1 2,3.4641 l -4,0 z"/><path fill="none" stroke="#0e7bff" stroke-linecap="round" stroke-linejoin="round" d="m 1016.4928,1757.3731 c 3e-4,1.4293 -0.7622,2.7501 -2,3.4648 -0.6975,0.3998 -1.4993,0.5802 -2.3008,0.5176 -11.6992,0 -17.6992,0.018 -30.6992,0.018 l 0,0 c 0.7017,0 1.3915,-0.1818 2,-0.5313 1.2378,-0.7146 2.0003,-2.0355 2,-3.4648 l 23,0 3.6992,0 0.3008,0 z"/><rect width="19" height="2" x="984.493" y="1711.373" fill="#6ca6fd" color="#000" overflow="visible" rx="0" ry="0" style="isolation:auto;mix-blend-mode:normal"/><rect width="19" height="2" x="984.493" y="1711.373" fill="none" stroke="#0e7bff" stroke-linecap="round" style="isolation:auto;mix-blend-mode:normal" stroke-linejoin="round" color="#000" overflow="visible" rx="0" ry="0"/><path fill="none" stroke="#0e7bff" d="m 979.99283,1730.373 14,0"/><path fill="#dae7fc" d="m 980.49286,1722.3729 3,0 0,6 -3,0 z" color="#000" overflow="visible" style="isolation:auto;mix-blend-mode:normal"/><path fill="#b2cdf8" style="isolation:auto;mix-blend-mode:normal" d="m 983.49286,1722.3729 0,6 -3,0 z" color="#000" overflow="visible"/><rect width="3" height="6" x="980.493" y="1722.373" fill="none" stroke="#0e7bff" stroke-linecap="round" stroke-linejoin="round" color="#000" style="isolation:auto;mix-blend-mode:normal" overflow="visible"/><path fill="#dae7fc" d="m 985.49286,1719.3729 3,0 0,9 -3,0 z" color="#000" overflow="visible" style="isolation:auto;mix-blend-mode:normal"/><path fill="#b2cdf8" style="isolation:auto;mix-blend-mode:normal" d="m 988.49286,1719.3729 0,9 -3,0 z" color="#000" overflow="visible"/><rect width="3" height="9" x="985.493" y="1719.373" fill="none" stroke="#0e7bff" stroke-linecap="round" stroke-linejoin="round" color="#000" style="isolation:auto;mix-blend-mode:normal" overflow="visible"/><path fill="#dae7fc" d="m 990.49286,1716.3729 3,0 0,12 -3,0 z" color="#000" overflow="visible" style="isolation:auto;mix-blend-mode:normal"/><path fill="#b2cdf8" style="isolation:auto;mix-blend-mode:normal" d="m 993.49286,1716.3729 0,12 -3,0 z" color="#000" overflow="visible"/><rect width="3" height="12" x="990.493" y="1716.373" fill="none" stroke="#0e7bff" stroke-linecap="round" stroke-linejoin="round" color="#000" style="isolation:auto;mix-blend-mode:normal" overflow="visible"/><rect width="7.583" height="2" x="995.993" y="1716.373" fill="none" stroke="#0e7bff" stroke-linecap="round" stroke-linejoin="round" color="#000" style="isolation:auto;mix-blend-mode:normal" overflow="visible"/><rect width="13" height="1" x="995.993" y="1720.873" fill="#0e7bff" color="#000" overflow="visible" rx=".5" ry=".5" style="isolation:auto;mix-blend-mode:normal"/><rect width="13" height="1" x="995.993" y="1723.873" fill="#0e7bff" color="#000" overflow="visible" rx=".5" ry=".5" style="isolation:auto;mix-blend-mode:normal"/><rect style="isolation:auto;mix-blend-mode:normal" width="13" height="1" x="995.993" y="1729.873" fill="#0e7bff" color="#000" overflow="visible" rx=".5" ry=".5"/><rect width="13" height="1" x="995.993" y="1726.873" fill="#0e7bff" color="#000" overflow="visible" rx=".5" ry=".5" style="isolation:auto;mix-blend-mode:normal"/><rect style="isolation:auto;mix-blend-mode:normal" width="22.641" height="1" x="979.993" y="1732.873" fill="#0e7bff" color="#000" overflow="visible" rx=".5" ry=".5"/><rect width="20" height="1" x="979.993" y="1735.873" fill="#0e7bff" color="#000" overflow="visible" rx=".476" ry=".5" style="isolation:auto;mix-blend-mode:normal"/><rect width="19" height="1" x="979.993" y="1738.873" fill="#0e7bff" color="#000" overflow="visible" rx=".5" ry=".5" style="isolation:auto;mix-blend-mode:normal"/><rect style="isolation:auto;mix-blend-mode:normal" width="19" height="1" x="979.993" y="1741.873" fill="#0e7bff" color="#000" overflow="visible" rx=".5" ry=".5"/><rect width="19.487" height="1.026" x="979.993" y="1744.873" fill="#0e7bff" color="#000" overflow="visible" rx=".5" ry=".5" style="isolation:auto;mix-blend-mode:normal"/><ellipse cx="1009.993" cy="1741.873" fill="#f4f7f8" color="#000" overflow="visible" style="isolation:auto;mix-blend-mode:normal" rx="11.5" ry="11.5"/><rect style="isolation:auto;mix-blend-mode:normal" width="21" height="1" x="979.993" y="1747.873" fill="#0e7bff" color="#000" overflow="visible" rx=".5" ry=".5"/><rect style="isolation:auto;mix-blend-mode:normal" width="24" height="1" x="979.993" y="1750.873" fill="#0e7bff" color="#000" overflow="visible" rx=".5" ry=".5"/><rect width="28" height="1" x="979.993" y="1753.873" fill="#0e7bff" color="#000" overflow="visible" rx=".5" ry=".5" style="isolation:auto;mix-blend-mode:normal"/><path fill="#dae7fc" style="isolation:auto;mix-blend-mode:normal" d="m 1021.4929,1741.8729 c 0,6.3513 -5.1487,11.5 -11.5,11.5 -3.1756,0 -6.0506,-1.2872 -8.1317,-3.3683 16.2634,-16.2634 -0.2905,0.2905 16.2634,-16.2634 2.0811,2.0811 3.3683,4.9561 3.3683,8.1317 z" color="#000" overflow="visible"/><ellipse cx="1009.993" cy="1741.873" fill="none" stroke="#0e7bff" stroke-linecap="round" stroke-linejoin="round" color="#000" style="isolation:auto;mix-blend-mode:normal" overflow="visible" rx="11.5" ry="11.5"/><g stroke="#0e7bff" transform="matrix(.92728 0 0 .92728 967.45 788.811)"><circle style="isolation:auto;mix-blend-mode:normal" cx="45.88" cy="1027.808" r="9.167" fill="#b2cdf8" stroke="none" color="#000" overflow="visible"/><path fill="#6ca6fd" stroke="none" style="isolation:auto;mix-blend-mode:normal" d="m 48.252471,1036.6625 a 9.1666384,9.1666384 0 0 1 -6.95582,-0.9157 l 4.58332,-7.9386 z" color="#000" overflow="visible"/><circle cx="45.88" cy="1027.808" r="9.167" fill="none" stroke-linecap="round" stroke-linejoin="round" stroke-width="1.078" color="#000" overflow="visible" style="isolation:auto;mix-blend-mode:normal"/><path fill="none" stroke-linecap="round" stroke-linejoin="round" stroke-width="1.078" d="m 52.361763,1034.29 a 9.1666384,9.1666384 0 0 1 -11.065112,1.4568 l 4.58332,-7.9386 z" color="#000" overflow="visible" style="isolation:auto;mix-blend-mode:normal"/><path fill="#dae7fc" stroke="none" style="isolation:auto;mix-blend-mode:normal" d="m 45.879971,1018.6416 a 9.1666384,9.1666384 0 0 1 9.166638,9.1666 l -9.166638,0 z" color="#000" overflow="visible"/><path fill="none" stroke-linecap="round" stroke-linejoin="round" stroke-width="1.078" d="M45.879971 1018.6416a9.1666384 9.1666384 0 0 1 9.166638 9.1666l-9.166638 0zM55.046609 1027.8082a9.1666384 9.1666384 0 0 1-2.684846 6.4818l-6.481792-6.4818z" color="#000" overflow="visible" style="isolation:auto;mix-blend-mode:normal"/><path fill="#dae7fc" stroke-linecap="round" stroke-linejoin="round" stroke-width="1.078" style="isolation:auto;mix-blend-mode:normal" d="m 52.361763,1034.29 a 9.1666384,9.1666384 0 0 1 -4.109292,2.3725 l -2.3725,-8.8543 z" color="#000" overflow="visible"/><path fill="#f4f7f8" stroke-linecap="round" stroke-linejoin="round" stroke-width="1.078" d="m 55.046609,1027.8082 a 9.1666384,9.1666384 0 0 1 -2.684846,6.4818 l -6.481792,-6.4818 z" color="#000" overflow="visible" style="isolation:auto;mix-blend-mode:normal"/></g><circle style="isolation:auto;mix-blend-mode:normal" cx="1019.493" cy="1728.373" r="1" fill="none" stroke="#0e7bff" stroke-linecap="round" stroke-linejoin="round" color="#000" overflow="visible"/><path fill="none" stroke="#0e7bff" stroke-linecap="round" stroke-linejoin="round" d="M1014.205 1721.0852l-.7071-.7071M1015.6291 1721.0851l.7072-.7071M1015.6292 1722.5094l.7071.7071M1013.5078 1723.2064l.7071-.7071M1019.0736 1756.3679l1.4142-1.4142M1019.0736 1754.9537l1.4142 1.4142M1023.4929 1748.3659l2 0M1024.4929 1747.3659l0 2"/><circle cx="968.493" cy="-1753.373" r="1" fill="none" stroke="#0e7bff" stroke-linecap="round" stroke-linejoin="round" color="#000" style="isolation:auto;mix-blend-mode:normal" overflow="visible" transform="scale(1 -1)"/><path fill="none" stroke="#0e7bff" stroke-linecap="round" stroke-linejoin="round" d="M972.20499 1761.6607l-.70711.7071M973.62915 1761.6608l.70711.7071M973.62924 1760.2365l.70711-.7071M971.50783 1759.5395l.70711.7071"/><circle style="isolation:auto;mix-blend-mode:normal" cx="974.493" cy="1755.373" r=".5" fill="#0e7bff" color="#000" overflow="visible"/><circle style="isolation:auto;mix-blend-mode:normal" cx="1023.493" cy="1731.373" r=".5" fill="#0e7bff" color="#000" overflow="visible"/><circle style="isolation:auto;mix-blend-mode:normal" cx="1022.493" cy="1724.373" r=".5" fill="#0e7bff" color="#000" overflow="visible"/><path fill="#b2cdf8" stroke="#0e7bff" stroke-linecap="round" stroke-linejoin="round" d="m 1016.4928,1757.3731 c 3e-4,1.4293 -0.7622,2.7501 -2,3.4648 -0.6975,0.3998 -1.4993,0.5802 -2.3008,0.5176 -11.6992,0 -17.6992,0.018 -30.6992,0.018 l 0,0 c 0.7017,0 1.3915,-0.1818 2,-0.5313 1.2378,-0.7146 2.0003,-2.0355 2,-3.4648 l 23,0 3.6992,0 0.3008,0 z"/></g></svg>