<svg xmlns="http://www.w3.org/2000/svg" width="64" height="64" viewBox="0 0 64 64"><g transform="translate(-728 -1783.871)"><circle style="isolation:auto;mix-blend-mode:normal" cx="741.514" cy="1833.383" r="1" fill="#6ca6fd" color="#000" overflow="visible"/><circle style="isolation:auto;mix-blend-mode:normal" cx="779.5" cy="1821.377" r="1" fill="#6ca6fd" color="#000" overflow="visible"/><circle style="isolation:auto;mix-blend-mode:normal" cx="765.514" cy="1791.383" r="1" fill="#6ca6fd" color="#000" overflow="visible"/><rect width="11" height="2.004" x="755.5" y="1839.369" fill="#b2cdf8"/><path fill="#6ca6fd" d="m 769.5,1837.5579 0,1.815 -17,0 0,-1.9476 0,-2.1243 0,-1.9073 0,-2.0843 0,-1.9365 17,0 0,1.9255 0,2.1022 0,1.9597 z"/><path fill="#f4f7f8" d="m 767.76667,1829.3649 0,-5.6715 c 4.75336,-2.5087 7.72955,-7.4414 7.73333,-12.8171 0,-8.01 -6.49187,-14.5034 -14.5,-14.5034 -8.00813,0 -14.5,6.4934 -14.5,14.5034 0.004,5.3757 2.97997,10.3084 7.73333,12.8171 l 0,5.6715"/><path fill="#dae7fc" d="m 774.42969,817.04883 -20.19727,20.19726 0,3.75586 13.53516,0 0,-5.66992 c 4.75336,-2.5087 7.72864,-7.44266 7.73242,-12.81836 0,-1.93458 -0.38247,-3.7784 -1.07031,-5.46484 z" transform="translate(0 988.362)"/><path fill="none" stroke="#0e7bff" d="M767.76667 1829.3649l0-5.6715c4.75336-2.5087 7.72955-7.4414 7.73333-12.8171 0-8.01-6.49187-14.5034-14.5-14.5034-8.00813 0-14.5 6.4934-14.5 14.5034.004 5.3757 2.97997 10.3084 7.73333 12.8171l0 5.6715M758.5 1815.8765l0 14M763.5 1815.8765l0 14"/><rect width="11" height="2.004" x="755.5" y="1839.369" fill="none" stroke="#0e7bff" stroke-linecap="round" stroke-linejoin="round"/><rect width="19" height="2" x="751.5" y="1831.373" fill="#b2cdf8" rx="1.056" ry="1"/><path fill="none" stroke="#0e7bff" stroke-linecap="round" stroke-linejoin="round" d="m 752.5,1835.301 0,-1.9073 m 0,-2.0843 0,-1.9365 17,0 0,1.9255 m 0,2.1022 0,1.9597 m 0,2.1976 0,1.815 -17,0 0,-1.9476"/><rect width="19" height="2" x="751.5" y="1835.373" fill="#b2cdf8" rx="1.056" ry="1"/><rect width="19" height="2" x="751.5" y="1831.373" fill="none" stroke="#0e7bff" rx="1.056" ry="1"/><rect width="19" height="2" x="751.5" y="1835.373" fill="none" stroke="#0e7bff" rx="1.056" ry="1"/><path fill="none" stroke="#0e7bff" d="M766 1815.3765l-10 0M748.50001 1810.8765A12.499987 12.499987 0 0 1 761 1798.3765"/><path fill="none" stroke="#0e7bff" stroke-width="1.149" d="m -796.31517,2404.3059 a 5.5702195,21.86043 0 0 1 -7.77757,4.6605 5.5702195,21.86043 0 0 1 -1.20682,-30.5115 5.5702195,21.86043 0 0 1 7.77158,-4.8119" transform="matrix(1 0 .6531 .75727 0 0)"/><path fill="none" stroke="#0e7bff" stroke-width="1.149" d="m -2318.3155,2404.3059 a 5.5702195,21.86043 0 0 1 -7.7776,4.6605 5.5702195,21.86043 0 0 1 -1.2068,-30.5115 5.5702195,21.86043 0 0 1 7.7716,-4.8119" transform="skewX(40.776) scale(1 -.75727)"/><path fill="none" stroke="#0e7bff" d="m -1785.1623,-746.02995 a 5.5702195,18.915934 0 0 1 -7.3271,-3.43635 5.5702195,18.915934 0 0 1 0.1376,-25.11376 5.5702195,18.915934 0 0 1 7.3596,-2.50892" transform="matrix(0 -1 -.99952 -.03086 0 0)"/><circle cx="741.514" cy="1833.383" r="1" fill="none" stroke="#0e7bff" stroke-linecap="round" stroke-linejoin="round" color="#000" overflow="visible" style="isolation:auto;mix-blend-mode:normal"/><circle cx="779.5" cy="1821.377" r="1" fill="none" stroke="#0e7bff" stroke-linecap="round" stroke-linejoin="round" color="#000" overflow="visible" style="isolation:auto;mix-blend-mode:normal"/><circle cx="765.514" cy="1791.383" r="1" fill="none" stroke="#0e7bff" stroke-linecap="round" stroke-linejoin="round" color="#000" overflow="visible" style="isolation:auto;mix-blend-mode:normal"/><path fill="none" stroke="#0e7bff" stroke-linecap="round" stroke-linejoin="round" d="M735.50711 1823.3765l.00001-2M734.50712 1822.3765l1.99999 0M777.50711 1833.3765l.00001-2M776.50712 1832.3765l1.99999 0M781.50711 1804.3765l.00001-2M780.50712 1803.3765l1.99999 0M751.50711 1791.3765l.00001-2M750.50712 1790.3765l1.99999 0M741.08074 1797.7958l1.41421-1.4143M741.08074 1796.3815l1.41421 1.4143M784.08074 1815.7958l1.41421-1.4142M784.08074 1814.3816l1.41421 1.4142"/><path fill="none" stroke="#0e7bff" d="M758.5 1841.8729l0 1M763.5 1841.8729l0 1M758.5 1841.8729l0 1M763.5 1841.8729l0 1"/></g></svg>