<svg xmlns="http://www.w3.org/2000/svg" xmlns:xlink="http://www.w3.org/1999/xlink" width="96" height="96" viewBox="0 0 96 96"><defs><linearGradient id="b" x1="1073.403" x2="1097.116" y1="516.451" y2="544.308" gradientTransform="matrix(3.0757 0 0 3.0757 -3287.743 -629.677)" gradientUnits="userSpaceOnUse" xlink:href="#a"/><linearGradient id="a"><stop offset="0" stop-color="#16ff6a"/><stop offset="1" stop-color="#0090a5"/></linearGradient></defs><g transform="translate(0 -956.362)"><rect width="96" height="96" y="956.362" fill="url(#b)" rx="20.288" ry="20.288"/><path fill="#fff" style="line-height:normal;text-indent:0;text-align:start;text-decoration-line:none;text-decoration-style:solid;text-decoration-color:#000;text-transform:none;block-progression:tb;isolation:auto;mix-blend-mode:normal" d="m 18.5,979.35467 c -0.276131,3e-5 -0.499972,0.22387 -0.5,0.5 l 0,45.00003 c 2.8e-5,0.2761 0.223869,0.4999 0.5,0.5 l 21.56948,0 c 0.676158,0.01 0.676158,-1.0096 0,-1 l -21.06948,0 0,-44.00003 23,0 0,4.5 c 2.8e-5,0.27613 0.223869,0.49997 0.5,0.5 l 4.5,0 0,18.00003 -1.5,0 c -0.822351,0 -1.5,0.6777 -1.5,1.5 l 0,0.5 -3.527344,0 c -0.814837,0 -1.472656,0.6849 -1.472656,1.5 l 0,2.5 -10.5,0 c -0.277,0 -0.5,0.223 -0.5,0.5 0,0.277 0.223,0.5 0.5,0.5 l 10.5,0 0,4.5 c 0,0.4119 0.187009,0.7853 0.449219,1.0293 0.163678,0.1523 0.354096,0.2513 0.550781,0.332 l 0,2.1387 -11.5,0 c -0.277005,0 -0.5,0.143 -0.5,0.3222 l 0,0.4375 c 0,0.1792 0.222995,0.3223 0.5,0.3223 l 11.5,0 0,9.4766 c 0,1.3448 1.098663,2.4414 2.443359,2.4414 l 2.980469,0 c 0.05048,0.01 0.101861,0.01 0.152344,0 l 1.847656,0 c 0.05048,0.01 0.101861,0.01 0.152344,0 l 19.847656,0 c 0.05048,0.01 0.101861,0.01 0.152344,0 l 1.847656,0 c 0.05048,0.01 0.101861,0.01 0.152344,0 l 2.980469,0 c 1.344696,0 2.443359,-1.0966 2.443359,-2.4414 l 0,-12.6465 c 0.580814,-0.2042 1,-0.7635 1,-1.4121 l 0,-8 c 0,-0.8151 -0.657819,-1.5 -1.472656,-1.5 l -3.527344,0 0,-0.5 c 0,-0.8223 -0.677649,-1.5 -1.5,-1.5 l -2,0 c -0.822351,0 -1.5,0.6777 -1.5,1.5 l 0,0.5 -2,0 0,-1.5 c 0,-1.3686 -1.131403,-2.5 -2.5,-2.5 l -8,0 c -1.368597,0 -2.5,1.1314 -2.5,2.5 l 0,1.5 -2,0 0,-0.5 c 0,-0.6467 -0.421006,-1.1997 -1,-1.4082 l 0,-18.59183 0,-0.0156 c -2.38e-4,-0.0117 -8.89e-4,-0.0235 -0.002,-0.0352 l -0.002,-0.0156 c -0.0016,-0.0111 -0.0035,-0.0222 -0.0059,-0.0332 -0.0045,-0.0212 -0.01037,-0.0421 -0.01758,-0.0625 -0.0035,-0.0112 -0.0074,-0.0223 -0.01172,-0.0332 l -0.0059,-0.0137 c -0.0048,-0.0106 -0.01005,-0.021 -0.01563,-0.0312 l -0.0078,-0.0137 c -0.0062,-0.01 -0.01268,-0.0198 -0.01953,-0.0293 l -0.0078,-0.0117 c -0.0068,-0.009 -0.01401,-0.0185 -0.02148,-0.0273 l -0.0098,-0.0117 c -0.0045,-0.005 -0.009,-0.009 -0.01367,-0.0137 l -4.833799,-5 c -0.09421,-0.0974 -0.223892,-0.15234 -0.359375,-0.15234 z m 24.5,1.70703 3.292969,3.29297 -3.292969,0 z m -15.5,1.29297 c -0.276131,3e-5 -0.499972,0.22387 -0.5,0.5 l 0,2 c 2.8e-5,0.27613 0.223869,0.49997 0.5,0.5 l 11,0 c 0.276131,-3e-5 0.499972,-0.22387 0.5,-0.5 l 0,-2 c -2.8e-5,-0.27613 -0.223869,-0.49997 -0.5,-0.5 z m 0.5,1 10,0 0,1 -10,0 z m 21.5,3.00004 c -0.276131,0 -0.499972,0.2238 -0.5,0.5 l 0,5 c 2.8e-5,0.2761 0.223869,0.4999 0.5,0.5 l 25.5,0 1,0 1.5,0 c 0.276131,-10e-5 0.499972,-0.2239 0.5,-0.5 l 0,-5 c -2.8e-5,-0.2762 -0.223869,-0.5 -0.5,-0.5 z m -28,1 c -0.276131,0 -0.499972,0.2238 -0.5,0.5 l 0,4 c 2.8e-5,0.2761 0.223869,0.4999 0.5,0.5 l 4,0 c 0.276131,-10e-5 0.499972,-0.2239 0.5,-0.5 l 0,-4 c -2.8e-5,-0.2762 -0.223869,-0.5 -0.5,-0.5 z m 7,0 c -0.276131,0 -0.499972,0.2238 -0.5,0.5 l 0,2 c 2.8e-5,0.2761 0.223869,0.4999 0.5,0.5 l 6,0 c 0.276131,-10e-5 0.499972,-0.2239 0.5,-0.5 l 0,-2 c -2.8e-5,-0.2762 -0.223869,-0.5 -0.5,-0.5 z m 21.5,0 27,0 0,4 -1,0 0,-1 -1,0 0,1 -1,0 0,-2 -1,0 0,2 -1,0 0,-1 -1,0 0,1 -1,0 0,-2 -1,0 0,2 -1,0 0,-1 -1,0 0,1 -1,0 0,-2 -1,0 0,2 -1,0 0,-1 -1,0 0,1 -1,0 0,-2 -1,0 0,2 -1,0 0,-1 -1,0 0,1 -1,0 0,-2 -1,0 0,2 -1,0 0,-1 -1,0 0,1 -1,0 0,-2 -1,0 0,2 -1,0 0,-1 -1,0 0,1 -1,0 z m -28,1 3,0 0,3 -3,0 z m 7,0 5,0 0,1 -5,0 z m -0.5,3 c -0.277005,0 -0.5,0.223 -0.5,0.5 0,0.277 0.222995,0.5 0.5,0.5 l 16,0 c 0.277005,0 0.5,-0.223 0.5,-0.5 0,-0.277 -0.222995,-0.5 -0.5,-0.5 z m 0,2 c -0.277005,0 -0.5,0.223 -0.5,0.5 0,0.277 0.222995,0.5 0.5,0.5 l 10,0 c 0.277005,0 0.5,-0.223 0.5,-0.5 0,-0.277 -0.222995,-0.5 -0.5,-0.5 z m 25.992188,0.9863 c -0.02485,10e-5 -0.04966,0 -0.07422,0.01 l -1.882813,0 c -0.01172,-4e-4 -0.02344,-4e-4 -0.03516,0 l -2,0 c -0.822356,0 -1.5,0.6777 -1.5,1.5 l 0,2 c 0,0.8224 0.677644,1.5 1.5,1.5 l 2,0 1.923828,0 c 0.05048,0.01 0.101861,0.01 0.152344,0 l 17.923828,0 0.01367,0 c 0.01241,-9e-4 0.02479,0 0.03711,0 0.03312,0 0.06584,-0.01 0.09766,-0.019 l 0.01367,0 c 0.0079,0 0.01569,0 0.02344,-0.01 l 5,-2 c 0.417727,-0.1682 0.417727,-0.7596 0,-0.9278 L 72.72656,994.4098 c -0.02819,-0.014 -0.05762,-0.025 -0.08789,-0.033 l -0.0059,0 c -0.04328,-0.012 -0.08795,-0.018 -0.132812,-0.017 l -17.921875,0 c -0.02842,0 -0.05718,-0.01 -0.08594,-0.01 z m -3.992188,1.0058 1.5,0 0,3 -1.5,0 c -0.285662,0 -0.5,-0.2143 -0.5,-0.5 l 0,-2 c 0,-0.2856 0.214338,-0.5 0.5,-0.5 z m 2.5,0 1,0 0,3 -1,0 z m 2,0 17,0 0,1 -17,0 z m 18,0.2383 3.154297,1.2637 L 73,998.11051 Z m -51.5,0.7696 c -0.276131,0 -0.499972,0.2238 -0.5,0.5 l 0,3.99999 c 2.8e-5,0.2761 0.223869,0.4999 0.5,0.5 l 4,0 c 0.276131,-10e-5 0.499972,-0.2239 0.5,-0.5 l 0,-3.99999 c -2.8e-5,-0.2762 -0.223869,-0.5 -0.5,-0.5 z m 7,0 c -0.276131,0 -0.499972,0.2238 -0.5,0.5 l 0,2 c 2.8e-5,0.2761 0.223869,0.4999 0.5,0.5 l 7,0 c 0.276131,-10e-5 0.499972,-0.2239 0.5,-0.5 l 0,-2 c -2.8e-5,-0.2762 -0.223869,-0.5 -0.5,-0.5 z m 26.5,0.9921 17,0 0,1 -17,0 z m -33,0.01 3,0 0,2.99999 -3,0 z m 7,0 6,0 0,1 -6,0 z m -0.5,2.99999 c -0.277005,0 -0.5,0.223 -0.5,0.5 0,0.277 0.222995,0.5 0.5,0.5 l 16,0 c 0.277005,0 0.5,-0.223 0.5,-0.5 0,-0.277 -0.222995,-0.5 -0.5,-0.5 z m 0,2 c -0.277005,0 -0.5,0.223 -0.5,0.5 0,0.277 0.222995,0.5 0.5,0.5 l 9,0 c 0.277005,0 0.5,-0.223 0.5,-0.5 0,-0.277 -0.222995,-0.5 -0.5,-0.5 z m 25,0 8,0 c 0.812809,0 1.5,0.6872 1.5,1.5 l 0,1.5 -1,0 0,-1.5 c -2.8e-5,-0.2762 -0.223869,-0.5 -0.5,-0.5 l -8,0 c -0.276131,0 -0.499972,0.2238 -0.5,0.5 l 0,1.5 -1,0 0,-1.5 c 0,-0.8128 0.687191,-1.5 1.5,-1.5 z m -8,2 2,0 c 0.285649,0 0.5,0.2144 0.5,0.5 l 0,0.5 -3,0 0,-0.5 c 0,-0.2856 0.214351,-0.5 0.5,-0.5 z m 8.5,0 7,0 0,1 -7,0 z m 13.5,0 2,0 c 0.285649,0 0.5,0.2144 0.5,0.5 l 0,0.5 -3,0 0,-0.5 c 0,-0.2856 0.214351,-0.5 0.5,-0.5 z m -46,1 c -0.276131,0 -0.499972,0.2238 -0.5,0.5 l 0,4 c 2.8e-5,0.2761 0.223869,0.4999 0.5,0.5 l 4,0 c 0.276131,-10e-5 0.499972,-0.2239 0.5,-0.5 l 0,-4 c -2.8e-5,-0.2762 -0.223869,-0.5 -0.5,-0.5 z m 7,0 c -0.276131,0 -0.499972,0.2238 -0.5,0.5 l 0,2 c 2.8e-5,0.2761 0.223869,0.4999 0.5,0.5 l 6,0 c 0.276131,-10e-5 0.499972,-0.2239 0.5,-0.5 l 0,-2 c -2.8e-5,-0.2762 -0.223869,-0.5 -0.5,-0.5 z m -6.5,1 3,0 0,3 -3,0 z m 7,0 5,0 0,1 -5,0 z m 11.472656,0 3.951172,0 c 0.05048,0.01 0.101861,0.01 0.152344,0 l 3.847656,0 c 0.05048,0.01 0.101861,0.01 0.152344,0 l 2.847656,0 c 0.05048,0.01 0.101861,0.01 0.152344,0 l 1.847656,0 c 0.05048,0.01 0.101861,0.01 0.152344,0 l 7.847656,0 c 0.05048,0.01 0.101861,0.01 0.152344,0 l 1.847656,0 c 0.05048,0.01 0.101861,0.01 0.152344,0 l 2.847656,0 c 0.05048,0.01 0.101861,0.01 0.152344,0 l 3.847656,0 c 0.05048,0.01 0.101861,0.01 0.152344,0 l 3.951172,0 c 0.263235,0 0.472656,0.2071 0.472656,0.5 l 0,8 c 0,0.2929 -0.209421,0.5 -0.472656,0.5 -0.03881,0 -0.07748,0 -0.115235,0.014 L 57.5,1019.341 40.587891,1015.3683 c -0.198681,-0.047 -0.363934,-0.1302 -0.457032,-0.2168 C 40.037762,1015.0649 40,1014.9969 40,1014.8547 l 0,-8 c 0,-0.2929 0.209421,-0.5 0.472656,-0.5 z m 13.027344,3 c -0.276131,0 -0.499972,0.2238 -0.5,0.5 l 0,4 c 2.8e-5,0.2761 0.223869,0.4999 0.5,0.5 l 8,0 c 0.276131,-10e-5 0.499972,-0.2239 0.5,-0.5 l 0,-4 c -2.8e-5,-0.2762 -0.223869,-0.5 -0.5,-0.5 z m 0.5,1 7,0 0,3 -7,0 z m -25.5,1 c -0.277005,0 -0.5,0.223 -0.5,0.5 0,0.277 0.222995,0.5 0.5,0.5 l 7,0 c 0.277005,0 0.5,-0.223 0.5,-0.5 0,-0.277 -0.222995,-0.5 -0.5,-0.5 z m -7,3 c -0.276131,0 -0.499972,0.2238 -0.5,0.5 l 0,4 c 2.8e-5,0.2761 0.223869,0.4999 0.5,0.5 l 4,0 c 0.276131,-10e-5 0.499972,-0.2239 0.5,-0.5 l 0,-4 c -2.8e-5,-0.2762 -0.223869,-0.5 -0.5,-0.5 z m 7,0 c -0.276131,0 -0.499972,0.2238 -0.5,0.5 l 0,2 c 2.8e-5,0.2761 0.223869,0.4999 0.5,0.5 l 7,0 c 0.276131,-10e-5 0.499972,-0.2239 0.5,-0.5 l 0,-2 c -2.8e-5,-0.2762 -0.223869,-0.5 -0.5,-0.5 z m -6.5,1 3,0 0,3 -3,0 z m 7,0 6,0 0,1 -6,0 z m 12,1.1386 4,0.9395 0,12.9219 -2.556641,0 C 41.635352,1030.3547 41,1029.7214 41,1028.9133 l 0,-9.7989 0,-0.4375 z m 33,0 0,12.42 c 0,0.8081 -0.635352,1.4414 -1.443359,1.4414 l -2.556641,0 0,-12.9219 z m -28,1.1758 1,0.2344 0,12.4512 -1,0 z m 23,0 0,12.6856 -1,0 0,-12.4512 z m -21,0.4688 9.384766,2.205 c 0.07578,0.018 0.154693,0.018 0.230468,0 L 67,1018.1379 l 0,12.2168 -19,0 z m -19.5,2.2168 c -0.277005,0 -0.5,0.223 -0.5,0.5 0,0.277 0.222995,0.5 0.5,0.5 l 10,0 c 0.277005,0 0.5,-0.223 0.5,-0.5 0,-0.277 -0.222995,-0.5 -0.5,-0.5 z" color="#000" font-family="sans-serif" font-weight="400" overflow="visible" white-space="normal"/></g></svg>