<svg xmlns="http://www.w3.org/2000/svg" width="64" height="64" viewBox="0 0 64 64"><g stroke="#0e7bff" transform="translate(0 -988.363)"><path fill="#f4f7f8" fill-rule="evenodd" stroke="none" d="m 24.303078,1039.8621 -21.803078,0 0,-44.99997 24.166667,0 4.833333,5 0,18.89647"/><path fill="#dae7fc" fill-rule="evenodd" stroke="none" d="m 24.303078,1039.8621 -21.803078,0 26.583333,-42.49997 2.416667,2.5 0,39.99627 z"/><rect width="4" height="4" x="5.5" y="1002.862" fill="#dae7fc" stroke="none"/><rect width="4" height="4" x="5.5" y="1011.862" fill="#dae7fc" stroke="none"/><rect width="4" height="4" x="5.5" y="1020.862" fill="#dae7fc" stroke="none"/><g fill="#dae7fc" stroke="none"><rect width="28" height="5" x="33.5" y="1001.862"/><rect width="1" height="2" x="35" y="1005.362"/><rect width="1" height="3" x="37" y="1004.362"/><rect width="1" height="2" x="39" y="1005.362"/><rect width="1" height="3" x="41" y="1004.362"/><rect width="1" height="2" x="43" y="1005.362"/><rect width="1" height="3" x="45" y="1004.362"/><rect width="1" height="2" x="47" y="1005.362"/><rect width="1" height="3" x="49" y="1004.362"/><rect width="1" height="2" x="51" y="1005.362"/><rect width="1" height="3" x="53" y="1004.362"/><rect width="1" height="2" x="55" y="1005.362"/><rect width="1" height="3" x="57" y="1004.362"/><rect width="1" height="2" x="59" y="1005.362"/></g><path fill="#b2cdf8" stroke="none" style="isolation:auto;mix-blend-mode:normal" d="M58.5 1031.0004l0 12.9198c0 1.0764-.866522 1.9429-1.942874 1.9429l-30.114252 0c-1.076352 0-1.942874-.8665-1.942874-1.9429l0-12.9198M29.5 1018.8622l2 0c.554 0 1 .446 1 1 0 .554 0 1 0 1l-4 0c0 0 0-.446 0-1 0-.554.446-1 1-1zM51.5 1018.8622l2 0c.554 0 1 .446 1 1 0 .554 0 1 0 1l-4 0c0 0 0-.446 0-1 0-.554.446-1 1-1z" color="#000" overflow="visible"/><path fill="#b2cdf8" stroke="none" style="line-height:normal;text-indent:0;text-align:start;text-decoration-line:none;text-decoration-style:solid;text-decoration-color:#000;text-transform:none;block-progression:tb;isolation:auto;mix-blend-mode:normal" d="m 47.5,1020.8622 0,-2 c 0,-1.0907 -0.909297,-2 -2,-2 l -8,0 c -1.090703,0 -2,0.9093 -2,2 l 0,2 m 2,0 0,-2 8,0 0,2" color="#000" font-family="sans-serif" font-weight="400" overflow="visible" white-space="normal"/><path fill="#6ca6fd" stroke="none" style="isolation:auto;mix-blend-mode:normal" d="m 767.54492,759.14844 -7.76758,14.86133 20.7793,0 c 1.07635,0 1.94336,-0.86501 1.94336,-1.94141 l 0,-12.91992 -14.95508,0 z" color="#000" overflow="visible" transform="translate(-724 271.852)"/><g transform="matrix(-1 0 0 1 77 -31.007)"><path fill="#6ca6fd" stroke="none" d="m 40.500049,1040.8622 1.999966,0 c 0.554009,0 1.000017,0.446 1.000017,1 l 0,2 c 0,0.554 -0.446008,1 -1.000017,1 l -1.999966,0"/><path fill="#b2cdf8" stroke="none" d="m 38.4671,1040.8622 2.010835,0 0,4 -2.010835,0 z"/><path fill="#dae7fc" stroke="none" d="m 20.5,1040.8622 17.9671,0 0,4 -17.9671,0 z"/><path fill="#f4f7f8" stroke="none" d="m 20.499996,1040.8622 0,4 -5.000074,-2 z"/><path fill="none" stroke-linecap="round" stroke-linejoin="round" d="M38.499982 1044.8622l0-4M20.5 1040.8622l20.000032 0 0 4-20.000032 0zM40.500049 1040.8622l1.999966 0c.554009 0 1.000017.446 1.000017 1l0 2c0 .554-.446008 1-1.000017 1l-1.999966 0"/><path fill="none" d="m 20.5,1042.8622 18.000032,0"/><path fill="none" stroke-linecap="round" stroke-linejoin="round" d="m 20.499996,1040.8622 0,4 -5.000074,-2 z"/></g><path fill="#dae7fc" stroke="none" d="m 5.5,1029.8622 4,0 0,4 -4,0 z"/><path fill="none" stroke-linecap="round" stroke-linejoin="round" d="m 24.303078,1039.8621 -21.803078,0 0,-44.99997 24.166667,0 4.833333,5 0,18.89647"/><path fill="#b2cdf8" stroke="none" d="m 26.5,994.86213 5,5 -5,0 z"/><path fill="none" stroke-linecap="round" stroke-linejoin="round" d="m 26.5,994.86213 5,5 -5,0 z"/><rect width="4" height="4" x="5.5" y="1002.862" fill="none" stroke-linecap="round" stroke-linejoin="round"/><rect width="11" height="2" x="11.5" y="997.862" fill="#6ca6fd" stroke="none"/><rect width="11" height="2" x="11.5" y="997.862" fill="none" stroke-linecap="round" stroke-linejoin="round"/><rect width="4" height="4" x="5.5" y="1011.862" fill="none" stroke-linecap="round" stroke-linejoin="round"/><rect width="4" height="4" x="5.5" y="1020.862" fill="none" stroke-linecap="round" stroke-linejoin="round"/><path fill="#b2cdf8" stroke="none" d="m 732.75586,758.00977 -2.50195,4 3.24609,0 0,-4 -0.74414,0 z" transform="translate(-724 271.852)"/><rect width="4" height="4" x="5.5" y="1029.862" fill="none" stroke-linecap="round" stroke-linejoin="round"/><rect width="6" height="2" x="12.5" y="1002.862" fill="#b2cdf8" stroke="none"/><rect width="6" height="2" x="12.5" y="1002.862" fill="none" stroke-linecap="round" stroke-linejoin="round"/><rect width="7" height="2" x="12.5" y="1011.862" fill="#b2cdf8" stroke="none"/><rect width="17" height="1" x="12" y="1006.362" fill="#0e7bff" stroke="none" rx=".5" ry=".5"/><rect width="6" height="2" x="12.5" y="1020.862" fill="#b2cdf8" stroke="none"/><rect width="11" height="1" x="12" y="1008.362" fill="#0e7bff" stroke="none" rx=".5" ry=".5"/><rect width="7" height="2" x="12.5" y="1029.862" fill="#b2cdf8" stroke="none"/><rect width="7" height="2" x="12.5" y="1011.862" fill="none" stroke-linecap="round" stroke-linejoin="round"/><rect width="17" height="1" x="12" y="1015.362" fill="#0e7bff" stroke="none" rx=".5" ry=".5"/><rect width="10" height="1" x="12" y="1017.362" fill="#0e7bff" stroke="none" rx=".5" ry=".5"/><path fill="#dae7fc" stroke="none" d="m 736.5,749.00977 0,2 0.63281,0 1.25196,-2 -1.88477,0 z" transform="translate(-724 271.852)"/><rect width="6" height="2" x="12.5" y="1020.862" fill="none" stroke-linecap="round" stroke-linejoin="round"/><rect width="12" height="1" x="12" y="1024.362" fill="#0e7bff" stroke="none" rx=".5" ry=".5"/><rect width="8" height="1" x="12" y="1026.362" fill="#0e7bff" stroke="none" rx=".5" ry=".5"/><rect width="7" height="2" x="12.5" y="1029.862" fill="none" stroke-linecap="round" stroke-linejoin="round"/><rect width="13" height="1.083" x="12" y="1033.362" fill="#0e7bff" stroke="none" rx=".5" ry=".324"/><rect width="11" height="1" x="12" y="1035.362" fill="#0e7bff" stroke="none" rx=".5" ry=".5"/><path fill="none" stroke-linecap="round" stroke-linejoin="round" d="m 47.5,1020.8622 0,-2 c 0,-1.0907 -0.909297,-2 -2,-2 l -8,0 c -1.090703,0 -2,0.9093 -2,2 l 0,2 m 2,0 0,-2 8,0 0,2" color="#000" font-family="sans-serif" font-weight="400" overflow="visible" white-space="normal" style="line-height:normal;text-indent:0;text-align:start;text-decoration-line:none;text-decoration-style:solid;text-decoration-color:#000;text-transform:none;block-progression:tb;isolation:auto;mix-blend-mode:normal"/><path fill="none" stroke-linecap="round" stroke-linejoin="round" d="m 29.5,1018.8622 2,0 c 0.554,0 1,0.446 1,1 0,0.554 0,1 0,1 l -4,0 c 0,0 0,-0.446 0,-1 0,-0.554 0.446,-1 1,-1 z" color="#000" overflow="visible" style="isolation:auto;mix-blend-mode:normal"/><path fill="#f4f7f8" stroke="none" style="isolation:auto;mix-blend-mode:normal" d="m 51.5,1032.7526 2,-0.4419 0,13.5524 -2,0 z" color="#000" overflow="visible"/><path fill="none" stroke-linecap="round" stroke-linejoin="round" d="m 58.5,1031.0004 0,12.9198 c 0,1.0764 -0.866522,1.9429 -1.942874,1.9429 l -30.114252,0 c -1.076352,0 -1.942874,-0.8665 -1.942874,-1.9429 l 0,-12.9198" color="#000" overflow="visible" style="isolation:auto;mix-blend-mode:normal"/><path fill="#f4f7f8" stroke="none" style="isolation:auto;mix-blend-mode:normal" d="m 29.5,1032.3107 2,0.4419 0,13.1105 -2,0 z" color="#000" overflow="visible"/><path fill="#dae7fc" stroke-linecap="round" stroke-linejoin="round" d="m 51.5,1032.7526 2,-0.4419 0,13.5524 -2,0 z" color="#000" overflow="visible" style="isolation:auto;mix-blend-mode:normal"/><path fill="none" stroke-linecap="round" stroke-linejoin="round" d="m 29.5,1032.3107 2,0.4419 0,13.1105 -2,0 z" color="#000" overflow="visible" style="isolation:auto;mix-blend-mode:normal"/><path fill="#dae7fc" stroke="none" d="m 24.47299,1020.8631 34.05402,0 c 0.539036,0 0.97299,0.446 0.97299,1 l 0,8 c 0,0.554 -0.433954,1 -0.97299,1 l -17.02701,4 -17.02701,-4 c -0.524751,-0.1233 -0.97299,-0.446 -0.97299,-1 l 0,-8 c 0,-0.554 0.433954,-1 0.97299,-1 z" color="#000" overflow="visible" style="isolation:auto;mix-blend-mode:normal"/><path fill="#b2cdf8" stroke="none" style="isolation:auto;mix-blend-mode:normal" d="m 772.84375,749.00977 -7.3125,13.99218 16.99609,-3.99218 c 0.53904,0 0.97266,-0.446 0.97266,-1 l 0,-8 c 0,-0.554 -0.43362,-1 -0.97266,-1 l -9.68359,0 z" color="#000" overflow="visible" transform="translate(-724 271.852)"/><rect width="8" height="4" x="37.5" y="1024.863" fill="#f4f7f8" stroke="none" color="#000" overflow="visible" rx="0" ry="0" style="isolation:auto;mix-blend-mode:normal"/><rect width="8" height="4" x="37.5" y="1024.863" fill="none" stroke-linecap="round" stroke-linejoin="round" color="#000" overflow="visible" rx="0" ry="0" style="isolation:auto;mix-blend-mode:normal"/><path fill="none" stroke-linecap="round" stroke-linejoin="round" style="isolation:auto;mix-blend-mode:normal" d="m 24.47299,1020.8631 34.05402,0 c 0.539036,0 0.97299,0.446 0.97299,1 l 0,8 c 0,0.554 -0.433954,1 -0.97299,1 l -17.02701,4 -17.02701,-4 c -0.524751,-0.1233 -0.97299,-0.446 -0.97299,-1 l 0,-8 c 0,-0.554 0.433954,-1 0.97299,-1 z" color="#000" overflow="visible"/><rect width="28" height="5" x="33.5" y="1001.862" fill="none" stroke-linecap="round" stroke-linejoin="round"/><rect width="1" height="2" x="35" y="1005.362" fill="#0e7bff" stroke="none"/><rect width="1" height="3" x="37" y="1004.362" fill="#0e7bff" stroke="none"/><rect width="1" height="2" x="39" y="1005.362" fill="#0e7bff" stroke="none"/><rect width="1" height="3" x="41" y="1004.362" fill="#0e7bff" stroke="none"/><rect width="1" height="2" x="43" y="1005.362" fill="#0e7bff" stroke="none"/><rect width="1" height="3" x="45" y="1004.362" fill="#0e7bff" stroke="none"/><rect width="1" height="2" x="47" y="1005.362" fill="#0e7bff" stroke="none"/><rect width="1" height="3" x="49" y="1004.362" fill="#0e7bff" stroke="none"/><rect width="1" height="2" x="51" y="1005.362" fill="#0e7bff" stroke="none"/><rect width="1" height="3" x="53" y="1004.362" fill="#0e7bff" stroke="none"/><rect width="1" height="2" x="55" y="1005.362" fill="#0e7bff" stroke="none"/><rect width="1" height="3" x="57" y="1004.362" fill="#0e7bff" stroke="none"/><rect width="1" height="2" x="59" y="1005.362" fill="#0e7bff" stroke="none"/><path fill="none" stroke-linecap="round" stroke-linejoin="round" style="isolation:auto;mix-blend-mode:normal" d="m 51.5,1018.8622 2,0 c 0.554,0 1,0.446 1,1 0,0.554 0,1 0,1 l -4,0 c 0,0 0,-0.446 0,-1 0,-0.554 0.446,-1 1,-1 z" color="#000" overflow="visible"/></g></svg>