<svg xmlns="http://www.w3.org/2000/svg" width="64" height="64" viewBox="0 0 64 64"><g transform="translate(-386.136 -1830.873)"><path fill="#dae7fc" d="m 391.44888,1876.3062 -0.12579,-0.4695 -0.51764,-1.9319 c -0.14338,-0.5351 0.17198,-1.0813 0.70709,-1.2247 m 9.50953,-2.548 3.3467,-0.8968 m -2.29901,10.9688 -0.30925,0.083 -7.65977,2.0524 c -0.53512,0.1434 -1.08134,-0.172 -1.22473,-0.7071 l -0.38621,-1.4414"/><circle cx="412.427" cy="1854.084" r="1" fill="#6ca6fd" color="#000" overflow="visible" style="isolation:auto;mix-blend-mode:normal"/><ellipse style="isolation:auto;mix-blend-mode:normal" cx="420.865" cy="1856.084" fill="#f4f7f8" color="#000" overflow="visible" rx="4.5" ry="4.5"/><path fill="#b2cdf8" style="isolation:auto;mix-blend-mode:normal" d="m 414.36544,1864.2142 c 0.31744,-1.2008 0.0658,-2.483 -0.68082,-3.4692 -0.74664,-0.9863 -1.90337,-1.5645 -3.12987,-1.5645 l -0.0547,0.01 1e-5,5" color="#000" overflow="visible"/><path fill="#b2cdf8" d="M438.47266 1876.1805a5.499999 5.4999285 0 0 1 .0273.5 5.499999 5.4999285 0 0 1-.54688 2.375c.10527.071.21888.125.34766.125l6.39844 0c.44319 0 .80078-.446.80078-1l0-1c0-.554-.35759-1-.80078-1l-6.22656 0zM437.89258 1879.1805a5.499999 5.4999285 0 0 1-1.39258 1.7363l0 .2637c0 .554.35759 1 .80078 1l6.39844 0c.44319 0 .80078-.446.80078-1l0-1c0-.554-.35759-1-.80078-1l-5.80664 0zM437.23633 1873.1805a5.499999 5.4999285 0 0 1 1.23633 3l4.02734 0c.554 0 1-.446 1-1l0-1c0-.554-.446-1-1-1l-5.26367 0z"/><path fill="#dae7fc" d="m 411.5,1877.5243 0,1.6561 c 0,0.5541 -0.44599,1 -0.99998,1 l -18.00004,0 c -0.55399,0 -0.99998,-0.4459 -0.99998,-1 l 0,-8 c 0,-0.554 0.44599,-1 0.99998,-1 l 11.84915,0"/><path fill="#6ca6fd" d="m 432.45515,1871.0131 c 0.003,-0.051 0.0388,-0.5119 0.0409,-0.5636 0.0132,-0.3214 0.008,-0.6455 -0.0195,-0.9721 -0.38075,-4.5359 -4.60566,-8.2661 -10.20957,-9.081 l -3.072,-0.1442 c -1.12795,0.058 -2.22792,0.2362 -3.27375,0.523 l -3.448,1.4585 c -1.8703,1.1177 -3.35641,2.6577 -4.20763,4.5012 l -0.004,0 -0.75586,0 c -1.662,0 -3,1.338 -3,3 l 0,2 c 0,1.662 1.338,3 3,3 l 1.45703,0 -0.0254,0 c 0.97384,1.4694 2.3671,2.6678 4.00586,3.5566 l 0,3.7891 4,0 0,-2.3516 c 2.06804,0.4148 4.28612,0.416 6.45508,-0.068 0.53461,-0.1194 1.04578,-0.2716 1.54492,-0.4414 l 0,2.8613 4,0 0,-1.5455" color="#000" overflow="visible" style="isolation:auto;mix-blend-mode:normal"/><ellipse style="isolation:auto;mix-blend-mode:normal" cx="433" cy="1876.68" fill="#b2cdf8" color="#000" overflow="visible" rx="5.5" ry="5.5"/><g stroke="#0e7bff" transform="translate(463.006 659.868)"><path fill="#0e7bff" fill-rule="evenodd" stroke="none" style="line-height:normal;text-indent:0;text-align:start;text-decoration-line:none;text-decoration-style:solid;text-decoration-color:#000;text-transform:none;block-progression:tb;isolation:auto;mix-blend-mode:normal" d="m -32.501953,1212.8223 0,1 1.027344,0 c 1.207402,0 1.65625,0.7357 1.65625,1.4902 0,0.7545 -0.448848,1.4902 -1.65625,1.4902 l -1.027344,0 0,1 1.027344,0 c 1.668807,0 2.65625,-1.2541 2.65625,-2.4902 0,-1.2361 -0.987443,-2.4902 -2.65625,-2.4902 l -1.027344,0 z" color="#000" font-family="sans-serif" font-weight="400" overflow="visible" white-space="normal"/><path fill="#0e7bff" fill-rule="evenodd" stroke="none" d="M-32.47967 1214.812l0 1 4.96906 0 0-1-4.96906 0zM-32.47967 1212.812l0 1 4.96906 0 0-1-4.96906 0zM-31.800781 1216.7988l-.701172.7129 3.345703 3.2988.703125-.7109-3.347656-3.3008z" color="#000" font-family="sans-serif" font-weight="400" overflow="visible" white-space="normal" style="line-height:normal;text-indent:0;text-align:start;text-decoration-line:none;text-decoration-style:solid;text-decoration-color:#000;text-transform:none;block-progression:tb;isolation:auto;mix-blend-mode:normal"/></g><ellipse cx="433" cy="1876.68" fill="none" stroke="#0e7bff" stroke-linecap="round" stroke-linejoin="round" stroke-miterlimit="0" color="#000" overflow="visible" style="isolation:auto;mix-blend-mode:normal" rx="5.5" ry="5.5"/><path fill="none" stroke="#0e7bff" stroke-linecap="round" stroke-linejoin="round" d="m 412.51729,1859.7104 c -0.58986,-0.3428 -1.26491,-0.5299 -1.96254,-0.5299 l -0.0547,0.01 1e-5,4.1603" color="#000" overflow="visible" style="isolation:auto;mix-blend-mode:normal"/><path fill="none" stroke="#0e7bff" stroke-linecap="round" stroke-linejoin="round" d="M391.44888 1876.3062l-.12579-.4695-.51764-1.9319c-.14338-.5351.17198-1.0813.70709-1.2247m9.50953-2.548l3.3467-.8968m-2.29901 10.9688l-.30925.083-7.65977 2.0524c-.53512.1434-1.08134-.172-1.22473-.7071l-.38621-1.4414M438.47266 1876.1805a5.499999 5.4999285 0 0 1 .0273.5 5.499999 5.4999285 0 0 1-.54688 2.375c.10527.071.21888.125.34766.125l6.39844 0c.44319 0 .80078-.446.80078-1l0-1c0-.554-.35759-1-.80078-1l-6.22656 0zM437.89258 1879.1805a5.499999 5.4999285 0 0 1-1.39258 1.7363l0 .2637c0 .554.35759 1 .80078 1l6.39844 0c.44319 0 .80078-.446.80078-1l0-1c0-.554-.35759-1-.80078-1l-5.80664 0zM437.23633 1873.1805a5.499999 5.4999285 0 0 1 1.23633 3l4.02734 0c.554 0 1-.446 1-1l0-1c0-.554-.446-1-1-1l-5.26367 0z"/><path fill="#6ca6fd" d="m 416.36544,1864.2142 c 0.31744,-1.2008 0.0658,-2.483 -0.68082,-3.4692 -0.74664,-0.9863 -1.90337,-1.5645 -3.12987,-1.5645 l -0.0547,0.01 1e-5,5" color="#000" overflow="visible" style="isolation:auto;mix-blend-mode:normal"/><path fill="#6ca6fd" d="m 409.69149,1875.1446 c -0.13789,0.3851 -0.75453,1.0359 -1.18857,1.0359 -0.55314,0 -0.75292,-0.8232 -0.75292,-1.3747 l 0.97075,0.1694 z"/><path fill="none" stroke="#0e7bff" stroke-linecap="round" stroke-linejoin="round" style="isolation:auto;mix-blend-mode:normal" d="m 412.47326,1862.2337 c -1.8703,1.1177 -3.35641,2.6576 -4.20763,4.5012 l -0.004,0 -0.75586,0 c -1.662,0 -3,1.338 -3,3 l 0,2 c 0,1.662 1.338,3 3,3 l 1.45703,0 -0.0254,0 c 0.97384,1.4694 2.3671,2.6678 4.00586,3.5566 l 0,3.7891 4,0 0,-2.3516 c 2.06804,0.4148 4.28612,0.416 6.45508,-0.068 0.53461,-0.1194 1.04578,-0.2716 1.54492,-0.4414 l 0,2.8613 4,0 0,-1.5455 m 3.51178,-9.5223 c 0.003,-0.051 0.0388,-0.5119 0.0409,-0.5636 0.0132,-0.3214 0.008,-0.6455 -0.0195,-0.9721 -0.38075,-4.5359 -4.60566,-8.2661 -10.20957,-9.081 m -3.072,-0.1442 c -1.12795,0.058 -2.22792,0.2362 -3.27375,0.523" color="#000" overflow="visible"/><path fill="none" stroke="#0e7bff" stroke-linecap="round" stroke-linejoin="round" d="m 432.15915,1867.6916 c 4.20198,-2.5775 1.3529,-6.7831 0.0783,-4.1457 -0.74407,2.0331 3.21975,2.7049 3.42676,-2.9552"/><path fill="none" stroke="#0e7bff" stroke-linecap="round" stroke-linejoin="round" style="isolation:auto;mix-blend-mode:normal" d="m 416.36544,1864.2142 c 0.31744,-1.2008 0.0658,-2.483 -0.68082,-3.4692 -0.74664,-0.9863 -1.90337,-1.5645 -3.12987,-1.5645 l -0.0547,0.01 1e-5,5" color="#000" overflow="visible"/><circle cx="411.463" cy="1868.217" r=".963" fill="#dae7fc" color="#000" overflow="visible" style="isolation:auto;mix-blend-mode:normal"/><circle style="isolation:auto;mix-blend-mode:normal" cx="411.463" cy="1868.217" r=".963" fill="none" stroke="#0e7bff" stroke-linecap="round" stroke-linejoin="round" color="#000" overflow="visible"/><ellipse cx="420.865" cy="1856.084" fill="none" stroke="#0e7bff" stroke-linecap="round" stroke-linejoin="round" stroke-miterlimit="0" color="#000" overflow="visible" style="isolation:auto;mix-blend-mode:normal" rx="4.5" ry="4.5"/><path fill="none" stroke="#0e7bff" d="m 417.86455,1864.1805 6.12472,0"/><circle cx="412.427" cy="1854.084" r="1" fill="none" stroke="#0e7bff" stroke-dashoffset=".5" stroke-linecap="round" stroke-linejoin="round" style="isolation:auto;mix-blend-mode:normal" color="#000" overflow="visible"/><path fill="none" stroke="#0e7bff" d="M426.92691 1853.0837l3 0M428.42691 1851.5837l0 3"/><path fill="none" stroke="#0e7bff" stroke-linecap="round" stroke-linejoin="round" d="M420.86455 1856.5766l0-3M420.87167 1856.5836l1.99988 0"/><circle cx="420.865" cy="1856.584" r=".5" fill="#455a64" stroke="#0e7bff" stroke-linecap="round" stroke-linejoin="round" color="#000" overflow="visible" style="isolation:auto;mix-blend-mode:normal"/><path fill="none" stroke="#0e7bff" d="M419.36455 1850.0837l0-5M422.36455 1850.0837l0-5M417.3691 1851.0837l0-4M424.36455 1851.0837l0-4M417.3691 1846.0837l0-1M419.36455 1844.0837l0-1M422.36455 1844.0837l0-1M424.36455 1846.0837l0-1"/><path fill="none" stroke="#0e7bff" stroke-linecap="round" stroke-linejoin="round" d="m 411.5,1877.5243 0,1.6561 c 0,0.5541 -0.44599,1 -0.99998,1 l -18.00004,0 c -0.55399,0 -0.99998,-0.4459 -0.99998,-1 l 0,-8 c 0,-0.554 0.44599,-1 0.99998,-1 l 11.84915,0"/><path fill="#6ca6fd" d="m 398.4999,1875.1809 c 0,-1.6561 1.34938,-3.0004 3.00886,-3.0004 1.65994,0 2.99134,1.3443 2.99134,3.0004 0,1.6551 -1.3314,2.9994 -2.99134,2.9994 -1.65948,0 -3.00886,-1.3443 -3.00886,-2.9994 l 0,0 z"/><path fill="none" stroke="#0e7bff" stroke-linecap="round" stroke-linejoin="round" stroke-miterlimit="34.178" d="m 398.4999,1875.1809 c 0,-1.6561 1.34938,-3.0004 3.00886,-3.0004 1.65994,0 2.99134,1.3443 2.99134,3.0004 0,1.6551 -1.3314,2.9994 -2.99134,2.9994 -1.65948,0 -3.00886,-1.3443 -3.00886,-2.9994 l 0,0 z"/><path fill="#6ca6fd" d="m 393.5,1875.1808 c 0,-0.5524 0.44978,-1.0002 1.00292,-1.0002 0.5533,0 0.99708,0.4478 0.99708,1.0002 0,0.5515 -0.44378,0.9997 -0.99708,0.9997 -0.55314,0 -1.00292,-0.4482 -1.00292,-0.9997 l 0,0 z"/><path fill="#0e7bff" stroke="#0e7bff" stroke-linecap="round" stroke-linejoin="round" stroke-width=".25" d="m 401.50333,1877.0123 c 0.11834,0 0.21278,-0.099 0.21093,-0.2176 l 0,-0.1875 c 0.42008,-0.088 0.74915,-0.4286 0.74915,-0.8562 0,-0.4984 -0.44609,-0.8807 -0.96343,-0.8807 -0.31289,0 -0.53486,-0.2124 -0.53486,-0.4519 0,-0.2395 0.22199,-0.4512 0.53486,-0.4512 0.31288,0 0.53486,0.2117 0.53486,0.4512 -0.004,0.2898 0.43266,0.2898 0.42857,0 0,-0.4216 -0.33565,-0.7221 -0.74915,-0.812 l 0,-0.2343 c 0.004,-0.2898 -0.43266,-0.2898 -0.42856,0 l 0,0.2352 c -0.41314,0.09 -0.74914,0.3889 -0.74914,0.8102 0,0.452 0.32058,0.8798 0.93329,0.8798 0.007,8e-4 0.0145,0 0.0218,0 l 0.009,0 c 0.31287,0 0.53487,0.2125 0.53487,0.4519 0,0.2364 -0.21693,0.4439 -0.52315,0.4495 -0.008,-8e-4 -0.0162,-8e-4 -0.0243,-8e-4 -0.30567,-0.01 -0.52231,-0.2126 -0.52231,-0.4487 0.004,-0.2898 -0.43266,-0.2898 -0.42855,0 0,0.4277 0.32906,0.768 0.74913,0.8563 l 0,0.1875 c -0.002,0.121 0.11623,0.2196 0.23717,0.2176 z" color="#000" font-family="sans-serif" font-weight="400" overflow="visible" style="line-height:normal;text-indent:0;text-align:start;text-decoration-line:none;text-decoration-style:solid;text-decoration-color:#000;text-transform:none;block-progression:tb;isolation:auto;mix-blend-mode:normal" white-space="normal"/><path fill="none" stroke="#0e7bff" stroke-linecap="round" stroke-linejoin="round" stroke-miterlimit="34.178" d="M393.5 1875.1808c0-.5524.44978-1.0002 1.00292-1.0002.5533 0 .99708.4478.99708 1.0002 0 .5515-.44378.9997-.99708.9997-.55314 0-1.00292-.4482-1.00292-.9997l0 0zM409.44149 1875.5196c-.13789.3851-.50453.6609-.93857.6609-.55314 0-1.00292-.4482-1.00292-.9997"/><path fill="none" stroke="#0e7bff" stroke-linecap="round" stroke-linejoin="round" d="m 404.74219,1872.1805 2.25781,0"/><ellipse cx="433" cy="1876.68" fill="none" stroke="#0e7bff" stroke-linecap="round" stroke-linejoin="round" stroke-miterlimit="0" color="#000" overflow="visible" style="isolation:auto;mix-blend-mode:normal" rx="5.5" ry="5.5"/><ellipse cx="433" cy="1876.68" fill="none" stroke="#0e7bff" stroke-linecap="round" stroke-linejoin="round" stroke-miterlimit="0" color="#000" overflow="visible" style="isolation:auto;mix-blend-mode:normal" rx="5.5" ry="5.5"/></g></svg>