<svg xmlns="http://www.w3.org/2000/svg" xmlns:xlink="http://www.w3.org/1999/xlink" width="96" height="96" viewBox="0 0 96 96"><defs><linearGradient id="b" x1="1056.035" x2="1031.176" y1="544.13" y2="517.701" gradientTransform="matrix(3.0757 0 0 3.0757 -3163.474 -629.677)" gradientUnits="userSpaceOnUse" xlink:href="#a"/><linearGradient id="a"><stop offset="0" stop-color="#5a5a5a"/><stop offset="1" stop-color="#656e85"/></linearGradient></defs><g transform="translate(0 -956.362)"><rect width="96" height="96" y="956.362" fill="url(#b)" rx="20.288" ry="20.288"/><path fill="#fff" fill-rule="evenodd" style="line-height:normal;text-indent:0;text-align:start;text-decoration-line:none;text-decoration-style:solid;text-decoration-color:#000;text-transform:none;block-progression:tb;isolation:auto;mix-blend-mode:normal" d="m 47.865235,982.57041 0,1 1,0 0,-1 -1,0 z m 3,0 0,1 1,0 0,-1 -1,0 z m -4.996093,2 0,1 1,0 0,-1 -1,0 z m 1.996093,0 0,5 1,0 0,-5 -1,0 z m 3,0 0,5 1,0 0,-5 -1,0 z m 2,0 0,1 1,0 0,-1 -1,0 z m -6.996093,2 0,4 1,0 0,-4 -1,0 z m 6.996093,0 0,4 1,0 0,-4 -1,0 z m -3,4 c -2.755523,0 -5.000036,2.2445 -5,5 1.4e-5,1.5429 0.719027,2.908 1.822266,3.8261 -0.597226,0.087 -1.18443,0.2026 -1.755859,0.3536 -0.840915,-0.9968 -2.071943,-1.5821 -3.376953,-1.5821 a 0.50005572,0.50005572 0 0 0 -0.08984,0.01 l -0.05469,0.01 a 0.50005572,0.50005572 0 0 0 -0.349609,0.2539 c -0.477929,-0.1748 -0.984763,-0.2735 -1.505859,-0.2735 a 0.50005572,0.50005572 0 0 0 -0.08984,0.01 l -0.05469,0.01 a 0.50005572,0.50005572 0 0 0 -0.410156,0.4902 l 0,4.16019 a 0.50005572,0.50005572 0 0 0 0.02344,0.1543 c -0.817194,0.8069 -1.499979,1.7218 -2.011719,2.7285 l -0.50586,0 c -1.595223,0 -2.929328,1.0794 -3.349609,2.541 l -3.263672,0.873 a 0.50005,0.50005 0 0 0 -0.09961,0.033 l -8.292969,0 c -0.822346,0 -1.5,0.6777 -1.5,1.5 l 0,1.1875 c -0.554229,0.3377 -0.85324,1.0111 -0.677734,1.666 l 0.517578,1.9317 0.126953,0.4707 a 0.50005,0.50005 0 0 0 0.0332,0.098 l 0,2.6465 c 0,0.6783 0.463111,1.2512 1.085938,1.4336 l 0.30664,1.1485 c 0.212843,0.7943 1.043546,1.2734 1.837891,1.0605 l 7.660156,-2.0527 0.308594,-0.084 a 0.50005,0.50005 0 0 0 0.02148,-0.01 l 8.279297,0 c 0.822347,0 1.5,-0.6776 1.5,-1.5 l 0,-0.916 c 0.148835,0.093 0.289971,0.1953 0.443359,0.2832 l 0,3.5313 a 0.50005,0.50005 0 0 0 0.5,0.5 l 4,0 a 0.50005,0.50005 0 0 0 0.5,-0.5 l 0,-1.8047 c 1.965077,0.3184 4.027957,0.3275 6.064453,-0.127 0.326296,-0.073 0.626205,-0.1751 0.935547,-0.2675 l 0,2.1992 a 0.50005,0.50005 0 0 0 0.5,0.5 l 4,0 a 0.50005,0.50005 0 0 0 0.5,-0.5 l 0,-0.5782 c 0.996696,0.7374 2.22481,1.1797 3.556641,1.1797 1.144888,0 2.211754,-0.3297 3.123047,-0.8886 0.194614,0.5017 0.615213,0.8886 1.177734,0.8886 l 6.398438,0 c 0.778637,0 1.300781,-0.7308 1.300781,-1.5 l 0,-1 c 0,-0.1802 -0.03397,-0.3582 -0.08789,-0.5254 C 74.570151,1019.0192 75,1018.3608 75,1017.6649 l 0,-1 c 0,-0.7691 -0.522144,-1.5 -1.300781,-1.5 l -0.792969,0 c 0.05703,-0.1577 0.09375,-0.3237 0.09375,-0.5 l 0,-1 c 0,-0.8223 -0.677649,-1.5 -1.5,-1.5 l -5.039062,0 c -1.099374,-1.2249 -2.689845,-2 -4.460938,-2 -0.0066,0 -0.01297,0 -0.01953,0 0.0061,-0.077 0.01332,-0.1545 0.01563,-0.2109 0.01399,-0.3407 0.0078,-0.6845 -0.02148,-1.0332 -0.04852,-0.5781 -0.158231,-1.1422 -0.318359,-1.6895 1.262094,-0.9681 1.649452,-2.1005 1.697266,-3.1269 0.778141,-0.742 1.432193,-1.8908 1.509765,-4.0117 a 0.50005,0.50005 0 0 0 -0.488281,-0.52539 0.50005,0.50005 0 0 0 -0.509766,0.49019 c -0.04536,1.2402 -0.305978,2.0366 -0.603515,2.6465 -0.241104,-0.496 -0.598352,-0.906 -1.125,-0.9941 -0.316952,-0.053 -0.664788,0.028 -0.949219,0.2246 -0.284431,0.1964 -0.512694,0.4929 -0.699219,0.8789 a 0.50005,0.50005 0 0 0 -0.01953,0.045 c -0.238308,0.6512 -0.102575,1.3226 0.314453,1.7246 0.394453,0.3802 0.99171,0.4607 1.568359,0.3145 -0.188831,0.4376 -0.522365,0.8978 -1.052734,1.3437 -1.354867,-3.1698 -4.555193,-5.626 -8.574219,-6.58399 1.290355,-0.9054 2.140611,-2.3986 2.140625,-4.0898 3.7e-5,-2.7555 -2.244477,-5 -5,-5 z m 7.0625,0.5 0,1 -1,0 0,1 1,0 0,1 1,0 0,-1 1,0 0,-1 -1,0 0,-1 -1,0 z m -7.0625,0.5 c 2.215086,0 4.00003,1.7849 4,4 -2e-5,2.215 -1.78495,4 -4,4 -0.493859,0 -0.960402,-0.1012 -1.396484,-0.2637 a 0.50005,0.50005 0 0 0 -0.002,0 0.50005,0.50005 0 0 0 -0.185547,-0.062 c -1.42218,-0.6122 -2.416001,-2.021 -2.416016,-3.6719 -2.9e-5,-2.2151 1.784915,-4 4,-4 z m -8.4375,0.5 c -0.822504,0 -1.5,0.6775 -1.5,1.5 0,0.8225 0.677496,1.5 1.5,1.5 0.822505,0 1.5,-0.6775 1.5,-1.5 0,-0.8225 -0.677495,-1.5 -1.5,-1.5 z m 8.429688,0.4863 a 0.50005,0.50005 0 0 0 -0.492188,0.5078 l 0,2.1602 c -0.292463,0.1758 -0.5,0.4843 -0.5,0.8457 0,0.5463 0.453638,1 1,1 0.36102,0 0.667825,-0.208 0.84375,-0.5 l 1.16211,0 a 0.50005,0.50005 0 1 0 0,-1 l -1.16211,0 c -0.08579,-0.1426 -0.201125,-0.26 -0.34375,-0.3457 l 0,-2.1602 a 0.50005,0.50005 0 0 0 -0.507812,-0.5078 z m -8.429688,0.5137 c 0.282065,0 0.5,0.2179 0.5,0.5 0,0.282 -0.217935,0.5 -0.5,0.5 -0.282064,0 -0.5,-0.218 -0.5,-0.5 0,-0.2821 0.217936,-0.5 0.5,-0.5 z m 0.582032,6.2051 c 0.888503,0.1246 1.719691,0.5237 2.27539,1.25779 0.653379,0.863 0.875935,1.9883 0.597656,3.041 a 0.50005572,0.50005572 0 1 0 0.966797,0.2558 c 0.284359,-1.0756 0.156846,-2.2093 -0.330078,-3.1875 0.849089,-0.203 1.726417,-0.3456 2.628907,-0.3964 0.537857,0.1984 1.111163,0.3242 1.716796,0.3242 0.454124,0 0.886082,-0.081 1.304688,-0.1953 a 0.50005,0.50005 0 0 0 0.02539,0 c 4.483373,0.6519 7.988506,3.216 9.273438,6.4863 a 0.50061202,0.50061202 0 0 0 0.263672,0.7969 c 0.119702,0.4387 0.207759,0.887 0.246094,1.3437 0.02555,0.3045 0.02999,0.608 0.01758,0.9102 0.0012,-0.028 -0.01,0.1379 -0.01953,0.2656 -0.0027,0.035 -0.0036,0.048 -0.0059,0.08 -2.818258,0.4905 -4.970688,2.9501 -4.970703,5.9062 8e-6,1.4858 0.545239,2.8434 1.443359,3.8926 l 0,1.0059 -3,0 0,-2.3614 a 0.50005,0.50005 0 0 0 -0.660156,-0.4726 c -0.486737,0.1657 -0.981516,0.3113 -1.494141,0.4258 -2.098039,0.4683 -4.247394,0.4681 -6.248046,0.066 a 0.50005,0.50005 0 0 0 -0.597657,0.4902 l 0,1.8516 -3,0 0,-3.2891 a 0.50005,0.50005 0 0 0 -0.261718,-0.4394 c -1.551666,-0.8416 -2.853804,-1.9722 -3.773438,-3.3321 a 0.50005,0.50005 0 0 0 -0.445312,-0.2851 l -0.02539,0 -1.431641,0 c -1.056819,0 -1.945199,-0.6375 -2.314453,-1.5528 l 1.808594,0 a 0.50005,0.50005 0 1 0 0,-1 l -1.994141,0 0,-1.9472 c 0,-1.3936 1.106352,-2.5 2.5,-2.5 l 0.75586,0 0.0039,0 a 0.50005,0.50005 0 0 0 0.453125,-0.291 c 0.690174,-1.4948 1.833423,-2.7863 3.28125,-3.8028 l 0,1.0508 a 0.50005572,0.50005572 0 1 0 1,0 l 0,-1.7695 a 0.50005,0.50005 0 0 0 0,-0.4864 l 0,-2.09959 a 0.50013195,0.50013195 0 0 0 0.0098,-0.047 z m -2.009766,0.014 c 0.341039,0.047 0.684786,0.095 1,0.2168 l 0,1.92579 c -0.346868,0.2178 -0.683069,0.4475 -1,0.6953 l 0,-2.83789 z m 21.970703,3.40819 0,0 c 0.12746,0.021 0.373485,0.2105 0.505859,0.6094 0.03059,0.092 -0.04182,0.2551 -0.02539,0.3632 -0.102165,0.064 -0.213487,0.263 -0.304688,0.2911 -0.316375,0.098 -0.546532,0.019 -0.669922,-0.1 -0.1201,-0.1158 -0.187543,-0.2966 -0.06836,-0.6425 0.125108,-0.2447 0.254336,-0.3984 0.347656,-0.4629 0.09893,-0.068 0.151114,-0.071 0.214844,-0.061 z m -15.105469,0.4707 0,1 6.125,0 0,-1 -6.125,0 z m -6.402343,3.0723 c -0.802291,0 -1.462863,0.6625 -1.462891,1.4648 2.8e-5,0.8023 0.6606,1.4629 1.462891,1.4629 0.80229,0 1.464815,-0.6606 1.464843,-1.4629 -2.8e-5,-0.8023 -0.662553,-1.4648 -1.464843,-1.4648 z m 0,1 c 0.261862,0 0.464834,0.203 0.464843,0.4648 -9e-6,0.2619 -0.202981,0.4629 -0.464843,0.4629 -0.261863,0 -0.462882,-0.201 -0.462891,-0.4629 9e-6,-0.2618 0.201028,-0.4648 0.462891,-0.4648 z m -18.962891,2.9277 11.505859,0 0,1.0528 c 0,0.093 0.02021,0.1803 0.02734,0.2715 a 0.50005,0.50005 0 0 0 0.04492,0.4414 c 0.0447,0.2154 0.112912,0.422 0.195313,0.6211 -0.637962,-0.8366 -1.633721,-1.3868 -2.765626,-1.3868 -1.860248,0 -3.360975,1.4723 -3.46875,3.3047 a 0.50004991,0.50004991 0 0 0 -0.03906,0.1953 c 0,1.927 1.578311,3.5 3.507812,3.5 1.92989,0 3.492188,-1.5767 3.492188,-3.5 0,-0.4702 -0.0945,-0.9193 -0.263672,-1.33 0.54221,0.7075 1.342058,1.197 2.263672,1.332 0.0011,0.8225 0.679379,1.498 1.501953,1.498 0.404397,0 0.762501,-0.1742 1.033203,-0.4375 0.441686,0.4838 0.938065,0.9198 1.464844,1.3262 l 0,1.6113 c 0,0.2857 -0.214365,0.5 -0.5,0.5 l -18,0 c -0.285634,0 -0.5,-0.2143 -0.5,-0.5 l 0,-6.3652 a 0.50005,0.50005 0 0 0 0,-0.2734 l 0,-1.3614 c 0,-0.2856 0.214366,-0.5 0.5,-0.5 z m 40.5,1 c 1.628128,0 3.05656,0.7846 3.96875,1.9844 0.09097,0.1198 0.18035,0.2403 0.259766,0.3672 0.08444,0.1348 0.156988,0.2768 0.228515,0.4199 0.0767,0.1536 0.148516,0.3082 0.208985,0.4688 0.07633,0.203 0.143599,0.4103 0.193359,0.625 0.05186,0.2223 0.09412,0.4504 0.115234,0.6797 0.01505,0.1497 0.02391,0.3006 0.02539,0.4511 -0.0012,0.3663 -0.04459,0.7287 -0.125,1.084 -0.05281,0.2391 -0.129268,0.4686 -0.214844,0.6934 -0.04045,0.105 -0.0833,0.2101 -0.130859,0.3125 -0.09811,0.2126 -0.204269,0.4201 -0.330078,0.6152 -0.05576,0.087 -0.120711,0.167 -0.181641,0.25 -0.115303,0.1566 -0.238683,0.3074 -0.371094,0.4492 -0.07907,0.085 -0.161145,0.1668 -0.246093,0.2461 -0.892317,0.8312 -2.08088,1.3496 -3.400391,1.3496 -0.172959,0 -0.343352,-0.01 -0.511719,-0.027 -0.168367,-0.017 -0.335101,-0.041 -0.498047,-0.074 -2.281243,-0.4652 -3.990222,-2.4771 -3.990234,-4.8985 10e-7,-0.1729 0.0084,-0.3453 0.02539,-0.5136 0.255431,-2.5255 2.380229,-4.4864 4.974609,-4.4864 z m -2.472656,0.9981 0,0.012 -0.02344,0 0,1 1.027344,0 c 0.932313,0 1.40583,0.441 1.576172,0.9883 l -2.580078,0 0,1 2.580078,0 c -0.169334,0.5489 -0.641771,0.9922 -1.576172,0.9922 l -0.322266,0 -0.0039,0 -0.0039,0 -0.697266,0 0,0.709 0,0.291 0.294922,0 3.050781,3.0078 0.703125,-0.711 -2.396484,-2.3632 c 1.085778,-0.2269 1.782974,-1.0343 1.974609,-1.9258 l 1.365235,0 0,-1 -1.365235,0 c -0.07758,-0.3596 -0.243809,-0.7002 -0.478515,-1 l 1.84375,0 0,-1 -4.96875,0 z m -29.019532,0 c 1.38999,0 2.492188,1.1119 2.492188,2.5 0,1.3871 -1.102198,2.5 -2.492188,2.5 -1.389452,0 -2.507812,-1.1165 -2.507812,-2.5 0,-1.3845 1.118361,-2.5 2.507812,-2.5 z m -0.0078,0.4727 c -0.10819,0 -0.216892,0.074 -0.214844,0.2187 l 0,0.2344 c -0.413134,0.09 -0.748047,0.3893 -0.748047,0.8106 0,0.452 0.320886,0.8789 0.933594,0.8789 0.0069,8e-4 0.01419,0 0.02149,0 l 0.0078,0 c 0.312868,0 0.535156,0.2137 0.535156,0.4531 0,0.2364 -0.21722,0.4436 -0.523437,0.4492 -0.0077,-8e-4 -0.01538,0 -0.02344,0 -0.305668,-0.01 -0.523437,-0.2112 -0.523437,-0.4473 0.0043,-0.2898 -0.43184,-0.2898 -0.427735,0 0,0.4277 0.327969,0.7672 0.748047,0.8555 l 0,0.1875 c -0.0017,0.121 0.09779,0.2188 0.21875,0.2168 l 0,0 c 0.118344,0 0.21279,-0.098 0.210938,-0.2168 l 0,-0.1875 c 0.420078,-0.088 0.748047,-0.4279 0.748047,-0.8555 0,-0.4984 -0.445547,-0.8808 -0.962891,-0.8808 -0.312885,0 -0.535156,-0.2136 -0.535156,-0.4531 0,-0.2395 0.222288,-0.4512 0.535156,-0.4512 0.312877,0 0.535156,0.2117 0.535156,0.4512 -0.0043,0.2898 0.431832,0.2898 0.427735,0 0,-0.4216 -0.334543,-0.7207 -0.748047,-0.8106 l 0,-0.2344 c 0.0022,-0.1449 -0.106654,-0.2187 -0.214844,-0.2187 z m -6.998047,0.5273 c -0.684877,0 -1.176183,0.5126 -1.353515,1.1446 a 0.50004994,0.50004994 0 0 0 -0.148438,0.3554 c 0,0.8234 0.678718,1.5 1.501953,1.5 0.823313,0 1.498047,-0.6802 1.498047,-1.5 0,-0.8202 -0.674975,-1.5 -1.498047,-1.5 z m 43.6875,0 4.310547,0 c 0.285649,0 0.5,0.2144 0.5,0.5 l 0,1 c 0,0.2857 -0.214351,0.5 -0.5,0.5 l -3.591797,0 c -0.121179,-0.7181 -0.365805,-1.392 -0.71875,-2 z m -43.6875,1 c 0.283516,0 0.498047,0.2154 0.498047,0.5 0,0.2833 -0.214772,0.5 -0.498047,0.5 -0.283049,0 -0.501953,-0.2203 -0.501953,-0.5 0,-0.281 0.218663,-0.5 0.501953,-0.5 z m 13.507813,0.5528 0.708984,0 c 0.05397,0.076 0.11975,0.1439 0.175781,0.2187 -0.08838,0.1295 -0.218058,0.2285 -0.392578,0.2285 -0.263997,0 -0.465357,-0.1945 -0.492187,-0.4472 z m 30.990234,1.4472 3.5,0 2.199219,0 c 0.107746,0 0.300781,0.1612 0.300781,0.5 l 0,1 c 0,0.3389 -0.193035,0.5 -0.300781,0.5 l -1,0 -5.048828,0 c 0.222607,-0.6263 0.349378,-1.2965 0.349609,-1.998 l 0,0 z m -0.8125,3 5.511719,0 c 0.107746,0 0.300781,0.1612 0.300781,0.5 l 0,1 c 0,0.3389 -0.193035,0.5 -0.300781,0.5 l -6.398438,0 c -0.107746,0 -0.300781,-0.1611 -0.300781,-0.5 l 0,-0.041 c 0.467927,-0.4201 0.869658,-0.912 1.1875,-1.459 z m -45.048828,1 5.21875,0 -4.386719,1.1758 c -0.275882,0.074 -0.537399,-0.078 -0.611328,-0.3535 l -0.220703,-0.8223 z" color="#000" font-family="sans-serif" font-weight="400" overflow="visible" white-space="normal"/></g></svg>