<svg xmlns="http://www.w3.org/2000/svg" width="96" height="96" xmlns:v="https://vecta.io/nano"><defs><linearGradient id="A" x1="13.723" x2="86.657" y1="958.771" y2="1044.451" gradientUnits="userSpaceOnUse"><stop offset="0" stop-color="#fff"/><stop offset="1" stop-color="#24f3d2"/></linearGradient></defs><g transform="translate(0 -956.362)"><rect width="96" height="96" y="956.362" fill="url(#A)" rx="20.288"/><path fill-rule="evenodd" d="M50.72 983.115a1.51 1.51 0 0 0-1.5 1.5c0 .083.013.161.026.24l-7.08 4.368a1.327 1.327 0 0 0-1.453-.092 1.31 1.31 0 0 0-.37.322l-6.491-1.094a1.476 1.476 0 0 0-.176-.5 1.51 1.51 0 0 0-2.053-.549 1.51 1.51 0 0 0-.678 1.758l-5.6 3.2a1.625 1.625 0 0 0-.87-.256c-.904 0-1.647.743-1.647 1.646 0 .348.112.67.299.938l-3.955 6.539a1.506 1.506 0 0 0-1.297 1.48 1.51 1.51 0 0 0 1.21 1.471l4.52 5.5a1.293 1.293 0 0 0-.12.537 1.3 1.3 0 0 0 .36.89l-3.144 5.803c-.041 0-.08-.012-.123-.012a1.76 1.76 0 0 0-1.75 1.75 1.76 1.76 0 0 0 1.75 1.75 1.73 1.73 0 0 0 1.031-.347l8.813 2.076a2.01 2.01 0 0 0 1.953 1.578c.718 0 1.346-.389 1.7-.963l12.376 1.904a1.505 1.505 0 0 0 1.424 1.06c.666 0 1.229-.45 1.422-1.056l12.691-1.812a2.003 2.003 0 0 0 1.887 1.367c.997 0 1.823-.745 1.969-1.703l8.52-2.38c.26.173.573.276.907.276.904 0 1.647-.743 1.647-1.646s-.743-1.647-1.647-1.647h-.015l-2.17-5.968a1.31 1.31 0 0 0 .385-.922c0-.319-.13-.603-.323-.832l3.358-7.592c.89-.015 1.619-.75 1.619-1.645a1.65 1.65 0 0 0-1.514-1.632l-1.78-8.787c.173-.215.294-.475.294-.77a1.26 1.26 0 0 0-1.25-1.25c-.536 0-.994.349-1.17.828l-10.24-.035a1.503 1.503 0 0 0-1.479-1.297c-.594 0-1.107.355-1.35.862l-7.445-3.084c.017-.09.03-.18.03-.274a1.51 1.51 0 0 0-1.5-1.5zm0 1a.49.49 0 1 1 0 1 .493.493 0 0 1-.5-.5c0-.282.219-.5.5-.5zm-.988 1.616c.266.235.61.384.989.384.363 0 .694-.138.955-.357l7.875 3.262a1.503 1.503 0 0 0 1.328 1.08l1.617 4.304a1.54 1.54 0 0 0-.297.29l-8.873-3.08c0-.02.006-.039.006-.06a1.76 1.76 0 0 0-1.75-1.75c-.807 0-1.487.56-1.685 1.309l-7.227-.873c-.001-.053.011-.105.004-.158l7.058-4.352zm-17.418 2.38a.493.493 0 0 1 .497.248.497.497 0 0 1-.186.688.494.494 0 0 1-.502-.869.5.5 0 0 1 .191-.066zm28.672 0a.49.49 0 1 1 0 1 .493.493 0 0 1-.5-.5.49.49 0 0 1 .5-.5zm12.889.504c.144 0 .25.106.25.25s-.106.25-.25.25a.243.243 0 0 1-.25-.25c0-.144.106-.25.25-.25zm-40.2.73l6.391 1.077c.012.11.038.217.079.322l-7.643 4.89a1.492 1.492 0 0 0-1.127-.523c-.475 0-.896.23-1.172.579l-4.088-1.963.006-.068c0-.216-.046-.422-.123-.612l5.566-3.18c.46.293 1.061.334 1.561.046.24-.14.423-.339.55-.567zm28.575.062l10.463.037-8.211 5.191a1.492 1.492 0 0 0-1.043-.515l-1.611-4.288c.16-.114.296-.259.402-.425zm-20.916.549a.31.31 0 0 1 .314.158.312.312 0 0 1-.117.435.311.311 0 0 1-.435-.117.31.31 0 0 1 .117-.433.334.334 0 0 1 .121-.043zm32.252.12a1.16 1.16 0 0 0 .289.04h.031l1.733 8.535c-.305.183-.546.46-.682.79l-7.35 4.321-2.148-3.72a.5.5 0 0 0-.133-.151l-.883-3.232c.266-.276.432-.642.432-1.048l-.002-.027 8.713-5.507zm-22.004.73a.74.74 0 1 1 0 1.5.74.74 0 1 1 0-1.5zm-9.043.427l7.399.894c.24.681.885 1.178 1.644 1.178a1.75 1.75 0 0 0 1.422-.744l8.646 3.002-12.55 2.982a1.975 1.975 0 0 0-1.225-.433 1.96 1.96 0 0 0-.896.222l-4.44-7.101zm-1.668.234a1.32 1.32 0 0 0 .701.106L46.215 999c-.123.183-.21.39-.268.608h-.035l-13.058-2.799c.009-.066.021-.13.021-.2l-.002-.026 7.998-5.117zm-16.396 1.545a.64.64 0 0 1 .443.174l.168.297c.016.057.035.113.035.176a.639.639 0 1 1-1.293 0 .64.64 0 0 1 .647-.647zm1.289 1.654l4.115 1.975c.012.586.365 1.093.869 1.328l-.281 1.832a.5.5 0 0 0-.31.236l-4 6.928a.5.5 0 0 0 .183.684l.092.053-1.145 1.2a1.306 1.306 0 0 0-.484-.097c-.167 0-.326.034-.473.092l-4.13-5.033c.405-.27.675-.73.675-1.249s-.27-.978-.674-1.248l3.727-6.164c.172.062.354.102.547.102a1.64 1.64 0 0 0 1.289-.639zm37.611.445a.49.49 0 1 1 0 1 .493.493 0 0 1-.5-.5.49.49 0 0 1 .5-.5zm-32 1a.49.49 0 1 1 0 1 .493.493 0 0 1-.5-.5.49.49 0 0 1 .5-.5zm30.777.36c.273.385.72.64 1.223.64.052 0 .102-.01.152-.016l.82 3.006-1.534.885a.5.5 0 0 0-.01.01l-4.596 2.653-8.428-2.958a1.93 1.93 0 0 0 .096-.576c0-.243-.05-.475-.13-.691l12.407-2.95zm-29.79 1.258l13.476 2.886.107-.01a2.012 2.012 0 0 0 1.094 1.313l-2.197 5.861a3.84 3.84 0 0 0-.953.365l-1.393-.806.078-.135a.5.5 0 0 0-.183-.684l-1.186-.683-.611-.354-9.176-5.297.328-2.128a1.5 1.5 0 0 0 .615-.33zm15.513 1.382a.99.99 0 1 1 0 2h-.006l-.463-.171-.013.034a.993.993 0 0 1 .482-1.863zm28.604.297a.64.64 0 0 1 .646.647.639.639 0 1 1-1.293 0 .64.64 0 0 1 .647-.647zm-1.541 1.201c.117.323.327.602.605.795l-3.277 7.412c-.039 0-.076-.012-.116-.012-.356 0-.68.146-.918.38l-2.978-.635 1.156-.666a.5.5 0 0 0 .184-.684l-1.487-2.574 6.83-4.016zm-44.165.36l8.89 5.133-3.186 5.52a.5.5 0 0 0-.182.314l-.133.228-8.889-5.133 3.5-6.062zm34.07 0l3.636 6.295-8.856 5.113-3.635-6.297 8.856-5.111zm-15.599.588l7.82 2.746-3.837 2.215a.5.5 0 0 0-.182.683l.078.137-1.39.8a3.877 3.877 0 0 0-1.225-.44h-.002a3.803 3.803 0 0 0-2.551.459.5.5 0 0 0-.002 0l-.139.08-.162-.088a3.988 3.988 0 0 0-1.447-.46c-.087-.01-.173-.01-.26-.011l2.096-5.586a1.985 1.985 0 0 0 1.203-.535zm-29.869.558a.49.49 0 1 1 0 1 .493.493 0 0 1-.5-.5.49.49 0 0 1 .5-.5zm35.746 4.467l2.27 3.93a.5.5 0 0 0 .48.834l.277.478-.962.555-.393-.68a.5.5 0 0 0-.111-.193l-2.522-4.37.961-.554zm-14.594.02l.178.103.752.433-3.025 5.242-.932-.537.303-.523a.5.5 0 0 0 .496-.859l2.228-3.86zm13.096 1.603l2 3.463-1.031.595a3.83 3.83 0 0 0-.31-.793.5.5 0 0 0-.055-.119l-1.026-1.777a3.84 3.84 0 0 0-.603-.778l1.025-.591zm-11.627 0l1.024.591a3.797 3.797 0 0 0-.602.776l-1.027 1.777c-.17.293-.282.6-.368.912l-1.027-.594 2-3.462zm-14.676.01l8.774 5.064a.5.5 0 0 0 .683-.184l.223-.386.803.463-5.188 6.463-.24-.023c-.077 0-.15.013-.225.02l-6.203-8.896c.102-.186.174-.388.174-.613a1.3 1.3 0 0 0-.115-.528l1.314-1.38zm22.754.431a2.836 2.836 0 0 1 2.26 1.428l1.027 1.777a2.85 2.85 0 0 1 .368 1.188.5.5 0 0 0 .01.119 2.83 2.83 0 0 1-.028.537 1.405 1.405 0 0 0-.166-.12l-3.422-1.976a1.467 1.467 0 0 0-.139-.699.5.5 0 0 0-.029-.074.5.5 0 0 0-.029-.053c-.005-.01-.013-.015-.018-.024a.5.5 0 0 0-.03-.039c-.004-.01-.01-.014-.015-.022-.038-.056-.073-.113-.117-.162a1.476 1.476 0 0 0-.475-.348h-.002a1.573 1.573 0 0 0-1.439.068.5.5 0 0 0-.02.014l-.021.014-1.887 1.09a.5.5 0 0 0-.072.05l-.037.021c-.366.211-.794.082-1.16-.195l1.033-.598 1.176-.68a.5.5 0 0 0 .01-.01l1.226-.707a.5.5 0 0 0 .002 0 .5.5 0 0 0 .041-.025l.334-.193a2.829 2.829 0 0 1 1.62-.377zm-4.537.016c.404-.027.817.04 1.219.188l-.404.234a.5.5 0 0 0-.043.025l-1.143.66a.5.5 0 0 0-.002 0l-1.623.94a.5.5 0 0 0-.148.131.5.5 0 0 0-.051.082.5.5 0 0 0-.045.139.5.5 0 0 0-.004.098.5.5 0 0 0 .016.096.5.5 0 0 0 .05.119c.076.13.162.252.258.363.67.78 1.785 1.053 2.676.539l1.895-1.096a.5.5 0 0 0 .074-.049h.008a.5.5 0 0 0 .002 0l.058-.033c.23-.132.47-.096.629.047a.5.5 0 0 0-.055.895l.4.23a.5.5 0 0 0 .042.025l3.699 2.135a.363.363 0 1 1-.375.648l-4.115-2.375-.432-.25a.5.5 0 1 0-.5.868l.432.25 4.115 2.375.402.234a.5.5 0 0 0 .159.14.36.36 0 0 1 .007.387.362.362 0 0 1-.511.137l-.43-.248h-.002l-4.115-2.375-.432-.25a.5.5 0 0 0-.5.867l.432.248 4.115 2.377a.363.363 0 0 1 .137.512.362.362 0 0 1-.512.137l-.867-.5-3.68-2.125-.867-.5a.5.5 0 0 0-.5.865l.867.502 3.68 2.123a.363.363 0 1 1-.375.648l-4.274-2.466-.008-.01a.5.5 0 0 0-.005 0l-.26-.149-1.344-.777a2.824 2.824 0 0 1-1.03-3.885l1.026-1.777a2.8 2.8 0 0 1 2.254-1.412zm21.426.633l3.869.826c0 .27.103.507.244.717l-7.013 9.289a1.173 1.173 0 0 0-.188-.017c-.392 0-.757.117-1.066.314l-8.155-6.341c.053-.248.087-.5.09-.754l1.379-.795.447.775a.5.5 0 0 0 .684.184l1.394-.805.36.621a.5.5 0 0 0 .681.184l7.274-4.2zm-42.16.51a.31.31 0 1 1 0 .637.31.31 0 1 1 0-.637zm47.347 0a.31.31 0 0 1 .32.318.312.312 0 0 1-.32.319.31.31 0 1 1 0-.637zm-46.974 1.574l6.017 8.629a2 2 0 0 0-.716 1.008l-8.239-1.94a1.7 1.7 0 0 0 .09-.521c0-.558-.272-1.054-.683-1.375l3.11-5.744c.017 0 .032.01.048.01.13 0 .254-.026.373-.062zm46.72.035c.083.016.167.027.254.027h.014l2.145 5.89a1.65 1.65 0 0 0-.684 1.329 1.58 1.58 0 0 0 .092.511l-7.979 2.23a2.013 2.013 0 0 0-.699-.905l6.857-9.08zm-32.402 1.123l1.395.803a3.826 3.826 0 0 0 1.08 2.605c-.187.396-.19.873.043 1.276.257.446.735.597 1.22.588.001.23-.034.466.088.677.34.59 1.06.766 1.678.53.024.165-.025.334.063.486a1.383 1.383 0 0 0 1.878.502l.436-.252v2.951c-.4.144-.725.451-.887.844l-12.12-1.865c0-.024.007-.046.007-.07 0-.644-.314-1.216-.791-1.582l5.22-6.506a.5.5 0 0 0 .243-.211l.447-.776zm14.797 2.533l7.836 6.094c-.098.18-.176.373-.215.58l-12.648 1.807a1.514 1.514 0 0 0-.889-.848v-2.875l.303.176c.652.376 1.502.15 1.879-.502.087-.152.038-.321.062-.486.618.237 1.337.06 1.678-.53.122-.211.087-.447.088-.677.486.01.963-.142 1.22-.588.228-.395.163-.82-.027-1.202.29-.282.53-.6.713-.949zm-11.426 1.578l.424.245a.355.355 0 0 1-.41-.172c-.014-.024-.005-.048-.014-.072zm1.448.838l.078.045a.5.5 0 0 0 .004 0l.666.385-.362.209a.365.365 0 0 1-.513-.137.36.36 0 0 1 .127-.502zm-23.735.319a.74.74 0 1 1 0 1.5.74.74 0 1 1 0-1.5zm54.693.207a.64.64 0 0 1 .647.646.639.639 0 1 1-1.293 0 .64.64 0 0 1 .646-.646zm-29.21.482l.748.432-.37.213a.363.363 0 0 1-.511-.137.362.362 0 0 1 .133-.508zm-13.686 2.117a.99.99 0 1 1 0 2 .99.99 0 1 1 0-2zm31.5.5a.99.99 0 1 1 0 2 .99.99 0 1 1 0-2zm-16 2.5a.49.49 0 1 1 0 1 .493.493 0 0 1-.5-.5.49.49 0 0 1 .5-.5z"/></g></svg>