<svg xmlns="http://www.w3.org/2000/svg" width="2730.66" height="2730.66" fill-rule="evenodd" image-rendering="optimizeQuality" shape-rendering="geometricPrecision" viewBox="0 0 28444 28444" xmlns:v="https://vecta.io/nano"><style><![CDATA[.B{fill:#fff}.C{fill:#009b3a}]]></style><defs><clipPath ><path d="M17526 14222c0-1824-1480-3304-3304-3304s-3304 1480-3304 3304 1480 3304 3304 3304 3304-1480 3304-3304z"/></clipPath><clipPath id="B"><path d="M17526 14222c0-1824-1480-3304-3304-3304s-3304 1480-3304 3304 1480 3304 3304 3304 3304-1480 3304-3304z"/></clipPath></defs><path d="M3806 21167h20833V7278H3806z" class="C"/><path fill="#fedf00" d="m6387 14222 7835 5003 7835-5003-7835-5003z"/><path fill="#002776" d="M17526 14222c0-1825-1479-3304-3304-3304s-3304 1479-3304 3304 1479 3304 3304 3304 3304-1479 3304-3304z"/><g clip-path="url(#B)" class="B"><path d="M4311 20830c0-4431 3593-8024 8024-8024s8024 3593 8024 8024h-472c0-4170-3382-7552-7552-7552s-7552 3382-7552 7552h-472z"/></g><path d="M12334 13200c78-10 132-87 121-173s-82-148-160-139c-78 10-132 87-121 173s82 148 160 139m-7-58c46-6 77-54 70-108s-49-94-95-88-77 54-70 108 49 94 95 88m0 0z" class="C"/><path d="M12460 13191c-3-45-10-143-77-139l-85 6c99-7 106 92 109 137m54-4z"/><g class="C"><path d="m12193 13202 148-3c74-1 134-63 132-137l-1-45c-1-74-63-134-137-132l-148 3 5 315zm57-59 85-1c47-1 85-40 84-87v-27c-1-47-40-85-87-84l-85 1 3 198z"/><path d="m12193 13195 283 10 2-59-229-8 3-81 179 7 2-54-180-7 3-63 215 8 2-58-269-10z"/><path d="m12193 13187 54 5 19-215 44 220 49 5 81-210-18 215 53 5 28-314-79-6-81 209-44-220-78-7z"/><path d="m12218 13180 233 40 9-54-180-30 12-71 147 25 9-53-146-25 8-49 174 30 9-53-227-39z"/><path d="m12197 13164 57 15 29-113 122 32c53 14 107-18 121-71s-18-107-71-121l-174-45-83 304zm100-155 118 30c22 6 44-7 49-29 6-22-7-44-29-49l-118-30-20 78z"/></g><path d="M12454 13237c14-43 43-137-21-157l-81-26c94 30 65 124 51 167m51 16z"/><path d="M12334 13200c73 27 157-16 188-98 30-81-4-170-78-197-73-27-157 16-188 98-30 81 4 170 78 197m20-55c43 16 93-12 113-63 19-51 0-106-43-122s-93 12-113 64c-19 51 0 106 43 122m0 0z" class="C"/><path d="m12400 13105 109 48 18-41-109-48z"/><path d="m12423 13238 41 18 63-144-41-18z"/><path d="M12447 13256c20-40 64-129 4-159l-76-38c89 44 44 133 24 173m48 24z"/><g class="C"><path d="m12211 13130 247 139 28-51-199-112 40-71 156 89 27-47-157-89 31-55 188 107 29-51-235-133z"/><path d="M12328 13078c-17 27 0 56 38 80s64 23 75 6c34-54-165-133-103-227 53-81 143-18 177 4s89 78 46 143l-58-37c18-28-2-56-32-75-29-19-53-27-71 0-29 44 166 127 106 221-44 69-121 39-172 6-44-28-109-93-66-159l60 38z"/><path d="M12334 13078c-18 26-3 56 34 82s62 27 74 10c37-52-157-141-91-232 57-78 144-10 177 13s85 83 39 145l-56-40c20-27 1-56-28-77-28-20-52-30-71-3-32 42 159 135 94 226-48 67-123 33-172-3-42-30-104-99-58-163l58 41z"/><path d="M12334 13200c61 49 155 33 209-35s48-163-13-211c-61-49-155-33-209 35s-48 163 13 211m36-46c36 29 93 17 127-26s32-101-4-129c-36-29-93-17-127 26s-32 101 4 129m0 0z"/></g><path d="m11525 13487-44 135 67 22m-24-157z"/><g class="B"><path d="m11525 13487 44 135-67 22m24-157z"/><path d="M11660 13585h-142v71m142-71z"/><path d="m11660 13585-115 83-42-57m156-26z"/><path d="m11391 13585 115 83 42-57m-156-26z"/><path d="M11391 13585h142v71m-142-71z"/><path d="m11608 13743-44-135-67 22m111 113z"/><path d="m11608 13743-115-83 42-57m73 141z"/><path d="m11442 13743 115-83-42-57m-73 141z"/><path d="m11442 13743 44-135 67 22m-111 113z"/></g><path d="m11817 14876-44 135 67 22m-24-157z"/><g class="B"><path d="m11817 14876 44 135-67 22m24-157z"/><path d="M11952 14974h-142v71m142-71z"/><path d="m11952 14974-115 83-42-57m156-26z"/><path d="m11683 14974 115 83 42-57m-156-26z"/><path d="M11683 14974h142v71m-142-71z"/><path d="m11901 15132-44-135-67 22m111 113z"/><path d="m11901 15132-115-83 42-57m73 141z"/><path d="m11734 15132 115-83-42-57m-73 141z"/><path d="m11734 15132 44-135 67 22m-111 113z"/></g><path d="m11413 15197-36 112 56 18m-20-130z"/><g class="B"><path d="m11413 15197 36 112-56 18m20-130z"/><path d="M11525 15278h-118v59m118-59z"/><path d="m11525 15278-95 69-35-48m130-22z"/><path d="m11301 15278 95 69 35-48m-130-22z"/><path d="M11301 15278h118v59m-118-59z"/><path d="m11482 15410-36-112-56 18m93 94z"/><path d="m11482 15410-95-69 35-48m61 117z"/><path d="m11343 15410 95-69-35-48m-61 117z"/><path d="m11343 15410 36-112 56 18m-93 94z"/></g><path d="m12141 14748-21 64 32 10m-11-75z"/><g class="B"><path d="m12141 14748 21 64-32 10m11-75z"/><path d="M12205 14795h-67v34m67-34z"/><path d="m12205 14795-55 40-20-27m74-12z"/><path d="m12077 14795 55 40 20-27m-74-12z"/><path d="M12077 14795h67v34m-67-34z"/><path d="m12181 14870-21-64-32 10m53 54z"/><path d="m12181 14870-55-40 20-27m35 67z"/><path d="m12101 14870 55-40-20-27m-35 67z"/><path d="m12101 14870 21-64 32 10m-53 54z"/></g><path d="m12505 15228-36 112 56 18m-20-130z"/><g class="B"><path d="m12505 15228 36 112-56 18m20-130z"/><path d="M12617 15310h-118v59m118-59z"/><path d="m12617 15310-95 69-35-48m130-22z"/><path d="m12393 15310 95 69 35-48m-130-22z"/><path d="M12393 15310h118v59m-118-59z"/><path d="m12574 15441-36-112-56 18m93 94z"/><path d="m12574 15441-95-69 35-48m61 117z"/><path d="m12436 15441 95-69-35-48m-61 117z"/><path d="m12436 15441 36-112 56 18m-93 94z"/></g><path d="m12406 15580-29 90 45 15m-16-104z"/><g class="B"><path d="m12406 15580 29 90-45 15m16-104z"/><path d="M12496 15645h-94v47m94-47z"/><path d="m12496 15645-76 55-28-38m104-17z"/><path d="m12316 15645 76 55 28-38m-104-17z"/><path d="M12316 15645h94v47m-94-47z"/><path d="m12462 15750-29-90-45 15m74 75z"/><path d="m12462 15750-76-55 28-38m49 94z"/><path d="m12351 15750 76-55-28-38m-49 94z"/><path d="m12351 15750 29-90 45 15m-74 75z"/></g><path d="m15247 13056-44 135 67 22m-24-157z"/><g class="B"><path d="m15247 13056 44 135-67 22m24-157z"/><path d="M15382 13154h-142v71m142-71z"/><path d="m15382 13154-115 83-42-57m156-26z"/><path d="m15112 13154 115 83 42-57m-156-26z"/><path d="M15112 13154h142v71m-142-71z"/><path d="m15330 13312-44-135-67 22m111 113z"/><path d="m15330 13312-115-83 42-57m73 141z"/><path d="m15164 13312 115-83-42-57m-73 141z"/><path d="m15164 13312 44-135 67 22m-111 113z"/></g><path d="m16537 15240-44 135 67 22m-24-157z"/><g class="B"><path d="m16537 15240 44 135-67 22m24-157z"/><path d="M16672 15338h-142v71m142-71z"/><path d="m16672 15338-115 83-42-57m156-26z"/><path d="m16403 15338 115 83 42-57m-156-26z"/><path d="M16403 15338h142v71m-142-71z"/><path d="m16620 15496-44-135-67 22m111 113z"/><path d="m16620 15496-115-83 42-57m73 141z"/><path d="m16454 15496 115-83-42-57m-73 141z"/><path d="m16454 15496 44-135 67 22m-111 113z"/></g><path d="m16996 15319-29 90 45 15m-16-104z"/><g class="B"><path d="m16996 15319 29 90-45 15m16-104z"/><path d="M17085 15384h-94v47m94-47z"/><path d="m17085 15384-76 55-28-38m104-17z"/><path d="m16906 15384 76 55 28-38m-104-17z"/><path d="M16906 15384h94v47m-94-47z"/><path d="m17051 15490-29-90-45 15m74 75z"/><path d="m17051 15490-76-55 28-38m49 94z"/><path d="m16940 15490 76-55-28-38m-49 94z"/><path d="m16940 15490 29-90 45 15m-74 75z"/></g><path d="m16672 15556-36 112 56 18m-20-130z"/><g class="B"><path d="m16672 15556 36 112-56 18m20-130z"/><path d="M16784 15638h-118v59m118-59z"/><path d="m16784 15638-95 69-35-48m130-22z"/><path d="m16560 15638 95 69 35-48m-130-22z"/><path d="M16560 15638h118v59m-118-59z"/><path d="m16741 15770-36-112-56 18m93 94z"/><path d="m16741 15770-95-69 35-48m61 117z"/><path d="m16603 15770 95-69-35-48m-61 117z"/><path d="m16603 15770 36-112 56 18m-93 94z"/></g><path d="m15876 16248-36 112 56 18m-20-130z"/><g class="B"><path d="m15876 16248 36 112-56 18m20-130z"/><path d="M15989 16330h-118v59m118-59z"/><path d="m15989 16330-95 69-35-48m130-22z"/><path d="m15764 16330 95 69 35-48m-130-22z"/><path d="M15764 16330h118v59m-118-59z"/><path d="m15946 16462-36-112-56 18m93 94z"/><path d="m15946 16462-95-69 35-48m61 117z"/><path d="m15807 16462 95-69-35-48m-61 117z"/><path d="m15807 16462 36-112 56 18m-93 94z"/></g><path d="m15872 16605-29 90 45 15m-16-104z"/><g class="B"><path d="m15872 16605 29 90-45 15m16-104z"/><path d="M15962 16670h-94v47m94-47z"/><path d="m15962 16670-76 55-28-38m104-17z"/><path d="m15782 16670 76 55 28-38m-104-17z"/><path d="M15782 16670h94v47m-94-47z"/><path d="m15927 16775-29-90-45 15m74 75z"/><path d="m15927 16775-76-55 28-38m49 94z"/><path d="m15816 16775 76-55-28-38m-49 94z"/><path d="m15816 16775 29-90 45 15m-74 75z"/></g><path d="m16205 16011-29 90 45 15m-16-104z"/><g class="B"><path d="m16205 16011 29 90-45 15m16-104z"/><path d="M16294 16076h-94v47m94-47z"/><path d="m16294 16076-76 55-28-38m104-17z"/><path d="m16115 16076 76 55 28-38m-104-17z"/><path d="M16115 16076h94v47m-94-47z"/><path d="m16260 16182-29-90-45 15m74 75z"/><path d="m16260 16182-76-55 28-38m49 94z"/><path d="m16149 16182 76-55-28-38m-49 94z"/><path d="m16149 16182 29-90 45 15m-74 75z"/></g><path d="m16470 15821-36 112 56 18m-20-130z"/><g class="B"><path d="m16470 15821 36 112-56 18m20-130z"/><path d="M16582 15903h-118v59m118-59z"/><path d="m16582 15903-95 69-35-48m130-22z"/><path d="m16358 15903 95 69 35-48m-130-22z"/><path d="M16358 15903h118v59m-118-59z"/><path d="m16539 16035-36-112-56 18m93 94z"/><path d="m16539 16035-95-69 35-48m61 117z"/><path d="m16400 16035 95-69-35-48m-61 117z"/><path d="m16400 16035 36-112 56 18m-93 94z"/></g><path d="m15863 15948-29 90 45 15m-16-104z"/><g class="B"><path d="m15863 15948 29 90-45 15m16-104z"/><path d="M15953 16014h-94v47m94-47z"/><path d="m15953 16014-76 55-28-38m104-17z"/><path d="m15773 16014 76 55 28-38m-104-17z"/><path d="M15773 16014h94v47m-94-47z"/><path d="m15918 16119-29-90-45 15m74 75z"/><path d="m15918 16119-76-55 28-38m49 94z"/><path d="m15807 16119 76-55-28-38m-49 94z"/><path d="m15807 16119 29-90 45 15m-74 75z"/></g><path d="m12964 14239-36 112 56 18m-20-130z"/><g class="B"><path d="m12964 14239 36 112-56 18m20-130z"/><path d="M13076 14321h-118v59m118-59z"/><path d="m13076 14321-95 69-35-48m130-22z"/><path d="m12851 14321 95 69 35-48m-130-22z"/><path d="M12851 14321h118v59m-118-59z"/><path d="m13033 14453-36-112-56 18m93 94z"/><path d="m13033 14453-95-69 35-48m61 117z"/><path d="m12894 14453 95-69-35-48m-61 117z"/><path d="m12894 14453 36-112 56 18m-93 94z"/></g><path d="m15121 13962-29 90 45 15m-16-104z"/><g class="B"><path d="m15121 13962 29 90-45 15m16-104z"/><path d="M15211 14027h-94v47m94-47z"/><path d="m15211 14027-76 55-28-38m104-17z"/><path d="m15031 14027 76 55 28-38m-104-17z"/><path d="M15031 14027h94v47m-94-47z"/><path d="m15177 14132-29-90-45 15m74 75z"/><path d="m15177 14132-76-55 28-38m49 94z"/><path d="m15066 14132 76-55-28-38m-49 94z"/><path d="m15066 14132 29-90 45 15m-74 75z"/></g><path d="m14222 15564-44 135 67 22m-24-157z"/><g class="B"><path d="m14222 15564 44 135-67 22m24-157z"/><path d="M14357 15662h-142v71m142-71z"/><path d="m14357 15662-115 83-42-57m156-26z"/><path d="m14088 15662 115 83 42-57m-156-26z"/><path d="M14088 15662h142v71m-142-71z"/><path d="m14305 15820-44-135-67 22m111 113z"/><path d="m14305 15820-115-83 42-57m73 140z"/><path d="m14139 15820 115-83-42-57m-73 140z"/><path d="m14139 15820 44-135 67 22m-111 113z"/></g><path d="m14604 14931-36 112 56 18m-20-130z"/><g class="B"><path d="m14604 14931 36 112-56 18m20-130z"/><path d="M14717 15013h-118v59m118-59z"/><path d="m14717 15013-95 69-35-48m130-22z"/><path d="m14492 15013 95 69 35-48m-130-22z"/><path d="M14492 15013h118v59m-118-59z"/><path d="m14674 15145-36-112-56 18m93 94z"/><path d="m14674 15145-95-69 35-48m61 117z"/><path d="m14535 15145 95-69-35-48m-61 117z"/><path d="m14535 15145 36-112 56 18m-93 94z"/></g><path d="m14222 14635-36 112 56 18m-20-130z"/><g class="B"><path d="m14222 14635 36 112-56 18m20-130z"/><path d="M14334 14716h-118v59m118-59z"/><path d="m14334 14716-95 69-35-48m130-22z"/><path d="m14110 14716 95 69 35-48m-130-22z"/><path d="M14110 14716h118v59m-118-59z"/><path d="m14292 14848-36-112-56 18m93 94z"/><path d="m14292 14848-95-69 35-48m61 117z"/><path d="m14153 14848 95-69-35-48m-61 117z"/><path d="m14153 14848 36-112 56 18m-93 94z"/></g><path d="m13890 14955-29 90 45 15m-16-104z"/><g class="B"><path d="m13890 14955 29 90-45 15m16-104z"/><path d="M13979 15020h-94v47m94-47z"/><path d="m13979 15020-76 55-28-38m104-17z"/><path d="m13800 15020 76 55 28-38m-104-17z"/><path d="M13800 15020h94v47m-94-47z"/><path d="m13945 15126-29-90-45 15m74 75z"/><path d="m13945 15126-76-55 28-38m49 94z"/><path d="m13834 15126 76-55-28-38m-49 94z"/><path d="m13834 15126 29-90 45 15m-74 75z"/></g><path d="m14056 15211-21 64 32 10m-11-75z"/><g class="B"><path d="m14056 15211 21 64-32 10m11-75z"/><path d="M14120 15258h-67v34m67-34z"/><path d="m14120 15258-55 40-20-27m74-12z"/><path d="m13992 15258 55 40 20-27m-74-12z"/><path d="M13992 15258h67v34m-67-34z"/><path d="m14096 15333-21-64-32 10m53 54z"/><path d="m14096 15333-55-40 20-27m35 67z"/><path d="m14016 15333 55-40-20-27m-35 67z"/><path d="m14016 15333 21-64 32 10m-53 54z"/></g><path d="m15211 16329-36 112 56 18m-20-130z"/><g class="B"><path d="m15211 16329 36 112-56 18m20-130z"/><path d="M15323 16411h-118v59m118-59z"/><path d="m15323 16411-95 69-35-48m130-22z"/><path d="m15099 16411 95 69 35-48m-130-22z"/><path d="M15099 16411h118v59m-118-59z"/><path d="m15281 16543-36-112-56 18m93 94z"/><path d="m15281 16543-95-69 35-48m61 117z"/><path d="m15142 16543 95-69-35-48m-61 117z"/><path d="m15142 16543 36-112 56 18m-93 94z"/></g><path d="m15494 16061-29 90 45 15m-16-104z"/><g class="B"><path d="m15494 16061 29 90-45 15m16-104z"/><path d="M15584 16126h-94v47m94-47z"/><path d="m15584 16126-76 55-28-38m104-17z"/><path d="m15405 16126 76 55 28-38m-104-17z"/><path d="M15405 16126h94v47m-94-47z"/><path d="m15550 16231-29-90-45 15m74 75z"/><path d="m15550 16231-76-55 28-38m49 94z"/><path d="m15439 16231 76-55-28-38m-49 94z"/><path d="m15439 16231 29-90 45 15m-74 75z"/></g><path d="m14950 15980-29 90 45 15m-16-104z"/><g class="B"><path d="m14950 15980 29 90-45 15m16-104z"/><path d="M15040 16045h-94v47m94-47z"/><path d="m15040 16045-76 55-28-38m104-17z"/><path d="m14861 16045 76 55 28-38m-104-17z"/><path d="M14861 16045h94v47m-94-47z"/><path d="m15006 16151-29-90-45 15m74 75z"/><path d="m15006 16151-76-55 28-38m49 94z"/><path d="m14895 16151 76-55-28-38m-49 94z"/><path d="m14895 16151 29-90 45 15m-74 75z"/></g><path d="m12896 15834-44 135 67 22m-24-157z"/><g class="B"><path d="m12896 15834 44 135-67 22m24-157z"/><path d="M13031 15932h-142v71m142-71z"/><path d="m13031 15932-115 83-42-57m156-26z"/><path d="m12762 15932 115 83 42-57m-156-26z"/><path d="M12762 15932h142v71m-142-71z"/><path d="m12979 16090-44-135-67 22m111 113z"/><path d="m12979 16090-115-83 42-57m73 141z"/><path d="m12813 16090 115-83-42-57m-73 141z"/><path d="m12813 16090 44-135 67 22m-111 113z"/></g><path d="m14222 16760-15 45 22 7m-8-52z"/><g class="B"><path d="m14222 16760 15 45-22 7m8-52z"/><path d="M14267 16792h-47v24m47-24z"/><path d="m14267 16792-38 28-14-19m52-9z"/><path d="m14177 16792 38 28 14-19m-52-9z"/><path d="M14177 16792h47v24m-47-24z"/><path d="m14250 16845-15-45-22 7m37 38z"/><path d="m14250 16845-38-28 14-19m24 47z"/><path d="m14194 16845 38-28-14-19m-24 47z"/><path d="m14194 16845 15-45 22 7m-37 38z"/></g></svg>